<svg width="160" height="120" viewBox="0 0 160 120" fill="none" xmlns="http://www.w3.org/2000/svg">
<circle cx="80" cy="60" r="48" fill="#DEF1FF"/>
<g clip-path="url(#clip0_6005_1542)">
<path d="M60.6989 112.159C66.8065 114.698 73.3699 116.004 80 116C86.6302 116.005 93.1938 114.699 99.3015 112.159C105.409 109.62 115.381 101.454 120 96.7722C117.352 93.0572 109.534 85.4549 105.631 83.0389C98.4466 78.5 89.3432 76 80 76C70.6568 76 61.5534 78.5 54.3605 83.0389C50.4611 85.456 42.6457 93.0582 40 96.7722C44.6194 101.454 54.5912 109.619 60.6989 112.159Z" fill="#0067B1"/>
<path d="M79.9997 30C74.1998 30 68.9559 32.0528 65.2295 35.7833C61.4708 39.5528 59.6296 44.675 60.062 50.2083C60.9149 61.1111 69.8735 70 79.9997 70C90.1259 70 99.0668 61.1111 99.9374 50.2111C100.373 44.7222 98.5286 39.6167 94.7375 35.8167C90.9964 32.0667 85.7995 30 79.9997 30Z" fill="url(#paint0_linear_6005_1542)"/>
</g>
<path d="M112 45C123.597 45 133 35.598 133 24C133 12.402 123.597 3 112 3C100.402 3 90.9995 12.402 90.9995 24C90.9995 35.598 100.402 45 112 45Z" fill="#EF3E42"/>
<path d="M112 14.25V26.25" stroke="white" stroke-width="3" stroke-linecap="round" stroke-linejoin="round"/>
<path fill-rule="evenodd" clip-rule="evenodd" d="M112 30.75C112.994 30.75 113.8 31.5559 113.8 32.55C113.8 33.5441 112.994 34.35 112 34.35C111.006 34.35 110.2 33.5441 110.2 32.55C110.2 31.5559 111.006 30.75 112 30.75Z" fill="white"/>
<defs>
<linearGradient id="paint0_linear_6005_1542" x1="74.8551" y1="31.388" x2="74.8551" y2="67.9084" gradientUnits="userSpaceOnUse">
<stop stop-color="#99D4FF"/>
<stop offset="1" stop-color="#5CB5F9"/>
</linearGradient>
<clipPath id="clip0_6005_1542">
<path d="M32 0H128V60C128 86.5097 106.51 108 80 108C53.4903 108 32 86.5097 32 60V0Z" fill="white"/>
</clipPath>
</defs>
</svg>
