<svg width="160" height="120" viewBox="0 0 160 120" fill="none" xmlns="http://www.w3.org/2000/svg">
<path d="M80 108C106.51 108 128 86.5097 128 60C128 33.4903 106.51 12 80 12C53.4903 12 32 33.4903 32 60C32 86.5097 53.4903 108 80 108Z" fill="#DEF1FF"/>
<path fill-rule="evenodd" clip-rule="evenodd" d="M52.4377 88.458C50.5572 86.9241 48.8798 85.1394 47.4578 83.17L58.5576 75.1484C59.2887 76.1537 60.1354 77.0625 61.1021 77.842L52.4377 88.458Z" fill="#0067B1"/>
<path d="M42.2006 66.051C42.1654 67.2758 42.2078 68.4934 42.3282 69.6833L42.3364 69.6793L55.9613 68.3087C55.9033 67.7076 55.8741 67.0824 55.8939 66.4536C55.9138 65.8249 55.9785 65.2049 56.0716 64.6016L42.5467 62.4325C42.3486 63.6145 42.2359 64.8262 42.2006 66.051Z" fill="#0067B1"/>
<path d="M65.6031 94.3637C66.7851 94.5618 67.9967 94.6745 69.2215 94.7097L69.2175 94.7015C70.4423 94.7368 71.6599 94.6943 72.8499 94.574L71.4792 80.949C70.8781 81.0071 70.2529 81.0363 69.6242 81.0164C68.9954 80.9966 68.3754 80.9319 67.7721 80.8388L65.6031 94.3637Z" fill="#0067B1"/>
<path d="M82.2676 64C83.2322 63.505 84.1366 62.845 84.9404 62.0199C89.0199 57.8329 89.0199 51.0057 84.9404 46.8187L61.8703 23.1403C57.7908 18.9532 51.1391 18.9532 47.0596 23.1403C42.9801 27.3273 42.9801 34.1545 47.0596 38.3415L65.01 56.9566" stroke="url(#paint0_linear_11249_2322)" stroke-width="7" stroke-miterlimit="10" stroke-linecap="round"/>
<path d="M77.7752 56C76.79 56.4948 75.8652 57.1751 75.061 58.0204C70.9797 62.2055 70.9797 69.0294 75.061 73.2145L98.1215 96.8612C102.203 101.046 108.858 101.046 112.939 96.8612C117.02 92.6761 117.02 85.8522 112.939 81.6671L94.9799 63.0611" stroke="url(#paint1_linear_11249_2322)" stroke-width="7" stroke-miterlimit="10" stroke-linecap="round"/>
<path d="M112 45C123.597 45 133 35.598 133 24C133 12.402 123.597 3 112 3C100.402 3 90.9995 12.402 90.9995 24C90.9995 35.598 100.402 45 112 45Z" fill="#EF3E42"/>
<path d="M112 14.25V26.25" stroke="white" stroke-width="3" stroke-linecap="round" stroke-linejoin="round"/>
<path fill-rule="evenodd" clip-rule="evenodd" d="M112 30.75C112.994 30.75 113.8 31.5559 113.8 32.55C113.8 33.5441 112.994 34.35 112 34.35C111.006 34.35 110.2 33.5441 110.2 32.55C110.2 31.5559 111.006 30.75 112 30.75Z" fill="white"/>
<defs>
<linearGradient id="paint0_linear_11249_2322" x1="52.1559" y1="58.0926" x2="78.4904" y2="23.9494" gradientUnits="userSpaceOnUse">
<stop stop-color="#0067B1"/>
<stop offset="1" stop-color="#78C5FF"/>
</linearGradient>
<linearGradient id="paint1_linear_11249_2322" x1="80.1559" y1="94.0926" x2="106.49" y2="59.9494" gradientUnits="userSpaceOnUse">
<stop stop-color="#0067B1"/>
<stop offset="1" stop-color="#78C5FF"/>
</linearGradient>
</defs>
</svg>
