<svg width="48" height="48" viewBox="0 0 48 48" fill="none" xmlns="http://www.w3.org/2000/svg">
<path d="M10 33.9999C10.0048 34.5326 10.2201 35.0421 10.5988 35.4167C10.9776 35.7913 11.4892 36.001 12.022 36H14.0219C14.2834 35.9996 14.5422 35.9474 14.7835 35.8465C15.0247 35.7456 15.2436 35.5979 15.4275 35.412C15.6113 35.2261 15.7566 35.0056 15.8548 34.7633C15.9531 34.521 16.0024 34.2616 15.9999 34.0001V33.4419C16.0023 33.023 15.8724 32.614 15.6287 32.2732C15.3851 31.9324 15.0401 31.6771 14.643 31.5438L11.3727 30.4556C10.9739 30.3231 10.6268 30.0686 10.3805 29.7281C10.1342 29.3876 10.0011 28.9783 10 28.5581V27.9999C10.0048 27.4672 10.2201 26.9579 10.5988 26.5833C10.9776 26.2087 11.4892 25.999 12.022 26H14.0219C14.2834 26.0004 14.5422 26.0526 14.7835 26.1535C15.0247 26.2544 15.2436 26.4021 15.4275 26.588C15.6113 26.7739 15.7566 26.9944 15.8548 27.2367C15.9531 27.479 16.0024 27.7384 15.9999 27.9999M13 26V24M13 36V38" stroke="#5BC2E7" stroke-width="1.5" stroke-miterlimit="10" stroke-linecap="round" stroke-linejoin="round"/>
<rect x="3" y="14" width="20" height="31" rx="1.5" stroke="#0067B1" stroke-width="1.5" stroke-miterlimit="10" stroke-linecap="round" stroke-linejoin="round"/>
<path d="M15 17H11" stroke="#0067B1" stroke-width="1.5" stroke-miterlimit="10" stroke-linecap="round" stroke-linejoin="round"/>
<path d="M26 37H43.5C44.3284 37 45 36.3284 45 35.5V4.5C45 3.67157 44.3284 3 43.5 3H10.5C9.67157 3 9 3.67157 9 4.5V11" stroke="#0067B1" stroke-width="1.5" stroke-miterlimit="10" stroke-linecap="round" stroke-linejoin="round"/>
<path d="M44.9997 9H9" stroke="#0067B1" stroke-width="1.5" stroke-miterlimit="10" stroke-linecap="round" stroke-linejoin="round"/>
<path d="M18 6H16" stroke="#0067B1" stroke-width="1.5" stroke-miterlimit="10" stroke-linecap="round" stroke-linejoin="round"/>
<path d="M14 6H12" stroke="#0067B1" stroke-width="1.5" stroke-miterlimit="10" stroke-linecap="round" stroke-linejoin="round"/>
<path d="M31 25.9999C31.0048 26.5326 31.2201 27.0421 31.5988 27.4167C31.9776 27.7913 32.4892 28.001 33.022 28H35.0219C35.2834 27.9996 35.5422 27.9474 35.7835 27.8465C36.0247 27.7456 36.2436 27.5979 36.4275 27.412C36.6113 27.2261 36.7566 27.0056 36.8548 26.7633C36.9531 26.521 37.0024 26.2616 36.9999 26.0001V25.4419C37.0023 25.023 36.8724 24.614 36.6287 24.2732C36.3851 23.9324 36.0401 23.6771 35.643 23.5438L32.3727 22.4556C31.9739 22.3231 31.6268 22.0686 31.3805 21.7281C31.1342 21.3876 31.0011 20.9783 31 20.5581V19.9999C31.0048 19.4672 31.2201 18.9579 31.5988 18.5833C31.9776 18.2087 32.4892 17.999 33.022 18H35.0219C35.2834 18.0004 35.5422 18.0526 35.7835 18.1535C36.0247 18.2544 36.2436 18.4021 36.4275 18.588C36.6113 18.7739 36.7566 18.9944 36.8548 19.2367C36.9531 19.479 37.0024 19.7384 36.9999 19.9999M34 18V16M34 28V30" stroke="#5BC2E7" stroke-width="1.5" stroke-miterlimit="10" stroke-linecap="round" stroke-linejoin="round"/>
</svg>
