<svg width="48" height="48" viewBox="0 0 48 48" fill="none" xmlns="http://www.w3.org/2000/svg">
<path d="M37 40.9999C37.0048 41.5326 37.2201 42.0421 37.5988 42.4167C37.9776 42.7913 38.4892 43.001 39.022 43H41.0219C41.2834 42.9996 41.5422 42.9474 41.7835 42.8465C42.0247 42.7456 42.2436 42.5979 42.4275 42.412C42.6113 42.2261 42.7566 42.0056 42.8548 41.7633C42.9531 41.521 43.0024 41.2616 42.9999 41.0001V40.4419C43.0023 40.023 42.8724 39.614 42.6287 39.2732C42.3851 38.9324 42.0401 38.6771 41.643 38.5438L38.3727 37.4556C37.9739 37.3231 37.6268 37.0686 37.3805 36.7281C37.1342 36.3876 37.0011 35.9783 37 35.5581V34.9999C37.0048 34.4672 37.2201 33.9579 37.5988 33.5833C37.9776 33.2087 38.4892 32.999 39.022 33H41.0219C41.2834 33.0004 41.5422 33.0526 41.7835 33.1535C42.0247 33.2544 42.2436 33.4021 42.4275 33.588C42.6113 33.7739 42.7566 33.9944 42.8548 34.2367C42.9531 34.479 43.0024 34.7384 42.9999 34.9999M40 33V31M40 43V45" stroke="#5BC2E7" stroke-width="1.5" stroke-miterlimit="10" stroke-linecap="round" stroke-linejoin="round"/>
<path d="M31.5 45V26.5C31.5 25.6716 32.1716 25 33 25H38.5C39.3284 25 40 25.6716 40 26.5V27.7273" stroke="#0067B1" stroke-width="1.5" stroke-miterlimit="10" stroke-linecap="round" stroke-linejoin="round"/>
<path d="M23 45V20.5C23 19.6716 23.6716 19 24.5 19H30C30.8284 19 31.5 19.6716 31.5 20.5V45" stroke="#0067B1" stroke-width="1.5" stroke-miterlimit="10" stroke-linecap="round" stroke-linejoin="round"/>
<path d="M14.5 45V28.5C14.5 27.6716 15.1716 27 16 27H23" stroke="#0067B1" stroke-width="1.5" stroke-miterlimit="10" stroke-linecap="round" stroke-linejoin="round"/>
<path d="M6 45V38.5C6 37.6716 6.67157 37 7.5 37H14.5" stroke="#0067B1" stroke-width="1.5" stroke-miterlimit="10" stroke-linecap="round" stroke-linejoin="round"/>
<path d="M6 27L25.3414 8.64471C25.9308 8.08538 26.8584 8.09703 27.4335 8.67099L29.9569 11.1892C30.5497 11.7807 31.5121 11.7723 32.0945 11.1704L40 3" stroke="#5BC2E7" stroke-width="1.5" stroke-miterlimit="10" stroke-linecap="round" stroke-linejoin="round"/>
<path d="M34 3H40V9" stroke="#5BC2E7" stroke-width="1.5" stroke-miterlimit="10" stroke-linecap="round" stroke-linejoin="round"/>
</svg>
