<svg width="48" height="48" viewBox="0 0 48 48" fill="none" xmlns="http://www.w3.org/2000/svg">
<ellipse cx="24" cy="23.9999" rx="3.36" ry="3.36" fill="#5BC2E7"/>
<path d="M24 43.32C13.3471 43.32 4.68 34.6537 4.68 24C4.68 13.3463 13.3471 4.68 24 4.68C31.4001 4.68 38.1226 8.90123 41.3574 15.5048C41.5615 15.9213 42.055 16.1164 42.48 15.9306C42.9049 15.7447 43.1003 15.2486 42.8977 14.8314C39.3953 7.61643 32.0671 3 24 3C12.4206 3 3 12.4206 3 24C3 35.5794 12.4206 45 24 45C32.0671 45 39.3953 40.3836 42.8985 33.1686C43.1011 32.7514 42.9058 32.2552 42.4808 32.0694C42.0559 31.8836 41.5623 32.0787 41.3583 32.4952C38.1234 39.0988 31.4001 43.32 24 43.32Z" fill="#0067B1"/>
<path d="M24 9.72004C28.4954 9.72004 32.6924 11.8221 35.3885 15.3834C35.6686 15.7534 36.1886 15.8586 36.5742 15.6003C36.9596 15.3422 37.0646 14.8189 36.7868 14.4473C33.7764 10.4196 29.0568 8.04004 24 8.04004C15.1994 8.04004 8.04004 15.1994 8.04004 24C8.04004 32.8007 15.1994 39.96 24 39.96C29.0776 39.96 33.8089 37.5645 36.8175 33.5118C37.094 33.1392 36.9873 32.6161 36.6008 32.3593C36.2144 32.1025 35.6949 32.2094 35.4161 32.5802C32.7218 36.1642 28.5139 38.28 24 38.28C16.1259 38.28 9.72004 31.8742 9.72004 24C9.72004 16.1259 16.1259 9.72004 24 9.72004Z" fill="#5BC2E7"/>
<path fill-rule="evenodd" clip-rule="evenodd" d="M45.4352 21.8496L38.8949 18.3056C38.417 18.0452 37.8542 18.0578 37.3888 18.3359C36.9025 18.6265 36.6 19.1683 36.6 19.7504V23.16H28.1152C27.7246 21.2456 26.0286 19.8 24 19.8C21.6842 19.8 19.8 21.6841 19.8 24C19.8 26.3159 21.6842 28.2 24 28.2C26.0278 28.2 27.7246 26.7544 28.1152 24.84H36.6V28.2496C36.6 28.8317 36.9025 29.3743 37.388 29.6641C37.6307 29.8078 37.8987 29.88 38.1683 29.88C38.417 29.88 38.6656 29.8187 38.8949 29.6935L45.4352 26.1496C46.2029 25.7338 46.68 24.9106 46.68 24C46.68 23.0894 46.2029 22.2662 45.4352 21.8496ZM24 26.52C22.6107 26.52 21.48 25.3893 21.48 24C21.48 22.6106 22.6107 21.48 24 21.48C25.3894 21.48 26.52 22.6106 26.52 24C26.52 25.3893 25.3894 26.52 24 26.52ZM38.2792 28.1161L44.6346 24.6738C44.974 24.4898 45 24.1118 45 24.0001C45 23.8884 44.974 23.5104 44.6346 23.3264L38.2372 19.8606L38.2792 28.1161Z" fill="#0067B1"/>
</svg>
