<svg width="48" height="48" viewBox="0 0 48 48" fill="none" xmlns="http://www.w3.org/2000/svg">
<path d="M22 17.4999C22.0048 18.0326 22.2201 18.5421 22.5988 18.9167C22.9776 19.2913 23.4892 19.501 24.022 19.5H26.0219C26.2834 19.4996 26.5422 19.4474 26.7835 19.3465C27.0247 19.2456 27.2436 19.0979 27.4275 18.912C27.6113 18.7261 27.7566 18.5056 27.8548 18.2633C27.9531 18.021 28.0024 17.7616 27.9999 17.5001V16.9419C28.0023 16.523 27.8724 16.114 27.6287 15.7732C27.3851 15.4324 27.0401 15.1771 26.643 15.0438L23.3727 13.9556C22.9739 13.8231 22.6268 13.5686 22.3805 13.2281C22.1342 12.8876 22.0011 12.4783 22 12.0581V11.4999C22.0048 10.9672 22.2201 10.4579 22.5988 10.0833C22.9776 9.70867 23.4892 9.49899 24.022 9.5H26.0219C26.2834 9.50041 26.5422 9.55257 26.7835 9.65349C27.0247 9.75441 27.2436 9.90208 27.4275 10.088C27.6113 10.2739 27.7566 10.4944 27.8548 10.7367C27.9531 10.979 28.0024 11.2384 27.9999 11.4999M25 9.5V7.5M25 19.5V21.5" stroke="#5BC2E7" stroke-width="1.5" stroke-miterlimit="10" stroke-linecap="round" stroke-linejoin="round"/>
<path d="M21.0174 40.835C19.5243 42.3639 17.6003 43.4011 15.5021 43.8079C13.4039 44.2148 11.2315 43.9719 9.27502 43.1118C7.31853 42.2517 5.67108 40.8153 4.55268 38.9944C3.43429 37.1736 2.89818 35.0549 3.01596 32.9214C3.13375 30.7878 3.89981 28.741 5.21185 27.0542C6.52388 25.3675 8.31944 24.121 10.3587 23.4814C12.398 22.8418 14.5839 22.8395 16.6246 23.4747C18.6652 24.1099 20.4635 25.3525 21.7791 27.0364" stroke="#0067B1" stroke-width="1.5" stroke-miterlimit="10" stroke-linecap="round" stroke-linejoin="round"/>
<path d="M15.228 18.3474C14.4309 16.3189 14.2843 14.0927 14.8084 11.9771C15.3325 9.86162 16.5015 7.96159 18.1533 6.54037C19.805 5.11916 21.8578 4.24715 24.0271 4.0452C26.1964 3.84325 28.3747 4.32136 30.2603 5.41326C32.1458 6.50517 33.6451 8.1568 34.5505 10.1392C35.4558 12.1217 35.7223 14.3368 35.3131 16.4775C34.9038 18.6183 33.839 20.5787 32.2663 22.087C30.6937 23.5953 28.6909 24.5769 26.5357 24.8956" stroke="#0067B1" stroke-width="1.5" stroke-miterlimit="10" stroke-linecap="round" stroke-linejoin="round"/>
<path d="M36.8957 23.28C38.9699 23.766 40.8471 24.8711 42.2781 26.4488C43.7091 28.0264 44.6263 30.0019 44.9079 32.113C45.1894 34.224 44.822 36.3707 43.8544 38.2681C42.8869 40.1655 41.3649 41.7238 39.4906 42.736C37.6163 43.7482 35.4783 44.1666 33.3606 43.9355C31.2428 43.7044 29.2455 42.8347 27.6338 41.4421C26.0221 40.0494 24.8723 38.1995 24.3369 36.1381C23.8016 34.0767 23.9061 31.9013 24.6366 29.9007" stroke="#0067B1" stroke-width="1.5" stroke-miterlimit="10" stroke-linecap="round" stroke-linejoin="round"/>
<path d="M16.708 29.833C16.708 29.3468 16.509 28.8806 16.1548 28.5369C15.8006 28.1931 15.3201 28 14.8192 28H12.9299C12.4289 28 11.9485 28.1931 11.5943 28.5369C11.2401 28.8806 11.0411 29.3468 11.0411 29.833V30.7494C11.0411 33.4989 12.9299 33.4989 12.9299 35.3324C12.9299 37.1659 9.15234 39 9.15234 39C9.15234 39 12.2016 37.2138 13.8748 38.0835C15.0453 38.7407 15.8423 39.6492 17.6523 38.0835M9 33.8597H16" stroke="#5BC2E7" stroke-width="1.5" stroke-miterlimit="10" stroke-linecap="round" stroke-linejoin="round"/>
<path d="M30.5 35H38.5M30.5 32H38.5M34.5 39V32M34.5 32L30.5 28M34.5 32L38.5 28" stroke="#5BC2E7" stroke-width="1.5" stroke-miterlimit="10" stroke-linecap="round" stroke-linejoin="round"/>
</svg>
