<svg width="48" height="48" viewBox="0 0 48 48" fill="none" xmlns="http://www.w3.org/2000/svg">
<circle cx="29" cy="20" r="8" stroke="#0067B1" stroke-width="1.5"/>
<path d="M28.9811 12C28.7257 8.64378 25.9216 6 22.5 6C18.9101 6 16 8.91015 16 12.5C16 15.5736 18.1333 18.1489 21 18.8261" stroke="#0067B1" stroke-width="1.5"/>
<path d="M19 12.5475C19 10.5883 20.5693 9 22.5051 9" stroke="#0067B1" stroke-width="1.5" stroke-linecap="round"/>
<path d="M31.9999 12.584C33.7658 11.8124 34.9999 10.0503 34.9999 8C34.9999 5.23858 32.7614 3 29.9999 3C27.7289 3 25.8116 4.51406 25.2021 6.58783" stroke="#0067B1" stroke-width="1.5"/>
<path d="M27 22.1428C27.0034 22.5233 27.1572 22.8872 27.4277 23.1548C27.6983 23.4224 28.0637 23.5722 28.4443 23.5714H29.8728C30.0596 23.5711 30.2445 23.5339 30.4168 23.4618C30.5891 23.3897 30.7454 23.2842 30.8768 23.1514C31.0081 23.0186 31.1119 22.8612 31.182 22.6881C31.2522 22.515 31.2874 22.3297 31.2857 22.1429V21.7442C31.2873 21.445 31.1946 21.1529 31.0205 20.9094C30.8465 20.666 30.6001 20.4836 30.3164 20.3884L27.9805 19.6111C27.6956 19.5165 27.4477 19.3347 27.2718 19.0915C27.0958 18.8483 27.0008 18.5559 27 18.2558V17.8571C27.0034 17.4765 27.1572 17.1128 27.4277 16.8452C27.6983 16.5776 28.0637 16.4278 28.4443 16.4286H29.8728C30.0596 16.4289 30.2445 16.4661 30.4168 16.5382C30.5891 16.6103 30.7454 16.7158 30.8768 16.8486C31.0081 16.9814 31.1119 17.1388 31.182 17.3119C31.2522 17.485 31.2874 17.6703 31.2857 17.8571M29.1429 16.4286V15M29.1429 23.5714V25" stroke="#5BC2E7" stroke-width="1.5" stroke-miterlimit="10" stroke-linecap="round" stroke-linejoin="round"/>
<path d="M8 27.5V39" stroke="#0067B1" stroke-width="1.5" stroke-linecap="round"/>
<path d="M30.5 32.5L40.7242 30.0462C42.0429 29.7297 43.3997 30.3994 43.9505 31.6387V31.6387C44.544 32.9739 44.0161 34.5411 42.7359 35.2453L28.8148 42.9019C26.4363 44.21 23.5567 44.2228 21.1667 42.9359L13.3638 38.7344C12.4864 38.2619 11.4641 38.134 10.4973 38.3757L5.8638 39.534C4.91708 39.7707 4 39.0547 4 38.0788V29.2707C4 28.5374 4.53012 27.9116 5.2534 27.7911L13.243 26.4595C15.0281 26.162 16.8613 26.4785 18.4433 27.3574L23.7574 30.3097C24.5657 30.7587 25.4937 30.9451 26.4128 30.843L27.3043 30.744C28.6236 30.5974 29.8944 31.2887 30.488 32.476V32.476C31.0353 33.5706 30.5408 34.8997 29.4112 35.3703L27.6559 36.1017C26.2721 36.6783 24.7193 36.6997 23.3202 36.1616L19 34.5" stroke="#0067B1" stroke-width="1.5" stroke-linecap="round"/>
</svg>
