<svg width="48" height="48" viewBox="0 0 48 48" fill="none" xmlns="http://www.w3.org/2000/svg">
<path d="M34.4999 43.5V10.5C34.4999 9.67157 33.8283 9 32.9999 9H17.1212C16.7234 9 16.3418 9.15803 16.0605 9.43934L7.93922 17.5607C7.65791 17.842 7.49988 18.2235 7.49988 18.6213V43.5C7.49988 44.3284 8.17145 45 8.99988 45H32.9999C33.8283 45 34.4999 44.3284 34.4999 43.5Z" stroke="#0067B1" stroke-width="1.5" stroke-linecap="round" stroke-linejoin="round"/>
<path d="M25.5002 23.25H30.0002M12.0002 28.5H24.5002M12.0002 33.75H16.5002M21.4288 33.75H30.0002M12.0002 39H30.0002M21.0002 18H30.0002M12.0002 23.25H18.786" stroke="#5BC2E7" stroke-width="1.5" stroke-linecap="round" stroke-linejoin="round"/>
<path d="M37.5 39H39.0004C39.8288 39 40.5004 38.3284 40.5004 37.5V4.5C40.5004 3.67157 39.8288 3 39.0004 3H23.1216C22.7238 3 22.3423 3.15801 22.061 3.43928L19.5 6" stroke="#0067B1" stroke-width="1.5" stroke-linecap="round" stroke-linejoin="round"/>
<path d="M16.4999 9.5V16.5C16.4999 17.3284 15.8283 18 14.9999 18H8" stroke="#0067B1" stroke-width="1.5" stroke-linecap="round" stroke-linejoin="round"/>
</svg>
