<svg width="20" height="20" viewBox="0 0 20 20" fill="none" xmlns="http://www.w3.org/2000/svg">
<g clip-path="url(#clip0_207_2118)">
<path d="M1.92308 6.32202C1.55135 6.32202 1.25 6.62337 1.25 6.9951V8.68049C1.46052 8.60608 1.68707 8.56559 1.92308 8.56559H5.64875C6.60231 8.56559 7.32353 9.22454 7.64922 9.96722C7.88003 10.4935 8.16542 10.8382 8.51157 11.0588C8.86006 11.2809 9.33134 11.4163 10 11.4163C10.6687 11.4163 11.1399 11.2809 11.4884 11.0588C11.8346 10.8382 12.12 10.4935 12.3508 9.96722C12.6765 9.22454 13.3977 8.56559 14.3512 8.56559H18.0769C18.3129 8.56559 18.5395 8.60608 18.75 8.68049V6.9951C18.75 6.62337 18.4487 6.32202 18.0769 6.32202H1.92308Z" fill="#0067B1"/>
<path d="M2.5 2.73242C1.875 2.73242 1.25 3.3783 1.25 3.75003V5.09089C1.46052 5.01648 1.68707 4.97599 1.92308 4.97599H18.0769C18.3129 4.97599 18.5395 5.01648 18.75 5.09089V3.75003C18.75 3.12503 18.125 2.73242 17.5 2.73242H2.5Z" fill="#0067B1"/>
<path d="M18.75 10.5849C18.75 10.2132 18.4487 9.91187 18.0769 9.91187H14.3512C14.0674 9.91187 13.7549 10.1174 13.5836 10.508C13.273 11.2162 12.8343 11.7975 12.2119 12.1941C11.5919 12.5893 10.8503 12.7625 10 12.7625C9.1497 12.7625 8.40808 12.5893 7.78806 12.1941C7.1657 11.7975 6.72698 11.2162 6.4164 10.508C6.24514 10.1174 5.93257 9.91187 5.64875 9.91187H1.92308C1.55135 9.91187 1.25 10.2132 1.25 10.5849V15.6251C1.25 16.8751 1.875 17.2676 3.125 17.2676H16.875C18.125 17.2676 18.75 16.8751 18.75 15.6251L18.75 10.5849Z" fill="#0067B1"/>
</g>
<defs>
<clipPath id="clip0_207_2118">
<rect width="20" height="20" fill="white"/>
</clipPath>
</defs>
</svg>
