<svg width="20" height="20" viewBox="0 0 20 20" fill="none" xmlns="http://www.w3.org/2000/svg">
<g clip-path="url(#clip0_22146_588)">
<path d="M10.257 7.39585C9.72009 7.34283 9.17992 7.45705 8.71045 7.72288C8.24097 7.98872 7.86513 8.39317 7.6344 8.88085C7.40366 9.36854 7.3293 9.91563 7.4215 10.4472C7.5137 10.9788 7.76796 11.4689 8.14945 11.8504C8.53094 12.2319 9.02103 12.4861 9.55261 12.5783C10.0842 12.6705 10.6313 12.5962 11.1189 12.3654C11.6066 12.1347 12.0111 11.7589 12.2769 11.2894C12.5427 10.8199 12.657 10.2797 12.6039 9.74282C12.5435 9.14094 12.2768 8.57847 11.8491 8.15073C11.4213 7.723 10.8589 7.45631 10.257 7.39585ZM16.5578 10C16.5561 10.2844 16.5352 10.5684 16.4952 10.8501L18.3437 12.2999C18.4242 12.3667 18.4785 12.4598 18.4968 12.5627C18.5151 12.6656 18.4964 12.7717 18.4439 12.8622L16.6951 15.8879C16.642 15.9774 16.559 16.0453 16.4607 16.0797C16.3624 16.114 16.2552 16.1125 16.1579 16.0755L14.322 15.3363C14.2208 15.296 14.1111 15.2814 14.0029 15.2939C13.8946 15.3064 13.7912 15.3455 13.7018 15.4078C13.4216 15.6008 13.1272 15.7722 12.8211 15.9206C12.7248 15.9673 12.6416 16.0371 12.5787 16.1237C12.5158 16.2102 12.4752 16.311 12.4604 16.4169L12.1853 18.3751C12.1672 18.4785 12.1137 18.5724 12.0341 18.6408C11.9545 18.7092 11.8535 18.7478 11.7486 18.75H8.25105C8.14783 18.7482 8.04829 18.7113 7.96884 18.6454C7.88939 18.5795 7.83477 18.4884 7.81397 18.3873L7.5392 16.4321C7.52377 16.3249 7.48211 16.2232 7.41791 16.1361C7.35371 16.0489 7.26897 15.9789 7.17121 15.9324C6.86546 15.7848 6.57204 15.613 6.29377 15.4185C6.20467 15.3565 6.10155 15.3176 5.9937 15.3054C5.88585 15.2932 5.77665 15.308 5.67596 15.3485L3.84052 16.0874C3.74325 16.1244 3.63603 16.1259 3.53775 16.0917C3.43947 16.0574 3.35643 15.9896 3.30326 15.9001L1.5545 12.8744C1.50192 12.784 1.48313 12.6779 1.50148 12.5749C1.51982 12.472 1.57411 12.3789 1.65467 12.3122L3.21698 11.0856C3.30258 11.0176 3.36984 10.9294 3.41269 10.8288C3.45553 10.7283 3.47258 10.6187 3.46231 10.5099C3.44759 10.3394 3.43859 10.1693 3.43859 9.99877C3.43859 9.82827 3.44718 9.66063 3.46231 9.49381C3.47146 9.38567 3.45357 9.27696 3.41024 9.17746C3.36692 9.07796 3.29952 8.9908 3.21412 8.92383L1.65263 7.6972C1.57337 7.63018 1.52023 7.53741 1.50251 7.43514C1.48479 7.33287 1.50363 7.22762 1.55572 7.13785L3.30448 4.11215C3.35759 4.0226 3.4406 3.95467 3.53889 3.92034C3.63718 3.88601 3.74443 3.88747 3.84174 3.92447L5.67759 4.66373C5.77883 4.70404 5.88849 4.7186 5.99674 4.70611C6.10499 4.69362 6.20846 4.65447 6.29786 4.59217C6.57804 4.39923 6.87246 4.22783 7.17857 4.07944C7.27481 4.03266 7.35806 3.96291 7.42095 3.87634C7.48385 3.78977 7.52446 3.68905 7.5392 3.58306L7.81437 1.62494C7.83245 1.52153 7.88587 1.4276 7.96552 1.35921C8.04517 1.29083 8.1461 1.25222 8.25105 1.25H11.7486C11.8518 1.25179 11.9513 1.28868 12.0308 1.3546C12.1102 1.42053 12.1649 1.51155 12.1857 1.61268L12.4604 3.56793C12.4759 3.67509 12.5175 3.77677 12.5817 3.86393C12.6459 3.9511 12.7307 4.02106 12.8284 4.06758C13.1342 4.21517 13.4276 4.38704 13.7059 4.58154C13.795 4.64353 13.8981 4.68238 14.0059 4.69459C14.1138 4.70679 14.223 4.69197 14.3237 4.65146L16.1591 3.91262C16.2564 3.87558 16.3636 3.87405 16.4619 3.90831C16.5602 3.94256 16.6432 4.01041 16.6964 4.09988L18.4451 7.12558C18.4977 7.21598 18.5165 7.32211 18.4981 7.42506C18.4798 7.52801 18.4255 7.62112 18.345 7.68779L16.7826 8.91443C16.6967 8.98215 16.629 9.0703 16.5858 9.17085C16.5426 9.2714 16.5252 9.38115 16.5353 9.49013C16.5488 9.6594 16.5578 9.8295 16.5578 10Z" fill="#0067B1"/>
</g>
<defs>
<clipPath id="clip0_22146_588">
<rect width="20" height="20" fill="white"/>
</clipPath>
</defs>
</svg>
