<svg width="20" height="20" viewBox="0 0 20 20" fill="none" xmlns="http://www.w3.org/2000/svg">
<g clip-path="url(#clip0_9178_3602)">
<path d="M9.375 12.5181V19.3755H4.89551C4.16032 19.3754 3.44856 19.0989 2.91895 18.5972C2.38808 18.0942 2.08301 17.4039 2.08301 16.6772V12.5181H9.375ZM17.917 16.6772C17.917 17.4039 17.6119 18.0942 17.0811 18.5972C16.5514 19.0989 15.8397 19.3754 15.1045 19.3755H10.625V12.5181H17.917V16.6772ZM11.3359 0.866699C11.9164 0.626251 12.5556 0.563483 13.1719 0.686035C13.7881 0.808609 14.3545 1.11094 14.7988 1.55518C15.2431 1.99944 15.5454 2.56592 15.668 3.18213C15.7906 3.79842 15.7278 4.43753 15.4873 5.01807C15.3816 5.27311 15.2438 5.51184 15.0781 5.729H17.292C18.3485 5.72916 19.3749 6.48179 19.375 7.604V9.479C19.375 10.3759 18.7195 11.0368 17.917 11.2661V11.2681H10.625V5.73096H9.375V11.2681H2.08301V11.2661C1.28046 11.0368 0.625 10.3759 0.625 9.479V7.604C0.625135 6.48179 1.65146 5.72916 2.70801 5.729H4.92188C4.75623 5.51185 4.61834 5.2731 4.5127 5.01807C4.27223 4.43753 4.20944 3.79842 4.33203 3.18213C4.45464 2.56591 4.75689 1.99945 5.20117 1.55518C5.64547 1.1109 6.21188 0.808627 6.82812 0.686035C7.44442 0.563447 8.08353 0.626233 8.66406 0.866699C9.19649 1.08726 9.65788 1.44831 10 1.90967C10.3421 1.44832 10.8035 1.08729 11.3359 0.866699ZM8.18555 2.02197C7.83351 1.87615 7.446 1.83734 7.07227 1.91162C6.69845 1.98598 6.35447 2.17043 6.08496 2.43994C5.81569 2.70938 5.63193 3.05265 5.55762 3.42627C5.4833 3.80004 5.52213 4.18747 5.66797 4.53955C5.81381 4.89159 6.06014 5.19306 6.37695 5.40479C6.69386 5.61654 7.0671 5.729 7.44824 5.729H9.375V3.80225C9.375 3.42131 9.26231 3.04873 9.05078 2.73193C8.83906 2.41507 8.53762 2.16784 8.18555 2.02197ZM12.9277 1.91162C12.5541 1.83739 12.1664 1.87618 11.8145 2.02197C11.4625 2.16785 11.1619 2.41512 10.9502 2.73193C10.7385 3.04881 10.625 3.42117 10.625 3.80225V5.729H12.5518C12.9329 5.729 13.3061 5.61654 13.623 5.40479C13.94 5.19303 14.1872 4.89168 14.333 4.53955C14.4788 4.18751 14.5167 3.79998 14.4424 3.42627C14.3681 3.05261 14.1844 2.7094 13.915 2.43994C13.6455 2.17043 13.3016 1.98598 12.9277 1.91162Z" fill="#0067B1"/>
</g>
<defs>
<clipPath id="clip0_9178_3602">
<rect width="20" height="20" fill="white"/>
</clipPath>
</defs>
</svg>
