<svg width="20" height="20" viewBox="0 0 20 20" fill="none" xmlns="http://www.w3.org/2000/svg">
<path d="M18.229 12.1355L18.229 17.448C18.229 17.8795 17.8792 18.2292 17.4478 18.2292L12.1353 18.2292C11.7038 18.2292 11.354 17.8795 11.354 17.448L11.354 12.1355C11.354 11.704 11.7038 11.3542 12.1353 11.3542L17.4478 11.3542C17.8792 11.3542 18.229 11.704 18.229 12.1355Z" fill="#0067B1" stroke="#0067B1" stroke-width="1.25" stroke-linecap="round" stroke-linejoin="round"/>
<path d="M18.4375 2.52841L18.4375 7.67992C18.4375 8.09832 17.5896 8.4375 16.5436 8.4375L3.66477 8.4375C2.61878 8.4375 1.77083 8.09832 1.77083 7.67992L1.77083 2.52841C1.77083 2.11001 2.61878 1.77083 3.66477 1.77083L16.5436 1.77083C17.5896 1.77083 18.4375 2.11001 18.4375 2.52841Z" fill="#0067B1" stroke="#0067B1" stroke-width="1.25" stroke-linecap="round" stroke-linejoin="round"/>
<path d="M8.854 12.1355L8.854 17.448C8.854 17.8795 8.50423 18.2292 8.07275 18.2292L2.76025 18.2292C2.32878 18.2292 1.979 17.8795 1.979 17.448L1.979 12.1355C1.979 11.704 2.32878 11.3542 2.76025 11.3542L8.07275 11.3542C8.50423 11.3542 8.854 11.704 8.854 12.1355Z" fill="#0067B1" stroke="#0067B1" stroke-width="1.25" stroke-linecap="round" stroke-linejoin="round"/>
</svg>
