<svg width="20" height="20" viewBox="0 0 20 20" fill="none" xmlns="http://www.w3.org/2000/svg">
<g clip-path="url(#clip0_207_2119)">
<path d="M10.4193 1.41154C10.1813 1.19615 9.81876 1.19615 9.5807 1.41154L0.830705 9.32821C0.639031 9.50163 0.573886 9.77514 0.666807 10.0163C0.759729 10.2576 0.991543 10.4167 1.25003 10.4167H2.50003V17.2917C2.50003 18.0971 3.15294 18.75 3.95836 18.75H8.25003C8.5952 18.75 8.87503 18.4702 8.87503 18.125V12.9167H11.125V18.125C11.125 18.4702 11.4048 18.75 11.75 18.75H16.0417C16.8471 18.75 17.5 18.0971 17.5 17.2917V10.4167H18.75C19.0085 10.4167 19.2403 10.2576 19.3332 10.0163C19.4262 9.77514 19.361 9.50163 19.1693 9.32821L10.4193 1.41154Z" fill="#0067B1"/>
</g>
<defs>
<clipPath id="clip0_207_2119">
<rect width="20" height="20" fill="white"/>
</clipPath>
</defs>
</svg>
