<svg width="20" height="20" viewBox="0 0 20 20" fill="none" xmlns="http://www.w3.org/2000/svg">
<path d="M15.7625 2.67989C15.7625 2.67989 12.1701 7.5 8.75 7.5H2.5L2.5 12.5H8.75C12.1701 12.5 15.7625 17.34 15.7625 17.34C16.0174 17.6809 16.875 17.4473 16.875 16.921V3.09667C16.875 2.57208 16.0595 2.29465 15.7625 2.67989ZM2.5 11.25C2.5 11.25 1.25 11.1083 1.25 10.0003C1.25 8.89234 2.5 8.75 2.5 8.75M16.875 12.5C16.875 12.5 18.75 11.8757 18.75 10.0003C18.75 8.125 16.875 7.5 16.875 7.5M8.75 7.5L8.75 12.5L8.75 7.5Z" fill="#0067B1"/>
<path d="M8.75 7.5C12.1701 7.5 15.7625 2.67989 15.7625 2.67989C16.0595 2.29465 16.875 2.57208 16.875 3.09667V16.921C16.875 17.4473 16.0174 17.6809 15.7625 17.34C15.7625 17.34 12.1701 12.5 8.75 12.5M8.75 7.5H2.5L2.5 12.5H8.75M8.75 7.5L8.75 12.5M2.5 11.25C2.5 11.25 1.25 11.1083 1.25 10.0003C1.25 8.89234 2.5 8.75 2.5 8.75M16.875 12.5C16.875 12.5 18.75 11.8757 18.75 10.0003C18.75 8.125 16.875 7.5 16.875 7.5" stroke="#0067B1" stroke-width="1.25" stroke-linecap="round" stroke-linejoin="round"/>
<path d="M7.5 12.5C6.25 15 8.75 18.75 8.75 18.75H6.25L3.75 12.5H7.5Z" fill="#0067B1" stroke="#0067B1" stroke-width="1.25" stroke-linecap="round" stroke-linejoin="round"/>
</svg>
