<svg width="20" height="20" viewBox="0 0 20 20" fill="none" xmlns="http://www.w3.org/2000/svg">
<g clip-path="url(#clip0_207_2117)">
<path fill-rule="evenodd" clip-rule="evenodd" d="M4.1665 0.625C3.13097 0.625 2.2915 1.46447 2.2915 2.5V17.5C2.2915 18.5355 3.13097 19.375 4.1665 19.375H14.9998C16.0354 19.375 16.8748 18.5355 16.8748 17.5V12.1509L13.1034 15.9224C13.0233 16.0025 12.9229 16.0593 12.813 16.0868L9.73485 16.8563C9.52187 16.9096 9.29656 16.8472 9.14132 16.6919C8.98609 16.5367 8.92368 16.3114 8.97693 16.0984L9.74646 13.0202C9.77394 12.9104 9.83076 12.81 9.91086 12.7299L15.5213 7.1195C15.887 6.75375 16.3654 6.52647 16.8748 6.47139V2.5C16.8748 1.46447 16.0354 0.625 14.9998 0.625H4.1665ZM6.0415 4.58331H12.2915C12.6367 4.58331 12.9165 4.86313 12.9165 5.20831C12.9165 5.55349 12.6367 5.83331 12.2915 5.83331H6.0415C5.69633 5.83331 5.4165 5.55349 5.4165 5.20831C5.4165 4.86313 5.69633 4.58331 6.0415 4.58331ZM6.0415 7.5H9.7915C10.1367 7.5 10.4165 7.77982 10.4165 8.125C10.4165 8.47018 10.1367 8.75 9.7915 8.75H6.0415C5.69633 8.75 5.4165 8.47018 5.4165 8.125C5.4165 7.77982 5.69633 7.5 6.0415 7.5Z" fill="#0067B1"/>
<path d="M17.1177 7.70825C16.8505 7.70825 16.5942 7.81439 16.4053 8.00332L10.9173 13.4913L10.4424 15.3909L12.342 14.916L17.83 9.42805C18.019 9.23912 18.1251 8.98287 18.1251 8.71569C18.1251 8.4485 18.019 8.19225 17.83 8.00332C17.6411 7.81439 17.3849 7.70825 17.1177 7.70825Z" fill="#0067B1"/>
</g>
<defs>
<clipPath id="clip0_207_2117">
<rect width="20" height="20" fill="white"/>
</clipPath>
</defs>
</svg>
