<svg width="20" height="20" viewBox="0 0 20 20" fill="none" xmlns="http://www.w3.org/2000/svg">
<path d="M15 1C16.1046 1 17 1.89543 17 3V10.0898C16.4563 9.63233 15.8267 9.27652 15.1416 9.04688C13.8979 8.63018 12.5463 8.65258 11.3174 9.11035C10.0885 9.56823 9.05637 10.4341 8.39844 11.5615L8.10156 12.0684L8.07617 12.0068C7.94186 11.6891 7.57467 11.5398 7.25684 11.6738C6.93899 11.8082 6.78967 12.1753 6.92383 12.4932L7.45215 13.7432C7.56502 14.0101 7.8471 14.1647 8.13281 14.1162L10.1045 13.7812C10.4446 13.7233 10.6739 13.4007 10.6162 13.0605C10.5584 12.7204 10.2357 12.4913 9.89551 12.5488L9.2002 12.666L9.47754 12.1924V12.1914C9.98884 11.3152 10.7933 10.6402 11.7539 10.2822C12.7148 9.92429 13.7725 9.90648 14.7451 10.2324C15.7175 10.5585 16.5442 11.2074 17.085 12.0664C17.6256 12.9254 17.847 13.9426 17.7139 14.9443C17.5806 15.946 17.1004 16.8728 16.3525 17.5654C15.6046 18.258 14.6354 18.6736 13.6104 18.7402C12.5851 18.8067 11.5681 18.5202 10.7344 17.9297C9.90088 17.3392 9.30175 16.4819 9.03711 15.5059C8.94682 15.1729 8.6035 14.9754 8.27051 15.0654C7.93758 15.1559 7.73985 15.5 7.83008 15.833C8.17121 17.0913 8.94324 18.1922 10.0117 18.9492C10.0363 18.9667 10.0621 18.983 10.0869 19H4C2.89543 19 2 18.1046 2 17V3C2 1.89543 2.89543 1 4 1H15ZM12.5 11.625C12.1548 11.625 11.875 11.9048 11.875 12.25V14.75C11.875 15.0952 12.1548 15.375 12.5 15.375H15C15.3451 15.3749 15.625 15.0951 15.625 14.75C15.625 14.4049 15.3451 14.1251 15 14.125H13.125V12.25C13.125 11.9049 12.8451 11.6251 12.5 11.625ZM5.625 6.25C5.27982 6.25 5 6.52982 5 6.875C5 7.22018 5.27982 7.5 5.625 7.5H8.125C8.47018 7.5 8.75 7.22018 8.75 6.875C8.75 6.52982 8.47018 6.25 8.125 6.25H5.625ZM5.625 3.75C5.27982 3.75 5 4.02982 5 4.375C5 4.72018 5.27982 5 5.625 5H13.125C13.4702 5 13.75 4.72018 13.75 4.375C13.75 4.02982 13.4702 3.75 13.125 3.75H5.625Z" fill="#0067B1"/>
</svg>
