<svg width="20" height="20" viewBox="0 0 20 20" fill="none" xmlns="http://www.w3.org/2000/svg">
<path d="M15 3.75C15.6904 3.75 16.25 4.30964 16.25 5V17.5C16.25 18.1904 15.6904 18.75 15 18.75H5C4.30964 18.75 3.75 18.1904 3.75 17.5V5C3.75 4.30964 4.30964 3.75 5 3.75H15ZM6.25 13.75C5.90482 13.75 5.625 14.0298 5.625 14.375C5.625 14.7202 5.90482 15 6.25 15H11.25C11.5952 15 11.875 14.7202 11.875 14.375C11.875 14.0298 11.5952 13.75 11.25 13.75H6.25ZM6.25 10.625C5.90482 10.625 5.625 10.9048 5.625 11.25C5.625 11.5952 5.90482 11.875 6.25 11.875H13.75C14.0952 11.875 14.375 11.5952 14.375 11.25C14.375 10.9048 14.0952 10.625 13.75 10.625H6.25ZM6.25 7.5C5.90482 7.5 5.625 7.77982 5.625 8.125C5.625 8.47018 5.90482 8.75 6.25 8.75H13.75C14.0952 8.75 14.375 8.47018 14.375 8.125C14.375 7.77982 14.0952 7.5 13.75 7.5H6.25Z" fill="#0067B1"/>
<rect x="7.5" y="3.75" width="5" height="1.25" stroke="#0067B1" stroke-width="1.25"/>
<circle cx="10" cy="2.5" r="1.25" stroke="#0067B1" stroke-width="1.25"/>
</svg>
