<svg width="20" height="20" viewBox="0 0 20 20" fill="none" xmlns="http://www.w3.org/2000/svg">
<path d="M15.7026 6.5625C15.5881 8.15117 14.4096 9.375 13.1244 9.375C11.8393 9.375 10.6588 8.15156 10.5463 6.5625C10.4291 4.90977 11.5764 3.75 13.1244 3.75C14.6725 3.75 15.8198 4.93984 15.7026 6.5625Z" fill="#0067B1" stroke="#0067B1" stroke-width="1.25" stroke-linecap="round" stroke-linejoin="round"/>
<path d="M13.1248 11.875C10.5791 11.875 8.1311 13.1395 7.51781 15.602C7.43656 15.9277 7.64086 16.25 7.97563 16.25H18.2745C18.6092 16.25 18.8123 15.9277 18.7323 15.602C18.119 13.1 15.6709 11.875 13.1248 11.875Z" fill="#0067B1" stroke="#0067B1" stroke-width="1.25" stroke-miterlimit="10"/>
<path d="M7.81312 7.26328C7.72171 8.53203 6.76937 9.53125 5.7428 9.53125C4.71624 9.53125 3.76234 8.53242 3.67249 7.26328C3.57913 5.94336 4.50609 5 5.7428 5C6.97952 5 7.90648 5.96758 7.81312 7.26328Z" fill="#0067B1" stroke="#0067B1" stroke-width="1.25" stroke-linecap="round" stroke-linejoin="round"/>
<path d="M1.26405 14.4824C1.75429 12.5156 3.71132 11.5059 5.74257 11.5059C5.88863 11.5059 6.03322 11.5098 6.17621 11.518C6.84577 11.5566 7.12317 12.3065 6.74905 12.8631L5.60999 14.5578C5.42423 14.8342 5.11306 15 4.78005 15L1.63007 15C1.36288 15 1.1996 14.7426 1.26405 14.4824Z" fill="#0067B1" stroke="#0067B1" stroke-width="1.25" stroke-miterlimit="10" stroke-linecap="round"/>
</svg>
