<svg width="20" height="20" viewBox="0 0 20 20" fill="none" xmlns="http://www.w3.org/2000/svg">
<path d="M11.2918 4.65932C11.0787 6.57706 9.69366 8.17518 8.09554 8.17518C6.49742 8.17518 5.11239 6.57706 4.89931 4.65932C4.79277 2.74158 6.1778 1.25 8.09554 1.25C10.0133 1.25 11.3983 2.74158 11.2918 4.65932Z" fill="#0067B1" stroke="#0067B1" stroke-width="1.25" stroke-linecap="round" stroke-linejoin="round"/>
<path d="M1.27958 15.4378C1.85993 11.8396 5.34206 9.98242 8.70812 9.98242C9.09338 9.98242 9.48363 10.0074 9.87266 10.0573L8.63813 11.4296C8.30778 11.7968 8.125 12.2733 8.125 12.7672V16.2503H1.85993C1.39565 16.2503 1.16351 15.786 1.27958 15.4378Z" fill="#0067B1" stroke="#0067B1" stroke-width="1.25" stroke-miterlimit="10" stroke-linecap="round" stroke-linejoin="round"/>
<path d="M16.5121 12.0108V9.56032C16.5121 9.02761 16.2991 8.49491 15.8729 8.17528C15.4467 7.85566 14.914 7.64258 14.3813 7.64258C13.8486 7.64258 13.3159 7.85566 12.8897 8.17528C12.4636 8.49491 12.2505 9.02761 12.2505 9.56032V12.0108" stroke="#0067B1" stroke-width="1.25" stroke-linecap="round" stroke-linejoin="round"/>
<path d="M17.4714 12.0105H11.5051C10.7593 12.0105 10.2266 12.5432 10.2266 13.1825V17.231C10.2266 17.8703 10.7593 18.403 11.5051 18.403H17.4714C18.2172 18.403 18.7499 17.8703 18.7499 17.231V13.0759C18.7499 12.5432 18.2172 12.0105 17.4714 12.0105Z" fill="#0067B1" stroke="#0067B1" stroke-width="1.25" stroke-linecap="round" stroke-linejoin="round"/>
<path d="M14.4883 15.633C14.7825 15.633 15.021 15.3945 15.021 15.1003C15.021 14.8061 14.7825 14.5676 14.4883 14.5676C14.1941 14.5676 13.9556 14.8061 13.9556 15.1003C13.9556 15.3945 14.1941 15.633 14.4883 15.633Z" stroke="white" stroke-width="1.25"/>
</svg>
