<svg width="32" height="32" viewBox="0 0 32 32" fill="none" xmlns="http://www.w3.org/2000/svg">
<path d="M3.07692 10.1152C2.48215 10.1152 2 10.5974 2 11.1922V13.8888C2.33684 13.7697 2.69932 13.7049 3.07692 13.7049H9.038C10.5637 13.7049 11.7177 14.7593 12.2388 15.9475C12.6081 16.7897 13.0647 17.3411 13.6185 17.6941C14.1761 18.0494 14.9301 18.266 16 18.266C17.0699 18.266 17.8239 18.0494 18.3815 17.6941C18.9353 17.3411 19.3919 16.7897 19.7612 15.9475C20.2823 14.7593 21.4363 13.7049 22.962 13.7049H28.9231C29.3007 13.7049 29.6632 13.7697 30 13.8888V11.1922C30 10.5974 29.5178 10.1152 28.9231 10.1152H3.07692Z" fill="#0067B1"/>
<path d="M4 4.37207C3 4.37207 2 5.40548 2 6.00024V8.14562C2.33684 8.02656 2.69932 7.96178 3.07692 7.96178H28.9231C29.3007 7.96178 29.6632 8.02656 30 8.14562V6.00024C30 5.00024 29 4.37207 28 4.37207H4Z" fill="#0067B1"/>
<path d="M30 16.9358C30 16.341 29.5178 15.8589 28.9231 15.8589H22.962C22.5079 15.8589 22.0078 16.1878 21.7338 16.8127C21.2368 17.9458 20.5349 18.8758 19.5391 19.5105C18.5471 20.1427 17.3605 20.42 16 20.42C14.6395 20.42 13.4529 20.1427 12.4609 19.5105C11.4651 18.8758 10.7632 17.9458 10.2662 16.8127C9.99223 16.1878 9.49211 15.8589 9.038 15.8589H3.07692C2.48216 15.8589 2 16.341 2 16.9358V25C2 27 3 27.6281 5 27.6281H27C29 27.6281 30 27 30 25L30 16.9358Z" fill="#0067B1"/>
</svg>
