<svg width="32" height="32" viewBox="0 0 32 32" fill="none" xmlns="http://www.w3.org/2000/svg">
<path d="M15 20.0303V31H7.83398C6.65746 31 5.51844 30.5578 4.6709 29.7549C3.8216 28.9503 3.33409 27.847 3.33398 26.6846V20.0303H15ZM28.667 26.6846C28.6669 27.847 28.1784 28.9503 27.3291 29.7549C26.4816 30.5576 25.3434 31 24.167 31H17V20.0303H28.667V26.6846ZM18.1387 1.38672C19.0674 1.00214 20.0893 0.901553 21.0752 1.09766C22.0613 1.2938 22.9668 1.77834 23.6777 2.48926C24.3886 3.20016 24.8732 4.10576 25.0693 5.0918C25.2654 6.07766 25.1649 7.09964 24.7803 8.02832C24.6112 8.43658 24.3902 8.8194 24.125 9.16699H27.667C29.3577 9.16715 31 10.3712 31 12.167V15.167C30.9999 16.602 29.9511 17.6596 28.667 18.0264V18.0303H17V9.16992H15V18.0303H3.33398V18.0264C2.04969 17.6596 1.00015 16.6021 1 15.167V12.167C1 10.3712 2.64235 9.16715 4.33301 9.16699H7.875C7.60981 8.8194 7.38981 8.43658 7.2207 8.02832C6.83603 7.09954 6.73553 6.07778 6.93164 5.0918C7.12776 4.10584 7.61148 3.20014 8.32227 2.48926C9.03311 1.77841 9.93885 1.29384 10.9248 1.09766C11.9109 0.901515 12.9334 1.00197 13.8623 1.38672C14.7143 1.73964 15.4526 2.31737 16 3.05566C16.5475 2.31731 17.2866 1.73966 18.1387 1.38672ZM13.0967 3.23438C12.5333 3.00108 11.9134 2.94063 11.3154 3.05957C10.7173 3.17854 10.1675 3.47211 9.73633 3.90332C9.30533 4.33442 9.01157 4.88357 8.89258 5.48145C8.77361 6.07955 8.83499 6.70027 9.06836 7.26367C9.30175 7.82691 9.69717 8.30874 10.2041 8.64746C10.7111 8.98609 11.3073 9.16699 11.917 9.16699H15V6.08301C14.9999 5.4733 14.8192 4.87708 14.4805 4.37012C14.1417 3.86315 13.66 3.46772 13.0967 3.23438ZM20.6846 3.05957C20.0866 2.9407 19.4666 3.00105 18.9033 3.23438C18.34 3.46775 17.8583 3.8631 17.5195 4.37012C17.1808 4.87708 17.0001 5.4733 17 6.08301V9.16699H20.084C20.6936 9.1669 21.29 8.98617 21.7969 8.64746C22.3037 8.30876 22.6982 7.82684 22.9316 7.26367C23.165 6.70027 23.2264 6.07955 23.1074 5.48145C22.9884 4.88352 22.6947 4.33443 22.2637 3.90332C21.8325 3.47211 21.2827 3.17854 20.6846 3.05957Z" fill="#0067B1"/>
</svg>
