<svg width="32" height="32" viewBox="0 0 32 32" fill="none" xmlns="http://www.w3.org/2000/svg">
<path d="M16.671 2.25846C16.2901 1.91385 15.71 1.91385 15.3291 2.25846L1.32913 14.9251C1.02245 15.2026 0.918217 15.6402 1.06689 16.0262C1.21557 16.4121 1.58647 16.6667 2.00004 16.6667H4.00004V27.6667C4.00004 28.9553 5.04471 30 6.33337 30H13.2C13.7523 30 14.2 29.5523 14.2 29V20.6667H17.8V29C17.8 29.5523 18.2478 30 18.8 30H25.6667C26.9554 30 28 28.9553 28 27.6667V16.6667H30C30.4136 16.6667 30.7845 16.4121 30.9332 16.0262C31.0819 15.6402 30.9776 15.2026 30.671 14.9251L16.671 2.25846Z" fill="#0067B1"/>
</svg>
