<svg width="32" height="32" viewBox="0 0 32 32" fill="none" xmlns="http://www.w3.org/2000/svg">
<path fill-rule="evenodd" clip-rule="evenodd" d="M6.6665 1C5.00965 1 3.6665 2.34315 3.6665 4V28C3.6665 29.6569 5.00965 31 6.6665 31H23.9998C25.6567 31 26.9998 29.6569 26.9998 28V19.4415L20.9655 25.4758C20.8373 25.604 20.6767 25.6949 20.5009 25.7389L15.5759 26.9701C15.2351 27.0553 14.8746 26.9555 14.6262 26.7071C14.3778 26.4587 14.278 26.0982 14.3632 25.7574L15.5944 20.8324C15.6384 20.6566 15.7293 20.496 15.8575 20.3678L24.8342 11.3912C25.4194 10.806 26.1847 10.4423 26.9998 10.3542V4C26.9998 2.34315 25.6567 1 23.9998 1H6.6665ZM9.6665 7.3333H19.6665C20.2188 7.3333 20.6665 7.78102 20.6665 8.3333C20.6665 8.88559 20.2188 9.3333 19.6665 9.3333H9.6665C9.11422 9.3333 8.6665 8.88559 8.6665 8.3333C8.6665 7.78102 9.11422 7.3333 9.6665 7.3333ZM9.6665 12H15.6665C16.2188 12 16.6665 12.4477 16.6665 13C16.6665 13.5523 16.2188 14 15.6665 14H9.6665C9.11422 14 8.6665 13.5523 8.6665 13C8.6665 12.4477 9.11422 12 9.6665 12Z" fill="#0067B1"/>
<path d="M27.3885 12.3335C26.961 12.3335 26.551 12.5033 26.2487 12.8056L17.4679 21.5864L16.708 24.6258L19.7474 23.8659L28.5282 15.0852C28.8305 14.7829 29.0004 14.3729 29.0004 13.9454C29.0004 13.5179 28.8305 13.1079 28.5282 12.8056C28.226 12.5033 27.816 12.3335 27.3885 12.3335Z" fill="#0067B1"/>
</svg>
