<svg width="32" height="32" viewBox="0 0 32 32" fill="none" xmlns="http://www.w3.org/2000/svg">
<path d="M24.6248 30C24.4143 30.0008 24.209 29.9352 24.0379 29.8125L15.9998 23.985L7.96169 29.8125C7.78996 29.937 7.58307 30.0037 7.37093 30.003C7.15878 30.0022 6.95238 29.934 6.78156 29.8082C6.61074 29.6824 6.48436 29.5055 6.42068 29.3032C6.357 29.1008 6.35932 28.8834 6.42731 28.6825L9.56231 19.3969L1.43731 13.825C1.26132 13.7044 1.12849 13.5307 1.05823 13.3293C0.987975 13.1279 0.98397 12.9093 1.0468 12.7054C1.10964 12.5016 1.23602 12.3231 1.40748 12.1962C1.57894 12.0693 1.78649 12.0005 1.99981 12H12.0236L15.0486 2.6906C15.1137 2.48962 15.2409 2.31444 15.4118 2.19019C15.5827 2.06595 15.7885 1.99902 15.9998 1.99902C16.2111 1.99902 16.417 2.06595 16.5879 2.19019C16.7587 2.31444 16.8859 2.48962 16.9511 2.6906L19.9761 12.0031H29.9998C30.2134 12.003 30.4214 12.0713 30.5934 12.198C30.7654 12.3246 30.8923 12.503 30.9555 12.7071C31.0187 12.9111 31.015 13.13 30.9448 13.3317C30.8746 13.5334 30.7416 13.7074 30.5654 13.8281L22.4373 19.3969L25.5704 28.68C25.6212 28.8303 25.6355 28.9905 25.6121 29.1474C25.5887 29.3043 25.5283 29.4534 25.4359 29.5823C25.3436 29.7113 25.2218 29.8164 25.0808 29.8891C24.9397 29.9617 24.7834 29.9997 24.6248 30Z" fill="#0067B1"/>
</svg>
