<svg width="20" height="20" viewBox="0 0 20 20" fill="none" xmlns="http://www.w3.org/2000/svg">
<g clip-path="url(#clip0_614_1446)">
<path d="M2.5 6.25L10 1.25L17.5 6.25V7.5H2.5V6.25Z" stroke="#0067B1" stroke-width="1.25" stroke-linecap="round" stroke-linejoin="round"/>
<path d="M3.75 7.5V15" stroke="#0067B1" stroke-width="1.25" stroke-linecap="round" stroke-linejoin="round"/>
<path d="M16.25 7.5V15" stroke="#0067B1" stroke-width="1.25" stroke-linecap="round" stroke-linejoin="round"/>
<path d="M12.1875 7.5V15" stroke="#0067B1" stroke-width="1.25" stroke-linecap="round" stroke-linejoin="round"/>
<path d="M7.8125 7.5V15" stroke="#0067B1" stroke-width="1.25" stroke-linecap="round" stroke-linejoin="round"/>
<path d="M1.25 15V17.5H18.75V15H1.25Z" stroke="#0067B1" stroke-width="1.25" stroke-linejoin="round"/>
<path d="M10 5.625C9.81458 5.625 9.63332 5.57002 9.47915 5.467C9.32498 5.36399 9.20482 5.21757 9.13386 5.04627C9.06291 4.87496 9.04434 4.68646 9.08051 4.5046C9.11669 4.32275 9.20598 4.1557 9.33709 4.02459C9.4682 3.89348 9.63525 3.80419 9.8171 3.76801C9.99896 3.73184 10.1875 3.75041 10.3588 3.82136C10.5301 3.89232 10.6765 4.01248 10.7795 4.16665C10.8825 4.32082 10.9375 4.50208 10.9375 4.6875C10.9375 4.93614 10.8387 5.1746 10.6629 5.35041C10.4871 5.52623 10.2486 5.625 10 5.625Z" fill="#0067B1"/>
</g>
<defs>
<clipPath id="clip0_614_1446">
<rect width="20" height="20" fill="white"/>
</clipPath>
</defs>
</svg>
