<svg width="20" height="20" viewBox="0 0 20 20" fill="none" xmlns="http://www.w3.org/2000/svg">
<g clip-path="url(#clip0_2451_8887)">
<path d="M12.6924 15.3846V16.0577C12.6924 16.7717 12.4087 17.4565 11.9038 17.9614C11.3989 18.4663 10.7141 18.75 10.0001 18.75C9.28601 18.75 8.6012 18.4663 8.09629 17.9614C7.59138 17.4565 7.30772 16.7717 7.30772 16.0577V15.3846M17.2222 14.0145C16.1419 12.6923 15.3793 12.0192 15.3793 8.3741C15.3793 5.03606 13.6747 3.84681 12.2717 3.26923C12.0854 3.19267 11.9099 3.01683 11.8531 2.82542C11.607 1.98786 10.9171 1.25 10.0001 1.25C9.08298 1.25 8.39265 1.98828 8.14908 2.82626C8.09229 3.01977 7.91686 3.19267 7.7305 3.26923C6.32586 3.84766 4.62296 5.03269 4.62296 8.3741C4.62086 12.0192 3.85817 12.6923 2.77787 14.0145C2.33027 14.5622 2.72234 15.3846 3.50522 15.3846H16.4991C17.2778 15.3846 17.6673 14.5597 17.2222 14.0145Z" stroke="#03182B" stroke-width="1.25" stroke-linecap="round" stroke-linejoin="round"/>
</g>
<defs>
<clipPath id="clip0_2451_8887">
<rect width="20" height="20" fill="white"/>
</clipPath>
</defs>
</svg>
