<svg width="20" height="20" viewBox="0 0 20 20" fill="none" xmlns="http://www.w3.org/2000/svg">
<path d="M16.3942 1.875H3.60577C2.98153 1.87679 2.38336 2.12703 1.94195 2.57107C1.50054 3.0151 1.25178 3.61683 1.25 4.24479V12.3698C1.25178 12.9977 1.50054 13.5995 1.94195 14.0435C2.38336 14.4875 2.98153 14.7378 3.60577 14.7396H5.28846V18.125L9.23101 14.8183C9.29155 14.7674 9.36793 14.7396 9.44682 14.7396H16.3942C17.0185 14.7378 17.6166 14.4875 18.058 14.0435C18.4995 13.5995 18.7482 12.9977 18.75 12.3698V4.24479C18.7482 3.61683 18.4995 3.0151 18.058 2.57107C17.6166 2.12703 17.0185 1.87679 16.3942 1.875Z" stroke="#0067B1" stroke-width="1.25" stroke-linejoin="round"/>
<path d="M8.125 6.73904C8.2651 6.03702 8.96563 4.7169 10.6467 5.05416C11.957 5.31704 12.4022 7.12297 11.067 7.79204C10.0163 8.31856 10.0163 9.26629 10.0163 9.6875" stroke="#0067B1" stroke-width="1.25" stroke-linecap="round" stroke-linejoin="round"/>
<path fill-rule="evenodd" clip-rule="evenodd" d="M10 11.25C10.3452 11.25 10.625 11.5298 10.625 11.875C10.625 12.2202 10.3452 12.5 10 12.5C9.65482 12.5 9.375 12.2202 9.375 11.875C9.375 11.5298 9.65482 11.25 10 11.25Z" fill="#0067B1"/>
</svg>
