<svg width="20" height="20" viewBox="0 0 20 20" fill="none" xmlns="http://www.w3.org/2000/svg">
<path d="M16.3942 1.875H3.60577C2.98153 1.87679 2.38336 2.12703 1.94195 2.57107C1.50054 3.0151 1.25178 3.61683 1.25 4.24479V12.3698C1.25178 12.9977 1.50054 13.5995 1.94195 14.0435C2.38336 14.4875 2.98153 14.7378 3.60577 14.7396H5.28846V18.125L9.23101 14.8183C9.29155 14.7674 9.36793 14.7396 9.44682 14.7396H16.3942C17.0185 14.7378 17.6166 14.4875 18.058 14.0435C18.4995 13.5995 18.7482 12.9977 18.75 12.3698V4.24479C18.7482 3.61683 18.4995 3.0151 18.058 2.57107C17.6166 2.12703 17.0185 1.87679 16.3942 1.875Z" stroke="#0067B1" stroke-width="1.25" stroke-linejoin="round"/>
<path d="M14.0421 7.54059C14.1434 7.47113 14.0943 7.3125 13.9714 7.3125H11.1062C11.052 7.3125 11.004 7.27763 10.9873 7.22614L10.1186 4.55328C10.0812 4.43813 9.9183 4.43813 9.88088 4.55328L9.0122 7.22614C8.99546 7.27763 8.94747 7.3125 8.89332 7.3125H6.02808C5.90525 7.3125 5.85608 7.47113 5.95739 7.54059L8.28115 9.13403C8.32728 9.16566 8.34678 9.22409 8.32889 9.27709L7.42961 11.9416C7.39068 12.057 7.52282 12.1543 7.62139 12.0828L9.92641 10.4125C9.97017 10.3808 10.0293 10.3808 10.0731 10.4125L12.3781 12.0828C12.4767 12.1543 12.6088 12.057 12.5699 11.9416L11.6706 9.27709C11.6527 9.22409 11.6722 9.16566 11.7184 9.13403L14.0421 7.54059Z" stroke="#0067B1" stroke-width="1.25" stroke-linejoin="round"/>
</svg>
