<svg width="20" height="20" viewBox="0 0 20 20" fill="none" xmlns="http://www.w3.org/2000/svg">
<g clip-path="url(#clip0_617_2332)">
<path d="M6.875 16.25V18.75M6.875 18.75H11.875V2.5C11.875 1.80964 11.3154 1.25 10.625 1.25H3.125C2.43464 1.25 1.875 1.80964 1.875 2.5V18.75H6.875Z" stroke="#0067B1" stroke-width="1.25" stroke-linecap="round" stroke-linejoin="round"/>
<path d="M11.875 8.75C11.875 8.05964 12.4346 7.5 13.125 7.5H16.875C17.5654 7.5 18.125 8.05964 18.125 8.75V18.75H11.875V8.75Z" stroke="#0067B1" stroke-width="1.25" stroke-linecap="round" stroke-linejoin="round"/>
<path d="M3.8313 16.8699C3.70185 16.8869 3.57036 16.8628 3.45527 16.8012C3.34018 16.7396 3.24727 16.6435 3.18958 16.5264C3.13189 16.4093 3.11232 16.2771 3.13361 16.1483C3.15491 16.0195 3.21599 15.9006 3.3083 15.8083C3.40061 15.7159 3.51951 15.6549 3.6483 15.6336C3.7771 15.6123 3.90933 15.6318 4.02644 15.6895C4.14354 15.7472 4.23965 15.8401 4.30126 15.9552C4.36287 16.0703 4.3869 16.2018 4.36997 16.3312C4.3521 16.4679 4.2896 16.5947 4.19219 16.6921C4.09477 16.7896 3.9679 16.8521 3.8313 16.8699ZM3.8313 13.7449C3.70185 13.7619 3.57036 13.7378 3.45527 13.6762C3.34018 13.6146 3.24727 13.5185 3.18958 13.4014C3.13189 13.2843 3.11232 13.1521 3.13361 13.0233C3.15491 12.8945 3.21599 12.7756 3.3083 12.6833C3.40061 12.5909 3.51951 12.5299 3.6483 12.5086C3.7771 12.4873 3.90933 12.5068 4.02644 12.5645C4.14354 12.6222 4.23965 12.7151 4.30126 12.8302C4.36287 12.9453 4.3869 13.0768 4.36997 13.2062C4.3521 13.3429 4.2896 13.4697 4.19219 13.5671C4.09477 13.6646 3.9679 13.7271 3.8313 13.7449ZM3.8313 10.6199C3.70185 10.6369 3.57036 10.6128 3.45527 10.5512C3.34018 10.4896 3.24727 10.3935 3.18958 10.2764C3.13189 10.1593 3.11232 10.0271 3.13361 9.89826C3.15491 9.76946 3.21599 9.65057 3.3083 9.55826C3.40061 9.46595 3.51951 9.40486 3.6483 9.38357C3.7771 9.36228 3.90933 9.38185 4.02644 9.43954C4.14354 9.49722 4.23965 9.59013 4.30126 9.70522C4.36287 9.82031 4.3869 9.95181 4.36997 10.0812C4.3521 10.2179 4.2896 10.3447 4.19219 10.4421C4.09477 10.5396 3.9679 10.6021 3.8313 10.6199ZM3.8313 7.49492C3.70185 7.51185 3.57036 7.48782 3.45527 7.42621C3.34018 7.3646 3.24727 7.2685 3.18958 7.15139C3.13189 7.03428 3.11232 6.90205 3.13361 6.77326C3.15491 6.64446 3.21599 6.52557 3.3083 6.43326C3.40061 6.34095 3.51951 6.27986 3.6483 6.25857C3.7771 6.23728 3.90933 6.25685 4.02644 6.31454C4.14354 6.37222 4.23965 6.46513 4.30126 6.58022C4.36287 6.69531 4.3869 6.82681 4.36997 6.95625C4.3521 7.09285 4.2896 7.21973 4.19219 7.31714C4.09477 7.41456 3.9679 7.47706 3.8313 7.49492ZM3.8313 4.36992C3.70185 4.38685 3.57036 4.36282 3.45527 4.30121C3.34018 4.2396 3.24727 4.1435 3.18958 4.02639C3.13189 3.90928 3.11232 3.77705 3.13361 3.64826C3.15491 3.51946 3.21599 3.40057 3.3083 3.30826C3.40061 3.21595 3.51951 3.15486 3.6483 3.13357C3.7771 3.11228 3.90933 3.13185 4.02644 3.18954C4.14354 3.24722 4.23965 3.34013 4.30126 3.45522C4.36287 3.57031 4.3869 3.70181 4.36997 3.83125C4.3521 3.96785 4.2896 4.09473 4.19219 4.19214C4.09477 4.28956 3.9679 4.35206 3.8313 4.36992ZM6.9563 13.7449C6.82685 13.7619 6.69536 13.7378 6.58027 13.6762C6.46518 13.6146 6.37227 13.5185 6.31458 13.4014C6.25689 13.2843 6.23732 13.1521 6.25862 13.0233C6.27991 12.8945 6.341 12.7756 6.4333 12.6833C6.52561 12.5909 6.64451 12.5299 6.7733 12.5086C6.9021 12.4873 7.03433 12.5068 7.15144 12.5645C7.26854 12.6222 7.36465 12.7151 7.42626 12.8302C7.48787 12.9453 7.5119 13.0768 7.49497 13.2062C7.4771 13.3429 7.4146 13.4697 7.31719 13.5671C7.21977 13.6646 7.0929 13.7271 6.9563 13.7449ZM6.9563 10.6199C6.82685 10.6369 6.69536 10.6128 6.58027 10.5512C6.46518 10.4896 6.37227 10.3935 6.31458 10.2764C6.25689 10.1593 6.23732 10.0271 6.25862 9.89826C6.27991 9.76946 6.341 9.65057 6.4333 9.55826C6.52561 9.46595 6.64451 9.40486 6.7733 9.38357C6.9021 9.36228 7.03433 9.38185 7.15144 9.43954C7.26854 9.49722 7.36465 9.59013 7.42626 9.70522C7.48787 9.82031 7.5119 9.95181 7.49497 10.0812C7.4771 10.2179 7.4146 10.3447 7.31719 10.4421C7.21977 10.5396 7.0929 10.6021 6.9563 10.6199ZM6.9563 7.49492C6.82685 7.51185 6.69536 7.48782 6.58027 7.42621C6.46518 7.3646 6.37227 7.2685 6.31458 7.15139C6.25689 7.03428 6.23732 6.90205 6.25862 6.77326C6.27991 6.64446 6.341 6.52557 6.4333 6.43326C6.52561 6.34095 6.64451 6.27986 6.7733 6.25857C6.9021 6.23728 7.03433 6.25685 7.15144 6.31454C7.26854 6.37222 7.36465 6.46513 7.42626 6.58022C7.48787 6.69531 7.5119 6.82681 7.49497 6.95625C7.4771 7.09285 7.4146 7.21973 7.31719 7.31714C7.21977 7.41456 7.0929 7.47706 6.9563 7.49492ZM6.9563 4.36992C6.82685 4.38685 6.69536 4.36282 6.58027 4.30121C6.46518 4.2396 6.37227 4.1435 6.31458 4.02639C6.25689 3.90928 6.23732 3.77705 6.25862 3.64826C6.27991 3.51946 6.341 3.40057 6.4333 3.30826C6.52561 3.21595 6.64451 3.15486 6.7733 3.13357C6.9021 3.11228 7.03433 3.13185 7.15144 3.18954C7.26854 3.24722 7.36465 3.34013 7.42626 3.45522C7.48787 3.57031 7.5119 3.70181 7.49497 3.83125C7.4771 3.96785 7.4146 4.09473 7.31719 4.19214C7.21977 4.28956 7.0929 4.35206 6.9563 4.36992ZM10.0813 16.8699C9.95185 16.8869 9.82036 16.8628 9.70527 16.8012C9.59018 16.7396 9.49727 16.6435 9.43958 16.5264C9.38189 16.4093 9.36232 16.2771 9.38362 16.1483C9.40491 16.0195 9.46599 15.9006 9.5583 15.8083C9.65061 15.7159 9.76951 15.6549 9.8983 15.6336C10.0271 15.6123 10.1593 15.6318 10.2764 15.6895C10.3935 15.7472 10.4896 15.8401 10.5513 15.9552C10.6129 16.0703 10.6369 16.2018 10.62 16.3312C10.6021 16.4679 10.5396 16.5947 10.4422 16.6921C10.3448 16.7896 10.2179 16.8521 10.0813 16.8699ZM10.0813 13.7449C9.95185 13.7619 9.82036 13.7378 9.70527 13.6762C9.59018 13.6146 9.49727 13.5185 9.43958 13.4014C9.38189 13.2843 9.36232 13.1521 9.38362 13.0233C9.40491 12.8945 9.46599 12.7756 9.5583 12.6833C9.65061 12.5909 9.76951 12.5299 9.8983 12.5086C10.0271 12.4873 10.1593 12.5068 10.2764 12.5645C10.3935 12.6222 10.4896 12.7151 10.5513 12.8302C10.6129 12.9453 10.6369 13.0768 10.62 13.2062C10.6021 13.3429 10.5396 13.4697 10.4422 13.5671C10.3448 13.6646 10.2179 13.7271 10.0813 13.7449ZM10.0813 10.6199C9.95185 10.6369 9.82036 10.6128 9.70527 10.5512C9.59018 10.4896 9.49727 10.3935 9.43958 10.2764C9.38189 10.1593 9.36232 10.0271 9.38362 9.89826C9.40491 9.76946 9.46599 9.65057 9.5583 9.55826C9.65061 9.46595 9.76951 9.40486 9.8983 9.38357C10.0271 9.36228 10.1593 9.38185 10.2764 9.43954C10.3935 9.49722 10.4896 9.59013 10.5513 9.70522C10.6129 9.82031 10.6369 9.95181 10.62 10.0812C10.6021 10.2179 10.5396 10.3447 10.4422 10.4421C10.3448 10.5396 10.2179 10.6021 10.0813 10.6199Z" fill="#0067B1"/>
<path d="M10.4428 7.31745C10.6861 7.07413 10.6851 6.67865 10.4406 6.43412C10.1961 6.18958 9.80059 6.18859 9.55727 6.43191C9.31396 6.67522 9.31495 7.0707 9.55948 7.31524C9.80402 7.55977 10.1995 7.56076 10.4428 7.31745Z" fill="#0067B1"/>
<path d="M9.70522 4.30101C9.82031 4.36262 9.95181 4.38665 10.0812 4.36972C10.2179 4.35186 10.3447 4.28936 10.4421 4.19194C10.5396 4.09453 10.6021 3.96765 10.6199 3.83105C10.6368 3.70161 10.6128 3.57012 10.5512 3.45503C10.4896 3.33993 10.3935 3.24703 10.2764 3.18934C10.1593 3.13165 10.0271 3.11208 9.89826 3.13337C9.76946 3.15466 9.65057 3.21575 9.55826 3.30806C9.46595 3.40037 9.40486 3.51926 9.38357 3.64806C9.36228 3.77686 9.38185 3.90909 9.43954 4.02619C9.49722 4.1433 9.59013 4.2394 9.70522 4.30101Z" fill="#0067B1"/>
<path d="M15.625 15.625C15.5014 15.625 15.3805 15.6617 15.2778 15.7303C15.175 15.799 15.0949 15.8966 15.0476 16.0108C15.0003 16.125 14.9879 16.2507 15.012 16.3719C15.0361 16.4932 15.0957 16.6045 15.1831 16.6919C15.2705 16.7793 15.3818 16.8389 15.5031 16.863C15.6243 16.8871 15.75 16.8747 15.8642 16.8274C15.9784 16.7801 16.076 16.7 16.1447 16.5972C16.2133 16.4945 16.25 16.3736 16.25 16.25C16.25 16.0842 16.1842 15.9253 16.0669 15.8081C15.9497 15.6908 15.7908 15.625 15.625 15.625ZM15.625 12.5C15.5014 12.5 15.3805 12.5367 15.2778 12.6053C15.175 12.674 15.0949 12.7716 15.0476 12.8858C15.0003 13 14.9879 13.1257 15.012 13.2469C15.0361 13.3682 15.0957 13.4795 15.1831 13.5669C15.2705 13.6543 15.3818 13.7139 15.5031 13.738C15.6243 13.7621 15.75 13.7497 15.8642 13.7024C15.9784 13.6551 16.076 13.575 16.1447 13.4722C16.2133 13.3695 16.25 13.2486 16.25 13.125C16.25 12.9592 16.1842 12.8003 16.0669 12.6831C15.9497 12.5658 15.7908 12.5 15.625 12.5ZM15.625 9.375C15.5014 9.375 15.3805 9.41166 15.2778 9.48033C15.175 9.54901 15.0949 9.64662 15.0476 9.76082C15.0003 9.87503 14.9879 10.0007 15.012 10.1219C15.0361 10.2432 15.0957 10.3545 15.1831 10.4419C15.2705 10.5294 15.3818 10.5889 15.5031 10.613C15.6243 10.6371 15.75 10.6247 15.8642 10.5774C15.9784 10.5301 16.076 10.45 16.1447 10.3472C16.2133 10.2445 16.25 10.1236 16.25 10C16.25 9.83424 16.1842 9.67527 16.0669 9.55806C15.9497 9.44085 15.7908 9.375 15.625 9.375ZM13.125 15.625C13.0014 15.625 12.8805 15.6617 12.7778 15.7303C12.675 15.799 12.5949 15.8966 12.5476 16.0108C12.5003 16.125 12.4879 16.2507 12.512 16.3719C12.5361 16.4932 12.5957 16.6045 12.6831 16.6919C12.7705 16.7793 12.8818 16.8389 13.0031 16.863C13.1243 16.8871 13.25 16.8747 13.3642 16.8274C13.4784 16.7801 13.576 16.7 13.6447 16.5972C13.7133 16.4945 13.75 16.3736 13.75 16.25C13.75 16.0842 13.6842 15.9253 13.5669 15.8081C13.4497 15.6908 13.2908 15.625 13.125 15.625ZM13.125 12.5C13.0014 12.5 12.8805 12.5367 12.7778 12.6053C12.675 12.674 12.5949 12.7716 12.5476 12.8858C12.5003 13 12.4879 13.1257 12.512 13.2469C12.5361 13.3682 12.5957 13.4795 12.6831 13.5669C12.7705 13.6543 12.8818 13.7139 13.0031 13.738C13.1243 13.7621 13.25 13.7497 13.3642 13.7024C13.4784 13.6551 13.576 13.575 13.6447 13.4722C13.7133 13.3695 13.75 13.2486 13.75 13.125C13.75 12.9592 13.6842 12.8003 13.5669 12.6831C13.4497 12.5658 13.2908 12.5 13.125 12.5ZM13.125 9.375C13.0014 9.375 12.8805 9.41166 12.7778 9.48033C12.675 9.54901 12.5949 9.64662 12.5476 9.76082C12.5003 9.87503 12.4879 10.0007 12.512 10.1219C12.5361 10.2432 12.5957 10.3545 12.6831 10.4419C12.7705 10.5294 12.8818 10.5889 13.0031 10.613C13.1243 10.6371 13.25 10.6247 13.3642 10.5774C13.4784 10.5301 13.576 10.45 13.6447 10.3472C13.7133 10.2445 13.75 10.1236 13.75 10C13.75 9.83424 13.6842 9.67527 13.5669 9.55806C13.4497 9.44085 13.2908 9.375 13.125 9.375Z" fill="#0067B1"/>
</g>
<defs>
<clipPath id="clip0_617_2332">
<rect width="20" height="20" fill="white"/>
</clipPath>
</defs>
</svg>
