<svg width="20" height="20" viewBox="0 0 20 20" fill="none" xmlns="http://www.w3.org/2000/svg">
<path d="M14.8611 1.875H5.13889C4.37183 1.875 3.75 2.43464 3.75 3.125V16.875C3.75 17.5654 4.37183 18.125 5.13889 18.125H14.8611C15.6282 18.125 16.25 17.5654 16.25 16.875V3.125C16.25 2.43464 15.6282 1.875 14.8611 1.875Z" stroke="#0067B1" stroke-width="1.25" stroke-linecap="round" stroke-linejoin="round"/>
<path d="M5.625 3.75H14.375V6.25H5.625V3.75Z" stroke="#0067B1" stroke-width="1.25" stroke-linecap="round" stroke-linejoin="round"/>
<path d="M6.5625 10C7.08027 10 7.5 9.58027 7.5 9.0625C7.5 8.54473 7.08027 8.125 6.5625 8.125C6.04473 8.125 5.625 8.54473 5.625 9.0625C5.625 9.58027 6.04473 10 6.5625 10Z" fill="#0067B1"/>
<path d="M10 10C10.5178 10 10.9375 9.58027 10.9375 9.0625C10.9375 8.54473 10.5178 8.125 10 8.125C9.48223 8.125 9.0625 8.54473 9.0625 9.0625C9.0625 9.58027 9.48223 10 10 10Z" fill="#0067B1"/>
<path d="M13.4375 10C13.9553 10 14.375 9.58027 14.375 9.0625C14.375 8.54473 13.9553 8.125 13.4375 8.125C12.9197 8.125 12.5 8.54473 12.5 9.0625C12.5 9.58027 12.9197 10 13.4375 10Z" fill="#0067B1"/>
<path d="M6.5625 13.125C7.08027 13.125 7.5 12.7053 7.5 12.1875C7.5 11.6697 7.08027 11.25 6.5625 11.25C6.04473 11.25 5.625 11.6697 5.625 12.1875C5.625 12.7053 6.04473 13.125 6.5625 13.125Z" fill="#0067B1"/>
<path d="M10 13.125C10.5178 13.125 10.9375 12.7053 10.9375 12.1875C10.9375 11.6697 10.5178 11.25 10 11.25C9.48223 11.25 9.0625 11.6697 9.0625 12.1875C9.0625 12.7053 9.48223 13.125 10 13.125Z" fill="#0067B1"/>
<path d="M6.5625 16.25C7.08027 16.25 7.5 15.8303 7.5 15.3125C7.5 14.7947 7.08027 14.375 6.5625 14.375C6.04473 14.375 5.625 14.7947 5.625 15.3125C5.625 15.8303 6.04473 16.25 6.5625 16.25Z" fill="#0067B1"/>
<path d="M10 16.25C10.5178 16.25 10.9375 15.8303 10.9375 15.3125C10.9375 14.7947 10.5178 14.375 10 14.375C9.48223 14.375 9.0625 14.7947 9.0625 15.3125C9.0625 15.8303 9.48223 16.25 10 16.25Z" fill="#0067B1"/>
<path d="M14.375 12.1875C14.375 11.6697 13.9553 11.25 13.4375 11.25C12.9197 11.25 12.5 11.6697 12.5 12.1875V15.3125C12.5 15.8303 12.9197 16.25 13.4375 16.25C13.9553 16.25 14.375 15.8303 14.375 15.3125V12.1875Z" fill="#0067B1"/>
</svg>
