<svg width="20" height="20" viewBox="0 0 20 20" fill="none" xmlns="http://www.w3.org/2000/svg">
<g clip-path="url(#clip0_2451_8894)">
<g clip-path="url(#clip1_2451_8894)">
<rect x="1.25" y="2.5" width="17.5" height="16.25" rx="1.25" stroke="#0067B1" stroke-width="1.25" stroke-linecap="round" stroke-linejoin="round"/>
<path d="M5 1.25V2.5M15 1.25V2.5" stroke="#0067B1" stroke-width="1.25" stroke-linecap="round" stroke-linejoin="round"/>
<path d="M18.125 6.25H1.875" stroke="#0067B1" stroke-width="1.25" stroke-linecap="round" stroke-linejoin="round"/>
<path d="M12 11C12 10.175 11.16 9.50003 10.125 9.50003M10.125 9.50003C9.09 9.50003 8.25 10.175 8.25 11C8.25 11.825 9.09 12.5 10.125 12.5C11.16 12.5 12 13.175 12 14C12 14.8249 11.16 15.4999 10.125 15.4999M10.125 9.50003L10.1249 8.75M10.125 15.4999C9.09 15.4999 8.25 14.8249 8.25 14M10.125 15.4999L10.1249 16.25" stroke="#0067B1" stroke-width="1.25" stroke-miterlimit="10" stroke-linecap="round" stroke-linejoin="round"/>
</g>
</g>
<defs>
<clipPath id="clip0_2451_8894">
<rect width="20" height="20" fill="white"/>
</clipPath>
<clipPath id="clip1_2451_8894">
<rect width="20" height="20" fill="white"/>
</clipPath>
</defs>
</svg>
