<svg width="20" height="20" viewBox="0 0 20 20" fill="none" xmlns="http://www.w3.org/2000/svg">
<g clip-path="url(#clip0_2451_8901)">
<g clip-path="url(#clip1_2451_8901)">
<rect x="1.25" y="2.5" width="17.5" height="16.25" rx="1.25" stroke="#03182B" stroke-width="1.25" stroke-linecap="round" stroke-linejoin="round"/>
<path d="M11.5625 10.3125C12.0803 10.3125 12.5 9.89277 12.5 9.375C12.5 8.85723 12.0803 8.4375 11.5625 8.4375C11.0447 8.4375 10.625 8.85723 10.625 9.375C10.625 9.89277 11.0447 10.3125 11.5625 10.3125Z" fill="#03182B"/>
<path d="M14.6875 10.3125C15.2053 10.3125 15.625 9.89277 15.625 9.375C15.625 8.85723 15.2053 8.4375 14.6875 8.4375C14.1697 8.4375 13.75 8.85723 13.75 9.375C13.75 9.89277 14.1697 10.3125 14.6875 10.3125Z" fill="#03182B"/>
<path d="M11.5625 13.4375C12.0803 13.4375 12.5 13.0178 12.5 12.5C12.5 11.9822 12.0803 11.5625 11.5625 11.5625C11.0447 11.5625 10.625 11.9822 10.625 12.5C10.625 13.0178 11.0447 13.4375 11.5625 13.4375Z" fill="#03182B"/>
<path d="M14.6875 13.4375C15.2053 13.4375 15.625 13.0178 15.625 12.5C15.625 11.9822 15.2053 11.5625 14.6875 11.5625C14.1697 11.5625 13.75 11.9822 13.75 12.5C13.75 13.0178 14.1697 13.4375 14.6875 13.4375Z" fill="#03182B"/>
<path d="M5.3125 13.4375C5.83027 13.4375 6.25 13.0178 6.25 12.5C6.25 11.9822 5.83027 11.5625 5.3125 11.5625C4.79473 11.5625 4.375 11.9822 4.375 12.5C4.375 13.0178 4.79473 13.4375 5.3125 13.4375Z" fill="#03182B"/>
<path d="M8.4375 13.4375C8.95527 13.4375 9.375 13.0178 9.375 12.5C9.375 11.9822 8.95527 11.5625 8.4375 11.5625C7.91973 11.5625 7.5 11.9822 7.5 12.5C7.5 13.0178 7.91973 13.4375 8.4375 13.4375Z" fill="#03182B"/>
<path d="M5.3125 16.5625C5.83027 16.5625 6.25 16.1428 6.25 15.625C6.25 15.1072 5.83027 14.6875 5.3125 14.6875C4.79473 14.6875 4.375 15.1072 4.375 15.625C4.375 16.1428 4.79473 16.5625 5.3125 16.5625Z" fill="#03182B"/>
<path d="M8.4375 16.5625C8.95527 16.5625 9.375 16.1428 9.375 15.625C9.375 15.1072 8.95527 14.6875 8.4375 14.6875C7.91973 14.6875 7.5 15.1072 7.5 15.625C7.5 16.1428 7.91973 16.5625 8.4375 16.5625Z" fill="#03182B"/>
<path d="M11.5625 16.5625C12.0803 16.5625 12.5 16.1428 12.5 15.625C12.5 15.1072 12.0803 14.6875 11.5625 14.6875C11.0447 14.6875 10.625 15.1072 10.625 15.625C10.625 16.1428 11.0447 16.5625 11.5625 16.5625Z" fill="#03182B"/>
<path d="M5 1.25V2.5M15 1.25V2.5" stroke="#03182B" stroke-width="1.25" stroke-linecap="round" stroke-linejoin="round"/>
<path d="M18.125 6.25H1.875" stroke="#03182B" stroke-width="1.25" stroke-linecap="round" stroke-linejoin="round"/>
</g>
</g>
<defs>
<clipPath id="clip0_2451_8901">
<rect width="20" height="20" fill="white"/>
</clipPath>
<clipPath id="clip1_2451_8901">
<rect width="20" height="20" fill="white"/>
</clipPath>
</defs>
</svg>
