<svg width="20" height="20" viewBox="0 0 20 20" fill="none" xmlns="http://www.w3.org/2000/svg">
<mask id="mask0_3428_121524" style="mask-type:alpha" maskUnits="userSpaceOnUse" x="0" y="0" width="20" height="20">
<rect width="20" height="20" fill="#D72F32"/>
</mask>
<g mask="url(#mask0_3428_121524)">
<path d="M10 10.9185L13.0392 13.958C13.1762 14.0948 13.3278 14.1608 13.4939 14.1558C13.6599 14.1507 13.8146 14.0765 13.958 13.9333C14.1013 13.7899 14.1729 13.6368 14.1729 13.4739C14.1729 13.311 14.1013 13.1583 13.958 13.0157L10.9185 9.98764L13.958 6.95953C14.0948 6.82338 14.1649 6.67223 14.1682 6.50607C14.1713 6.34008 14.1013 6.18538 13.958 6.04198C13.8146 5.89874 13.6615 5.82711 13.4986 5.82711C13.3358 5.82711 13.1826 5.89874 13.0392 6.04198L10 9.08146L6.96077 6.04198C6.82379 5.90516 6.67635 5.83511 6.51843 5.83181C6.36069 5.82868 6.21011 5.89874 6.0667 6.04198C5.92346 6.18538 5.85184 6.33852 5.85184 6.50137C5.85184 6.66423 5.9228 6.81736 6.06472 6.96077L9.08146 10L6.04198 13.0392C5.90517 13.1762 5.83923 13.3237 5.84418 13.4816C5.84929 13.6393 5.92346 13.7899 6.0667 13.9333C6.21011 14.0765 6.36324 14.1482 6.5261 14.1482C6.68896 14.1482 6.84135 14.0772 6.98327 13.9353L10 10.9185ZM10.0084 19C8.77033 19 7.60429 18.7658 6.51027 18.2973C5.41626 17.8288 4.45874 17.1843 3.63769 16.3635C2.81665 15.5428 2.17173 14.586 1.70294 13.4932C1.23431 12.4005 1 11.2329 1 9.99036C1 8.74783 1.23423 7.58368 1.70269 6.49791C2.17115 5.41214 2.81574 4.45874 3.63646 3.63769C4.45717 2.81665 5.41396 2.17173 6.50681 1.70294C7.59951 1.23431 8.76712 1 10.0096 1C11.2522 1 12.4163 1.23423 13.5021 1.70269C14.5879 2.17115 15.5413 2.81574 16.3623 3.63646C17.1834 4.45717 17.8283 5.41198 18.2971 6.50088C18.7657 7.58994 19 8.75352 19 9.99159C19 11.2297 18.7658 12.3957 18.2973 13.4897C17.8288 14.5837 17.1843 15.5413 16.3635 16.3623C15.5428 17.1834 14.588 17.8283 13.4991 18.2971C12.4101 18.7657 11.2465 19 10.0084 19ZM10 17.7143C12.1429 17.7143 13.9643 16.9643 15.4643 15.4643C16.9643 13.9643 17.7143 12.1429 17.7143 10C17.7143 7.85714 16.9643 6.03571 15.4643 4.53571C13.9643 3.03571 12.1429 2.28571 10 2.28571C7.85714 2.28571 6.03571 3.03571 4.53571 4.53571C3.03571 6.03571 2.28571 7.85714 2.28571 10C2.28571 12.1429 3.03571 13.9643 4.53571 15.4643C6.03571 16.9643 7.85714 17.7143 10 17.7143Z" fill="#D72F32"/>
</g>
</svg>
