<svg width="20" height="20" viewBox="0 0 20 20" fill="none" xmlns="http://www.w3.org/2000/svg">
<g clip-path="url(#clip0_617_1938)">
<rect x="1.25" y="3.125" width="17.5" height="13.75" rx="1.25" stroke="#0067B1" stroke-width="1.25" stroke-linecap="round" stroke-linejoin="round"/>
<path d="M10.625 6.25H4.375C4.02982 6.25 3.75 6.52982 3.75 6.875C3.75 7.22018 4.02982 7.5 4.375 7.5H10.625C10.9702 7.5 11.25 7.22018 11.25 6.875C11.25 6.52982 10.9702 6.25 10.625 6.25Z" fill="#0067B1"/>
<path d="M8.125 9.0625H4.375C4.02982 9.0625 3.75 9.34232 3.75 9.6875C3.75 10.0327 4.02982 10.3125 4.375 10.3125H8.125C8.47018 10.3125 8.75 10.0327 8.75 9.6875C8.75 9.34232 8.47018 9.0625 8.125 9.0625Z" fill="#0067B1"/>
<path d="M14.9024 8.61383C14.7549 8.45678 14.5764 8.33221 14.3781 8.24806C14.1798 8.16392 13.9662 8.12206 13.7508 8.12516C13.2977 8.12516 12.8879 8.29743 12.5969 8.61071C12.3059 8.92399 12.1594 9.35758 12.193 9.82164C12.2598 10.7388 12.9586 11.4845 13.7508 11.4845C14.543 11.4845 15.2406 10.7388 15.3082 9.82243C15.3426 9.36227 15.1981 8.93297 14.9024 8.61383ZM16.3949 15.0002H11.1067C11.0378 15.0013 10.9696 14.9872 10.9067 14.9591C10.8439 14.931 10.788 14.8894 10.743 14.8373C10.6942 14.7788 10.6591 14.7101 10.6405 14.6363C10.6218 14.5624 10.62 14.4853 10.6352 14.4107C10.7621 13.7248 11.1578 13.1486 11.7797 12.7443C12.332 12.3853 13.032 12.1877 13.7508 12.1877C14.4695 12.1877 15.1695 12.3853 15.7219 12.7443C16.3438 13.1486 16.7395 13.7248 16.8664 14.4107C16.8816 14.4853 16.8798 14.5624 16.8611 14.6363C16.8424 14.7101 16.8074 14.7788 16.7586 14.8373C16.7136 14.8894 16.6577 14.931 16.5949 14.9591C16.532 14.9872 16.4638 15.0013 16.3949 15.0002Z" fill="#0067B1"/>
</g>
<defs>
<clipPath id="clip0_617_1938">
<rect width="20" height="20" fill="white"/>
</clipPath>
</defs>
</svg>
