<svg width="20" height="20" viewBox="0 0 20 20" fill="none" xmlns="http://www.w3.org/2000/svg">
<g clip-path="url(#clip0_2451_8917)">
<path d="M18.75 8.33317V4.1665C18.75 3.47615 18.1904 2.9165 17.5 2.9165H2.5C1.80964 2.9165 1.25 3.47615 1.25 4.1665V8.33317" stroke="#03182B" stroke-width="1.25" stroke-linecap="round" stroke-linejoin="round"/>
<path d="M18.75 11.25V7.5C18.75 6.80964 18.1904 6.25 17.5 6.25H2.5C1.80964 6.25 1.25 6.80964 1.25 7.5V11.25" stroke="#03182B" stroke-width="1.25" stroke-linecap="round" stroke-linejoin="round"/>
<path d="M17.5 17.0835H10.4605H2.5C1.80964 17.0835 1.25 16.5239 1.25 15.8335V10.8335C1.25 10.1431 1.80964 9.5835 2.5 9.5835H5.95955C6.53405 9.5835 7.01403 9.98489 7.24475 10.511C7.74747 11.6574 8.58954 12.2306 10 12.2306C11.4105 12.2306 12.2525 11.6574 12.7552 10.511C12.986 9.98489 13.4659 9.5835 14.0404 9.5835H17.5C18.1904 9.5835 18.75 10.1431 18.75 10.8335V15.8335C18.75 16.5239 18.1904 17.0835 17.5 17.0835Z" stroke="#03182B" stroke-width="1.25" stroke-linecap="round" stroke-linejoin="round"/>
</g>
<defs>
<clipPath id="clip0_2451_8917">
<rect width="20" height="20" fill="white"/>
</clipPath>
</defs>
</svg>
