<svg width="20" height="20" viewBox="0 0 20 20" fill="none" xmlns="http://www.w3.org/2000/svg">
<g clip-path="url(#clip0_2451_8922)">
<path d="M18.75 11.875V15.625C18.75 16.3154 18.1904 16.875 17.5 16.875H2.5C1.80964 16.875 1.25 16.3154 1.25 15.625V4.375C1.25 3.68464 1.80964 3.125 2.5 3.125H11.875" stroke="#0067B1" stroke-width="1.25" stroke-linecap="round" stroke-linejoin="round"/>
<path d="M1.25 7.5H11.875" stroke="#0067B1" stroke-width="1.25" stroke-linecap="round" stroke-linejoin="round"/>
<path d="M18.75 3.87501C18.75 2.91253 17.77 2.12504 16.5625 2.12504M16.5625 2.12504C15.355 2.12504 14.375 2.91253 14.375 3.87501C14.375 4.83749 15.355 5.62498 16.5625 5.62498C17.77 5.62498 18.75 6.41247 18.75 7.37495C18.75 8.33743 17.77 9.12492 16.5625 9.12492M16.5625 2.12504L16.5624 1.25M16.5625 9.12492C15.355 9.12492 14.375 8.33743 14.375 7.37495M16.5625 9.12492L16.5624 10" stroke="#0067B1" stroke-width="1.25" stroke-miterlimit="10" stroke-linecap="round" stroke-linejoin="round"/>
<path d="M7.5 10H3.75V11.5625H7.5V10Z" fill="#0067B1"/>
</g>
<defs>
<clipPath id="clip0_2451_8922">
<rect width="20" height="20" fill="white"/>
</clipPath>
</defs>
</svg>
