<svg width="20" height="20" viewBox="0 0 20 20" fill="none" xmlns="http://www.w3.org/2000/svg">
<g clip-path="url(#clip0_204_1398)">
<path d="M2.58892 11.9411C3.04323 13.6173 4.07145 15.0858 5.49836 16.0965C6.92526 17.1073 8.66254 17.5975 10.4141 17.4839C12.1658 17.3702 13.8233 16.6596 15.1043 15.4731C16.3853 14.2867 17.2105 12.6978 17.4392 10.9773C17.6679 9.25683 17.2861 7.51115 16.3587 6.03777C15.4314 4.56439 14.0159 3.4545 12.3535 2.89724C10.6911 2.33998 8.88465 2.36983 7.24202 2.98171C5.59939 3.59359 4.22221 4.74963 3.34519 6.25282L2.50391 7.69331" stroke="#0067B1" stroke-width="1.25" stroke-linecap="round" stroke-linejoin="round"/>
<path d="M9.375 6.25V10.625H13.75" stroke="#0067B1" stroke-width="1.25" stroke-linecap="round" stroke-linejoin="round"/>
<path d="M1.5625 4.375L2.47756 7.79006L5.89263 6.875" stroke="#0067B1" stroke-width="1.25" stroke-linecap="round" stroke-linejoin="round"/>
</g>
<defs>
<clipPath id="clip0_204_1398">
<rect width="20" height="20" fill="white"/>
</clipPath>
</defs>
</svg>
