<svg width="20" height="20" viewBox="0 0 20 20" fill="none" xmlns="http://www.w3.org/2000/svg">
<path d="M18.125 12.625C18.125 11.6625 17.145 10.875 15.9375 10.875M15.9375 10.875C14.73 10.875 13.75 11.6625 13.75 12.625C13.75 13.5875 14.73 14.375 15.9375 14.375C17.145 14.375 18.125 15.1625 18.125 16.125C18.125 17.0874 17.145 17.8749 15.9375 17.8749M15.9375 10.875L15.9374 10M15.9375 17.8749C14.73 17.8749 13.75 17.0874 13.75 16.125M15.9375 17.8749L15.9374 18.75" stroke="#0067B1" stroke-width="1.25" stroke-miterlimit="10" stroke-linecap="round" stroke-linejoin="round"/>
<path d="M7.5 11.25L10 10V5.625" stroke="#0067B1" stroke-width="1.25" stroke-linecap="round" stroke-linejoin="round"/>
<path d="M11.3024 17.3861C9.90077 17.6332 8.4578 17.4764 7.14197 16.9341C5.82615 16.3918 4.6918 15.4862 3.87141 14.3232C3.05103 13.1603 2.57848 11.7879 2.50895 10.3664C2.43943 8.94486 2.7758 7.53291 3.47879 6.29544C4.18177 5.05796 5.22234 4.04605 6.47896 3.37789C7.73558 2.70974 9.15637 2.41292 10.5754 2.5221C11.9944 2.63129 13.3531 3.14198 14.4927 3.99451C15.6323 4.84705 16.5058 6.00624 17.0112 7.3367" stroke="#0067B1" stroke-width="1.25" stroke-linecap="round" stroke-linejoin="round"/>
</svg>
