<svg width="20" height="20" viewBox="0 0 20 20" fill="none" xmlns="http://www.w3.org/2000/svg">
<path d="M12.5 9.50001C12.5 8.53753 11.52 7.75004 10.3125 7.75004M10.3125 7.75004C9.105 7.75004 8.125 8.53753 8.125 9.50001C8.125 10.4625 9.105 11.25 10.3125 11.25C11.52 11.25 12.5 12.0375 12.5 13C12.5 13.9624 11.52 14.7499 10.3125 14.7499M10.3125 7.75004L10.3124 6.875M10.3125 14.7499C9.105 14.7499 8.125 13.9624 8.125 13M10.3125 14.7499L10.3124 15.625" stroke="#0067B1" stroke-width="1.25" stroke-miterlimit="10" stroke-linecap="round" stroke-linejoin="round"/>
<rect x="3.75" y="1.25" width="12.5" height="2.5" rx="1.25" stroke="#0067B1" stroke-width="1.25"/>
<path d="M6.25 3.75V3.75C6.25 4.49649 5.77233 5.15922 5.06415 5.39528L4.20943 5.68019C3.18858 6.02047 2.5 6.97582 2.5 8.0519V16.25C2.5 17.6307 3.61929 18.75 5 18.75H15C16.3807 18.75 17.5 17.6307 17.5 16.25V8.0519C17.5 6.97582 16.8114 6.02048 15.7906 5.68019L14.9359 5.39528C14.2277 5.15922 13.75 4.49649 13.75 3.75V3.75" stroke="#0067B1" stroke-width="1.25"/>
</svg>
