<svg width="20" height="20" viewBox="0 0 20 20" fill="none" xmlns="http://www.w3.org/2000/svg">
<path d="M17.1028 12.6895C17.2628 12.6467 17.434 12.6691 17.5774 12.752C17.7206 12.8348 17.8255 12.9711 17.8684 13.1309L18.7834 16.5459C18.8726 16.879 18.6749 17.2219 18.342 17.3115C18.0088 17.4008 17.666 17.2032 17.5764 16.8701L17.0579 14.9355L16.9358 15.1455C15.9855 16.7739 14.4944 18.0247 12.718 18.6865C10.9415 19.3482 8.98746 19.3809 7.1897 18.7783C5.39176 18.1755 3.85848 16.9742 2.85376 15.3779C2.67024 15.086 2.75832 14.7005 3.05005 14.5166C3.34198 14.3329 3.72737 14.4203 3.91138 14.7119C4.76114 16.062 6.05988 17.0809 7.58618 17.5928C9.11284 18.1045 10.7731 18.0774 12.2815 17.5156C13.7897 16.9538 15.053 15.8929 15.8567 14.5156V14.5146L15.9924 14.2803L14.012 14.8115C13.6787 14.9008 13.3359 14.7032 13.2463 14.3701C13.157 14.0368 13.3545 13.694 13.6877 13.6045L17.1028 12.6895ZM10.0002 5C10.3453 5.00009 10.6251 5.27998 10.6252 5.625V5.9375C11.8001 6.16792 12.8126 7.03261 12.8127 8.25C12.8127 8.59515 12.5329 8.87496 12.1877 8.875C11.8426 8.875 11.5627 8.59518 11.5627 8.25C11.5626 7.75498 10.9989 7.12503 10.0002 7.125C9.00156 7.125 8.43788 7.75497 8.43774 8.25C8.43774 8.74506 9.00143 9.375 10.0002 9.375C11.4164 9.37504 12.8126 10.3202 12.8127 11.75C12.8127 12.9673 11.8 13.83 10.6252 14.0605V14.375C10.6252 14.7201 10.3453 14.9999 10.0002 15C9.65509 15 9.37524 14.7201 9.37524 14.375V14.0605C8.20048 13.83 7.18777 12.9673 7.18774 11.75C7.18784 11.4049 7.46762 11.125 7.81274 11.125C8.15783 11.125 8.43765 11.4049 8.43774 11.75C8.43778 12.2451 9.00147 12.875 10.0002 12.875C10.999 12.875 11.5627 12.245 11.5627 11.75C11.5626 11.255 10.9989 10.625 10.0002 10.625C8.58405 10.625 7.18774 9.67991 7.18774 8.25C7.18785 7.0326 8.20037 6.1679 9.37524 5.9375V5.625C9.37534 5.27993 9.65515 5.00004 10.0002 5ZM7.28149 1.31445C9.05811 0.652667 11.0119 0.620054 12.8098 1.22266C14.6079 1.82541 16.141 3.02666 17.1458 4.62305C17.3293 4.91514 17.2415 5.30058 16.9495 5.48438C16.6575 5.66796 16.2721 5.58067 16.0881 5.28906C15.2383 3.93887 13.9398 2.92004 12.4133 2.4082C10.8865 1.8964 9.22656 1.92342 7.71802 2.48535C6.20979 3.04724 4.94648 4.108 4.14282 5.48535V5.48633L4.0061 5.71973L5.98853 5.18945C6.32181 5.10015 6.66465 5.29767 6.75415 5.63086C6.84335 5.96411 6.64591 6.30702 6.31274 6.39648L2.89771 7.31152C2.73769 7.35431 2.56655 7.33185 2.4231 7.24902C2.27982 7.16622 2.17504 7.02992 2.13208 6.87012L1.21704 3.45508C1.12777 3.1219 1.32545 2.77908 1.65845 2.68945C1.99174 2.60015 2.33458 2.79767 2.42407 3.13086L2.94165 5.06348L3.06372 4.85547C4.01396 3.227 5.50509 1.97633 7.28149 1.31445Z" fill="#0067B1"/>
</svg>
