<svg width="20" height="20" viewBox="0 0 20 20" fill="none" xmlns="http://www.w3.org/2000/svg">
<g clip-path="url(#clip0_2451_8903)">
<g clip-path="url(#clip1_2451_8903)">
<path d="M16.6668 4.33247C15.0618 2.4464 12.6706 1.25 9.99998 1.25C5.16736 1.25 1.24976 5.16751 1.24976 10C1.24976 14.8325 5.16736 18.75 9.99998 18.75C12.6706 18.75 15.0618 17.5536 16.6668 15.6675" stroke="#0067B1" stroke-width="1.25" stroke-linecap="round" stroke-linejoin="round"/>
<path d="M18.75 10H13.75" stroke="#0067B1" stroke-width="1.25" stroke-linecap="round" stroke-linejoin="round"/>
<path d="M16.25 7.5V12.5" stroke="#0067B1" stroke-width="1.25" stroke-linecap="round" stroke-linejoin="round"/>
<path d="M11.25 8.25001C11.25 7.28753 10.27 6.50004 9.0625 6.50004M9.0625 6.50004C7.855 6.50004 6.875 7.28753 6.875 8.25001C6.875 9.21249 7.855 9.99998 9.0625 9.99998C10.27 9.99998 11.25 10.7875 11.25 11.75C11.25 12.7124 10.27 13.4999 9.0625 13.4999M9.0625 6.50004L9.06241 5.625M9.0625 13.4999C7.855 13.4999 6.875 12.7124 6.875 11.75M9.0625 13.4999L9.06241 14.375" stroke="#0067B1" stroke-width="1.25" stroke-miterlimit="10" stroke-linecap="round" stroke-linejoin="round"/>
</g>
</g>
<defs>
<clipPath id="clip0_2451_8903">
<rect width="20" height="20" fill="white"/>
</clipPath>
<clipPath id="clip1_2451_8903">
<rect width="20" height="20" fill="white"/>
</clipPath>
</defs>
</svg>
