<svg width="20" height="20" viewBox="0 0 20 20" fill="none" xmlns="http://www.w3.org/2000/svg">
<path d="M6.25 8.125L0.625 19.375L11.875 13.75L6.25 8.125Z" stroke="#0067B1" stroke-width="1.25" stroke-linejoin="round"/>
<path d="M10 8.125L10.3125 7.8125M12.5 1.875L12.6072 1.98223C13.5835 2.95854 13.5835 4.54146 12.6072 5.51777L11.5625 6.5625" stroke="#0067B1" stroke-width="1.25" stroke-linecap="round" stroke-linejoin="round"/>
<path d="M11.875 10L14.6875 7.8125M19.375 6.25L18.7693 6.0481C17.9763 5.78377 17.1037 5.93325 16.4439 6.44643L16.2695 6.58203" stroke="#0067B1" stroke-width="1.25" stroke-linecap="round" stroke-linejoin="round"/>
<path d="M8.125 6.25L8.49112 5.88388C8.97927 5.39573 8.97927 4.60427 8.49112 4.11612L8.125 3.75" stroke="#0067B1" stroke-width="1.25" stroke-linecap="round" stroke-linejoin="round"/>
<path d="M13.75 11.875L15.132 11.184C15.8358 10.8321 16.6642 10.8321 17.368 11.184L18.75 11.875" stroke="#0067B1" stroke-width="1.25" stroke-linecap="round" stroke-linejoin="round"/>
</svg>
