<svg width="20" height="20" viewBox="0 0 20 20" fill="none" xmlns="http://www.w3.org/2000/svg">
<path d="M16.5625 5.12501C16.5625 4.16253 15.5825 3.37504 14.375 3.37504M14.375 3.37504C13.1675 3.37504 12.1875 4.16253 12.1875 5.12501C12.1875 6.08749 13.1675 6.87498 14.375 6.87498C15.5825 6.87498 16.5625 7.66247 16.5625 8.62495C16.5625 9.58743 15.5825 10.3749 14.375 10.3749M14.375 3.37504L14.3749 2.5M14.375 10.3749C13.1675 10.3749 12.1875 9.58743 12.1875 8.62495M14.375 10.3749L14.3749 11.25" stroke="#03182B" stroke-width="1.25" stroke-miterlimit="10" stroke-linecap="round" stroke-linejoin="round"/>
<rect x="11.25" y="13.75" width="6.25" height="3.75" rx="1.25" stroke="#03182B" stroke-width="1.25"/>
<rect x="2.5" y="11.25" width="6.25" height="6.25" rx="1.25" stroke="#03182B" stroke-width="1.25"/>
<rect x="2.5" y="2.5" width="6.25" height="6.25" rx="1.25" stroke="#03182B" stroke-width="1.25"/>
</svg>
