<svg width="20" height="20" viewBox="0 0 20 20" fill="none" xmlns="http://www.w3.org/2000/svg">
<path d="M17.5 7.41186C16.664 6.19155 15.6054 5.23351 14.3505 4.56129C11.6949 3.13589 8.3051 3.14064 5.65388 4.57057C4.39464 5.2497 3.33143 6.21443 2.5 7.44403M3.79711 15.9316C3.31844 14.5915 3.18176 13.431 3.18176 12.4501C3.18176 11.4139 3.3693 10.4768 3.74191 9.66859C4.84689 7.25537 7.29279 5.69656 9.97047 5.69656C13.7376 5.69656 16.8032 8.72674 16.8032 12.4525C16.8032 13.6959 15.7799 14.7044 14.5271 14.7044C13.2743 14.7044 12.2509 13.6935 12.2509 12.4525C12.2509 11.2114 11.2297 10.2005 9.97481 10.2005C8.71992 10.2005 7.69868 11.209 7.69868 12.4525C7.69599 14.1401 8.33326 15.7451 9.47856 16.9333C10.3718 17.8613 11.2363 18.3725 12.5619 18.7501M8.0167 18.5496C7.29548 17.7898 6.89848 17.3062 6.31621 16.2217C5.7449 15.1555 5.44281 13.8499 5.44281 12.4454C5.44281 9.96314 7.48736 7.94151 9.99942 7.94151C12.5115 7.94151 14.556 9.96098 14.556 12.4454M15.1251 2.60394C13.3806 1.6621 11.8257 1.25 10.0082 1.25C8.19064 1.25 6.46162 1.70592 4.88251 2.60394M15.3389 16.7537C14.9045 16.8342 14.5075 16.848 14.3398 16.848C13.3738 16.848 12.5467 16.6017 11.8542 16.1113C10.6632 15.2661 9.95087 13.8984 9.95087 12.4501" stroke="#0067B1" stroke-width="1.25" stroke-miterlimit="10" stroke-linecap="round" stroke-linejoin="round"/>
</svg>
