<svg width="20" height="20" viewBox="0 0 20 20" fill="none" xmlns="http://www.w3.org/2000/svg">
<path d="M16.9267 1.875C16.9267 4.98687 10.0186 3.60359 10.0186 8.79039M10 8.79039C8.11984 8.79039 7.86938 7.75242 5.98922 7.75242C4.11016 7.75242 1.25 12.2476 1.25 15.7048C1.25 17.088 1.97953 18.125 3.07328 18.125C6.35453 18.125 7.8125 15.0131 10 15.0131C12.1875 15.0131 13.6455 18.125 16.9267 18.125C18.0205 18.125 18.75 17.088 18.75 15.7048C18.75 12.2476 15.8898 7.75242 14.0108 7.75242C12.1295 7.75242 11.8802 8.79039 10 8.79039V8.79039Z" stroke="#0067B1" stroke-width="1.25" stroke-linecap="round" stroke-linejoin="round"/>
<path d="M13.75 12.6045C14.1526 12.6045 14.4794 12.9304 14.4795 13.333C14.4795 13.7357 14.1527 14.0625 13.75 14.0625C13.3473 14.0624 13.0205 13.7357 13.0205 13.333C13.0206 12.9304 13.3474 12.6045 13.75 12.6045ZM12.292 11.1455C12.6945 11.1457 13.0205 11.4724 13.0205 11.875C13.0205 12.2776 12.6946 12.6043 12.292 12.6045C11.8893 12.6045 11.5625 12.2777 11.5625 11.875C11.5626 11.4723 11.8893 11.1455 12.292 11.1455ZM15.208 11.1455C15.6107 11.1455 15.9374 11.4723 15.9375 11.875C15.9375 12.2777 15.6107 12.6045 15.208 12.6045C14.8054 12.6044 14.4795 12.2776 14.4795 11.875C14.4795 11.4724 14.8054 11.1456 15.208 11.1455ZM13.75 9.6875C14.1527 9.6875 14.4795 10.0143 14.4795 10.417C14.4793 10.8196 14.1526 11.1455 13.75 11.1455C13.3474 11.1455 13.0207 10.8195 13.0205 10.417C13.0205 10.0143 13.3473 9.68756 13.75 9.6875Z" fill="#0067B1"/>
<path fill-rule="evenodd" clip-rule="evenodd" d="M6.74982 11.3748V10.3125H5.74982V11.3748H4.6875V12.3748H5.74982V13.4375H6.74982V12.3748H7.8125V11.3748H6.74982Z" fill="#0067B1"/>
</svg>
