<svg width="20" height="20" viewBox="0 0 20 20" fill="none" xmlns="http://www.w3.org/2000/svg">
<g clip-path="url(#clip0_9178_3540)">
<path d="M10.0002 3.80208V6.35417M10.0002 3.80208C10.0002 3.29733 10.1498 2.80391 10.4303 2.38422C10.7107 1.96454 11.1093 1.63743 11.5756 1.44427C12.0419 1.25111 12.5551 1.20057 13.0501 1.29904C13.5452 1.39751 13.9999 1.64057 14.3568 1.99749C14.7138 2.3544 14.9568 2.80914 15.0553 3.3042C15.1538 3.79925 15.1032 4.31239 14.9101 4.77872C14.7169 5.24506 14.3898 5.64364 13.9701 5.92406C13.5504 6.20449 13.057 6.35417 12.5522 6.35417H10.0002M10.0002 3.80208C10.0002 3.29733 9.85049 2.80391 9.57006 2.38422C9.28963 1.96454 8.89105 1.63743 8.42472 1.44427C7.95839 1.25111 7.44525 1.20057 6.95019 1.29904C6.45514 1.39751 6.0004 1.64057 5.64349 1.99749C5.28657 2.3544 5.04351 2.80914 4.94503 3.3042C4.84656 3.79925 4.8971 4.31239 5.09026 4.77872C5.28342 5.24506 5.61053 5.64364 6.03022 5.92406C6.44991 6.20449 6.94333 6.35417 7.44808 6.35417H10.0002" stroke="#0067B1" stroke-width="1.25" stroke-miterlimit="10" stroke-linecap="round"/>
<path d="M17.2917 6.354H2.70833C1.90292 6.354 1.25 6.91365 1.25 7.604V9.479C1.25 10.1694 1.90292 10.729 2.70833 10.729H17.2917C18.0971 10.729 18.75 10.1694 18.75 9.479V7.604C18.75 6.91365 18.0971 6.354 17.2917 6.354Z" stroke="#0067B1" stroke-width="1.25" stroke-linecap="round" stroke-linejoin="round"/>
<path d="M17.2918 10.7292V16.6776C17.2918 17.2273 17.0614 17.7544 16.6511 18.143C16.2409 18.5317 15.6845 18.75 15.1043 18.75H4.896C4.31583 18.75 3.75944 18.5317 3.3492 18.143C2.93896 17.7544 2.7085 17.2273 2.7085 16.6776V10.7292M10.0002 5.625V18.75" stroke="#0067B1" stroke-width="1.25" stroke-linecap="round" stroke-linejoin="round"/>
</g>
<defs>
<clipPath id="clip0_9178_3540">
<rect width="20" height="20" fill="white"/>
</clipPath>
</defs>
</svg>
