<svg width="20" height="20" viewBox="0 0 20 20" fill="none" xmlns="http://www.w3.org/2000/svg">
<path d="M18.229 12.1348L18.229 17.4473C18.229 17.8787 17.8792 18.2285 17.4478 18.2285L12.1353 18.2285C11.7038 18.2285 11.354 17.8787 11.354 17.4473L11.354 12.1348C11.354 11.7033 11.7038 11.3535 12.1353 11.3535L17.4478 11.3535C17.8792 11.3535 18.229 11.7033 18.229 12.1348Z" stroke="#03182B" stroke-width="1.25" stroke-linecap="round" stroke-linejoin="round"/>
<path d="M18.4375 2.52841L18.4375 7.67992C18.4375 8.09832 17.5896 8.4375 16.5436 8.4375L3.66477 8.4375C2.61878 8.4375 1.77083 8.09832 1.77083 7.67992L1.77083 2.52841C1.77083 2.11001 2.61878 1.77083 3.66477 1.77083L16.5436 1.77083C17.5896 1.77083 18.4375 2.11001 18.4375 2.52841Z" stroke="#03182B" stroke-width="1.25" stroke-linecap="round" stroke-linejoin="round"/>
<path d="M8.854 12.1348L8.854 17.4473C8.854 17.8787 8.50423 18.2285 8.07275 18.2285L2.76025 18.2285C2.32878 18.2285 1.979 17.8787 1.979 17.4473L1.979 12.1348C1.979 11.7033 2.32878 11.3535 2.76025 11.3535L8.07275 11.3535C8.50423 11.3535 8.854 11.7033 8.854 12.1348Z" stroke="#03182B" stroke-width="1.25" stroke-linecap="round" stroke-linejoin="round"/>
</svg>
