<svg width="20" height="20" viewBox="0 0 20 20" fill="none" xmlns="http://www.w3.org/2000/svg">
<g clip-path="url(#clip0_495_2633)">
<path d="M17.0573 7.19175C16.8585 7.3893 16.5896 7.50018 16.3093 7.50018C16.029 7.50018 15.7601 7.3893 15.5612 7.19175L14.6831 6.31323C14.4855 6.11451 14.3745 5.84564 14.3745 5.56538C14.3745 5.28512 14.4855 5.01625 14.6831 4.81753L16.671 2.82964C16.6748 2.82582 16.6776 2.82112 16.6792 2.81595C16.6808 2.81079 16.6811 2.80531 16.6801 2.8C16.6791 2.79469 16.6769 2.7897 16.6735 2.78547C16.6701 2.78124 16.6658 2.7779 16.6608 2.77573C15.378 2.22651 13.7143 2.50581 12.6581 3.55464C11.6472 4.55815 11.5897 6.06518 11.96 7.38276C12.0127 7.56992 12.0125 7.76798 11.9597 7.95507C11.9068 8.14216 11.8032 8.31099 11.6604 8.44292L4.90262 14.7226C4.74133 14.867 4.61118 15.0428 4.52015 15.2393C4.42911 15.4357 4.37909 15.6487 4.37316 15.8651C4.36722 16.0815 4.40549 16.2969 4.48562 16.498C4.56575 16.6992 4.68606 16.8818 4.83919 17.0349C4.99233 17.188 5.17507 17.3082 5.37625 17.3882C5.57743 17.4682 5.79281 17.5064 6.00924 17.5003C6.22566 17.4943 6.43858 17.4441 6.63497 17.353C6.83136 17.2619 7.00711 17.1316 7.15145 16.9703L13.4854 10.2007C13.6159 10.0603 13.7823 9.95807 13.9665 9.90508C14.1508 9.85208 14.346 9.85031 14.5311 9.89995C15.8382 10.2492 17.3237 10.1835 18.3229 9.19917C19.3968 8.14136 19.6284 6.27182 19.1081 5.2019C19.1057 5.19721 19.1023 5.19314 19.0981 5.19003C19.0938 5.18693 19.0889 5.18487 19.0837 5.18403C19.0785 5.18319 19.0732 5.1836 19.0682 5.18521C19.0632 5.18682 19.0587 5.1896 19.055 5.19331L17.0573 7.19175Z" stroke="#0067B1" stroke-width="1.25" stroke-miterlimit="10" stroke-linecap="round"/>
<path d="M8.75013 11.0938C8.06732 10.4297 7.75443 10.1207 7.5392 9.91059C7.43148 9.80358 7.36077 9.66495 7.33737 9.51493C7.31397 9.36491 7.33911 9.21134 7.40912 9.0766C7.44603 9.01035 7.49205 8.9496 7.54584 8.89614L8.15834 8.29887C8.22172 8.23537 8.29627 8.18413 8.37826 8.1477C8.50768 8.09041 8.65132 8.07326 8.79059 8.09847C8.92987 8.12368 9.05838 8.19008 9.15951 8.2891C9.3724 8.49574 9.76224 8.87504 10.4646 9.55942M12.3857 11.3789C13.9853 12.8672 15.9255 14.6317 16.6826 15.2622C16.7392 15.3088 16.7854 15.3668 16.8182 15.4324C16.8511 15.498 16.8699 15.5698 16.8733 15.6431C16.8768 15.7164 16.8649 15.7896 16.8383 15.858C16.8118 15.9264 16.7712 15.9885 16.7193 16.0403L15.4154 17.3438C15.3623 17.3956 15.2992 17.4362 15.23 17.4629C15.1608 17.4896 15.0868 17.5019 15.0127 17.4991C14.9386 17.4964 14.8658 17.4785 14.7987 17.4467C14.7317 17.4149 14.6718 17.3698 14.6228 17.3141C13.9771 16.5649 12.2365 14.6926 10.7451 13.1344" stroke="#0067B1" stroke-width="1.25" stroke-linecap="round" stroke-linejoin="round"/>
<path d="M0.677381 7.5586L1.82621 6.43594C1.84376 6.41869 1.86459 6.40513 1.88747 6.39607C1.91035 6.38702 1.93481 6.38264 1.95941 6.38321C2.009 6.38267 2.05683 6.4016 2.09262 6.43594C2.13422 6.47709 2.18465 6.50823 2.24008 6.52698C2.29552 6.54572 2.3545 6.5516 2.41254 6.54414C2.56215 6.52774 2.72191 6.48164 2.82543 6.38321C3.0598 6.15664 2.78871 5.71016 2.99496 5.42461C3.2308 5.11202 3.48903 4.81697 3.76762 4.5418C4.00199 4.31211 4.93324 3.43555 6.49808 2.80547C6.99852 2.60319 7.53331 2.49947 8.07308 2.5C8.95551 2.5 9.63558 2.89063 9.88012 3.11211C10.0269 3.25176 10.1612 3.40389 10.2817 3.5668C10.1641 3.52345 10.0439 3.48732 9.92191 3.4586C9.66529 3.40416 9.40209 3.38758 9.14066 3.40938C8.61996 3.45196 7.99183 3.69297 7.65629 3.95625C7.11332 4.38594 6.88012 4.96094 6.8434 5.70274C6.81683 6.2543 6.94965 6.56602 8.25355 7.87031C8.29812 7.92006 8.32164 7.98516 8.31916 8.0519C8.31668 8.11864 8.2884 8.18182 8.24027 8.22813L7.52855 8.93125C7.47894 8.9799 7.41241 9.00744 7.34293 9.00809C7.27345 9.00875 7.20642 8.98247 7.1559 8.93477C6.29887 8.07774 5.72426 7.64219 5.39808 7.44414C5.07191 7.2461 4.80941 7.19024 4.68324 7.17656C4.43544 7.15201 4.18613 7.20482 3.96957 7.32774C3.93157 7.34861 3.89683 7.37493 3.86644 7.40586C3.81573 7.45828 3.77589 7.52023 3.74925 7.58814C3.7226 7.65604 3.70966 7.72854 3.71119 7.80147C3.71272 7.87439 3.72867 7.9463 3.75813 8.01302C3.7876 8.07975 3.82998 8.13998 3.88285 8.19024L3.94965 8.25274C3.96699 8.26959 3.98077 8.28975 3.99018 8.31203C3.9996 8.3343 4.00445 8.35824 4.00445 8.38242C4.00445 8.40661 3.9996 8.43054 3.99018 8.45282C3.98077 8.47509 3.96699 8.49526 3.94965 8.51211L2.80199 9.63281C2.78461 9.65042 2.76385 9.66433 2.74096 9.67373C2.71807 9.68313 2.69353 9.68781 2.66879 9.6875C2.6192 9.68799 2.57139 9.66907 2.53558 9.63477L0.677381 7.8211C0.64375 7.78567 0.625 7.73869 0.625 7.68985C0.625 7.641 0.64375 7.59402 0.677381 7.5586Z" stroke="#0067B1" stroke-width="1.25" stroke-linecap="round" stroke-linejoin="round"/>
</g>
<defs>
<clipPath id="clip0_495_2633">
<rect width="20" height="20" fill="white"/>
</clipPath>
</defs>
</svg>
