<svg width="20" height="20" viewBox="0 0 20 20" fill="none" xmlns="http://www.w3.org/2000/svg">
<path d="M17.3964 7.5C16.8013 3.95286 13.7163 1.25 10.0001 1.25C6.28382 1.25 3.19886 3.95286 2.60376 7.5" stroke="#0067B1" stroke-width="1.25"/>
<rect x="1.25" y="7.5" width="2.5" height="5" rx="1.25" stroke="#0067B1" stroke-width="1.25"/>
<rect x="11.875" y="16.25" width="2.5" height="3.75" rx="1.25" transform="rotate(90 11.875 16.25)" stroke="#0067B1" stroke-width="1.25"/>
<rect x="16.25" y="7.5" width="2.5" height="5" rx="1.25" stroke="#0067B1" stroke-width="1.25"/>
<path d="M17.5 12.5V12.5C17.5 15.9518 14.7018 18.75 11.25 18.75H10" stroke="#0067B1" stroke-width="1.25"/>
<path d="M6.69214 9.08081C6.874 9.04464 7.06283 9.06259 7.23413 9.13354C7.4053 9.20449 7.55108 9.32521 7.65405 9.47925C7.75702 9.63335 7.81221 9.81442 7.81226 9.99976C7.81226 10.2484 7.71366 10.487 7.53784 10.6628C7.36203 10.8387 7.1234 10.9373 6.87476 10.9373C6.68942 10.9372 6.50835 10.882 6.35425 10.7791C6.20021 10.6761 6.07949 10.5303 6.00854 10.3591C5.93759 10.1878 5.91964 9.999 5.95581 9.81714C5.99199 9.63529 6.08057 9.46777 6.21167 9.33667C6.34277 9.20557 6.51029 9.11699 6.69214 9.08081ZM9.81714 9.08081C9.999 9.04464 10.1878 9.06259 10.3591 9.13354C10.5303 9.20449 10.6761 9.32521 10.7791 9.47925C10.882 9.63335 10.9372 9.81442 10.9373 9.99976C10.9373 10.2484 10.8387 10.487 10.6628 10.6628C10.487 10.8387 10.2484 10.9373 9.99976 10.9373C9.81442 10.9372 9.63335 10.882 9.47925 10.7791C9.32521 10.6761 9.20449 10.5303 9.13354 10.3591C9.06259 10.1878 9.04464 9.999 9.08081 9.81714C9.11699 9.63529 9.20557 9.46777 9.33667 9.33667C9.46777 9.20557 9.63529 9.11699 9.81714 9.08081ZM12.9421 9.08081C13.124 9.04464 13.3128 9.06259 13.4841 9.13354C13.6553 9.20449 13.8011 9.32521 13.9041 9.47925C14.007 9.63335 14.0622 9.81442 14.0623 9.99976C14.0623 10.2484 13.9637 10.487 13.7878 10.6628C13.612 10.8387 13.3734 10.9373 13.1248 10.9373C12.9394 10.9372 12.7583 10.882 12.6042 10.7791C12.4502 10.6761 12.3295 10.5303 12.2585 10.3591C12.1876 10.1878 12.1696 9.999 12.2058 9.81714C12.242 9.63529 12.3306 9.46777 12.4617 9.33667C12.5928 9.20557 12.7603 9.11699 12.9421 9.08081Z" fill="#0067B1"/>
</svg>
