<svg width="20" height="20" viewBox="0 0 20 20" fill="none" xmlns="http://www.w3.org/2000/svg">
<path d="M16.3723 6.875H3.62773C3.0049 6.875 2.5 7.44302 2.5 8.1437V16.8563C2.5 17.557 3.0049 18.125 3.62773 18.125H16.3723C16.9951 18.125 17.5 17.557 17.5 16.8563V8.1437C17.5 7.44302 16.9951 6.875 16.3723 6.875Z" stroke="#0067B1" stroke-width="1.25" stroke-linejoin="round"/>
<path d="M5.625 3.125H14.375H5.625ZM4.375 5H15.625H4.375Z" fill="#0067B1"/>
<path d="M5.625 3.125H14.375M4.375 5H15.625" stroke="#0067B1" stroke-width="1.25" stroke-miterlimit="10" stroke-linecap="round"/>
<path d="M11.6168 9.625C10.5338 9.625 10 10.6903 10 10.6903C10 10.6903 9.46618 9.625 8.38318 9.625C7.50303 9.625 6.80605 10.3597 6.79705 11.2365C6.7787 13.0564 8.24388 14.3506 9.84986 15.4382C9.89414 15.4683 9.94645 15.4844 10 15.4844C10.0536 15.4844 10.1059 15.4683 10.1501 15.4382C11.756 14.3506 13.2211 13.0564 13.203 11.2365C13.1939 10.3597 12.497 9.625 11.6168 9.625Z" stroke="#0067B1" stroke-width="1.25" stroke-linecap="round" stroke-linejoin="round"/>
</svg>
