<svg width="20" height="20" viewBox="0 0 20 20" fill="none" xmlns="http://www.w3.org/2000/svg">
<g clip-path="url(#clip0_277_2463)">
<g clip-path="url(#clip1_277_2463)">
<path d="M10 1.25C5.168 1.25 1.25 5.168 1.25 10C1.25 14.832 5.168 18.75 10 18.75C14.832 18.75 18.75 14.832 18.75 10C18.75 5.168 14.832 1.25 10 1.25Z" stroke="#0067B1" stroke-width="1.25" stroke-miterlimit="10"/>
<path d="M8.66846 8.66846H10.1902V14.1848" stroke="#0067B1" stroke-width="1.25" stroke-linecap="round" stroke-linejoin="round"/>
<path d="M8.0979 14.375H12.2827" stroke="#0067B1" stroke-width="1.25" stroke-miterlimit="10" stroke-linecap="round"/>
<path d="M9.99984 4.38867C9.7553 4.38867 9.51625 4.46119 9.31293 4.59705C9.1096 4.7329 8.95113 4.92601 8.85754 5.15193C8.76396 5.37786 8.73948 5.62646 8.78719 5.8663C8.83489 6.10614 8.95265 6.32645 9.12556 6.49936C9.29848 6.67228 9.51879 6.79003 9.75863 6.83774C9.99847 6.88545 10.2471 6.86096 10.473 6.76738C10.6989 6.6738 10.892 6.51533 11.0279 6.312C11.1637 6.10867 11.2363 5.86962 11.2363 5.62508C11.2363 5.29717 11.106 4.98268 10.8741 4.75081C10.6422 4.51894 10.3278 4.38867 9.99984 4.38867Z" fill="#0067B1"/>
</g>
</g>
<defs>
<clipPath id="clip0_277_2463">
<rect width="20" height="20" fill="white"/>
</clipPath>
<clipPath id="clip1_277_2463">
<rect width="20" height="20" fill="white"/>
</clipPath>
</defs>
</svg>
