<svg width="20" height="20" viewBox="0 0 20 20" fill="none" xmlns="http://www.w3.org/2000/svg">
<path d="M7.672 14.0386H5.28847C4.2174 14.0386 3.1902 13.6131 2.43284 12.8558C1.67548 12.0984 1.25 11.0712 1.25 10.0001C1.25 8.92907 1.67548 7.90187 2.43284 7.14451C3.1902 6.38715 4.2174 5.96167 5.28847 5.96167H7.61942M12.3806 5.96167H14.7116C15.7826 5.96167 16.8098 6.38715 17.5672 7.14451C18.3245 7.90187 18.75 8.92907 18.75 10.0001C18.75 11.0712 18.3245 12.0984 17.5672 12.8558C16.8098 13.6131 15.7826 14.0386 14.7116 14.0386H12.328M6.34309 10.0001H13.7411" stroke="#0067B1" stroke-width="1.25" stroke-linecap="round" stroke-linejoin="round"/>
</svg>
