<svg width="21" height="20" viewBox="0 0 21 20" fill="none" xmlns="http://www.w3.org/2000/svg">
<g clip-path="url(#clip0_15852_1460)">
<path d="M2.49998 9.37491V17.4998M1.25 18.1248H18.7498M8.12491 9.45303H3.2613C1.79413 9.40811 0.848443 8.00031 1.41797 6.75775L3.10935 3.06483C3.43982 2.34374 4.20856 1.875 5.05972 1.875H14.9401C15.7912 1.875 16.56 2.34374 16.8904 3.06483L17.6298 4.67913M5.31245 12.436H7.18742C7.43606 12.436 7.67452 12.5348 7.85033 12.7106C8.02614 12.8864 8.12491 13.1249 8.12491 13.3735V15.6248H4.37496V13.3735C4.37496 13.1249 4.47373 12.8864 4.64954 12.7106C4.82536 12.5348 5.06381 12.436 5.31245 12.436Z" stroke="#0067B1" stroke-width="1.24998" stroke-linecap="round" stroke-linejoin="round"/>
</g>
<ellipse cx="14.9998" cy="11.2499" rx="5.00006" ry="4.99994" stroke="#0067B1" stroke-width="1.24998" stroke-linecap="round" stroke-linejoin="round"/>
<path d="M16.4286 10.1071C16.4286 9.47854 15.7886 8.96427 15.0001 8.96427M15.0001 8.96427C14.2115 8.96427 13.5715 9.47854 13.5715 10.1071C13.5715 10.7356 14.2115 11.2499 15.0001 11.2499C15.7886 11.2499 16.4286 11.7642 16.4286 12.3927C16.4286 13.0213 15.7886 13.5356 15.0001 13.5356M15.0001 8.96427L15 8.39282M15.0001 13.5356C14.2115 13.5356 13.5715 13.0213 13.5715 12.3927M15.0001 13.5356L15 14.107" stroke="#0067B1" stroke-width="1.24998" stroke-miterlimit="10" stroke-linecap="round" stroke-linejoin="round"/>
<defs>
<clipPath id="clip0_15852_1460">
<rect width="19.9997" height="19.9997" fill="white"/>
</clipPath>
</defs>
</svg>
