<svg width="20" height="20" viewBox="0 0 20 20" fill="none" xmlns="http://www.w3.org/2000/svg">
<path d="M7.5 5.625H12.5L13.5451 6.25208C16.7742 8.18953 18.75 11.6791 18.75 15.4449V15.4449C18.75 16.9251 17.5501 18.125 16.0699 18.125H3.93013C2.44994 18.125 1.25 16.9251 1.25 15.4449V15.4449C1.25 11.6791 3.22578 8.18953 6.45487 6.25208L7.5 5.625Z" stroke="#0067B1" stroke-width="1.25"/>
<path d="M11.875 10.375C11.875 9.55002 11.035 8.87503 10 8.87503M10 8.87503C8.965 8.87503 8.125 9.55002 8.125 10.375C8.125 11.2 8.965 11.875 10 11.875C11.035 11.875 11.875 12.55 11.875 13.375C11.875 14.1999 11.035 14.8749 10 14.8749M10 8.87503L9.99992 8.125M10 14.8749C8.965 14.8749 8.125 14.1999 8.125 13.375M10 14.8749L9.99992 15.625" stroke="#0067B1" stroke-width="1.25" stroke-miterlimit="10" stroke-linecap="round" stroke-linejoin="round"/>
<path d="M7.5 4.375H12.5L15 1.875H10H5L7.5 4.375Z" stroke="#0067B1" stroke-width="1.25" stroke-linejoin="round"/>
<rect x="6.875" y="4.375" width="6.25" height="1.25" rx="0.625" stroke="#0067B1" stroke-width="1.25" stroke-linejoin="round"/>
</svg>
