<svg width="20" height="20" viewBox="0 0 20 20" fill="none" xmlns="http://www.w3.org/2000/svg">
<path d="M15.1104 4.21729L13.9546 5.37305M15.1104 4.21729C15.3389 3.9887 15.6302 3.83303 15.9472 3.76996C16.2643 3.7069 16.5929 3.73927 16.8916 3.86298C17.1903 3.98669 17.4455 4.19618 17.6251 4.46498C17.8047 4.73377 17.9006 5.04978 17.9006 5.37305C17.9006 5.69633 17.8047 6.01234 17.6251 6.28113C17.4455 6.54992 17.1903 6.75942 16.8916 6.88313C16.5929 7.00684 16.2643 7.03921 15.9472 6.97614C15.6302 6.91308 15.3389 6.7574 15.1104 6.52882L13.9546 5.37305M15.1104 4.21729C15.3389 3.9887 15.4946 3.69746 15.5577 3.3804C15.6207 3.06334 15.5884 2.7347 15.4647 2.43603C15.341 2.13737 15.1315 1.88209 14.8627 1.70249C14.5939 1.52289 14.2779 1.42703 13.9546 1.42703C13.6313 1.42703 13.3153 1.52289 13.0465 1.70249C12.7777 1.88209 12.5682 2.13737 12.4445 2.43603C12.3208 2.7347 12.2884 3.06334 12.3515 3.3804C12.4146 3.69746 12.5702 3.9887 12.7988 4.21729L13.9546 5.37305" stroke="#0067B1" stroke-width="1.26506" stroke-miterlimit="10" stroke-linecap="round"/>
<path d="M12.2582 7.13615L13.5093 5.88257" stroke="#0067B1" stroke-width="1.26506" stroke-linecap="round"/>
<path d="M17.2458 8.60855L10.6414 2.00419C10.2766 1.63944 9.72751 1.5972 9.41487 1.90984L8.56574 2.75897C8.2531 3.07161 8.29534 3.62075 8.66008 3.98549L15.2644 10.5899C15.6292 10.9546 16.1783 10.9968 16.491 10.6842L17.3401 9.83507C17.6527 9.52243 17.6105 8.9733 17.2458 8.60855Z" stroke="#0067B1" stroke-width="1.26506" stroke-linecap="round" stroke-linejoin="round"/>
<path d="M3.75 12.5H15.4125V16.5C15.4125 17.7426 14.4051 18.75 13.1625 18.75H6C4.75736 18.75 3.75 17.7426 3.75 16.5V12.5Z" stroke="#0067B1" stroke-width="1.25" stroke-linejoin="round"/>
<path d="M9.73755 12.5L9.73755 17.5" stroke="#0067B1" stroke-width="1.25" stroke-linecap="square"/>
<path d="M7.16665 5.29267C7.21331 5.24777 7.2912 5.27586 7.29846 5.34021L7.47959 6.94649C7.48247 6.97204 7.49774 6.99454 7.52043 7.00665L8.94633 7.76807C9.00345 7.79857 9.0008 7.88133 8.94185 7.90811L7.47016 8.57675C7.44675 8.58739 7.43007 8.60886 7.42556 8.63418L7.14204 10.2256C7.13068 10.2893 7.05115 10.3124 7.00746 10.2646L5.91677 9.07155C5.89942 9.05258 5.87384 9.04335 5.84837 9.04688L4.24724 9.26901C4.1831 9.27791 4.1366 9.2094 4.16855 9.15308L4.96616 7.7471C4.97885 7.72473 4.97972 7.69756 4.96849 7.67443L4.26246 6.2203C4.23417 6.16205 4.28496 6.09666 4.3484 6.10964L5.93204 6.43374C5.95723 6.43889 5.98335 6.43132 6.00188 6.41349L7.16665 5.29267Z" stroke="#0067B1" stroke-width="1.25"/>
</svg>
