<svg width="20" height="20" viewBox="0 0 20 20" fill="none" xmlns="http://www.w3.org/2000/svg">
<g clip-path="url(#clip0_21938_293)">
<path d="M8 18.75H4.5625C3.42341 18.75 2.5 17.9105 2.5 16.875V3.125C2.5 2.08947 3.42341 1.25 4.5625 1.25H14.1875C15.3266 1.25 16.25 2.08947 16.25 3.125V6.25" stroke="#03182B" stroke-width="1.25" stroke-linecap="round" stroke-linejoin="round"/>
<path d="M8.43411 14.6691C8.73699 15.7865 9.42247 16.7656 10.3737 17.4394C11.325 18.1132 12.4832 18.44 13.6509 18.3643C14.8187 18.2885 15.9237 17.8147 16.7777 17.0238C17.6317 16.2328 18.1818 15.1736 18.3343 14.0266C18.4868 12.8796 18.2322 11.7158 17.614 10.7335C16.9958 9.75126 16.0521 9.01134 14.9438 8.63983C13.8356 8.26832 12.6313 8.28822 11.5362 8.69614C10.4411 9.10406 9.52298 9.87475 8.9383 10.8769L8.37744 11.8372" stroke="#03182B" stroke-width="1.25" stroke-linecap="round" stroke-linejoin="round"/>
<path d="M12.5 11.25V13.75H15" stroke="#03182B" stroke-width="1.25" stroke-linecap="round" stroke-linejoin="round"/>
<path d="M7.5 11.25L8.02831 12.5L10 12.1651" stroke="#03182B" stroke-width="1.25" stroke-linecap="round" stroke-linejoin="round"/>
<path d="M13.125 3.75H5.625C5.27982 3.75 5 4.02982 5 4.375C5 4.72018 5.27982 5 5.625 5H13.125C13.4702 5 13.75 4.72018 13.75 4.375C13.75 4.02982 13.4702 3.75 13.125 3.75Z" fill="#03182B"/>
<path d="M8.125 6.25H5.625C5.27982 6.25 5 6.52982 5 6.875C5 7.22018 5.27982 7.5 5.625 7.5H8.125C8.47018 7.5 8.75 7.22018 8.75 6.875C8.75 6.52982 8.47018 6.25 8.125 6.25Z" fill="#03182B"/>
</g>
<defs>
<clipPath id="clip0_21938_293">
<rect width="20" height="20" fill="white"/>
</clipPath>
</defs>
</svg>
