<svg width="20" height="20" viewBox="0 0 20 20" fill="none" xmlns="http://www.w3.org/2000/svg">
<g clip-path="url(#clip0_2451_8882)">
<path d="M15.9634 7.56162C16.2696 7.25548 16.6848 7.0835 17.1177 7.0835C17.5507 7.0835 17.9659 7.25548 18.272 7.56162C18.5782 7.86777 18.7502 8.28298 18.7502 8.71593C18.7502 9.14888 18.5782 9.56409 18.272 9.87023L12.6616 15.4806L9.58346 16.2502L10.353 13.172L15.9634 7.56162Z" stroke="#0067B1" stroke-width="1.25" stroke-linecap="round" stroke-linejoin="round"/>
<path d="M16.2498 4.38596V2.5C16.2498 1.80964 15.6902 1.25 14.9998 1.25H4.1665C3.47615 1.25 2.9165 1.80964 2.9165 2.5V17.5C2.9165 18.1904 3.47615 18.75 4.1665 18.75H14.9998C15.6902 18.75 16.2498 18.1904 16.2498 17.5V15.8333" stroke="#0067B1" stroke-width="1.25" stroke-linecap="round" stroke-linejoin="round"/>
<path d="M12.2915 4.5835H6.0415C5.69633 4.5835 5.4165 4.86332 5.4165 5.2085C5.4165 5.55367 5.69633 5.8335 6.0415 5.8335H12.2915C12.6367 5.8335 12.9165 5.55367 12.9165 5.2085C12.9165 4.86332 12.6367 4.5835 12.2915 4.5835Z" fill="#0067B1"/>
<path d="M9.7915 7.5H6.0415C5.69633 7.5 5.4165 7.77982 5.4165 8.125C5.4165 8.47018 5.69633 8.75 6.0415 8.75H9.7915C10.1367 8.75 10.4165 8.47018 10.4165 8.125C10.4165 7.77982 10.1367 7.5 9.7915 7.5Z" fill="#0067B1"/>
</g>
<defs>
<clipPath id="clip0_2451_8882">
<rect width="20" height="20" fill="white"/>
</clipPath>
</defs>
</svg>
