<svg width="20" height="20" viewBox="0 0 20 20" fill="none" xmlns="http://www.w3.org/2000/svg">
<path d="M14.375 1.25H5.625C4.58947 1.25 3.75 2.08947 3.75 3.125V16.875C3.75 17.9105 4.58947 18.75 5.625 18.75H14.375C15.4105 18.75 16.25 17.9105 16.25 16.875V3.125C16.25 2.08947 15.4105 1.25 14.375 1.25Z" stroke="#0067B1" stroke-width="1.25" stroke-linecap="round" stroke-linejoin="round"/>
<path d="M10 17.25C9.75277 17.25 9.5111 17.1767 9.30554 17.0393C9.09998 16.902 8.93976 16.7068 8.84515 16.4784C8.75054 16.2499 8.72579 15.9986 8.77402 15.7561C8.82225 15.5137 8.9413 15.2909 9.11612 15.1161C9.29093 14.9413 9.51366 14.8223 9.75614 14.774C9.99861 14.7258 10.2499 14.7505 10.4784 14.8452C10.7068 14.9398 10.902 15.1 11.0393 15.3055C11.1767 15.5111 11.25 15.7528 11.25 16C11.25 16.3315 11.1183 16.6495 10.8839 16.8839C10.6495 17.1183 10.3315 17.25 10 17.25Z" fill="#0067B1"/>
<path d="M8.125 3.43994H11.875" stroke="#0067B1" stroke-width="1.25" stroke-linecap="round" stroke-linejoin="round"/>
</svg>
