<svg width="20" height="20" viewBox="0 0 20 20" fill="none" xmlns="http://www.w3.org/2000/svg">
<g clip-path="url(#clip0_2451_8915)">
<path d="M14.375 1.25H5.625C4.58947 1.25 3.75 2.08947 3.75 3.125V16.875C3.75 17.9105 4.58947 18.75 5.625 18.75H14.375C15.4105 18.75 16.25 17.9105 16.25 16.875V3.125C16.25 2.08947 15.4105 1.25 14.375 1.25Z" stroke="#03182B" stroke-width="1.25" stroke-linecap="round" stroke-linejoin="round"/>
<path d="M8.125 3.4375H11.875" stroke="#03182B" stroke-width="1.25" stroke-linecap="round" stroke-linejoin="round"/>
<path d="M11.1524 10.4888C11.0049 10.3318 10.8264 10.2072 10.6281 10.1231C10.4298 10.0389 10.2162 9.99706 10.0008 10.0002C9.54767 10.0002 9.13791 10.1724 8.84689 10.4857C8.55587 10.799 8.40939 11.2326 8.44298 11.6966C8.50978 12.6138 9.20861 13.3595 10.0008 13.3595C10.793 13.3595 11.4906 12.6138 11.5582 11.6974C11.5926 11.2373 11.4481 10.808 11.1524 10.4888ZM12.6449 16.8752H7.35666C7.28781 16.8763 7.21957 16.8622 7.15673 16.8341C7.0939 16.806 7.038 16.7644 6.99298 16.7123C6.94418 16.6538 6.90914 16.5851 6.89048 16.5113C6.87182 16.4374 6.87 16.3603 6.88517 16.2857C7.01212 15.5998 7.40783 15.0236 8.0297 14.6193C8.58205 14.2603 9.28205 14.0627 10.0008 14.0627C10.7195 14.0627 11.4195 14.2603 11.9719 14.6193C12.5938 15.0236 12.9895 15.5998 13.1164 16.2857C13.1316 16.3603 13.1298 16.4374 13.1111 16.5113C13.0924 16.5851 13.0574 16.6538 13.0086 16.7123C12.9636 16.7644 12.9077 16.806 12.8449 16.8341C12.782 16.8622 12.7138 16.8763 12.6449 16.8752Z" fill="#03182B"/>
</g>
<defs>
<clipPath id="clip0_2451_8915">
<rect width="20" height="20" fill="white"/>
</clipPath>
</defs>
</svg>
