<svg width="20" height="20" viewBox="0 0 20 20" fill="none" xmlns="http://www.w3.org/2000/svg">
<g clip-path="url(#clip0_2451_8899)">
<path d="M15.8332 12.9165H13.2406C13.0616 12.9165 12.9165 13.0616 12.9165 13.2406V15.8332C12.9165 16.0122 13.0616 16.1572 13.2406 16.1572H15.8332C16.0122 16.1572 16.1572 16.0122 16.1572 15.8332V13.2406C16.1572 13.0616 16.0122 12.9165 15.8332 12.9165Z" fill="#0067B1"/>
<path d="M12.5927 10.3242H10.6483C10.4693 10.3242 10.3242 10.4693 10.3242 10.6483V12.5927C10.3242 12.7717 10.4693 12.9168 10.6483 12.9168H12.5927C12.7717 12.9168 12.9168 12.7717 12.9168 12.5927V10.6483C12.9168 10.4693 12.7717 10.3242 12.5927 10.3242Z" fill="#0067B1"/>
<path d="M18.426 16.1575H16.4815C16.3026 16.1575 16.1575 16.3026 16.1575 16.4815V18.426C16.1575 18.605 16.3026 18.7501 16.4815 18.7501H18.426C18.605 18.7501 18.7501 18.605 18.7501 18.426V16.4815C18.7501 16.3026 18.605 16.1575 18.426 16.1575Z" fill="#0067B1"/>
<path d="M18.426 10.3242H17.1297C16.9508 10.3242 16.8057 10.4693 16.8057 10.6483V11.9446C16.8057 12.1236 16.9508 12.2687 17.1297 12.2687H18.426C18.605 12.2687 18.7501 12.1236 18.7501 11.9446V10.6483C18.7501 10.4693 18.605 10.3242 18.426 10.3242Z" fill="#0067B1"/>
<path d="M11.9446 16.8054H10.6483C10.4693 16.8054 10.3242 16.9505 10.3242 17.1295V18.4258C10.3242 18.6048 10.4693 18.7499 10.6483 18.7499H11.9446C12.1236 18.7499 12.2687 18.6048 12.2687 18.4258V17.1295C12.2687 16.9505 12.1236 16.8054 11.9446 16.8054Z" fill="#0067B1"/>
<path d="M15.8332 3.19458H13.2406C13.0616 3.19458 12.9165 3.33967 12.9165 3.51865V6.11125C12.9165 6.29023 13.0616 6.43532 13.2406 6.43532H15.8332C16.0122 6.43532 16.1572 6.29023 16.1572 6.11125V3.51865C16.1572 3.33967 16.0122 3.19458 15.8332 3.19458Z" fill="#0067B1"/>
<path d="M17.4541 1.25H11.6208C11.2628 1.25 10.9727 1.54019 10.9727 1.89815V7.73148C10.9727 8.08944 11.2628 8.37963 11.6208 8.37963H17.4541C17.8121 8.37963 18.1023 8.08944 18.1023 7.73148V1.89815C18.1023 1.54019 17.8121 1.25 17.4541 1.25Z" stroke="#0067B1" stroke-width="1.25" stroke-linecap="round" stroke-linejoin="round"/>
<path d="M6.111 3.19458H3.51841C3.33943 3.19458 3.19434 3.33967 3.19434 3.51865V6.11125C3.19434 6.29023 3.33943 6.43532 3.51841 6.43532H6.111C6.28998 6.43532 6.43508 6.29023 6.43508 6.11125V3.51865C6.43508 3.33967 6.28998 3.19458 6.111 3.19458Z" fill="#0067B1"/>
<path d="M7.73148 1.25H1.89815C1.54019 1.25 1.25 1.54019 1.25 1.89815V7.73148C1.25 8.08944 1.54019 8.37963 1.89815 8.37963H7.73148C8.08944 8.37963 8.37963 8.08944 8.37963 7.73148V1.89815C8.37963 1.54019 8.08944 1.25 7.73148 1.25Z" stroke="#0067B1" stroke-width="1.25" stroke-linecap="round" stroke-linejoin="round"/>
<path d="M6.111 12.9165H3.51841C3.33943 12.9165 3.19434 13.0616 3.19434 13.2406V15.8332C3.19434 16.0122 3.33943 16.1572 3.51841 16.1572H6.111C6.28998 16.1572 6.43508 16.0122 6.43508 15.8332V13.2406C6.43508 13.0616 6.28998 12.9165 6.111 12.9165Z" fill="#0067B1"/>
<path d="M7.73148 10.9722H1.89815C1.54019 10.9722 1.25 11.2624 1.25 11.6203V17.4536C1.25 17.8116 1.54019 18.1018 1.89815 18.1018H7.73148C8.08944 18.1018 8.37963 17.8116 8.37963 17.4536V11.6203C8.37963 11.2624 8.08944 10.9722 7.73148 10.9722Z" stroke="#0067B1" stroke-width="1.25" stroke-linecap="round" stroke-linejoin="round"/>
</g>
<defs>
<clipPath id="clip0_2451_8899">
<rect width="20" height="20" fill="white"/>
</clipPath>
</defs>
</svg>
