<svg width="20" height="20" viewBox="0 0 20 20" fill="none" xmlns="http://www.w3.org/2000/svg">
<g clip-path="url(#clip0_617_2197)">
<rect x="3.75" y="1.25" width="12.5" height="17.5" rx="1.25" stroke="#0067B1" stroke-width="1.25" stroke-linejoin="round"/>
<path d="M9.5203 4.07752C9.67129 3.64083 10.3287 3.64083 10.4797 4.07752L11.0192 5.63782C11.0867 5.83312 11.2804 5.96535 11.4989 5.96535H13.2446C13.7333 5.96535 13.9364 6.55292 13.5411 6.82282L12.1288 7.78714C11.952 7.90784 11.878 8.12178 11.9455 8.31708L12.485 9.87738C12.636 10.3141 12.1041 10.6772 11.7088 10.4073L10.2965 9.44301C10.1197 9.32231 9.88031 9.32231 9.70353 9.44301L8.29117 10.4073C7.89587 10.6772 7.36401 10.3141 7.515 9.87738L8.05447 8.31708C8.122 8.12178 8.04802 7.90784 7.87124 7.78714L6.45888 6.82282C6.06359 6.55292 6.26674 5.96535 6.75535 5.96535H8.50113C8.71964 5.96535 8.9133 5.83312 8.98083 5.63782L9.5203 4.07752Z" fill="#0067B1"/>
</g>
<defs>
<clipPath id="clip0_617_2197">
<rect width="20" height="20" fill="white"/>
</clipPath>
</defs>
</svg>
