<svg width="20" height="20" viewBox="0 0 20 20" fill="none" xmlns="http://www.w3.org/2000/svg">
<g clip-path="url(#clip0_617_2265)">
<rect x="3.75" y="1.25" width="12.5" height="17.5" rx="1.25" stroke="#0067B1" stroke-width="1.25" stroke-linejoin="round"/>
<path d="M6.25 15H13.75" stroke="#0067B1" stroke-width="1.25" stroke-linecap="round" stroke-linejoin="round"/>
<path d="M10 11.25C12.0711 11.25 13.75 9.57107 13.75 7.5C13.75 5.42893 12.0711 3.75 10 3.75C7.92893 3.75 6.25 5.42893 6.25 7.5C6.25 9.57107 7.92893 11.25 10 11.25Z" stroke="#0067B1" stroke-width="1.25" stroke-linecap="round" stroke-linejoin="round"/>
<path d="M6.25 7.5H13.75" stroke="#0067B1" stroke-width="1.25" stroke-linecap="round" stroke-linejoin="round"/>
<path d="M10 3.75C10.7817 4.77688 11.2259 6.10951 11.25 7.5C11.2259 8.89049 10.7817 10.2231 10 11.25C9.21835 10.2231 8.77414 8.89049 8.75 7.5C8.77414 6.10951 9.21835 4.77688 10 3.75Z" stroke="#0067B1" stroke-width="1.25" stroke-linecap="round" stroke-linejoin="round"/>
</g>
<defs>
<clipPath id="clip0_617_2265">
<rect width="20" height="20" fill="white"/>
</clipPath>
</defs>
</svg>
