<svg width="20" height="20" viewBox="0 0 20 20" fill="none" xmlns="http://www.w3.org/2000/svg">
<path d="M7.17187 5.1387C7.17187 5.1387 6.09535 4.6084 10.0001 4.6084C11.3986 4.6084 12.7657 5.02309 13.9284 5.80003C15.0912 6.57697 15.9975 7.68126 16.5326 8.97326C17.0678 10.2653 17.2078 11.6869 16.935 13.0585C16.6622 14.4301 15.9887 15.69 14.9999 16.6788C14.011 17.6677 12.7512 18.3411 11.3796 18.6139C10.008 18.8868 8.58631 18.7468 7.29431 18.2116C6.0023 17.6764 4.89801 16.7701 4.12107 15.6074C3.34413 14.4446 2.92944 13.0776 2.92944 11.6791" stroke="#03182B" stroke-width="1.25" stroke-miterlimit="10" stroke-linecap="round"/>
<path d="M10.0002 1.25L6.46484 4.78535L10.0002 8.32071" stroke="#03182B" stroke-width="1.25" stroke-linecap="round" stroke-linejoin="round"/>
</svg>
