<svg width="20" height="20" viewBox="0 0 20 20" fill="none" xmlns="http://www.w3.org/2000/svg">
<path d="M18.902 9.34231C18.6634 9.01385 17.7769 8.78767 17.4019 8.19657C17.0269 7.60547 16.7199 6.32538 15.7654 5.83353C14.8109 5.34168 12.9866 5.20361 11.9449 5.20361C10.9031 5.20361 9.0801 5.33864 8.12431 5.83252C7.16853 6.3264 6.86284 7.60547 6.48782 8.19556C6.1128 8.78564 5.22635 9.01385 4.98773 9.34231C4.74911 9.67077 4.58113 11.7472 4.68335 12.7653C4.78557 13.7835 4.97634 14.3857 4.97634 14.3857H7.77598C8.23434 14.3857 8.38344 14.2071 9.321 14.1157C10.3497 14.0144 11.3589 13.9806 11.9449 13.9806C12.5308 13.9806 13.5726 14.0144 14.6006 14.1157C15.5382 14.2078 15.6921 14.3857 16.1456 14.3857H18.9127C18.9127 14.3857 19.1035 13.7835 19.2057 12.7653C19.3079 11.7472 19.1393 9.67077 18.902 9.34231ZM16.6326 14.3857H18.4557V14.9258H16.6326V14.3857ZM5.43405 14.3857H7.25707V14.9258H5.43405V14.3857Z" stroke="#0067B1" stroke-width="1.25" stroke-linecap="round" stroke-linejoin="round"/>
<path d="M15.1543 11.6487C14.9794 11.4512 14.4095 11.2865 13.6549 11.176C12.9003 11.0656 12.625 11.037 11.9503 11.037C11.2756 11.037 10.9688 11.0844 10.2455 11.176C9.52228 11.2677 8.97926 11.4307 8.74637 11.6487C8.39688 11.9794 8.90883 12.3506 9.3107 12.3957C9.70013 12.439 10.4787 12.4231 11.9536 12.4231C13.4285 12.4231 14.207 12.439 14.5965 12.3957C14.9978 12.348 15.473 12.0025 15.1543 11.6487ZM17.1399 9.73755C17.1383 9.71459 17.128 9.69304 17.1111 9.67703C17.0941 9.66102 17.0718 9.65169 17.0482 9.65082C16.6987 9.63868 16.3439 9.66296 15.7145 9.84422C15.3934 9.9358 15.0918 10.0833 14.8243 10.2796C14.7569 10.331 14.7808 10.4701 14.8655 10.4848C15.3843 10.5443 15.9062 10.5742 16.4285 10.5744C16.7419 10.5744 17.0654 10.4877 17.1254 10.2148C17.1561 10.0575 17.161 9.89639 17.1399 9.73755ZM6.74888 9.73755C6.75055 9.71459 6.76083 9.69304 6.77776 9.67703C6.79469 9.66102 6.81708 9.65169 6.84062 9.65082C7.19011 9.63868 7.54492 9.66296 8.17435 9.84422C8.49547 9.9358 8.79703 10.0833 9.06449 10.2796C9.13196 10.331 9.10799 10.4701 9.02335 10.4848C8.50455 10.5443 7.98265 10.5742 7.46029 10.5744C7.1469 10.5744 6.82346 10.4877 6.76338 10.2148C6.73276 10.0575 6.72786 9.89639 6.74888 9.73755Z" fill="#0067B1"/>
<path d="M18.0718 7.63403H18.6288M5.26074 7.63403H5.81774M5.74812 8.84931C5.74812 8.84931 7.36169 8.08177 11.9448 8.08177C16.5279 8.08177 18.1414 8.84931 18.1414 8.84931" stroke="#0067B1" stroke-width="1.25" stroke-linecap="round" stroke-linejoin="round"/>
<path d="M14.051 3.19444L8.31176 1.25L0.763916 4.16667L0.763916 9.03818C0.763916 11.2842 1.48386 13.3118 2.91215 15.1315C4.34043 16.9511 6.1403 18.1573 8.31176 18.75C9.88891 18.312 11.27 17.5558 12.4551 16.4815" stroke="#0067B1" stroke-width="1.25" stroke-miterlimit="10" stroke-linecap="round" stroke-linejoin="round"/>
</svg>
