<svg width="20" height="20" viewBox="0 0 20 20" fill="none" xmlns="http://www.w3.org/2000/svg">
<path d="M17.6172 14.6092C16.9969 13.9842 15.4945 13.0721 14.7656 12.7045C13.8164 12.2263 13.7383 12.1873 12.9922 12.7416C12.4945 13.1115 12.1637 13.442 11.5812 13.3178C10.9988 13.1935 9.73318 12.4931 8.62498 11.3885C7.51678 10.2838 6.77576 8.98143 6.65115 8.40096C6.52654 7.82049 6.86248 7.49354 7.22889 6.99471C7.74529 6.29158 7.70623 6.1744 7.26482 5.22518C6.92068 4.4869 5.98201 2.99862 5.35467 2.38143C4.68357 1.71854 4.68357 1.83572 4.25115 2.01541C3.89911 2.16353 3.56137 2.34358 3.24217 2.5533C2.61717 2.96854 2.27029 3.31346 2.02771 3.83182C1.78514 4.35018 1.67615 5.56541 2.92889 7.84119C4.18162 10.117 5.06053 11.2806 6.87967 13.0947C8.69881 14.9088 10.0976 15.8842 12.1426 17.031C14.6722 18.4478 15.6426 18.1717 16.1625 17.9295C16.6824 17.6873 17.0289 17.3435 17.4449 16.7185C17.6552 16.3999 17.8356 16.0625 17.984 15.7107C18.164 15.2799 18.2812 15.2799 17.6172 14.6092Z" stroke="#0067B1" stroke-width="1.25" stroke-miterlimit="10"/>
</svg>
