<svg width="20" height="20" viewBox="0 0 20 20" fill="none" xmlns="http://www.w3.org/2000/svg">
<path d="M6.61133 5.40042C7.47389 2.98143 9.78471 1.25 12.4999 1.25C15.9517 1.25 18.7499 4.04822 18.7499 7.5C18.7499 10.2018 17.0356 12.5032 14.6353 13.3757" stroke="#0067B1" stroke-width="1.25" stroke-linecap="round" stroke-linejoin="round"/>
<path d="M7.5 7.5H18.75" stroke="#0067B1" stroke-width="1.25" stroke-linecap="round" stroke-linejoin="round"/>
<path d="M14.3752 10.7062C14.7627 9.68935 14.977 8.60565 15 7.5C14.9517 5.18252 14.0633 2.96147 12.5 1.25C10.9367 2.96147 10.0483 5.18252 10 7.5C10.0321 9.04153 10.436 10.5404 11.1629 11.875" stroke="#0067B1" stroke-width="1.25" stroke-linecap="round" stroke-linejoin="round"/>
<path d="M13.3598 16.0449C12.8827 15.5642 11.727 14.8626 11.1663 14.5798C10.4361 14.212 10.376 14.182 9.80206 14.6084C9.41924 14.8929 9.44087 14.8608 8.99284 14.7653C8.54482 14.6697 7.57123 14.131 6.71875 13.2812C5.86627 12.4315 5.29624 11.4298 5.20038 10.9833C5.10453 10.5368 5.0868 10.5716 5.36866 10.1879C5.76591 9.64704 5.73586 9.5569 5.39631 8.82676C5.13158 8.25888 4.4095 7.11409 3.92692 6.63936C3.41068 6.12946 3.41068 6.2196 3.07804 6.35782C2.80723 6.47175 2.54743 6.61024 2.30188 6.77156C1.8211 7.09096 1.55427 7.35627 1.36766 7.75499C1.18106 8.15371 1.09722 9.08847 2.06089 10.839C3.02455 12.5895 3.70065 13.4846 5.10003 14.88C6.4994 16.2754 7.57545 17.0256 9.1485 17.9078C11.0945 18.9976 11.8409 18.7852 12.2408 18.5989C12.6408 18.4126 12.9073 18.1482 13.2273 17.6674C13.3891 17.4223 13.5279 17.1628 13.642 16.8922C13.7805 16.5608 13.8707 16.5608 13.3598 16.0449Z" stroke="#0067B1" stroke-width="1.25" stroke-miterlimit="10"/>
</svg>
