<svg width="20" height="20" viewBox="0 0 20 20" fill="none" xmlns="http://www.w3.org/2000/svg">
<g clip-path="url(#clip0_2451_8889)">
<path d="M13.125 18.125H18.4375C18.5204 18.125 18.5999 18.0921 18.6585 18.0335C18.7171 17.9749 18.75 17.8954 18.75 17.8125V6.25C18.75 6.08424 18.6842 5.92527 18.5669 5.80806C18.4497 5.69085 18.2908 5.625 18.125 5.625H13.75C13.5842 5.625 13.4253 5.69085 13.3081 5.80806C13.1908 5.92527 13.125 6.08424 13.125 6.25V18.125ZM13.125 18.125V2.5C13.125 2.33424 13.0592 2.17527 12.9419 2.05806C12.8247 1.94085 12.6658 1.875 12.5 1.875H7.5C7.33424 1.875 7.17527 1.94085 7.05806 2.05806C6.94085 2.17527 6.875 2.33424 6.875 2.5V18.125M13.125 18.125H6.875M6.875 18.125V8.75C6.875 8.58424 6.80915 8.42527 6.69194 8.30806C6.57473 8.19085 6.41576 8.125 6.25 8.125H1.875C1.70924 8.125 1.55027 8.19085 1.43306 8.30806C1.31585 8.42527 1.25 8.58424 1.25 8.75V17.8125C1.25 17.8954 1.28292 17.9749 1.34153 18.0335C1.40013 18.0921 1.47962 18.125 1.5625 18.125H6.875Z" stroke="#0067B1" stroke-width="1.25" stroke-linecap="round" stroke-linejoin="round"/>
</g>
<defs>
<clipPath id="clip0_2451_8889">
<rect width="20" height="20" fill="white"/>
</clipPath>
</defs>
</svg>
