<svg width="20" height="20" viewBox="0 0 20 20" fill="none" xmlns="http://www.w3.org/2000/svg">
<g clip-path="url(#clip0_2451_8891)">
<path d="M4.01495 12.5C3.76123 12.5 3.55556 12.2943 3.55556 12.0406V11.1524C3.55556 11.0542 3.56075 10.9585 3.57113 10.8652C3.57977 10.8135 3.48185 10.7544 3.43877 10.7842C3.3609 10.8382 3.27785 10.8922 3.18961 10.9462L2.31835 11.426C2.11702 11.5369 1.86414 11.471 1.74249 11.276C1.61086 11.065 1.68374 10.7868 1.90189 10.6674L2.73801 10.2099C2.83144 10.1559 2.92228 10.1117 3.01053 10.0773C3.05147 10.0623 3.05075 9.94695 3.01053 9.93004C2.92228 9.89077 2.83144 9.84413 2.73801 9.79013L1.89403 9.32327C1.67933 9.2045 1.60714 8.9306 1.73541 8.72144C1.85619 8.5245 2.11089 8.45799 2.31254 8.57073L3.18961 9.06112C3.27785 9.11512 3.3609 9.17158 3.43877 9.23049C3.43975 9.23113 3.44073 9.23177 3.44171 9.23241C3.47985 9.25738 3.57864 9.19445 3.57113 9.14948C3.56075 9.05621 3.55556 8.96048 3.55556 8.8623V7.95939C3.55556 7.70567 3.76123 7.5 4.01495 7.5C4.26866 7.5 4.47433 7.70567 4.47433 7.95939V8.84757C4.47433 8.95066 4.46655 9.0513 4.45097 9.14948C4.44598 9.19438 4.54622 9.25623 4.58334 9.23049C4.6612 9.17158 4.74685 9.11512 4.84028 9.06112L5.71242 8.58085C5.91326 8.47025 6.16552 8.53596 6.28688 8.73049C6.4186 8.94163 6.34498 9.22012 6.12612 9.33858L5.29189 9.79013C5.19845 9.84413 5.10502 9.89077 5.01158 9.93004C4.96285 9.94902 4.96201 10.0617 5.01102 10.08C5.10218 10.114 5.1958 10.1573 5.29189 10.2099L6.13501 10.6763C6.35017 10.7953 6.42252 11.0698 6.29397 11.2794C6.17332 11.4761 5.91923 11.5431 5.7173 11.4314L4.84028 10.9462C4.74685 10.8922 4.6612 10.8382 4.58334 10.7842C4.53999 10.7542 4.44248 10.8163 4.45157 10.8683C4.46675 10.955 4.47433 11.0473 4.47433 11.1451V12.0406C4.47433 12.2943 4.26866 12.5 4.01495 12.5Z" fill="#0067B1"/>
<path d="M10.25 12.5C9.99629 12.5 9.79061 12.2943 9.79061 12.0406V11.1524C9.79061 11.0542 9.7958 10.9585 9.80618 10.8652C9.81482 10.8135 9.71691 10.7544 9.67382 10.7842C9.59596 10.8382 9.5129 10.8922 9.42466 10.9462L8.5534 11.426C8.35207 11.5369 8.09919 11.471 7.97754 11.276C7.84592 11.065 7.91879 10.7868 8.13695 10.6674L8.97306 10.2099C9.06649 10.1559 9.15733 10.1117 9.24558 10.0773C9.28653 10.0623 9.2858 9.94695 9.24558 9.93004C9.15733 9.89077 9.06649 9.84413 8.97306 9.79013L8.12908 9.32327C7.91438 9.2045 7.84219 8.9306 7.97046 8.72144C8.09125 8.5245 8.34594 8.45799 8.5476 8.57073L9.42466 9.06112C9.5129 9.11512 9.59596 9.17158 9.67382 9.23049C9.6748 9.23113 9.67578 9.23177 9.67676 9.23241C9.71491 9.25738 9.81369 9.19445 9.80618 9.14948C9.7958 9.05621 9.79061 8.96048 9.79061 8.8623V7.95939C9.79061 7.70567 9.99629 7.5 10.25 7.5C10.5037 7.5 10.7094 7.70567 10.7094 7.95939V8.84757C10.7094 8.95066 10.7016 9.0513 10.686 9.14948C10.681 9.19438 10.7813 9.25623 10.8184 9.23049C10.8963 9.17158 10.9819 9.11512 11.0753 9.06112L11.9475 8.58085C12.1483 8.47025 12.4006 8.53596 12.5219 8.73049C12.6537 8.94163 12.58 9.22012 12.3612 9.33858L11.5269 9.79013C11.4335 9.84413 11.3401 9.89077 11.2466 9.93004C11.1979 9.94902 11.1971 10.0617 11.2461 10.08C11.3372 10.114 11.4309 10.1573 11.5269 10.2099L12.3701 10.6763C12.5852 10.7953 12.6576 11.0698 12.529 11.2794C12.4084 11.4761 12.1543 11.5431 11.9523 11.4314L11.0753 10.9462C10.9819 10.8922 10.8963 10.8382 10.8184 10.7842C10.775 10.7542 10.6775 10.8163 10.6866 10.8683C10.7018 10.955 10.7094 11.0473 10.7094 11.1451V12.0406C10.7094 12.2943 10.5037 12.5 10.25 12.5Z" fill="#0067B1"/>
<path d="M16.4851 12.5C16.2313 12.5 16.0257 12.2943 16.0257 12.0406V11.1524C16.0257 11.0542 16.0309 10.9585 16.0412 10.8652C16.0499 10.8135 15.952 10.7544 15.9089 10.7842C15.831 10.8382 15.748 10.8922 15.6597 10.9462L14.7885 11.426C14.5871 11.5369 14.3342 11.471 14.2126 11.276C14.081 11.065 14.1538 10.7868 14.372 10.6674L15.2081 10.2099C15.3015 10.1559 15.3924 10.1117 15.4806 10.0773C15.5216 10.0623 15.5209 9.94695 15.4806 9.93004C15.3924 9.89077 15.3015 9.84413 15.2081 9.79013L14.3641 9.32327C14.1494 9.2045 14.0772 8.9306 14.2055 8.72144C14.3263 8.5245 14.581 8.45799 14.7826 8.57073L15.6597 9.06112C15.748 9.11512 15.831 9.17158 15.9089 9.23049C15.9099 9.23113 15.9108 9.23177 15.9118 9.23241C15.95 9.25738 16.0487 9.19445 16.0412 9.14948C16.0309 9.05621 16.0257 8.96048 16.0257 8.8623V7.95939C16.0257 7.70567 16.2313 7.5 16.4851 7.5C16.7388 7.5 16.9444 7.70567 16.9444 7.95939V8.84757C16.9444 8.95066 16.9367 9.0513 16.9211 9.14948C16.9161 9.19438 17.0163 9.25623 17.0534 9.23049C17.1313 9.17158 17.217 9.11512 17.3104 9.06112L18.1825 8.58085C18.3834 8.47025 18.6356 8.53596 18.757 8.73049C18.8887 8.94163 18.8151 9.22012 18.5962 9.33858L17.762 9.79013C17.6686 9.84413 17.5751 9.89077 17.4817 9.93004C17.433 9.94902 17.4321 10.0617 17.4811 10.08C17.5723 10.114 17.6659 10.1573 17.762 10.2099L18.6051 10.6763C18.8203 10.7953 18.8926 11.0698 18.7641 11.2794C18.6434 11.4761 18.3893 11.5431 18.1874 11.4314L17.3104 10.9462C17.217 10.8922 17.1313 10.8382 17.0534 10.7842C17.0101 10.7542 16.9126 10.8163 16.9217 10.8683C16.9369 10.955 16.9444 11.0473 16.9444 11.1451V12.0406C16.9444 12.2943 16.7388 12.5 16.4851 12.5Z" fill="#0067B1"/>
</g>
<defs>
<clipPath id="clip0_2451_8891">
<rect width="20" height="20" fill="white"/>
</clipPath>
</defs>
</svg>
