<svg width="20" height="20" viewBox="0 0 20 20" fill="none" xmlns="http://www.w3.org/2000/svg">
<path d="M7.5 4.53125H17.5M7.5 10H17.5M7.5 15.4688H17.5" stroke="#03182B" stroke-width="1.25" stroke-linecap="round" stroke-linejoin="round"/>
<path d="M3.4375 14.375C3.95527 14.375 4.375 14.7947 4.375 15.3125C4.375 15.8303 3.95527 16.25 3.4375 16.25C2.91973 16.25 2.5 15.8303 2.5 15.3125C2.5 14.7947 2.91973 14.375 3.4375 14.375ZM3.4375 9.0625C3.95527 9.0625 4.375 9.48223 4.375 10C4.375 10.5178 3.95527 10.9375 3.4375 10.9375C2.91973 10.9375 2.5 10.5178 2.5 10C2.5 9.48223 2.91973 9.0625 3.4375 9.0625ZM3.4375 3.75C3.95527 3.75 4.375 4.16973 4.375 4.6875C4.375 5.20527 3.95527 5.625 3.4375 5.625C2.91973 5.625 2.5 5.20527 2.5 4.6875C2.5 4.16973 2.91973 3.75 3.4375 3.75Z" fill="#03182B"/>
</svg>
