<svg width="20" height="20" viewBox="0 0 20 20" fill="none" xmlns="http://www.w3.org/2000/svg">
<path d="M7.52173 8.88696L11.1128 12.478L6.14751 17.4433C5.56715 18.0237 4.6262 18.0237 4.04583 17.4433L2.55645 15.9539C1.97609 15.3736 1.97609 14.4326 2.55645 13.8522L7.52173 8.88696Z" stroke="#0067B1" stroke-width="1.25" stroke-linejoin="round"/>
<path d="M8.27881 5.27539L14.7244 11.721L11.1125 12.4751L7.525 8.88762L8.27881 5.27539Z" stroke="#0067B1" stroke-width="1.25" stroke-linejoin="round"/>
<path d="M10.1001 3.45413C10.3903 3.16395 10.8607 3.16395 11.1509 3.45413L16.5457 8.84888C16.8358 9.13906 16.8358 9.60953 16.5457 9.89972L14.7272 11.7181L8.28164 5.27256L10.1001 3.45413Z" stroke="#0067B1" stroke-width="1.25" stroke-linejoin="round"/>
<path d="M7.34375 12.5L4.9999 14.8438" stroke="#0067B1" stroke-width="1.25" stroke-linecap="round" stroke-linejoin="round"/>
<path d="M15.7759 4.22461L17.2049 2.79562" stroke="#0067B1" stroke-width="1.25" stroke-linecap="round" stroke-linejoin="round"/>
<path d="M13.4763 3.39355V1.25008" stroke="#0067B1" stroke-width="1.25" stroke-linecap="round" stroke-linejoin="round"/>
<path d="M16.6067 6.52368H18.7502" stroke="#0067B1" stroke-width="1.25" stroke-linecap="round" stroke-linejoin="round"/>
</svg>
