<svg width="20" height="20" viewBox="0 0 20 20" fill="none" xmlns="http://www.w3.org/2000/svg">
<path d="M3.86353 3.94238L4.7158 17.4039C4.75628 18.1817 5.32943 18.7501 6.07943 18.7501H13.9203C14.6733 18.7501 15.2358 18.1817 15.284 17.4039L16.1363 3.94238" stroke="#EF3E42" stroke-width="1.25" stroke-linecap="round" stroke-linejoin="round"/>
<path d="M2.5 3.94238H17.5H2.5Z" fill="#EF3E42"/>
<path d="M2.5 3.94238H17.5" stroke="#EF3E42" stroke-width="1.25" stroke-miterlimit="10" stroke-linecap="round"/>
<path d="M7.27255 3.94231V2.25962C7.27216 2.12693 7.29834 1.99546 7.3496 1.8728C7.40086 1.75013 7.47617 1.63868 7.57122 1.54485C7.66627 1.45102 7.77917 1.37667 7.90343 1.32607C8.02769 1.27546 8.16086 1.24962 8.29528 1.25H11.7044C11.8388 1.24962 11.972 1.27546 12.0962 1.32607C12.2205 1.37667 12.3334 1.45102 12.4284 1.54485C12.5235 1.63868 12.5988 1.75013 12.65 1.8728C12.7013 1.99546 12.7275 2.12693 12.7271 2.25962V3.94231M9.99982 6.63462V16.0577M6.93164 6.63462L7.27255 16.0577M13.068 6.63462L12.7271 16.0577" stroke="#EF3E42" stroke-width="1.25" stroke-linecap="round" stroke-linejoin="round"/>
</svg>
