<svg width="20" height="20" viewBox="0 0 20 20" fill="none" xmlns="http://www.w3.org/2000/svg">
<path d="M15 16.25C15.3452 16.25 15.625 16.5298 15.625 16.875C15.625 17.2202 15.3452 17.5 15 17.5H5C4.65482 17.5 4.375 17.2202 4.375 16.875C4.375 16.5298 4.65482 16.25 5 16.25H15ZM18.75 2.5C19.0952 2.5 19.375 2.77982 19.375 3.125V14.375C19.375 14.7202 19.0952 15 18.75 15H1.25C0.904822 15 0.625 14.7202 0.625 14.375V3.125C0.625 2.77982 0.904822 2.5 1.25 2.5H18.75ZM1.875 13.75H18.125V3.75H1.875V13.75Z" fill="#0067B1"/>
</svg>
