<svg width="20" height="20" viewBox="0 0 20 20" fill="none" xmlns="http://www.w3.org/2000/svg">
<path d="M10 10.6923V17.6154C10 17.9826 9.85412 18.3348 9.59446 18.5945C9.33479 18.8541 8.98261 19 8.61539 19C8.24816 19 7.89598 18.8541 7.63631 18.5945C7.37665 18.3348 7.23077 17.9826 7.23077 17.6154M10 10.6923L9.58072 10.3777C8.9285 9.88866 8.12176 9.65121 7.30859 9.709C6.49541 9.76678 5.73036 10.1159 5.15385 10.6923C4.88111 10.4196 4.55731 10.2032 4.20095 10.0556C3.84459 9.90795 3.46265 9.83198 3.07692 9.83198C2.6912 9.83198 2.30925 9.90795 1.95289 10.0556C1.59653 10.2032 1.27274 10.4196 1 10.6923C1 5.72154 5.02923 1.69231 10 1.69231M10 10.6923L10.4193 10.3777C11.0715 9.88866 11.8782 9.65121 12.6914 9.709C13.5046 9.76678 14.2696 10.1159 14.8462 10.6923C15.1189 10.4196 15.4427 10.2032 15.799 10.0556C16.1554 9.90795 16.5374 9.83198 16.9231 9.83198C17.3088 9.83198 17.6907 9.90795 18.0471 10.0556C18.4035 10.2032 18.7273 10.4196 19 10.6923C19 5.72154 14.9708 1.69231 10 1.69231M10 1.69231V1" stroke="#0067B1" stroke-width="1.25" stroke-linecap="round" stroke-linejoin="round"/>
</svg>
