<svg width="20" height="20" viewBox="0 0 20 20" fill="none" xmlns="http://www.w3.org/2000/svg">
<path d="M12.1903 4.96427C11.9581 7.05355 10.4492 8.79462 8.70812 8.79462C6.96706 8.79462 5.45814 7.05355 5.22599 4.96427C5.10992 2.87499 6.61885 1.25 8.70812 1.25C10.7974 1.25 12.3063 2.87499 12.1903 4.96427Z" stroke="#0067B1" stroke-width="1.25" stroke-linecap="round" stroke-linejoin="round"/>
<path d="M9.375 17.5003H1.85993C1.39565 17.5003 1.16351 17.036 1.27958 16.6878C1.85993 13.0896 5.34206 11.2324 8.70812 11.2324C9.09338 11.2324 9.48363 11.2574 9.87266 11.3073" stroke="#0067B1" stroke-width="1.25" stroke-miterlimit="10" stroke-linecap="round" stroke-linejoin="round"/>
<path d="M15 18.75C17.0711 18.75 18.75 17.0711 18.75 15C18.75 12.9289 17.0711 11.25 15 11.25C12.9289 11.25 11.25 12.9289 11.25 15C11.25 17.0711 12.9289 18.75 15 18.75Z" stroke="#0067B1" stroke-width="1.25" stroke-miterlimit="10" stroke-linecap="round" stroke-linejoin="round"/>
<path d="M12.5 12.5L17.5 17.5L12.5 12.5Z" fill="#0067B1"/>
<path d="M12.5 12.5L17.5 17.5" stroke="#0067B1" stroke-width="1.25" stroke-miterlimit="10" stroke-linecap="round" stroke-linejoin="round"/>
</svg>
