<svg width="20" height="20" viewBox="0 0 20 20" fill="none" xmlns="http://www.w3.org/2000/svg">
<path d="M17.7162 14.8C17.7367 14.6592 17.7475 14.5172 17.7484 14.375C17.7484 14.2897 17.7437 14.2047 17.7368 14.1201C17.7316 14.0656 17.7406 14.0107 17.7628 13.9604C17.785 13.9101 17.8198 13.8661 17.864 13.8322L18.6677 13.2189C18.7091 13.1856 18.737 13.139 18.7465 13.0875C18.7559 13.0361 18.7462 12.983 18.7192 12.9378L17.8197 11.4249C17.7923 11.3802 17.7496 11.3463 17.699 11.3292C17.6485 11.312 17.5933 11.3128 17.5433 11.3313L16.5992 11.7007C16.5474 11.721 16.4912 11.7284 16.4357 11.7223C16.3802 11.7162 16.3272 11.6968 16.2814 11.6658C16.1382 11.5685 15.9873 11.4826 15.83 11.4088C15.7797 11.3855 15.7361 11.3506 15.7031 11.307C15.6701 11.2634 15.6487 11.2125 15.6407 11.159L15.4994 10.1813C15.4887 10.1308 15.4606 10.0853 15.4197 10.0523C15.3788 10.0193 15.3276 10.0009 15.2745 10H13.4755C13.4215 10.0011 13.3695 10.0204 13.3286 10.0546C13.2876 10.0888 13.2601 10.1358 13.2508 10.1875L13.1093 11.1665C13.1017 11.2195 13.0808 11.2699 13.0485 11.3132C13.0161 11.3565 12.9733 11.3913 12.9238 11.4147C12.7663 11.4889 12.6149 11.5746 12.4707 11.6711C12.4248 11.7022 12.3715 11.7218 12.3159 11.7281C12.2602 11.7343 12.2038 11.727 12.1517 11.7069L11.2073 11.3372C11.1573 11.3187 11.1021 11.318 11.0516 11.3352C11.001 11.3523 10.9583 11.3863 10.931 11.4311L10.0314 12.9439C10.0046 12.9888 9.99494 13.0414 10.0041 13.0926C10.0132 13.1437 10.0405 13.1901 10.0813 13.2236L10.8845 13.8369C10.9284 13.8704 10.9631 13.914 10.9854 13.9637C11.0077 14.0135 11.0169 14.0678 11.0122 14.1219C11.0044 14.2053 11 14.2891 11 14.3744C11 14.4596 11.0046 14.5447 11.0122 14.6299C11.0174 14.6843 11.0087 14.7392 10.9866 14.7894C10.9646 14.8397 10.93 14.8838 10.886 14.9178L10.0823 15.5311C10.0409 15.5644 10.013 15.611 10.0035 15.6625C9.99409 15.7139 10.0038 15.767 10.0308 15.8122L10.9303 17.3251C10.9577 17.3698 11.0004 17.4037 11.051 17.4208C11.1015 17.438 11.1567 17.4372 11.2067 17.4187L12.1508 17.0493C12.2026 17.029 12.2588 17.0216 12.3143 17.0277C12.3698 17.0338 12.4228 17.0532 12.4686 17.0842C12.6118 17.1815 12.7627 17.2674 12.92 17.3412C12.9703 17.3645 13.0139 17.3994 13.0469 17.443C13.0799 17.4866 13.1013 17.5375 13.1093 17.591L13.2506 18.5687C13.2613 18.6192 13.2894 18.6647 13.3303 18.6977C13.3712 18.7307 13.4224 18.7491 13.4755 18.75H15.2745C15.3285 18.7489 15.3805 18.7296 15.4214 18.6954C15.4624 18.6612 15.4899 18.6142 15.4992 18.5625L15.6407 17.5835C15.6483 17.5305 15.6692 17.4801 15.7015 17.4368C15.7339 17.3935 15.7767 17.3587 15.8262 17.3353C15.9837 17.2611 16.1351 17.1754 16.2793 17.0789C16.3252 17.0478 16.3785 17.0282 16.4341 17.0219C16.4898 17.0157 16.5462 17.023 16.5983 17.0431L17.5427 17.4128C17.5927 17.4313 17.6479 17.432 17.6984 17.4148C17.749 17.3977 17.7917 17.3637 17.819 17.3189L18.7186 15.8061C18.7456 15.7609 18.7552 15.7078 18.7458 15.6563C18.7363 15.6049 18.7084 15.5583 18.667 15.525L17.7162 14.8Z" stroke="#0067B1" stroke-width="1.25" stroke-linecap="round" stroke-linejoin="round"/>
<path d="M12.1903 4.96427C11.9581 7.05355 10.4492 8.79462 8.70812 8.79462C6.96706 8.79462 5.45814 7.05355 5.22599 4.96427C5.10992 2.87499 6.61885 1.25 8.70812 1.25C10.7974 1.25 12.3063 2.87499 12.1903 4.96427Z" stroke="#0067B1" stroke-width="1.25" stroke-linecap="round" stroke-linejoin="round"/>
<path d="M6.875 11.25C3.75 11.25 1.85993 13.0893 1.27958 16.6875C1.16351 17.0357 1.39565 17.5 1.85993 17.5H6.25" stroke="#0067B1" stroke-width="1.25" stroke-miterlimit="10" stroke-linecap="round" stroke-linejoin="round"/>
</svg>
