<svg width="20" height="20" viewBox="0 0 20 20" fill="none" xmlns="http://www.w3.org/2000/svg">
<g clip-path="url(#clip0_12078_2653)">
<path d="M6.25 1.25H3.75C2.36929 1.25 1.25 2.36929 1.25 3.75V6.25" stroke="#0067B1" stroke-width="1.25" stroke-linecap="round"/>
<path d="M13.75 1.25H16.25C17.6307 1.25 18.75 2.36929 18.75 3.75V6.25" stroke="#0067B1" stroke-width="1.25" stroke-linecap="round"/>
<path d="M6.25 18.75H3.75C2.36929 18.75 1.25 17.6307 1.25 16.25V13.75" stroke="#0067B1" stroke-width="1.25" stroke-linecap="round"/>
<path d="M13.75 18.75H16.25C17.6307 18.75 18.75 17.6307 18.75 16.25V13.75" stroke="#0067B1" stroke-width="1.25" stroke-linecap="round"/>
<path d="M12.5781 6.71875C12.4632 8.26768 11.289 9.53125 9.99996 9.53125C8.7109 9.53125 7.53463 8.26797 7.42184 6.71875C7.30465 5.10742 8.44723 3.90625 9.99996 3.90625C11.5527 3.90625 12.6953 5.13672 12.5781 6.71875Z" stroke="#0067B1" stroke-width="1.25" stroke-linecap="round" stroke-linejoin="round"/>
<path d="M10.0001 11.4062C7.45124 11.4062 4.86433 12.8125 4.38562 15.4668C4.3279 15.7867 4.50896 16.0937 4.84382 16.0937H15.1563C15.4915 16.0937 15.6725 15.7867 15.6148 15.4668C15.1358 12.8125 12.5489 11.4062 10.0001 11.4062Z" stroke="#0067B1" stroke-width="1.25" stroke-miterlimit="10"/>
</g>
<defs>
<clipPath id="clip0_12078_2653">
<rect width="20" height="20" fill="white"/>
</clipPath>
</defs>
</svg>
