<svg width="20" height="20" viewBox="0 0 20 20" fill="none" xmlns="http://www.w3.org/2000/svg">
<path d="M18.3479 9.16406C18.0616 8.78398 16.9979 8.52227 16.5479 7.83828C16.0979 7.1543 15.7296 5.67305 14.5843 5.10391C13.439 4.53477 11.2499 4.375 9.9999 4.375C8.7499 4.375 6.5624 4.53125 5.41553 5.10273C4.26865 5.67422 3.90186 7.1543 3.45186 7.83711C3.00186 8.51992 1.93818 8.78398 1.65186 9.16406C1.36553 9.54414 1.16396 11.9469 1.28662 13.125C1.40928 14.3031 1.63818 15 1.63818 15H4.99756C5.54756 15 5.72646 14.7934 6.85146 14.6875C8.08584 14.5703 9.29678 14.5312 9.9999 14.5312C10.703 14.5312 11.953 14.5703 13.1866 14.6875C14.3116 14.7941 14.4964 15 15.0405 15H18.3608C18.3608 15 18.5897 14.3031 18.7124 13.125C18.8351 11.9469 18.6327 9.54414 18.3479 9.16406ZM15.6249 15H17.8124V15.625H15.6249V15ZM2.1874 15H4.3749V15.625H2.1874V15Z" stroke="#0067B1" stroke-width="1.25" stroke-linecap="round" stroke-linejoin="round"/>
<path d="M14.2372 12.0767C14.0064 11.8099 13.254 11.5872 12.2579 11.438C11.2618 11.2888 10.8985 11.2501 10.0079 11.2501C9.11729 11.2501 8.71221 11.3142 7.75752 11.438C6.80283 11.5619 6.08604 11.7822 5.77862 12.0767C5.31729 12.5236 5.99307 13.0251 6.52354 13.0861C7.0376 13.1447 8.06533 13.1232 10.0122 13.1232C11.9591 13.1232 12.9868 13.1447 13.5009 13.0861C14.0306 13.0216 14.6579 12.5548 14.2372 12.0767ZM16.8583 9.49428C16.8561 9.46325 16.8425 9.43413 16.8202 9.4125C16.7978 9.39087 16.7683 9.37826 16.7372 9.37709C16.2759 9.36068 15.8075 9.39349 14.9767 9.63842C14.5528 9.76217 14.1547 9.96146 13.8017 10.2267C13.7126 10.2962 13.7442 10.4841 13.856 10.504C14.5408 10.5844 15.2297 10.6248 15.9192 10.6251C16.3329 10.6251 16.7599 10.5079 16.8392 10.1392C16.8796 9.92659 16.8861 9.70891 16.8583 9.49428ZM3.1419 9.49428C3.14409 9.46325 3.15766 9.43413 3.18001 9.4125C3.20236 9.39087 3.23191 9.37826 3.26299 9.37709C3.72432 9.36068 4.19268 9.39349 5.02354 9.63842C5.44743 9.76217 5.84548 9.96146 6.19854 10.2267C6.2876 10.2962 6.25596 10.4841 6.14424 10.504C5.45941 10.5844 4.77049 10.6248 4.08096 10.6251C3.66729 10.6251 3.24033 10.5079 3.16104 10.1392C3.12061 9.92659 3.11415 9.70891 3.1419 9.49428Z" fill="#0067B1"/>
<path d="M16.875 7.5H17.5M2.5 7.5H3.125M3.04688 8.24219C3.04688 8.24219 4.85742 7.77344 10 7.77344C15.1426 7.77344 16.9531 8.24219 16.9531 8.24219" stroke="#0067B1" stroke-width="1.25" stroke-linecap="round" stroke-linejoin="round"/>
</svg>
