<svg width="20" height="20" viewBox="0 0 20 20" fill="none" xmlns="http://www.w3.org/2000/svg">
<g clip-path="url(#clip0_2451_8896)">
<g clip-path="url(#clip1_2451_8896)">
<path d="M18.75 10V16.6667C18.75 17.8173 17.846 18.75 16.7308 18.75H3.26923C2.15404 18.75 1.25 17.8173 1.25 16.6667V8.33333C1.25 7.18274 2.15404 6.25 3.26923 6.25H9.375" stroke="#0067B1" stroke-width="1.25" stroke-linecap="round" stroke-linejoin="round"/>
<path d="M18.75 6.25L12.5 6.25" stroke="#0067B1" stroke-width="1.25" stroke-linecap="round" stroke-linejoin="round"/>
<path d="M16.25 8.75L18.75 6.25L16.25 3.75" stroke="#0067B1" stroke-width="1.25" stroke-linecap="round" stroke-linejoin="round"/>
<path d="M1.25 8.33343V6.34825C1.24968 5.87657 1.41244 5.41955 1.7102 5.05604C2.00796 4.69253 2.42206 4.4453 2.88107 4.357L10.4167 2.5" stroke="#0067B1" stroke-width="1.25" stroke-linecap="round" stroke-linejoin="round"/>
<path d="M15 13.75C14.7528 13.75 14.5111 13.6767 14.3055 13.5393C14.1 13.402 13.9398 13.2068 13.8452 12.9784C13.7505 12.7499 13.7258 12.4986 13.774 12.2561C13.8223 12.0137 13.9413 11.7909 14.1161 11.6161C14.2909 11.4413 14.5137 11.3223 14.7561 11.274C14.9986 11.2258 15.2499 11.2505 15.4784 11.3452C15.7068 11.4398 15.902 11.6 16.0393 11.8055C16.1767 12.0111 16.25 12.2528 16.25 12.5C16.25 12.8315 16.1183 13.1495 15.8839 13.3839C15.6495 13.6183 15.3315 13.75 15 13.75Z" fill="#0067B1"/>
</g>
</g>
<defs>
<clipPath id="clip0_2451_8896">
<rect width="20" height="20" fill="white"/>
</clipPath>
<clipPath id="clip1_2451_8896">
<rect width="20" height="20" fill="white"/>
</clipPath>
</defs>
</svg>
