<svg width="20" height="20" viewBox="0 0 20 20" fill="none" xmlns="http://www.w3.org/2000/svg">
<g clip-path="url(#clip0_2451_8900)">
<g clip-path="url(#clip1_2451_8900)">
<path d="M16.7308 5.8335H3.26923C2.15404 5.8335 1.25 6.76624 1.25 7.91683V16.2502C1.25 17.4008 2.15404 18.3335 3.26923 18.3335H16.7308C17.846 18.3335 18.75 17.4008 18.75 16.2502V7.91683C18.75 6.76624 17.846 5.8335 16.7308 5.8335Z" stroke="#0067B1" stroke-width="1.25" stroke-linecap="round" stroke-linejoin="round"/>
<path d="M16.25 5.74029V3.69154C16.2499 3.39344 16.1828 3.09904 16.0534 2.82934C15.924 2.55964 15.7356 2.32128 15.5015 2.13128C15.2675 1.94129 14.9936 1.80432 14.6994 1.73017C14.4052 1.65602 14.0979 1.64651 13.7995 1.70231L2.92768 3.94008C2.45555 4.02838 2.02962 4.2756 1.72335 4.63912C1.41708 5.00263 1.24967 5.45964 1.25 5.93133V7.9165" stroke="#0067B1" stroke-width="1.25" stroke-linecap="round" stroke-linejoin="round"/>
<path d="M14.1665 12.9165C13.9193 12.9165 13.6776 12.8432 13.472 12.7058C13.2665 12.5685 13.1063 12.3733 13.0117 12.1449C12.917 11.9165 12.8923 11.6651 12.9405 11.4226C12.9888 11.1802 13.1078 10.9574 13.2826 10.7826C13.4574 10.6078 13.6802 10.4888 13.9226 10.4405C14.1651 10.3923 14.4165 10.417 14.6449 10.5117C14.8733 10.6063 15.0685 10.7665 15.2058 10.972C15.3432 11.1776 15.4165 11.4193 15.4165 11.6665C15.4165 11.998 15.2848 12.316 15.0504 12.5504C14.816 12.7848 14.498 12.9165 14.1665 12.9165Z" fill="#0067B1"/>
</g>
</g>
<defs>
<clipPath id="clip0_2451_8900">
<rect width="20" height="20" fill="white"/>
</clipPath>
<clipPath id="clip1_2451_8900">
<rect width="20" height="20" fill="white"/>
</clipPath>
</defs>
</svg>
