<svg width="20" height="20" viewBox="0 0 20 20" fill="none" xmlns="http://www.w3.org/2000/svg">
<path d="M10 1.25C5.168 1.25 1.25 5.168 1.25 10C1.25 14.832 5.168 18.75 10 18.75C14.832 18.75 18.75 14.832 18.75 10C18.75 5.168 14.832 1.25 10 1.25Z" fill="#0067B1"/>
<path d="M9.375 8.75H10.3125V13.75" stroke="white" stroke-width="1.25" stroke-linecap="round" stroke-linejoin="round"/>
<path d="M9.0625 14.0625H11.5625H9.0625Z" fill="white"/>
<path d="M9.0625 14.0625H11.5625" stroke="white" stroke-width="1.25" stroke-miterlimit="10" stroke-linecap="round"/>
<path d="M10.25 5C10.0769 5 9.90777 5.05132 9.76388 5.14746C9.61998 5.24361 9.50783 5.38027 9.44161 5.54015C9.37538 5.70004 9.35805 5.87597 9.39181 6.0457C9.42558 6.21544 9.50891 6.37135 9.63128 6.49372C9.75365 6.61609 9.90956 6.69942 10.0793 6.73319C10.249 6.76695 10.425 6.74962 10.5848 6.68339C10.7447 6.61717 10.8814 6.50502 10.9775 6.36112C11.0737 6.21723 11.125 6.04806 11.125 5.875C11.125 5.64294 11.0328 5.42038 10.8687 5.25628C10.7046 5.09219 10.4821 5 10.25 5Z" fill="white"/>
</svg>
