<svg width="20" height="20" viewBox="0 0 20 20" fill="none" xmlns="http://www.w3.org/2000/svg">
<g clip-path="url(#clip0_9128_2066)">
<path fill-rule="evenodd" clip-rule="evenodd" d="M17.4193 6.55872C19.2206 10.6045 17.4011 15.3445 13.3553 17.1458C11.7988 17.8388 10.1397 17.9959 8.58462 17.6965L7.99144 16.3642C9.545 16.8639 11.2811 16.8153 12.8893 16.0993C16.3572 14.5554 17.9167 10.4925 16.3728 7.02465C16.3487 6.9707 16.3241 6.91721 16.2989 6.86419L17.3457 6.39812C17.3707 6.45126 17.3953 6.50479 17.4193 6.55872ZM3.81465 12.6159L2.76814 13.0818C0.966833 9.03603 2.78635 4.29601 6.83216 2.4947C8.57571 1.71842 10.4482 1.61461 12.1588 2.07164L12.7948 3.49992C11.0982 2.77534 9.11634 2.73167 7.29809 3.54121C3.83026 5.08519 2.27067 9.14806 3.81465 12.6159ZM8.07503 10.4557C9.0877 10.0049 9.54313 8.81844 9.09226 7.80577C8.64139 6.79311 7.45496 6.33768 6.44229 6.78855C5.42962 7.23941 4.97419 8.42585 5.42506 9.43852C5.87593 10.4512 7.06236 10.9066 8.07503 10.4557ZM8.04575 8.27171C8.23929 8.70641 8.04379 9.21569 7.6091 9.40923C7.1744 9.60277 6.66511 9.40728 6.47157 8.97258C6.27803 8.53788 6.47353 8.02859 6.90823 7.83505C7.34293 7.64152 7.85221 7.83701 8.04575 8.27171ZM13.9939 12.9653C15.0066 12.5144 15.462 11.328 15.0111 10.3153C14.5603 9.30267 13.3738 8.84724 12.3612 9.29811C11.3485 9.74898 10.8931 10.9354 11.3439 11.9481C11.7948 12.9607 12.9812 13.4162 13.9939 12.9653ZM13.9646 10.7813C14.1582 11.216 13.9627 11.7253 13.528 11.9188C13.0933 12.1123 12.584 11.9168 12.3905 11.4821C12.1969 11.0474 12.3924 10.5382 12.8271 10.3446C13.2618 10.1511 13.7711 10.3466 13.9646 10.7813ZM8.75624 15.0092C8.45216 14.922 8.27634 14.6049 8.36353 14.3008L10.7817 5.86776C10.8689 5.56368 11.186 5.38785 11.4901 5.47505C11.7942 5.56224 11.97 5.87943 11.8828 6.18351L9.4647 14.6165C9.37751 14.9206 9.06032 15.0964 8.75624 15.0092ZM6.55894 17.1577C6.44558 17.4531 6.11427 17.6006 5.81895 17.4872L3.92839 16.7615C3.63307 16.6481 3.48556 16.3168 3.59892 16.0215C3.71229 15.7262 4.04359 15.5787 4.33892 15.692L4.93852 15.9222L4.23905 14.3511C4.11038 14.0622 4.24035 13.7236 4.52933 13.5949C4.81832 13.4663 5.15689 13.5962 5.28556 13.8852L5.98503 15.4563L6.2152 14.8566C6.32856 14.5613 6.65987 14.4138 6.95519 14.5272C7.25052 14.6405 7.39802 14.9719 7.28466 15.2672L6.55894 17.1577ZM14.8233 1.92265C14.528 1.80929 14.1967 1.9568 14.0834 2.25212L13.3576 4.14268C13.2443 4.438 13.3918 4.76931 13.6871 4.88267C13.9824 4.99604 14.3137 4.84853 14.4271 4.55321L14.6573 3.9536L15.3567 5.52465C15.4854 5.81364 15.824 5.9436 16.113 5.81494C16.4019 5.68627 16.5319 5.3477 16.4032 5.05871L15.7038 3.48767L16.3034 3.71783C16.5987 3.8312 16.93 3.68369 17.0434 3.38837C17.1567 3.09304 17.0092 2.76173 16.7139 2.64837L14.8233 1.92265Z" fill="white"/>
<path d="M6.13293 10H13.8669H6.13293Z" fill="#EF3E42"/>
<path d="M6.13293 10H13.8669" stroke="white" stroke-width="1.09375" stroke-miterlimit="10" stroke-linecap="round" stroke-linejoin="round"/>
</g>
<defs>
<clipPath id="clip0_9128_2066">
<rect width="17.5" height="17.5" fill="white" transform="translate(1.25 1.25)"/>
</clipPath>
</defs>
</svg>
