<svg width="142" height="44" viewBox="0 0 142 44" fill="none" xmlns="http://www.w3.org/2000/svg">
<path d="M141.124 25.1903C140.978 24.9581 140.778 24.7643 140.542 24.625C140.306 24.4856 140.04 24.4049 139.766 24.3895C138.722 24.3895 137.586 25.722 136.764 26.9429C137.009 25.4303 136.792 24.929 136.59 24.6811C136.517 24.5882 136.423 24.5135 136.316 24.4629C136.209 24.4123 136.092 24.3872 135.974 24.3895C135.062 24.3895 133.39 25.6855 132.279 26.9069C132.226 26.9651 132.193 27.0387 132.186 27.1168C132.178 27.1949 132.195 27.2735 132.235 27.341L132.575 27.9052C132.603 27.9523 132.641 27.9924 132.687 28.0228C132.732 28.0531 132.784 28.0728 132.838 28.0804C132.892 28.0881 132.948 28.0834 133 28.0668C133.052 28.0503 133.1 28.0222 133.139 27.9847C133.525 27.624 133.946 27.3031 134.396 27.0267C134.384 27.1461 134.361 27.3149 134.319 27.5536C133.867 30.0663 133.185 32.9731 132.586 35.5379L132.534 35.7549C132.52 35.816 132.522 35.8797 132.539 35.94C132.556 36.0003 132.589 36.0551 132.633 36.0991L132.803 36.2693C132.851 36.3151 132.91 36.3477 132.974 36.3637C133.038 36.3797 133.105 36.3785 133.169 36.3604C133.776 36.1768 134.412 36.0154 134.868 35.9294C134.94 35.9158 135.006 35.8809 135.058 35.8292C135.11 35.7775 135.145 35.7114 135.159 35.6395L135.249 35.1855C135.535 33.7318 135.803 32.3607 136.114 30.9427C136.586 29.9071 137.164 28.9231 137.839 28.0064C138.453 27.15 138.736 27.1066 138.787 27.1066C139.012 27.1406 139.216 27.2588 139.358 27.4373C139.496 27.5504 139.668 27.6138 139.846 27.6173C140.024 27.6209 140.199 27.5643 140.341 27.4569C140.652 27.2317 140.912 26.9444 141.106 26.6131C141.233 26.3984 141.302 26.1539 141.306 25.9041C141.309 25.6543 141.246 25.4081 141.124 25.1903Z" fill="#C1CDD8"/>
<path d="M131.044 26.712C131.04 26.3937 130.971 26.0797 130.842 25.7887C130.713 25.4977 130.526 25.2358 130.293 25.0188C130.061 24.8019 129.786 24.6342 129.487 24.5261C129.187 24.4179 128.869 24.3714 128.551 24.3894C127.485 24.3894 126.106 24.9537 124.953 25.86C123.977 26.6607 123.193 27.6687 122.656 28.8107C122.119 29.9526 121.843 31.1999 121.849 32.4618C121.849 36.1134 124.208 36.3977 124.931 36.3977C126.179 36.3977 128.13 35.8981 130.337 33.517C130.394 33.4558 130.428 33.3768 130.434 33.2932C130.439 33.2097 130.416 33.1268 130.367 33.0586L129.976 32.4974C129.946 32.4537 129.907 32.4171 129.862 32.39C129.816 32.3629 129.765 32.3459 129.713 32.3403C129.66 32.3356 129.606 32.3422 129.556 32.3597C129.506 32.3772 129.46 32.4052 129.422 32.4418C128.26 33.5578 127.011 34.2214 126.083 34.2214C124.827 34.2214 124.563 32.9167 124.563 31.8238C124.563 31.6757 124.563 31.5169 124.571 31.3298C127.586 30.5563 131.044 29.1388 131.044 26.712ZM128.505 27.1026C128.505 28.1578 127.288 29.0407 124.792 29.7937C125.288 27.5276 126.352 26.6486 126.815 26.3648C127.069 26.2228 127.355 26.1499 127.646 26.1534C127.768 26.1488 127.89 26.171 128.002 26.2185C128.115 26.2659 128.215 26.3374 128.297 26.428C128.379 26.5186 128.44 26.626 128.476 26.7427C128.512 26.8594 128.522 26.9826 128.505 27.1035V27.1026Z" fill="#C1CDD8"/>
<path d="M113.38 32.9039C113.354 32.8531 113.316 32.8091 113.27 32.7755C113.224 32.7419 113.17 32.7196 113.114 32.7103C113.057 32.7002 112.999 32.7039 112.944 32.7211C112.89 32.7383 112.84 32.7686 112.799 32.8092C112.453 33.1493 112.069 33.4486 111.654 33.7012C111.667 33.6333 111.681 33.5657 111.698 33.4985L112.896 28.3859C113.335 26.4995 113.33 25.3532 112.879 24.7833C112.774 24.6536 112.64 24.5503 112.488 24.4819C112.336 24.4134 112.169 24.3817 112.003 24.3892C111.421 24.4204 110.856 24.5957 110.358 24.8992C108.948 25.7232 107.698 26.7946 106.669 28.0621C107.004 26.3923 106.955 25.3506 106.521 24.8042C106.412 24.6695 106.274 24.562 106.117 24.49C105.96 24.418 105.788 24.3835 105.615 24.3892C105.018 24.4177 104.439 24.6042 103.937 24.9296C102.614 25.7561 101.433 26.7907 100.44 27.9935L100.471 27.8742C100.896 26.1037 100.922 25.1501 100.558 24.6874C100.483 24.5916 100.386 24.5146 100.276 24.4628C100.166 24.4109 100.045 24.3856 99.9229 24.3888C99.0982 24.3888 97.5356 25.4253 96.2027 26.8524C96.1523 26.9064 96.1193 26.9744 96.1082 27.0474C96.097 27.1204 96.1082 27.1951 96.1402 27.2617L96.4345 27.8737C96.46 27.9252 96.4972 27.9701 96.5429 28.0049C96.5887 28.0397 96.6419 28.0634 96.6984 28.0742C96.7553 28.0846 96.8139 28.0812 96.8693 28.0645C96.9247 28.0477 96.9753 28.0181 97.017 27.9779C97.3843 27.6276 97.7818 27.3104 98.2049 27.0299C98.1889 27.1398 98.1615 27.2878 98.1181 27.4883C97.4948 30.2603 96.8195 33.0203 96.0924 35.7668C96.0752 35.833 96.0768 35.9027 96.0971 35.968C96.1175 36.0332 96.1557 36.0915 96.2075 36.1362L96.3767 36.2833C96.4245 36.3247 96.4822 36.3528 96.5442 36.365C96.6061 36.3772 96.6702 36.373 96.7301 36.3528C97.2774 36.1634 97.8425 36.0297 98.4168 35.9539C98.4939 35.946 98.5664 35.9134 98.6235 35.861C98.6807 35.8086 98.7194 35.7392 98.734 35.6631C98.9376 34.6483 99.3387 32.758 99.7072 31.5479C100.573 29.8221 103.429 26.6619 104.329 26.648C104.374 26.7131 104.45 27.0191 104.159 28.4445C103.732 30.4155 103.21 32.5063 102.708 34.5298L102.4 35.7729C102.384 35.8343 102.385 35.8986 102.403 35.9595C102.42 36.0204 102.453 36.0758 102.498 36.1201L102.647 36.2656C102.694 36.3131 102.755 36.3464 102.82 36.3617C102.886 36.377 102.955 36.3738 103.018 36.3524C103.573 36.1611 104.146 36.0276 104.728 35.9539C104.807 35.9459 104.881 35.9125 104.938 35.8588C104.996 35.805 105.035 35.7339 105.049 35.6561C105.338 34.1023 105.756 32.413 105.986 31.5167C106.929 29.7401 109.746 26.661 110.607 26.6389C110.612 26.6467 110.731 26.8394 110.495 27.8047L109.2 33.4473C108.869 34.7928 108.876 35.6219 109.222 36.0642C109.305 36.1707 109.411 36.2562 109.533 36.3138C109.655 36.3715 109.789 36.3995 109.923 36.3958C110.666 36.3958 112.299 35.4504 113.643 33.9217C113.693 33.8667 113.724 33.798 113.733 33.7247C113.743 33.6514 113.729 33.577 113.695 33.5115L113.38 32.9039Z" fill="#C1CDD8"/>
<path d="M119.743 19.7193C119.529 19.7182 119.317 19.7612 119.12 19.8458C118.923 19.9304 118.746 20.0547 118.599 20.2109C118.261 20.5661 118.074 21.0391 118.078 21.5296C118.067 21.7126 118.094 21.8959 118.157 22.0682C118.22 22.2404 118.317 22.3979 118.443 22.5309C118.57 22.6638 118.722 22.7694 118.891 22.841C119.059 22.9127 119.241 22.9489 119.424 22.9474C119.643 22.9477 119.86 22.9037 120.062 22.8179C120.263 22.7322 120.445 22.6065 120.597 22.4484C120.758 22.281 120.885 22.0832 120.969 21.8664C121.053 21.6496 121.093 21.4182 121.087 21.1857C121.101 20.9998 121.077 20.813 121.016 20.6368C120.955 20.4606 120.859 20.2987 120.733 20.1613C120.607 20.0239 120.454 19.9137 120.284 19.8377C120.114 19.7617 119.929 19.7214 119.743 19.7193Z" fill="#C1CDD8"/>
<path d="M120.102 32.885C120.075 32.8387 120.037 32.7992 119.993 32.769C119.948 32.7389 119.898 32.719 119.845 32.7107C119.792 32.7024 119.737 32.7059 119.686 32.721C119.634 32.7362 119.587 32.7625 119.547 32.7982C119.169 33.1378 118.765 33.4482 118.34 33.7266C118.351 33.6715 118.364 33.6042 118.383 33.5287L120.046 26.8053C120.331 25.6876 120.331 25.0578 120.055 24.7002C119.983 24.6088 119.89 24.5355 119.785 24.4863C119.679 24.4371 119.564 24.4133 119.447 24.4167C118.65 24.4167 116.843 25.5288 115.497 26.8444C115.441 26.9001 115.403 26.9728 115.392 27.0515C115.38 27.1301 115.394 27.2105 115.431 27.2806L115.727 27.8192C115.752 27.8666 115.788 27.9077 115.831 27.9398C115.874 27.9718 115.924 27.9939 115.977 28.0046C116.03 28.0147 116.085 28.0133 116.137 28.0005C116.189 27.9877 116.238 27.9637 116.281 27.9303C116.647 27.6313 117.036 27.3622 117.445 27.1256C117.433 27.1807 117.421 27.2415 117.402 27.3131L115.863 33.5504C115.536 34.8889 115.534 35.6707 115.856 36.0808C115.94 36.1857 116.048 36.2692 116.17 36.3246C116.293 36.38 116.427 36.4056 116.561 36.3994C117.636 36.3994 119.652 34.7153 120.389 33.8485C120.438 33.7907 120.468 33.7187 120.474 33.6428C120.481 33.5669 120.463 33.4909 120.423 33.4258L120.102 32.885Z" fill="#C1CDD8"/>
<path d="M94.8594 26.712C94.8548 26.3937 94.7858 26.0795 94.6566 25.7885C94.5274 25.4975 94.3406 25.2356 94.1076 25.0186C93.8746 24.8017 93.6001 24.6341 93.3006 24.5259C93.0011 24.4178 92.6828 24.3714 92.3649 24.3895C91.0405 24.4864 89.781 25.0013 88.768 25.86C86.8825 27.2897 85.6667 29.8806 85.6667 32.4618C85.6667 36.1134 88.0206 36.3977 88.7428 36.3977C89.9942 36.3977 91.9482 35.8982 94.1497 33.517C94.2069 33.4563 94.2414 33.3777 94.2474 33.2945C94.2534 33.2114 94.2306 33.1287 94.1827 33.0604L93.7947 32.4961C93.7642 32.4526 93.7249 32.4161 93.6792 32.3891C93.6336 32.362 93.5827 32.3449 93.5299 32.339C93.4771 32.3341 93.4239 32.3406 93.3739 32.3582C93.3238 32.3757 93.2782 32.4038 93.24 32.4406C92.0776 33.5565 90.828 34.2201 89.8978 34.2201C88.6447 34.2201 88.3787 32.9154 88.3787 31.8225C88.3787 31.6745 88.3787 31.5156 88.3878 31.3285C91.4014 30.5551 94.8594 29.1362 94.8594 26.712ZM92.3185 27.1027C92.3185 28.1578 91.1001 29.0407 88.6044 29.7937C89.1031 27.5263 90.1669 26.6487 90.6292 26.3648C90.883 26.2229 91.1696 26.15 91.4604 26.1534C91.5824 26.1489 91.7039 26.1711 91.8163 26.2186C91.9288 26.2661 92.0295 26.3376 92.1113 26.4282C92.1931 26.5188 92.2541 26.6262 92.29 26.7428C92.3259 26.8595 92.3358 26.9826 92.3189 27.1035L92.3185 27.1027Z" fill="#C1CDD8"/>
<path d="M85.9428 25.1902C85.7977 24.9574 85.5985 24.763 85.3622 24.6236C85.1259 24.4842 84.8595 24.4039 84.5855 24.3894C83.5412 24.3894 82.4057 25.7228 81.5806 26.9447C81.8285 25.432 81.6093 24.9289 81.41 24.6811C81.3361 24.5883 81.2419 24.5138 81.1345 24.4632C81.0272 24.4126 80.9097 24.3874 80.7911 24.3894C79.8865 24.3894 78.2124 25.6855 77.1017 26.9069C77.0483 26.9647 77.0151 27.0383 77.0073 27.1166C76.9995 27.195 77.0174 27.2737 77.0583 27.3409L77.399 27.9052C77.427 27.9522 77.4652 27.9923 77.5107 28.0226C77.5562 28.0529 77.608 28.0725 77.6621 28.0802C77.7163 28.0878 77.7714 28.0831 77.8236 28.0666C77.8757 28.0501 77.9234 28.0221 77.9633 27.9846C78.3471 27.6225 78.7676 27.3014 79.2181 27.0267C79.2038 27.146 79.1808 27.3149 79.1378 27.5536C78.6947 30.0147 78.0319 32.8642 77.445 35.3794L77.3582 35.7549C77.3441 35.8155 77.3457 35.8788 77.3631 35.9386C77.3804 35.9985 77.4128 36.0528 77.4572 36.0965L77.6265 36.2671C77.6607 36.3011 77.7013 36.3281 77.746 36.3463C77.7907 36.3646 77.8386 36.3738 77.8869 36.3734C77.9218 36.3736 77.9566 36.3687 77.9902 36.3591C78.5948 36.1772 79.2307 36.0158 79.6921 35.9281C79.764 35.9145 79.83 35.8795 79.8818 35.8278C79.9335 35.7761 79.9684 35.71 79.982 35.6381L80.048 35.3044C80.3423 33.8104 80.6188 32.4002 80.9391 30.9418C81.4131 29.9078 81.9898 28.9241 82.6605 28.0055C83.2743 27.1491 83.5594 27.1057 83.6094 27.1057C83.836 27.1399 84.0416 27.2579 84.1853 27.4364C84.3227 27.5504 84.4947 27.6143 84.6731 27.6175C84.8515 27.6207 85.0258 27.5631 85.1671 27.4542C85.4752 27.2296 85.7338 26.9442 85.9272 26.6156C86.0558 26.4008 86.1251 26.1555 86.1278 25.9051C86.1306 25.6546 86.0667 25.4079 85.9428 25.1902Z" fill="#C1CDD8"/>
<path d="M84.1547 21.7562C85.3753 21.3979 86.5165 20.8103 87.5172 20.0248C88.507 19.2313 89.3142 18.2338 89.8837 17.1002C90.5073 15.8123 90.8162 14.3948 90.7852 12.9642C90.7774 12.2686 90.6869 11.5763 90.5156 10.9021C90.3238 10.1137 90.0272 9.3546 89.6336 8.64505C89.1846 7.83978 88.6392 7.09221 88.0094 6.41883C87.3779 5.74464 86.6676 5.14877 85.8939 4.64402C86.7364 3.67131 87.6783 2.78945 88.7044 2.01284C88.7807 1.9565 88.8321 1.87253 88.8474 1.77887C88.8627 1.68521 88.8408 1.58926 88.7864 1.51152L88.4127 0.973734C88.3635 0.902626 88.2907 0.851314 88.2072 0.828969C88.1237 0.806625 88.035 0.814706 87.9569 0.851767C87.1669 1.22136 86.4094 1.65695 85.6925 2.1539C85.065 2.58838 84.4603 3.05487 83.8808 3.55153C82.6987 3.05451 81.4701 2.67648 80.2131 2.42301C78.5671 2.09928 76.8922 1.94483 75.2147 1.96205C72.7972 1.9658 70.3895 2.26682 68.0455 2.85836C65.6784 3.44922 63.3818 4.29324 61.1954 5.37582C59.0263 6.45251 56.9817 7.76378 55.0984 9.28613C54.4339 9.82131 53.7616 10.4242 53.0445 11.1278C53.0099 11.1617 52.9823 11.2023 52.9635 11.247C52.9448 11.2917 52.9351 11.3397 52.9351 11.3882C52.9351 11.4367 52.9448 11.4847 52.9635 11.5295C52.9823 11.5742 53.0099 11.6147 53.0445 11.6486L55.012 13.6075C55.0811 13.6747 55.1735 13.7125 55.2699 13.713H55.2751C55.3238 13.7129 55.3719 13.7029 55.4167 13.6838C55.4614 13.6646 55.5018 13.6366 55.5355 13.6014C55.806 13.3199 56.082 13.0425 56.3632 12.7693C57.6627 11.5101 59.0576 10.3534 60.5357 9.30957C62.0248 8.25607 63.6039 7.33595 65.2546 6.55989C66.9039 5.78657 68.624 5.17461 70.3911 4.73256C72.1666 4.29031 73.9896 4.06772 75.8193 4.06978C77.0907 4.06346 78.3606 4.15473 79.6181 4.34279C80.552 4.48424 81.4714 4.70925 82.3651 5.01513C81.5881 5.84274 80.867 6.72116 80.2066 7.64457C79.3947 8.77419 78.6374 9.9421 77.9374 11.1443C77.1852 12.4324 76.4722 13.7429 75.7993 15.0741C75.1214 16.4048 74.4595 17.7436 73.814 19.0903C73.1109 18.8599 72.4189 18.597 71.7401 18.3025C70.9796 17.9732 70.2283 17.6231 69.487 17.2526C69.403 17.2113 69.3065 17.2035 69.217 17.2308C69.1275 17.2582 69.0518 17.3186 69.0052 17.3997L68.635 18.0508C68.5908 18.1293 68.577 18.2213 68.5963 18.3093C68.6155 18.3974 68.6663 18.4753 68.7391 18.5283C70.0458 19.4641 71.4548 20.2482 72.939 20.8652C71.5934 23.5215 68.1983 29.826 67.0169 31.817C65.9509 33.6504 64.6943 35.3662 63.268 36.9357C62.0607 38.2651 60.6202 39.3624 59.0178 40.1732C57.4133 40.9439 55.6512 41.3303 53.8714 41.3017C52.7192 41.3149 51.5757 41.1021 50.5053 40.6754C50.3368 40.6045 50.171 40.5272 50.0084 40.4436C49.9394 40.4102 49.8618 40.3989 49.7862 40.4112C49.7105 40.4234 49.6405 40.4587 49.5856 40.5122L48.6741 41.4202C48.6337 41.4615 48.6033 41.5115 48.5852 41.5663C48.5671 41.6212 48.5619 41.6794 48.5699 41.7366C48.5794 41.7937 48.602 41.8478 48.6361 41.8945C48.6701 41.9412 48.7147 41.9793 48.7661 42.0058C49.1197 42.1902 49.4829 42.3553 49.8543 42.5006C51.2593 43.0217 52.7475 43.2822 54.2459 43.2693C55.8004 43.2792 57.3468 43.0448 58.8286 42.5748C60.2364 42.1261 61.5773 41.4898 62.8153 40.6832C64.0647 39.8648 65.2193 38.9103 66.2581 37.8372C67.326 36.7341 68.3098 35.5526 69.2014 34.3028C70.1091 33.0307 70.9449 31.7088 71.705 30.3434C72.4034 29.0847 75.2915 23.6665 76.1674 21.8873C78.7995 22.5071 81.5444 22.4621 84.1547 21.7562ZM77.0954 19.8716C78.3914 17.0703 79.6562 14.4951 80.8586 12.2146C81.9615 10.0919 83.2333 8.06126 84.6617 6.14234C85.511 6.69613 86.2288 7.42918 86.7646 8.29C87.3507 9.30599 87.6429 10.4649 87.6084 11.6374C87.6241 12.8185 87.3961 13.9902 86.9387 15.0793C86.5154 16.0686 85.9027 16.9655 85.1352 17.7196C84.3748 18.4541 83.4778 19.0323 82.4949 19.4215C81.4739 19.8269 80.3845 20.0322 79.286 20.0261C78.8382 20.0264 78.3905 20.007 77.9444 19.968C77.6604 19.9447 77.3773 19.9125 77.0954 19.8716Z" fill="#C1CDD8"/>
<path d="M60.8313 28.0542L51.9664 19.2227L43.1031 28.0542L51.9664 36.8936L60.8313 28.0542Z" fill="#C1CDD8"/>
<path d="M37.7205 18.3769C34.2885 18.3769 31.0992 21.008 30.6456 24.0194L28.6672 37.7379H34.0589C37.4562 37.7379 40.6225 35.1032 41.0904 32.0519L41.2706 30.8613C41.3597 30.2781 41.3139 29.6822 41.1365 29.1194C40.9591 28.5567 40.655 28.0422 40.2475 27.6155C41.3489 26.6585 42.0991 25.3611 42.3791 23.9292L42.505 23.0945C42.8696 20.7884 41.1877 18.3769 37.7205 18.3769ZM37.0451 30.1946L36.6606 32.9478C36.4991 34.0155 35.6831 34.8754 34.8285 34.8754C33.9882 34.8754 33.4183 34.0155 33.5697 32.9478L33.9517 30.1946C34.1023 29.1251 34.9066 28.2696 35.7586 28.2696C36.6107 28.2696 37.2018 29.1251 37.0451 30.1946ZM38.0769 23.1566L37.7613 25.0481C37.5877 26.105 36.7973 26.9792 35.931 26.9792C35.0828 26.9792 34.493 26.105 34.6839 25.0481L34.98 23.1566C35.1536 22.0979 35.931 21.2311 36.7977 21.2311C37.6437 21.2311 38.254 22.0971 38.0769 23.1566Z" fill="#C1CDD8"/>
<path d="M26.7686 18.3769C25.4269 18.3769 24.1209 19.7532 23.8796 21.4256L22.8969 28.3326H20.254L21.2002 21.4256C21.4454 19.7532 20.5418 18.3769 19.2006 18.3769C17.8594 18.3769 16.5438 19.7532 16.3181 21.4256L14.0471 37.7396H16.4635C17.8029 37.7396 19.1268 36.3507 19.3516 34.6891L19.9332 30.3821H22.6161L22.0275 34.6891C21.8035 36.3498 22.7098 37.7396 24.0289 37.7396C25.3861 37.7396 26.6861 36.3507 26.937 34.6891L28.7852 21.4256C29.0083 19.7532 28.1089 18.3769 26.7686 18.3769Z" fill="#C1CDD8"/>
<path d="M13.8431 25.1149L14.1331 23.1243C14.4486 20.8178 12.8105 18.4097 9.34165 18.4097C5.90401 18.4097 2.71898 21.0392 2.26671 24.0601L0.325226 37.7391H2.39823C3.57015 37.7391 4.64224 36.5823 4.8432 35.1409L5.41918 31.1511L8.71402 36.831C8.85293 37.1033 9.06412 37.332 9.32443 37.4922C9.58474 37.6524 9.88413 37.7378 10.1898 37.7391C11.3717 37.7391 12.4542 36.5485 12.6825 35.1044C12.7997 34.5142 12.7117 33.9016 12.4329 33.3682L10.1898 29.576C12.3769 28.388 13.6022 26.7916 13.8431 25.1149ZM9.26308 22.9056L8.69579 27.0208C8.56905 27.9544 7.86893 28.6966 7.11803 28.6966C6.38406 28.6966 5.89055 27.9544 6.00037 27.0208L6.56462 22.9056C6.69918 21.9698 7.39495 21.2315 8.14672 21.2315C8.89024 21.2315 9.37724 21.9698 9.26308 22.9056Z" fill="#C1CDD8"/>
</svg>
