<svg width="80" height="24" viewBox="0 0 80 24" fill="none" xmlns="http://www.w3.org/2000/svg">
<path d="M77.6433 11.9983L66.6243 22.9517L55.6045 11.9983L66.6243 1.04902L77.6433 11.9983Z" fill="#EF3E42"/>
<path fill-rule="evenodd" clip-rule="evenodd" d="M4.83158 7.04443L2.39999 23.9995H4.99013C6.43195 23.9995 7.77795 22.5673 8.03501 20.7757L8.73939 15.8394L12.8415 22.8864C13.2247 23.5636 13.8664 23.9995 14.6665 23.9995C16.1401 23.9995 17.4861 22.5277 17.7742 20.7381C17.903 19.8993 17.7742 19.1041 17.4537 18.5871L14.6665 13.8909C17.3889 12.4192 18.9272 10.4285 19.216 8.35929L19.5688 5.89116C19.9851 3.02543 17.9334 0.0390091 13.6093 0.0390091C9.34796 0.0390091 5.37471 3.30302 4.83158 7.04443ZM10.182 5.61223C10.3413 4.4583 11.2055 3.54239 12.1359 3.54239C13.0636 3.54239 13.6742 4.4583 13.5137 5.61223L12.812 10.7228C12.6514 11.8774 11.7865 12.794 10.8581 12.794C9.92903 12.794 9.32046 11.8774 9.47969 10.7228L10.182 5.61223Z" fill="#0067B1"/>
<path d="M22.2854 3.78027C22.5735 1.71042 24.2069 -3.05176e-05 25.8734 -3.05176e-05C27.5392 -3.05176e-05 28.6605 1.71042 28.3718 3.78027L27.1877 12.3379H30.4883L31.7047 3.78027C31.9928 1.71042 33.6276 -3.05176e-05 35.2941 -3.05176e-05C36.9599 -3.05176e-05 38.0812 1.71042 37.7925 3.78027L35.4857 20.2183C35.1969 22.2875 33.5635 24 31.8963 24C30.2312 24 29.1099 22.2875 29.398 20.2183L30.1354 14.8851H26.8038L26.0663 20.2183C25.7769 22.2875 24.1435 24 22.4783 24H19.4652L22.2854 3.78027Z" fill="#0067B1"/>
<path fill-rule="evenodd" clip-rule="evenodd" d="M54.7018 6.8854C54.4448 8.47785 53.5791 10.0294 52.0408 11.4623C53.0987 12.5773 53.5467 14.0491 53.3227 15.4826L53.0987 16.955C52.5226 20.7367 48.5803 23.9993 44.3521 23.9993H37.6551L40.1217 7.00609C40.6682 3.26401 44.6408 0.000669479 48.9008 0.000669479C53.2256 0.000669479 55.309 2.98508 54.8597 5.85148L54.7018 6.8854ZM46.4665 12.2588C45.4086 12.2588 44.4161 13.3329 44.2231 14.6471L43.7428 18.07C43.5511 19.3829 44.2555 20.457 45.3128 20.457C46.37 20.457 47.3962 19.3829 47.5878 18.07L48.0689 14.6471C48.2618 13.3329 47.5224 12.2588 46.4665 12.2588ZM45.505 5.93058C45.729 4.61706 46.6911 3.54225 47.7484 3.54225C48.8049 3.54225 49.5747 4.61706 49.3501 5.93058L48.9668 8.27868C48.7415 9.5922 47.7484 10.6663 46.6911 10.6663C45.6339 10.6663 44.8951 9.5922 45.1211 8.27868L45.505 5.93058Z" fill="#0067B1"/>
</svg>
