<svg width="137" height="41" viewBox="0 0 137 41" fill="none" xmlns="http://www.w3.org/2000/svg">
<path d="M132.307 20.4455L113.53 39.1102L94.752 20.4455L113.53 1.78754L132.307 20.4455Z" fill="#EF3E42"/>
<path d="M8.50391 40.8956C10.9606 40.8954 13.2543 38.4551 13.6924 35.4025L14.8926 26.9904L21.8828 38.9991C22.5358 40.1529 23.6288 40.8956 24.9922 40.8956C27.5031 40.8956 29.7972 38.3875 30.2881 35.338C30.5076 33.9089 30.2881 32.5538 29.7422 31.673L24.9922 23.67C29.6312 21.1621 32.2531 17.7702 32.7451 14.2443L33.3457 10.0382C34.0548 5.15505 30.5586 0.0665283 23.1904 0.0665283C15.9291 0.0667114 9.15888 5.62868 8.2334 12.004L4.08984 40.8956H8.50391ZM18.5029 21.8009C16.9198 21.8009 15.883 20.2391 16.1543 18.2716L17.3506 9.5636C17.6219 7.59745 19.0944 6.03656 20.6797 6.03625C22.2605 6.03625 23.301 7.59726 23.0273 9.5636L21.832 18.2716C21.5584 20.239 20.0848 21.8007 18.5029 21.8009Z" fill="#0067B1"/>
<path d="M37.9756 6.44173C38.4665 2.91466 41.2499 7.62939e-06 44.0897 7.62939e-06C46.9283 7.62939e-06 48.839 2.91466 48.347 6.44173L46.3293 21.0242L51.9536 21.0242L54.0264 6.44173C54.5174 2.91466 57.3031 7.62939e-06 60.1428 7.62939e-06C62.9814 7.62939e-06 64.8922 2.91466 64.4001 6.44173L60.4693 34.4526C59.9772 37.9785 57.1938 40.8966 54.353 40.8966C51.5155 40.8966 49.6047 37.9785 50.0957 34.4526L51.3523 25.3647H45.6751L44.4185 34.4526C43.9253 37.9785 41.1419 40.8966 38.3044 40.8966H33.1699L37.9756 6.44173Z" fill="#0067B1"/>
<path d="M75.5781 40.8955C82.7831 40.8954 89.5006 35.3355 90.4824 28.8916L90.8643 26.3828C91.2459 23.9401 90.4823 21.4323 88.6797 19.5322C91.3008 17.0907 92.7757 14.4468 93.2139 11.7334L93.4834 9.9707C94.2488 5.08643 90.6984 0.000999451 83.3291 0.000976562C76.07 0.000976562 69.3004 5.56192 68.3691 11.9385L64.166 40.8955H75.5781ZM79.5635 18.1758C77.7621 18.1757 76.5037 16.3455 76.8887 14.1074L77.543 10.1055C77.9248 7.86743 79.5638 6.03613 81.3652 6.03613C83.1655 6.03615 84.4773 7.86742 84.0947 10.1055L83.4414 14.1074C83.0573 16.3455 81.365 18.1758 79.5635 18.1758ZM77.2148 34.8594C75.4133 34.8593 74.2136 33.0291 74.54 30.792L75.3584 24.959C75.6873 22.7197 77.3781 20.8898 79.1807 20.8896C80.9799 20.8896 82.2399 22.7196 81.9111 24.959L81.0918 30.792C80.7652 33.0291 79.0164 34.8594 77.2148 34.8594Z" fill="#0067B1"/>
</svg>
