<svg width="66" height="20" viewBox="0 0 66 20" fill="none" xmlns="http://www.w3.org/2000/svg">
<path d="M64.0555 9.99868L54.9648 19.1265L45.8735 9.99868L54.9648 0.874243L64.0555 9.99868Z" fill="#EF3E42"/>
<path d="M4.1167 19.9995C5.30619 19.9995 6.41634 18.806 6.62842 17.313L7.21045 13.1997L10.5942 19.0718C10.9104 19.6361 11.4399 19.9995 12.1001 19.9995C13.3157 19.9994 14.4259 18.773 14.6636 17.2817C14.7699 16.5828 14.6632 15.9205 14.3989 15.4897L12.1001 11.5757C14.3458 10.3493 15.6147 8.69047 15.853 6.96631L16.144 4.90967C16.4875 2.52164 14.7952 0.0328846 11.228 0.0327148C7.71242 0.0327148 4.43392 2.75276 3.98584 5.87061L1.97998 19.9995H4.1167ZM8.95752 10.6616C8.19137 10.6614 7.68964 9.89787 7.8208 8.93604L8.3999 4.67725C8.53126 3.71563 9.24463 2.95166 10.0122 2.95166C10.7775 2.95171 11.2814 3.71566 11.1489 4.67725L10.5698 8.93604C10.4372 9.89802 9.72332 10.6616 8.95752 10.6616Z" fill="#0067B1"/>
<path d="M18.3853 3.15025C18.6229 1.42538 19.9705 0 21.3454 0C22.7197 0 23.6448 1.42538 23.4065 3.15025L22.4297 10.2816L25.1526 10.2816L26.1562 3.15025C26.3939 1.42538 27.7426 0 29.1175 0C30.4917 0 31.4168 1.42538 31.1786 3.15025L29.2755 16.8486C29.0373 18.5729 27.6897 20 26.3143 20C24.9406 20 24.0155 18.5729 24.2532 16.8486L24.8615 12.4043H22.1129L21.5046 16.8486C21.2658 18.5729 19.9182 20 18.5445 20H16.0586L18.3853 3.15025Z" fill="#0067B1"/>
<path d="M36.5908 19.9995C40.079 19.9993 43.3312 17.2806 43.8066 14.1294L43.9912 12.9019C44.1759 11.7074 43.8062 10.4813 42.9336 9.55225C44.2027 8.35819 44.9168 7.06483 45.1289 5.73779L45.2588 4.87646C45.6295 2.4878 43.9107 0.000488281 40.3428 0.000488281C36.8285 0.000692368 33.5515 2.72015 33.1006 5.83838L31.0654 19.9995H36.5908ZM38.5205 8.88916C37.6483 8.88916 37.0381 7.99352 37.2246 6.89893L37.542 4.94189C37.7269 3.84747 38.5205 2.95166 39.3926 2.95166C40.2641 2.95179 40.899 3.84753 40.7139 4.94189L40.3975 6.89893C40.2116 7.99338 39.3926 8.88892 38.5205 8.88916ZM37.3828 17.0474C36.5107 17.0472 35.9298 16.1521 36.0879 15.0581L36.4844 12.2056C36.6437 11.1106 37.4623 10.2153 38.335 10.2153C39.2059 10.2154 39.8162 11.1107 39.6572 12.2056L39.2598 15.0581C39.1017 16.1521 38.255 17.0474 37.3828 17.0474Z" fill="#0067B1"/>
</svg>
