<svg width="1136" height="250" viewBox="0 0 1136 250" fill="none" xmlns="http://www.w3.org/2000/svg">
<g clip-path="url(#clip0_1717_24515)">
<path d="M0 25.6C0 16.6392 0 12.1587 1.7439 8.73615C3.27787 5.72556 5.72556 3.27787 8.73615 1.7439C12.1587 0 16.6392 0 25.6 0H1110.4C1119.36 0 1123.84 0 1127.26 1.7439C1130.27 3.27787 1132.72 5.72556 1134.26 8.73615C1136 12.1587 1136 16.6392 1136 25.6V224.4C1136 233.361 1136 237.841 1134.26 241.264C1132.72 244.274 1130.27 246.722 1127.26 248.256C1123.84 250 1119.36 250 1110.4 250H25.6C16.6392 250 12.1587 250 8.73615 248.256C5.72556 246.722 3.27787 244.274 1.7439 241.264C0 237.841 0 233.361 0 224.4V25.6Z" fill="url(#paint0_linear_1717_24515)"/>
<path d="M1135.47 0H566.189C646.048 73.305 786.155 132.098 914.553 172.999H1135.47V0Z" fill="url(#paint1_linear_1717_24515)" fill-opacity="0.8"/>
<path d="M1136 0.00195312H-1C71.3545 20.7252 158.22 37.7723 254.377 41.249C530.003 51.2145 592.298 8.67123 844.5 62.5859C948.314 84.779 1027.05 128.838 1083.76 172.999H1136V0.00195312Z" fill="url(#paint2_linear_1717_24515)" fill-opacity="0.6"/>
</g>
<defs>
<linearGradient id="paint0_linear_1717_24515" x1="631.169" y1="2.02478e-05" x2="475.411" y2="230.083" gradientUnits="userSpaceOnUse">
<stop stop-color="#DEF1FF"/>
<stop offset="1" stop-color="white"/>
</linearGradient>
<linearGradient id="paint1_linear_1717_24515" x1="566.189" y1="115.075" x2="1135.47" y2="115.075" gradientUnits="userSpaceOnUse">
<stop stop-color="white" stop-opacity="0"/>
<stop offset="1" stop-color="white"/>
</linearGradient>
<linearGradient id="paint2_linear_1717_24515" x1="1087.53" y1="299.459" x2="65.2699" y2="-207.242" gradientUnits="userSpaceOnUse">
<stop stop-color="white"/>
<stop offset="1" stop-color="white" stop-opacity="0"/>
</linearGradient>
<clipPath id="clip0_1717_24515">
<path d="M0 25.6C0 16.6392 0 12.1587 1.7439 8.73615C3.27787 5.72556 5.72556 3.27787 8.73615 1.7439C12.1587 0 16.6392 0 25.6 0H1110.4C1119.36 0 1123.84 0 1127.26 1.7439C1130.27 3.27787 1132.72 5.72556 1134.26 8.73615C1136 12.1587 1136 16.6392 1136 25.6V224.4C1136 233.361 1136 237.841 1134.26 241.264C1132.72 244.274 1130.27 246.722 1127.26 248.256C1123.84 250 1119.36 250 1110.4 250H25.6C16.6392 250 12.1587 250 8.73615 248.256C5.72556 246.722 3.27787 244.274 1.7439 241.264C0 237.841 0 233.361 0 224.4V25.6Z" fill="white"/>
</clipPath>
</defs>
</svg>
