<svg width="548" height="400" viewBox="0 0 548 400" fill="none" xmlns="http://www.w3.org/2000/svg">
<path d="M0 7.99999C0 3.58171 3.58172 0 8 0H540C544.418 0 548 3.58172 548 8V598C548 602.418 544.418 606 540 606H8C3.58173 606 0 602.418 0 598V7.99999Z" fill="#DEF1FF"/>
<path d="M274 351C300.51 351 322 329.51 322 303C322 276.49 300.51 255 274 255C247.49 255 226 276.49 226 303C226 329.51 247.49 351 274 351Z" fill="#DEF1FF"/>
<rect x="227.634" y="276.031" width="80" height="52" transform="rotate(-15 227.634 276.031)" fill="#0067B1" stroke="#EBF7FF" stroke-width="6"/>
<path d="M243.723 309.032L245.524 315.754C245.81 316.821 246.907 317.454 247.974 317.169L302.149 302.652C303.997 302.157 304.162 299.599 302.393 298.871L270.851 285.887C269.671 285.402 268.345 286.13 268.12 287.385L267.473 291.008C267.238 292.323 265.804 293.042 264.609 292.444L250.277 285.271C249.079 284.671 247.641 285.397 247.412 286.717L243.685 308.172C243.635 308.458 243.648 308.752 243.723 309.032Z" fill="#DEF1FF"/>
<circle cx="290.955" cy="276.664" r="8" transform="rotate(-15 290.955 276.664)" fill="#DEF1FF"/>
<rect x="241" y="286" width="80" height="52" fill="#78C5FF" stroke="#EBF7FF" stroke-width="6"/>
<path d="M250 320.642V327C250 328.105 250.895 329 252 329H305.93C307.859 329 308.67 326.538 307.118 325.392L281.215 306.245C280.208 305.5 278.773 305.854 278.227 306.981L276.775 309.976C276.202 311.156 274.667 311.475 273.672 310.621L262.122 300.701C261.124 299.843 259.583 300.167 259.015 301.354L250.196 319.778C250.067 320.048 250 320.343 250 320.642Z" fill="#DEF1FF"/>
<circle cx="302" cy="303" r="8" fill="#DEF1FF"/>
</svg>
