<svg width="32" height="32" viewBox="0 0 32 32" fill="none" xmlns="http://www.w3.org/2000/svg">
<g clip-path="url(#clip0_2460_758)">
<path d="M20.3079 24.6154V25.6923C20.3079 26.8348 19.8541 27.9305 19.0462 28.7383C18.2384 29.5462 17.1427 30 16.0002 30C14.8577 30 13.762 29.5462 12.9542 28.7383C12.1463 27.9305 11.6925 26.8348 11.6925 25.6923V24.6154M27.5557 22.4232C25.8272 20.3077 24.6069 19.2308 24.6069 13.3986C24.6069 8.05769 21.8796 6.1549 19.6348 5.23077C19.3367 5.10827 19.056 4.82692 18.9651 4.52067C18.5714 3.18058 17.4675 2 16.0002 2C14.5329 2 13.4283 3.18125 13.0386 4.52202C12.9478 4.83163 12.6671 5.10827 12.3689 5.23077C10.1215 6.15625 7.39683 8.05231 7.39683 13.3986C7.39347 19.2308 6.17317 20.3077 4.44469 22.4232C3.72853 23.2995 4.35584 24.6154 5.60845 24.6154H26.3987C27.6445 24.6154 28.2678 23.2955 27.5557 22.4232Z" stroke="#03182B" stroke-width="2" stroke-linecap="round" stroke-linejoin="round"/>
</g>
<defs>
<clipPath id="clip0_2460_758">
<rect width="32" height="32" fill="white"/>
</clipPath>
</defs>
</svg>
