<svg width="32" height="32" viewBox="0 0 32 32" fill="none" xmlns="http://www.w3.org/2000/svg">
<path d="M26.2308 3H5.76923C4.77044 3.00286 3.81337 3.40325 3.10712 4.11371C2.40087 4.82417 2.00284 5.78693 2 6.79167V19.7917C2.00284 20.7964 2.40087 21.7592 3.10712 22.4696C3.81337 23.1801 4.77044 23.5805 5.76923 23.5833H8.46154V29L14.7696 23.7093C14.8665 23.6279 14.9887 23.5833 15.1149 23.5833H26.2308C27.2296 23.5805 28.1866 23.1801 28.8929 22.4696C29.5991 21.7592 29.9972 20.7964 30 19.7917V6.79167C29.9972 5.78693 29.5991 4.82417 28.8929 4.11371C28.1866 3.40325 27.2296 3.00286 26.2308 3Z" stroke="#0067B1" stroke-width="2" stroke-linejoin="round"/>
<path d="M13 10.7825C13.2242 9.65923 14.345 7.54704 17.0348 8.08666C19.1313 8.50726 19.8436 11.3968 17.7072 12.4673C16.0261 13.3097 16.0261 14.8261 16.0261 15.5" stroke="#0067B1" stroke-width="2" stroke-linecap="round" stroke-linejoin="round"/>
<path fill-rule="evenodd" clip-rule="evenodd" d="M16 18C16.5523 18 17 18.4477 17 19C17 19.5523 16.5523 20 16 20C15.4477 20 15 19.5523 15 19C15 18.4477 15.4477 18 16 18Z" fill="#0067B1"/>
</svg>
