<svg width="32" height="32" viewBox="0 0 32 32" fill="none" xmlns="http://www.w3.org/2000/svg">
<path d="M26.2308 3H5.76923C4.77044 3.00286 3.81337 3.40325 3.10712 4.11371C2.40087 4.82417 2.00284 5.78693 2 6.79167V19.7917C2.00284 20.7964 2.40087 21.7592 3.10712 22.4696C3.81337 23.1801 4.77044 23.5805 5.76923 23.5833H8.46154V29L14.7696 23.7093C14.8665 23.6279 14.9887 23.5833 15.1149 23.5833H26.2308C27.2296 23.5805 28.1866 23.1801 28.8929 22.4696C29.5991 21.7592 29.9972 20.7964 30 19.7917V6.79167C29.9972 5.78693 29.5991 4.82417 28.8929 4.11371C28.1866 3.40325 27.2296 3.00286 26.2308 3Z" stroke="#0067B1" stroke-width="2" stroke-linejoin="round"/>
<path d="M22.4673 12.0651C22.6294 11.954 22.5507 11.7002 22.3542 11.7002H17.7698C17.6832 11.7002 17.6064 11.6444 17.5796 11.562L16.1897 7.28545C16.1298 7.1012 15.8692 7.1012 15.8093 7.28545L14.4194 11.562C14.3926 11.6444 14.3159 11.7002 14.2292 11.7002H9.64483C9.4483 11.7002 9.36964 11.954 9.53172 12.0651L13.2497 14.6146C13.3236 14.6653 13.3548 14.7587 13.3261 14.8435L11.8873 19.1068C11.825 19.2914 12.0364 19.447 12.1941 19.3327L15.8822 16.6602C15.9522 16.6095 16.0469 16.6095 16.1169 16.6602L19.8049 19.3327C19.9626 19.447 20.174 19.2914 20.1117 19.1068L18.6729 14.8435C18.6443 14.7587 18.6755 14.6653 18.7493 14.6146L22.4673 12.0651Z" stroke="#0067B1" stroke-width="2" stroke-linejoin="round"/>
</svg>
