<svg width="32" height="32" viewBox="0 0 32 32" fill="none" xmlns="http://www.w3.org/2000/svg">
<path d="M11 26V30M11 30H19V4C19 2.89543 18.1046 2 17 2H5C3.89543 2 3 2.89543 3 4V30H11Z" stroke="#0067B1" stroke-width="2" stroke-linecap="round" stroke-linejoin="round"/>
<path d="M19 14C19 12.8954 19.8954 12 21 12H27C28.1046 12 29 12.8954 29 14V30H19V14Z" stroke="#0067B1" stroke-width="2" stroke-linecap="round" stroke-linejoin="round"/>
<path d="M6.13017 26.9919C5.92306 27.019 5.71267 26.9805 5.52853 26.8819C5.34438 26.7834 5.19573 26.6296 5.10343 26.4422C5.01113 26.2549 4.97981 26.0433 5.01388 25.8372C5.04795 25.6311 5.14569 25.4409 5.29338 25.2932C5.44108 25.1455 5.63131 25.0478 5.83738 25.0137C6.04346 24.9796 6.25503 25.011 6.4424 25.1033C6.62977 25.1956 6.78353 25.3442 6.88211 25.5284C6.98069 25.7125 7.01913 25.9229 6.99205 26.13C6.96346 26.3486 6.86346 26.5516 6.7076 26.7074C6.55173 26.8633 6.34874 26.9633 6.13017 26.9919ZM6.13017 21.9919C5.92306 22.019 5.71267 21.9805 5.52853 21.8819C5.34438 21.7834 5.19573 21.6296 5.10343 21.4422C5.01113 21.2549 4.97981 21.0433 5.01388 20.8372C5.04795 20.6311 5.14569 20.4409 5.29338 20.2932C5.44108 20.1455 5.63131 20.0478 5.83738 20.0137C6.04346 19.9796 6.25503 20.011 6.4424 20.1033C6.62977 20.1956 6.78353 20.3442 6.88211 20.5284C6.98069 20.7125 7.01913 20.9229 6.99205 21.13C6.96346 21.3486 6.86346 21.5516 6.7076 21.7074C6.55173 21.8633 6.34874 21.9633 6.13017 21.9919ZM6.13017 16.9919C5.92306 17.019 5.71267 16.9805 5.52853 16.8819C5.34438 16.7834 5.19573 16.6296 5.10343 16.4422C5.01113 16.2549 4.97981 16.0433 5.01388 15.8372C5.04795 15.6311 5.14569 15.4409 5.29338 15.2932C5.44108 15.1455 5.63131 15.0478 5.83738 15.0137C6.04346 14.9796 6.25503 15.011 6.4424 15.1033C6.62977 15.1956 6.78353 15.3442 6.88211 15.5284C6.98069 15.7125 7.01913 15.9229 6.99205 16.13C6.96346 16.3486 6.86346 16.5516 6.7076 16.7074C6.55173 16.8633 6.34874 16.9633 6.13017 16.9919ZM6.13017 11.9919C5.92306 12.019 5.71267 11.9805 5.52853 11.8819C5.34438 11.7834 5.19573 11.6296 5.10343 11.4422C5.01113 11.2549 4.97981 11.0433 5.01388 10.8372C5.04795 10.6311 5.14569 10.4409 5.29338 10.2932C5.44108 10.1455 5.63131 10.0478 5.83738 10.0137C6.04346 9.97964 6.25503 10.011 6.4424 10.1033C6.62977 10.1956 6.78353 10.3442 6.88211 10.5284C6.98069 10.7125 7.01913 10.9229 6.99205 11.13C6.96346 11.3486 6.86346 11.5516 6.7076 11.7074C6.55173 11.8633 6.34874 11.9633 6.13017 11.9919ZM6.13017 6.99188C5.92306 7.01896 5.71267 6.98052 5.52853 6.88194C5.34438 6.78336 5.19573 6.6296 5.10343 6.44223C5.01113 6.25486 4.97981 6.04329 5.01388 5.83721C5.04795 5.63114 5.14569 5.44091 5.29338 5.29321C5.44108 5.14552 5.63131 5.04778 5.83738 5.01371C6.04346 4.97964 6.25503 5.01096 6.4424 5.10326C6.62977 5.19556 6.78353 5.34421 6.88211 5.52836C6.98069 5.7125 7.01913 5.92289 6.99205 6.13C6.96346 6.34856 6.86346 6.55156 6.7076 6.70743C6.55173 6.86329 6.34874 6.96329 6.13017 6.99188ZM11.1302 21.9919C10.9231 22.019 10.7127 21.9805 10.5285 21.8819C10.3444 21.7834 10.1957 21.6296 10.1034 21.4422C10.0111 21.2549 9.97981 21.0433 10.0139 20.8372C10.0479 20.6311 10.1457 20.4409 10.2934 20.2932C10.4411 20.1455 10.6313 20.0478 10.8374 20.0137C11.0435 19.9796 11.255 20.011 11.4424 20.1033C11.6298 20.1956 11.7835 20.3442 11.8821 20.5284C11.9807 20.7125 12.0191 20.9229 11.992 21.13C11.9635 21.3486 11.8635 21.5516 11.7076 21.7074C11.5517 21.8633 11.3487 21.9633 11.1302 21.9919ZM11.1302 16.9919C10.9231 17.019 10.7127 16.9805 10.5285 16.8819C10.3444 16.7834 10.1957 16.6296 10.1034 16.4422C10.0111 16.2549 9.97981 16.0433 10.0139 15.8372C10.0479 15.6311 10.1457 15.4409 10.2934 15.2932C10.4411 15.1455 10.6313 15.0478 10.8374 15.0137C11.0435 14.9796 11.255 15.011 11.4424 15.1033C11.6298 15.1956 11.7835 15.3442 11.8821 15.5284C11.9807 15.7125 12.0191 15.9229 11.992 16.13C11.9635 16.3486 11.8635 16.5516 11.7076 16.7074C11.5517 16.8633 11.3487 16.9633 11.1302 16.9919ZM11.1302 11.9919C10.9231 12.019 10.7127 11.9805 10.5285 11.8819C10.3444 11.7834 10.1957 11.6296 10.1034 11.4422C10.0111 11.2549 9.97981 11.0433 10.0139 10.8372C10.0479 10.6311 10.1457 10.4409 10.2934 10.2932C10.4411 10.1455 10.6313 10.0478 10.8374 10.0137C11.0435 9.97964 11.255 10.011 11.4424 10.1033C11.6298 10.1956 11.7835 10.3442 11.8821 10.5284C11.9807 10.7125 12.0191 10.9229 11.992 11.13C11.9635 11.3486 11.8635 11.5516 11.7076 11.7074C11.5517 11.8633 11.3487 11.9633 11.1302 11.9919ZM11.1302 6.99188C10.9231 7.01896 10.7127 6.98052 10.5285 6.88194C10.3444 6.78336 10.1957 6.6296 10.1034 6.44223C10.0111 6.25486 9.97981 6.04329 10.0139 5.83721C10.0479 5.63114 10.1457 5.44091 10.2934 5.29321C10.4411 5.14552 10.6313 5.04778 10.8374 5.01371C11.0435 4.97964 11.255 5.01096 11.4424 5.10326C11.6298 5.19556 11.7835 5.34421 11.8821 5.52836C11.9807 5.7125 12.0191 5.92289 11.992 6.13C11.9635 6.34856 11.8635 6.55156 11.7076 6.70743C11.5517 6.86329 11.3487 6.96329 11.1302 6.99188ZM16.1302 26.9919C15.9231 27.019 15.7127 26.9805 15.5285 26.8819C15.3444 26.7834 15.1957 26.6296 15.1034 26.4422C15.0111 26.2549 14.9798 26.0433 15.0139 25.8372C15.0479 25.6311 15.1457 25.4409 15.2934 25.2932C15.4411 25.1455 15.6313 25.0478 15.8374 25.0137C16.0435 24.9796 16.255 25.011 16.4424 25.1033C16.6298 25.1956 16.7835 25.3442 16.8821 25.5284C16.9807 25.7125 17.0191 25.9229 16.992 26.13C16.9635 26.3486 16.8635 26.5516 16.7076 26.7074C16.5517 26.8633 16.3487 26.9633 16.1302 26.9919ZM16.1302 21.9919C15.9231 22.019 15.7127 21.9805 15.5285 21.8819C15.3444 21.7834 15.1957 21.6296 15.1034 21.4422C15.0111 21.2549 14.9798 21.0433 15.0139 20.8372C15.0479 20.6311 15.1457 20.4409 15.2934 20.2932C15.4411 20.1455 15.6313 20.0478 15.8374 20.0137C16.0435 19.9796 16.255 20.011 16.4424 20.1033C16.6298 20.1956 16.7835 20.3442 16.8821 20.5284C16.9807 20.7125 17.0191 20.9229 16.992 21.13C16.9635 21.3486 16.8635 21.5516 16.7076 21.7074C16.5517 21.8633 16.3487 21.9633 16.1302 21.9919ZM16.1302 16.9919C15.9231 17.019 15.7127 16.9805 15.5285 16.8819C15.3444 16.7834 15.1957 16.6296 15.1034 16.4422C15.0111 16.2549 14.9798 16.0433 15.0139 15.8372C15.0479 15.6311 15.1457 15.4409 15.2934 15.2932C15.4411 15.1455 15.6313 15.0478 15.8374 15.0137C16.0435 14.9796 16.255 15.011 16.4424 15.1033C16.6298 15.1956 16.7835 15.3442 16.8821 15.5284C16.9807 15.7125 17.0191 15.9229 16.992 16.13C16.9635 16.3486 16.8635 16.5516 16.7076 16.7074C16.5517 16.8633 16.3487 16.9633 16.1302 16.9919Z" fill="#0067B1"/>
<path d="M16.7086 11.7079C17.0979 11.3186 17.0963 10.6858 16.7051 10.2946C16.3138 9.90333 15.681 9.90175 15.2917 10.2911C14.9024 10.6804 14.904 11.3131 15.2953 11.7044C15.6865 12.0956 16.3193 12.0972 16.7086 11.7079Z" fill="#0067B1"/>
<path d="M15.5285 6.88162C15.7126 6.9802 15.923 7.01864 16.1301 6.99156C16.3487 6.96297 16.5517 6.86297 16.7075 6.70711C16.8634 6.55124 16.9634 6.34825 16.992 6.12968C17.0191 5.92258 16.9806 5.71218 16.882 5.52804C16.7835 5.3439 16.6297 5.19524 16.4423 5.10294C16.255 5.01064 16.0434 4.97932 15.8373 5.01339C15.6312 5.04746 15.441 5.1452 15.2933 5.29289C15.1456 5.44059 15.0479 5.63082 15.0138 5.8369C14.9797 6.04297 15.0111 6.25454 15.1034 6.44191C15.1957 6.62928 15.3443 6.78304 15.5285 6.88162Z" fill="#0067B1"/>
<path d="M25 25C24.8022 25 24.6089 25.0586 24.4444 25.1685C24.28 25.2784 24.1518 25.4346 24.0761 25.6173C24.0004 25.8 23.9806 26.0011 24.0192 26.1951C24.0578 26.3891 24.153 26.5673 24.2929 26.7071C24.4327 26.847 24.6109 26.9422 24.8049 26.9808C24.9989 27.0194 25.2 26.9996 25.3827 26.9239C25.5654 26.8482 25.7216 26.72 25.8315 26.5556C25.9414 26.3911 26 26.1978 26 26C26 25.7348 25.8946 25.4804 25.7071 25.2929C25.5196 25.1054 25.2652 25 25 25ZM25 20C24.8022 20 24.6089 20.0586 24.4444 20.1685C24.28 20.2784 24.1518 20.4346 24.0761 20.6173C24.0004 20.8 23.9806 21.0011 24.0192 21.1951C24.0578 21.3891 24.153 21.5673 24.2929 21.7071C24.4327 21.847 24.6109 21.9422 24.8049 21.9808C24.9989 22.0194 25.2 21.9996 25.3827 21.9239C25.5654 21.8482 25.7216 21.72 25.8315 21.5556C25.9414 21.3911 26 21.1978 26 21C26 20.7348 25.8946 20.4804 25.7071 20.2929C25.5196 20.1054 25.2652 20 25 20ZM25 15C24.8022 15 24.6089 15.0586 24.4444 15.1685C24.28 15.2784 24.1518 15.4346 24.0761 15.6173C24.0004 15.8 23.9806 16.0011 24.0192 16.1951C24.0578 16.3891 24.153 16.5673 24.2929 16.7071C24.4327 16.847 24.6109 16.9422 24.8049 16.9808C24.9989 17.0194 25.2 16.9996 25.3827 16.9239C25.5654 16.8482 25.7216 16.72 25.8315 16.5556C25.9414 16.3911 26 16.1978 26 16C26 15.7348 25.8946 15.4804 25.7071 15.2929C25.5196 15.1054 25.2652 15 25 15ZM21 25C20.8022 25 20.6089 25.0586 20.4444 25.1685C20.28 25.2784 20.1518 25.4346 20.0761 25.6173C20.0004 25.8 19.9806 26.0011 20.0192 26.1951C20.0578 26.3891 20.153 26.5673 20.2929 26.7071C20.4327 26.847 20.6109 26.9422 20.8049 26.9808C20.9989 27.0194 21.2 26.9996 21.3827 26.9239C21.5654 26.8482 21.7216 26.72 21.8315 26.5556C21.9414 26.3911 22 26.1978 22 26C22 25.7348 21.8946 25.4804 21.7071 25.2929C21.5196 25.1054 21.2652 25 21 25ZM21 20C20.8022 20 20.6089 20.0586 20.4444 20.1685C20.28 20.2784 20.1518 20.4346 20.0761 20.6173C20.0004 20.8 19.9806 21.0011 20.0192 21.1951C20.0578 21.3891 20.153 21.5673 20.2929 21.7071C20.4327 21.847 20.6109 21.9422 20.8049 21.9808C20.9989 22.0194 21.2 21.9996 21.3827 21.9239C21.5654 21.8482 21.7216 21.72 21.8315 21.5556C21.9414 21.3911 22 21.1978 22 21C22 20.7348 21.8946 20.4804 21.7071 20.2929C21.5196 20.1054 21.2652 20 21 20ZM21 15C20.8022 15 20.6089 15.0586 20.4444 15.1685C20.28 15.2784 20.1518 15.4346 20.0761 15.6173C20.0004 15.8 19.9806 16.0011 20.0192 16.1951C20.0578 16.3891 20.153 16.5673 20.2929 16.7071C20.4327 16.847 20.6109 16.9422 20.8049 16.9808C20.9989 17.0194 21.2 16.9996 21.3827 16.9239C21.5654 16.8482 21.7216 16.72 21.8315 16.5556C21.9414 16.3911 22 16.1978 22 16C22 15.7348 21.8946 15.4804 21.7071 15.2929C21.5196 15.1054 21.2652 15 21 15Z" fill="#0067B1"/>
</svg>
