<svg width="32" height="32" viewBox="0 0 32 32" fill="none" xmlns="http://www.w3.org/2000/svg">
<path d="M23.7778 3H8.22222C6.99492 3 6 3.89543 6 5V27C6 28.1046 6.99492 29 8.22222 29H23.7778C25.0051 29 26 28.1046 26 27V5C26 3.89543 25.0051 3 23.7778 3Z" stroke="#0067B1" stroke-width="2" stroke-linecap="round" stroke-linejoin="round"/>
<path d="M9 6H23V10H9V6Z" stroke="#0067B1" stroke-width="2" stroke-linecap="round" stroke-linejoin="round"/>
<path d="M10.5 16C11.3284 16 12 15.3284 12 14.5C12 13.6716 11.3284 13 10.5 13C9.67157 13 9 13.6716 9 14.5C9 15.3284 9.67157 16 10.5 16Z" fill="#0067B1"/>
<path d="M16 16C16.8284 16 17.5 15.3284 17.5 14.5C17.5 13.6716 16.8284 13 16 13C15.1716 13 14.5 13.6716 14.5 14.5C14.5 15.3284 15.1716 16 16 16Z" fill="#0067B1"/>
<path d="M21.5 16C22.3284 16 23 15.3284 23 14.5C23 13.6716 22.3284 13 21.5 13C20.6716 13 20 13.6716 20 14.5C20 15.3284 20.6716 16 21.5 16Z" fill="#0067B1"/>
<path d="M10.5 21C11.3284 21 12 20.3284 12 19.5C12 18.6716 11.3284 18 10.5 18C9.67157 18 9 18.6716 9 19.5C9 20.3284 9.67157 21 10.5 21Z" fill="#0067B1"/>
<path d="M16 21C16.8284 21 17.5 20.3284 17.5 19.5C17.5 18.6716 16.8284 18 16 18C15.1716 18 14.5 18.6716 14.5 19.5C14.5 20.3284 15.1716 21 16 21Z" fill="#0067B1"/>
<path d="M10.5 26C11.3284 26 12 25.3284 12 24.5C12 23.6716 11.3284 23 10.5 23C9.67157 23 9 23.6716 9 24.5C9 25.3284 9.67157 26 10.5 26Z" fill="#0067B1"/>
<path d="M16 26C16.8284 26 17.5 25.3284 17.5 24.5C17.5 23.6716 16.8284 23 16 23C15.1716 23 14.5 23.6716 14.5 24.5C14.5 25.3284 15.1716 26 16 26Z" fill="#0067B1"/>
<path d="M23 19.5C23 18.6716 22.3284 18 21.5 18C20.6716 18 20 18.6716 20 19.5V24.5C20 25.3284 20.6716 26 21.5 26C22.3284 26 23 25.3284 23 24.5V19.5Z" fill="#0067B1"/>
</svg>
