<svg width="32" height="32" viewBox="0 0 32 32" fill="none" xmlns="http://www.w3.org/2000/svg">
<g clip-path="url(#clip0_2460_751)">
<rect x="2" y="4" width="28" height="26" rx="2" stroke="#03182B" stroke-width="2" stroke-linecap="round" stroke-linejoin="round"/>
<path d="M18.5 16.5C19.3284 16.5 20 15.8284 20 15C20 14.1716 19.3284 13.5 18.5 13.5C17.6716 13.5 17 14.1716 17 15C17 15.8284 17.6716 16.5 18.5 16.5Z" fill="#03182B"/>
<path d="M23.5 16.5C24.3284 16.5 25 15.8284 25 15C25 14.1716 24.3284 13.5 23.5 13.5C22.6716 13.5 22 14.1716 22 15C22 15.8284 22.6716 16.5 23.5 16.5Z" fill="#03182B"/>
<path d="M18.5 21.5C19.3284 21.5 20 20.8284 20 20C20 19.1716 19.3284 18.5 18.5 18.5C17.6716 18.5 17 19.1716 17 20C17 20.8284 17.6716 21.5 18.5 21.5Z" fill="#03182B"/>
<path d="M23.5 21.5C24.3284 21.5 25 20.8284 25 20C25 19.1716 24.3284 18.5 23.5 18.5C22.6716 18.5 22 19.1716 22 20C22 20.8284 22.6716 21.5 23.5 21.5Z" fill="#03182B"/>
<path d="M8.5 21.5C9.32843 21.5 10 20.8284 10 20C10 19.1716 9.32843 18.5 8.5 18.5C7.67157 18.5 7 19.1716 7 20C7 20.8284 7.67157 21.5 8.5 21.5Z" fill="#03182B"/>
<path d="M13.5 21.5C14.3284 21.5 15 20.8284 15 20C15 19.1716 14.3284 18.5 13.5 18.5C12.6716 18.5 12 19.1716 12 20C12 20.8284 12.6716 21.5 13.5 21.5Z" fill="#03182B"/>
<path d="M8.5 26.5C9.32843 26.5 10 25.8284 10 25C10 24.1716 9.32843 23.5 8.5 23.5C7.67157 23.5 7 24.1716 7 25C7 25.8284 7.67157 26.5 8.5 26.5Z" fill="#03182B"/>
<path d="M13.5 26.5C14.3284 26.5 15 25.8284 15 25C15 24.1716 14.3284 23.5 13.5 23.5C12.6716 23.5 12 24.1716 12 25C12 25.8284 12.6716 26.5 13.5 26.5Z" fill="#03182B"/>
<path d="M18.5 26.5C19.3284 26.5 20 25.8284 20 25C20 24.1716 19.3284 23.5 18.5 23.5C17.6716 23.5 17 24.1716 17 25C17 25.8284 17.6716 26.5 18.5 26.5Z" fill="#03182B"/>
<path d="M8 2V4M24 2V4" stroke="#03182B" stroke-width="2" stroke-linecap="round" stroke-linejoin="round"/>
<path d="M29 10H3" stroke="#03182B" stroke-width="2" stroke-linecap="round" stroke-linejoin="round"/>
</g>
<defs>
<clipPath id="clip0_2460_751">
<rect width="32" height="32" fill="white"/>
</clipPath>
</defs>
</svg>
