<svg width="32" height="32" viewBox="0 0 32 32" fill="none" xmlns="http://www.w3.org/2000/svg">
<g clip-path="url(#clip0_2460_738)">
<path d="M30 13.3337V6.66699C30 5.56242 29.1046 4.66699 28 4.66699H4C2.89543 4.66699 2 5.56242 2 6.66699V13.3337" stroke="#03182B" stroke-width="2" stroke-linecap="round" stroke-linejoin="round"/>
<path d="M30 18V12C30 10.8954 29.1046 10 28 10H4C2.89543 10 2 10.8954 2 12V18" stroke="#03182B" stroke-width="2" stroke-linecap="round" stroke-linejoin="round"/>
<path d="M28 27.333H16.7368H4C2.89543 27.333 2 26.4376 2 25.333V17.333C2 16.2284 2.89543 15.333 4 15.333H9.53529C10.4545 15.333 11.2224 15.9752 11.5916 16.817C12.396 18.6512 13.7433 19.5683 16 19.5683C18.2567 19.5683 19.604 18.6512 20.4084 16.817C20.7776 15.9752 21.5455 15.333 22.4647 15.333H28C29.1046 15.333 30 16.2284 30 17.333V25.333C30 26.4376 29.1046 27.333 28 27.333Z" stroke="#03182B" stroke-width="2" stroke-linecap="round" stroke-linejoin="round"/>
</g>
<defs>
<clipPath id="clip0_2460_738">
<rect width="32" height="32" fill="white"/>
</clipPath>
</defs>
</svg>
