<svg width="32" height="32" viewBox="0 0 32 32" fill="none" xmlns="http://www.w3.org/2000/svg">
<rect x="2" y="5" width="28" height="22" rx="2" stroke="#0067B1" stroke-width="2" stroke-linecap="round" stroke-linejoin="round"/>
<path d="M17 10H7C6.44772 10 6 10.4477 6 11C6 11.5523 6.44772 12 7 12H17C17.5523 12 18 11.5523 18 11C18 10.4477 17.5523 10 17 10Z" fill="#0067B1"/>
<path d="M13 14.5H7C6.44772 14.5 6 14.9477 6 15.5C6 16.0523 6.44772 16.5 7 16.5H13C13.5523 16.5 14 16.0523 14 15.5C14 14.9477 13.5523 14.5 13 14.5Z" fill="#0067B1"/>
<path d="M23.8438 13.7821C23.6079 13.5309 23.3222 13.3315 23.005 13.1969C22.6877 13.0623 22.3459 12.9953 22.0013 13.0003C21.2763 13.0003 20.6206 13.2759 20.155 13.7771C19.6894 14.2784 19.455 14.9721 19.5088 15.7146C19.6156 17.1821 20.7338 18.3753 22.0013 18.3753C23.2688 18.3753 24.385 17.1821 24.4931 15.7159C24.5481 14.9796 24.3169 14.2928 23.8438 13.7821ZM26.2319 24.0003H17.7706C17.6605 24.002 17.5513 23.9796 17.4508 23.9346C17.3502 23.8895 17.2608 23.823 17.1888 23.7396C17.1107 23.6461 17.0546 23.5362 17.0248 23.418C16.9949 23.2999 16.992 23.1765 17.0163 23.0571C17.2194 21.9596 17.8525 21.0378 18.8475 20.3909C19.7313 19.8165 20.8513 19.5003 22.0013 19.5003C23.1513 19.5003 24.2713 19.8165 25.155 20.3909C26.15 21.0378 26.7832 21.9596 26.9863 23.0571C27.0105 23.1765 27.0076 23.2999 26.9778 23.418C26.9479 23.5362 26.8919 23.6461 26.8138 23.7396C26.7417 23.823 26.6523 23.8895 26.5518 23.9346C26.4512 23.9796 26.342 24.002 26.2319 24.0003Z" fill="#0067B1"/>
</svg>
