<svg width="32" height="32" viewBox="0 0 32 32" fill="none" xmlns="http://www.w3.org/2000/svg">
<g clip-path="url(#clip0_204_1418)">
<path d="M4.14236 19.1057C4.86927 21.7876 6.51442 24.1373 8.79747 25.7545C11.0805 27.3716 13.8602 28.1561 16.6627 27.9742C19.4653 27.7923 22.1174 26.6553 24.1669 24.757C26.2165 22.8587 27.5368 20.3166 27.9028 17.5637C28.2688 14.8109 27.6579 12.0178 26.1741 9.66043C24.6903 7.30303 22.4255 5.5272 19.7657 4.63559C17.1058 3.74397 14.2155 3.79173 11.5873 4.77074C8.95912 5.74974 6.75564 7.5994 5.3524 10.0045L4.00635 12.3093" stroke="#0067B1" stroke-width="2" stroke-linecap="round" stroke-linejoin="round"/>
<path d="M15 10V17H22" stroke="#0067B1" stroke-width="2" stroke-linecap="round" stroke-linejoin="round"/>
<path d="M2.5 7L3.9641 12.4641L9.4282 11" stroke="#0067B1" stroke-width="2" stroke-linecap="round" stroke-linejoin="round"/>
</g>
<defs>
<clipPath id="clip0_204_1418">
<rect width="32" height="32" fill="white"/>
</clipPath>
</defs>
</svg>
