<svg width="32" height="32" viewBox="0 0 32 32" fill="none" xmlns="http://www.w3.org/2000/svg">
<path d="M29 20.2C29 18.66 27.432 17.4001 25.5 17.4001M25.5 17.4001C23.568 17.4001 22 18.66 22 20.2C22 21.74 23.568 23 25.5 23C27.432 23 29 24.2599 29 25.7999C29 27.3399 27.432 28.5999 25.5 28.5999M25.5 17.4001L25.4999 16M25.5 28.5999C23.568 28.5999 22 27.3399 22 25.7999M25.5 28.5999L25.4999 30" stroke="#0067B1" stroke-width="2" stroke-miterlimit="10" stroke-linecap="round" stroke-linejoin="round"/>
<path d="M12 18L16 16V9" stroke="#0067B1" stroke-width="2" stroke-linecap="round" stroke-linejoin="round"/>
<path d="M18.0838 27.8177C15.8412 28.2131 13.5325 27.9623 11.4272 27.0946C9.32184 26.2268 7.50688 24.7779 6.19426 22.9172C4.88165 21.0564 4.12556 18.8606 4.01433 16.5862C3.90309 14.3118 4.44129 12.0527 5.56606 10.0727C6.69083 8.09274 8.35575 6.47368 10.3663 5.40463C12.3769 4.33558 14.6502 3.86067 16.9206 4.03537C19.1911 4.21007 21.3649 5.02716 23.1883 6.39122C25.0117 7.75528 26.4093 9.60999 27.2179 11.7387" stroke="#0067B1" stroke-width="2" stroke-linecap="round" stroke-linejoin="round"/>
</svg>
