<svg width="32" height="32" viewBox="0 0 32 32" fill="none" xmlns="http://www.w3.org/2000/svg">
<g clip-path="url(#clip0_2460_768)">
<path d="M26.6668 6.93195C24.0988 3.91425 20.2729 2 15.9999 2C8.26768 2 1.99951 8.26801 1.99951 16C1.99951 23.732 8.26768 30 15.9999 30C20.2729 30 24.0988 28.0858 26.6668 25.068" stroke="#0067B1" stroke-width="2" stroke-linecap="round" stroke-linejoin="round"/>
<path d="M30 16H22" stroke="#0067B1" stroke-width="2" stroke-linecap="round" stroke-linejoin="round"/>
<path d="M26 12V20" stroke="#0067B1" stroke-width="2" stroke-linecap="round" stroke-linejoin="round"/>
<path d="M18 13.2C18 11.66 16.432 10.4001 14.5 10.4001M14.5 10.4001C12.568 10.4001 11 11.66 11 13.2C11 14.74 12.568 16 14.5 16C16.432 16 18 17.2599 18 18.7999C18 20.3399 16.432 21.5999 14.5 21.5999M14.5 10.4001L14.4999 9M14.5 21.5999C12.568 21.5999 11 20.3399 11 18.7999M14.5 21.5999L14.4999 23" stroke="#0067B1" stroke-width="2" stroke-miterlimit="10" stroke-linecap="round" stroke-linejoin="round"/>
</g>
<defs>
<clipPath id="clip0_2460_768">
<rect width="32" height="32" fill="white"/>
</clipPath>
</defs>
</svg>
