<svg width="32" height="32" viewBox="0 0 32 32" fill="none" xmlns="http://www.w3.org/2000/svg">
<path d="M20 15.2C20 13.66 18.432 12.4001 16.5 12.4001M16.5 12.4001C14.568 12.4001 13 13.66 13 15.2C13 16.74 14.568 18 16.5 18C18.432 18 20 19.2599 20 20.7999C20 22.3399 18.432 23.5999 16.5 23.5999M16.5 12.4001L16.4999 11M16.5 23.5999C14.568 23.5999 13 22.3399 13 20.7999M16.5 23.5999L16.4999 25" stroke="#0067B1" stroke-width="2" stroke-miterlimit="10" stroke-linecap="round" stroke-linejoin="round"/>
<rect x="6" y="2" width="20" height="4" rx="2" stroke="#0067B1" stroke-width="2"/>
<path d="M10 6V6C10 7.19438 9.23572 8.25476 8.10263 8.63246L6.73509 9.0883C5.10172 9.63276 4 11.1613 4 12.883V26C4 28.2091 5.79086 30 8 30H24C26.2091 30 28 28.2091 28 26V12.883C28 11.1613 26.8983 9.63276 25.2649 9.0883L23.8974 8.63246C22.7643 8.25476 22 7.19438 22 6V6" stroke="#0067B1" stroke-width="2"/>
</svg>
