<svg width="32" height="32" viewBox="0 0 32 32" fill="none" xmlns="http://www.w3.org/2000/svg">
<path d="M27.3645 20.3022C27.6206 20.2338 27.8937 20.2693 28.1233 20.4019C28.3527 20.5345 28.5205 20.7533 28.5891 21.0093L30.053 26.4731C30.1957 27.0064 29.8791 27.5547 29.3459 27.6978C28.8126 27.8407 28.2644 27.524 28.1213 26.9907L27.2922 23.8979L27.0979 24.2319C25.5774 26.8376 23.1913 28.839 20.3489 29.8979C17.5062 30.9568 14.3799 31.0088 11.5032 30.0444C8.62629 29.08 6.17431 27.1581 4.56665 24.604C4.27251 24.1367 4.4129 23.5193 4.88013 23.2251C5.34747 22.9311 5.96485 23.0713 6.25903 23.5386C7.61891 25.6991 9.69627 27.3291 12.1389 28.1479C14.5817 28.9668 17.237 28.9229 19.6506 28.0239C21.9132 27.181 23.831 25.6362 25.1213 23.6304L25.3704 23.2231L25.5891 22.8472L22.4182 23.6978C21.8849 23.8407 21.3357 23.524 21.1926 22.9907C21.0498 22.4575 21.3665 21.9092 21.8997 21.7661L27.3645 20.3022ZM16.0002 8.00049C16.5523 8.00075 17.0002 8.4484 17.0002 9.00049V9.49854C18.8801 9.8672 20.5002 11.2527 20.5002 13.2007C20.5 13.7526 20.0522 14.2005 19.5002 14.2007C18.9481 14.2007 18.5005 13.7528 18.5002 13.2007C18.5002 12.4086 17.5981 11.401 16.0002 11.4009C14.4021 11.4009 13.5002 12.4086 13.5002 13.2007C13.5006 13.9927 14.4024 15.0005 16.0002 15.0005C18.266 15.0006 20.5002 16.5126 20.5002 18.8003C20.5001 20.7481 18.88 22.1328 17.0002 22.5015V23.0005C17 23.5525 16.5522 24.0002 16.0002 24.0005C15.4481 24.0004 15.0004 23.5526 15.0002 23.0005V22.5015C13.1204 22.1329 11.5004 20.7482 11.5002 18.8003C11.5003 18.2481 11.948 17.8003 12.5002 17.8003C13.0523 17.8005 13.5002 18.2482 13.5002 18.8003C13.5004 19.5924 14.4023 20.6001 16.0002 20.6001C17.5979 20.6 18.5 19.5923 18.5002 18.8003C18.5002 18.0083 17.598 17.0006 16.0002 17.0005C13.7345 17.0005 11.5005 15.4883 11.5002 13.2007C11.5002 11.2526 13.1202 9.86709 15.0002 9.49854V9.00049C15.0002 8.44825 15.448 8.00055 16.0002 8.00049ZM11.6506 2.10205C14.4933 1.04321 17.6196 0.991245 20.4963 1.95557C23.3731 2.92001 25.8253 4.84189 27.4329 7.396C27.7267 7.86332 27.5866 8.48075 27.1194 8.7749C26.6522 9.06883 26.0347 8.9284 25.7405 8.46143C24.3807 6.30097 22.3031 4.67093 19.8606 3.85205C17.4178 3.03319 14.7625 3.07706 12.3489 3.97607C10.0862 4.819 8.16854 6.36364 6.87817 8.36963L6.62915 8.77686L6.40942 9.15186L9.58228 8.30225C10.1157 8.15947 10.6649 8.47589 10.8079 9.00928C10.9504 9.54236 10.6337 10.0907 10.1008 10.2339L4.63599 11.6978C4.37999 11.7663 4.10676 11.7305 3.8772 11.5981C3.64771 11.4656 3.48006 11.2467 3.41138 10.9907L1.94751 5.52686C1.80457 4.99339 2.12108 4.44519 2.65454 4.30225C3.18793 4.15947 3.73623 4.4759 3.87915 5.00928L4.70728 8.1001L4.90161 7.76807C6.42207 5.16229 8.8081 3.16103 11.6506 2.10205Z" fill="#0067B1"/>
</svg>
