<svg width="32" height="32" viewBox="0 0 32 32" fill="none" xmlns="http://www.w3.org/2000/svg">
<path d="M10 13L1 31L19 22L10 13Z" stroke="#0067B1" stroke-width="2" stroke-linejoin="round"/>
<path d="M16 13L16.5 12.5M20 3L20.1716 3.17157C21.7337 4.73367 21.7337 7.26633 20.1716 8.82843L18.5 10.5" stroke="#0067B1" stroke-width="2" stroke-linecap="round" stroke-linejoin="round"/>
<path d="M19 16L23.5 12.5M31 10L30.0309 9.67696C28.7621 9.25403 27.3659 9.49319 26.3102 10.3143L26.0312 10.5313" stroke="#0067B1" stroke-width="2" stroke-linecap="round" stroke-linejoin="round"/>
<path d="M13 10L13.5858 9.41421C14.3668 8.63316 14.3668 7.36683 13.5858 6.58579L13 6" stroke="#0067B1" stroke-width="2" stroke-linecap="round" stroke-linejoin="round"/>
<path d="M22 19L24.2111 17.8944C25.3373 17.3314 26.6627 17.3314 27.7889 17.8944L30 19" stroke="#0067B1" stroke-width="2" stroke-linecap="round" stroke-linejoin="round"/>
</svg>
