<svg width="32" height="32" viewBox="0 0 32 32" fill="none" xmlns="http://www.w3.org/2000/svg">
<path d="M10 2H6C3.79086 2 2 3.79086 2 6V10" stroke="#0067B1" stroke-width="2" stroke-linecap="round"/>
<path d="M22 2H26C28.2091 2 30 3.79086 30 6V10" stroke="#0067B1" stroke-width="2" stroke-linecap="round"/>
<path d="M10 30H6C3.79086 30 2 28.2091 2 26V22" stroke="#0067B1" stroke-width="2" stroke-linecap="round"/>
<path d="M22 30H26C28.2091 30 30 28.2091 30 26V22" stroke="#0067B1" stroke-width="2" stroke-linecap="round"/>
<path d="M9 10V13" stroke="#0067B1" stroke-width="2" stroke-linecap="round"/>
<path d="M23 10V13" stroke="#0067B1" stroke-width="2" stroke-linecap="round"/>
<path d="M16 10V16C16 17.1046 15.1046 18 14 18V18" stroke="#0067B1" stroke-width="2" stroke-linecap="round"/>
<path d="M11 22C11.3333 22.6667 12.8 24 16 24C19.2 24 20.6667 22.6667 21 22" stroke="#0067B1" stroke-width="2" stroke-linecap="round"/>
</svg>
