<svg width="32" height="32" viewBox="0 0 32 32" fill="none" xmlns="http://www.w3.org/2000/svg">
<path d="M28 11.859C26.6624 9.90648 24.9686 8.37362 22.9607 7.29806C18.7118 5.01743 13.2882 5.02503 9.04621 7.31292C7.03143 8.39952 5.33028 9.94309 4 11.9104M6.07538 25.4906C5.3095 23.3464 5.09082 21.4896 5.09082 19.9201C5.09082 18.2622 5.39089 16.7629 5.98705 15.4697C7.75502 11.6086 11.6685 9.1145 15.9528 9.1145C21.9802 9.1145 26.8852 13.9628 26.8852 19.9239C26.8852 21.9134 25.2479 23.5271 23.2433 23.5271C21.2388 23.5271 19.6015 21.9096 19.6015 19.9239C19.6015 17.9383 17.9675 16.3208 15.9597 16.3208C13.9519 16.3208 12.3179 17.9345 12.3179 19.9239C12.3136 22.6242 13.3332 25.1922 15.1657 27.0933C16.5949 28.5781 17.9781 29.396 20.0991 30.0001M12.8267 29.6794C11.6728 28.4636 11.0376 27.6899 10.1059 25.9547C9.19184 24.2488 8.7085 22.1598 8.7085 19.9127C8.7085 15.941 11.9798 12.7064 15.9991 12.7064C20.0184 12.7064 23.2897 15.9376 23.2897 19.9127M24.2002 4.16631C21.4089 2.65936 18.9211 2 16.013 2C13.105 2 10.3386 2.72947 7.81201 4.16631M24.5423 26.8059C23.8472 26.9348 23.212 26.9569 22.9437 26.9569C21.398 26.9569 20.0747 26.5628 18.9667 25.778C17.0611 24.4258 15.9214 22.2374 15.9214 19.9202" stroke="#0067B1" stroke-width="2" stroke-miterlimit="10" stroke-linecap="round" stroke-linejoin="round"/>
</svg>
