<svg width="32" height="32" viewBox="0 0 32 32" fill="none" xmlns="http://www.w3.org/2000/svg">
<path d="M27.0828 3C27.0828 7.979 16.0298 5.76575 16.0298 14.0646M16 14.0646C12.9918 14.0646 12.591 12.4039 9.58275 12.4039C6.57625 12.4039 2 19.5961 2 25.1276C2 27.3409 3.16725 29 4.91725 29C10.1672 29 12.5 24.021 16 24.021C19.5 24.021 21.8328 29 27.0828 29C28.8328 29 30 27.3409 30 25.1276C30 19.5961 25.4237 12.4039 22.4172 12.4039C19.4072 12.4039 19.0082 14.0646 16 14.0646V14.0646Z" stroke="#0067B1" stroke-width="2" stroke-linecap="round" stroke-linejoin="round"/>
<path d="M22 20.167C22.6443 20.167 23.167 20.6897 23.167 21.334C23.1668 21.9782 22.6442 22.5 22 22.5C21.3559 22.4999 20.8342 21.9781 20.834 21.334C20.834 20.6897 21.3557 20.1671 22 20.167ZM19.667 17.833C20.3112 17.8332 20.833 18.3558 20.833 19C20.8328 19.6441 20.3111 20.1658 19.667 20.166C19.0228 20.166 18.5002 19.6442 18.5 19C18.5 18.3557 19.0227 17.833 19.667 17.833ZM24.333 17.833C24.9773 17.833 25.5 18.3557 25.5 19C25.4998 19.6442 24.9772 20.166 24.333 20.166C23.6889 20.1659 23.1672 19.6441 23.167 19C23.167 18.3557 23.6888 17.8331 24.333 17.833ZM22 15.5C22.6443 15.5 23.167 16.0227 23.167 16.667C23.1668 17.3112 22.6442 17.833 22 17.833C21.3559 17.8329 20.8342 17.3111 20.834 16.667C20.834 16.0227 21.3557 15.5001 22 15.5Z" fill="#0067B1"/>
<path fill-rule="evenodd" clip-rule="evenodd" d="M10.7997 18.2002V16.5H9.19971V18.2002H7.5V19.8002H9.19971V21.5H10.7997V19.8002H12.5V18.2002H10.7997Z" fill="#0067B1"/>
</svg>
