<svg width="32" height="32" viewBox="0 0 32 32" fill="none" xmlns="http://www.w3.org/2000/svg">
<g clip-path="url(#clip0_2460_778)">
<path d="M16.4114 11.8334C15.5523 11.7485 14.6881 11.9313 13.9369 12.3566C13.1857 12.7819 12.5844 13.4291 12.2152 14.2094C11.8461 14.9897 11.7271 15.865 11.8746 16.7155C12.0221 17.5661 12.4289 18.3502 13.0393 18.9606C13.6497 19.571 14.4338 19.9778 15.2844 20.1253C16.1349 20.2729 17.0102 20.1539 17.7905 19.7847C18.5708 19.4155 19.2179 18.8142 19.6433 18.063C20.0686 17.3118 20.2513 16.4476 20.1665 15.5885C20.0698 14.6255 19.6431 13.7255 18.9587 13.0412C18.2743 12.3568 17.3744 11.9301 16.4114 11.8334ZM26.4926 16C26.4899 16.4551 26.4565 16.9095 26.3925 17.3601L29.3502 19.6799C29.4789 19.7867 29.5657 19.9356 29.5951 20.1003C29.6244 20.265 29.5944 20.4348 29.5104 20.5794L26.7124 25.4206C26.6275 25.5638 26.4946 25.6725 26.3374 25.7275C26.1801 25.7824 26.0085 25.78 25.8528 25.7208L22.9154 24.538C22.7535 24.4735 22.578 24.4502 22.4048 24.4702C22.2316 24.4902 22.0661 24.5528 21.923 24.6525C21.4747 24.9612 21.0037 25.2355 20.5139 25.4729C20.3599 25.5477 20.2267 25.6593 20.1261 25.7979C20.0254 25.9364 19.9605 26.0975 19.9369 26.2671L19.4966 29.4001C19.4677 29.5656 19.3822 29.7158 19.2548 29.8253C19.1273 29.9347 18.9658 29.9964 18.7979 30H13.2019C13.0367 29.9971 12.8775 29.9381 12.7503 29.8326C12.6232 29.7272 12.5358 29.5815 12.5025 29.4197L12.0629 26.2913C12.0382 26.1199 11.9716 25.9572 11.8688 25.8177C11.7661 25.6782 11.6305 25.5663 11.4741 25.4919C10.9849 25.2557 10.5155 24.9807 10.0702 24.6695C9.92767 24.5703 9.76268 24.5082 9.59012 24.4887C9.41755 24.4691 9.24284 24.4928 9.08173 24.5577L6.14502 25.7398C5.9894 25.7991 5.81785 25.8015 5.66059 25.7467C5.50334 25.6919 5.37048 25.5833 5.28541 25.4402L2.48739 20.5991C2.40327 20.4544 2.37321 20.2846 2.40256 20.1199C2.43191 19.9552 2.51877 19.8062 2.64767 19.6995L5.14737 17.7369C5.28432 17.6282 5.39195 17.487 5.46049 17.3262C5.52904 17.1653 5.55633 16.9899 5.53989 16.8158C5.51634 16.543 5.50195 16.2708 5.50195 15.998C5.50195 15.7252 5.51568 15.457 5.53989 15.1901C5.55453 15.0171 5.5259 14.8431 5.45658 14.6839C5.38726 14.5247 5.27943 14.3853 5.14279 14.2781L2.6444 12.3155C2.51759 12.2083 2.43256 12.0599 2.40421 11.8962C2.37586 11.7326 2.40601 11.5642 2.48935 11.4206L5.28737 6.57944C5.37234 6.43616 5.50516 6.32748 5.66242 6.27254C5.81968 6.21761 5.99128 6.21995 6.14699 6.27916L9.08435 7.46196C9.24633 7.52646 9.42178 7.54976 9.59498 7.52978C9.76818 7.5098 9.93372 7.44716 10.0768 7.34748C10.5251 7.03877 10.9961 6.76453 11.4859 6.5271C11.6399 6.45226 11.7731 6.34066 11.8737 6.20214C11.9743 6.06363 12.0393 5.90247 12.0629 5.7329L12.5032 2.59991C12.5321 2.43445 12.6176 2.28416 12.745 2.17474C12.8725 2.06532 13.034 2.00356 13.2019 2H18.7979C18.9631 2.00286 19.1223 2.06189 19.2494 2.16737C19.3766 2.27285 19.464 2.41848 19.4973 2.58028L19.9369 5.70869C19.9616 5.88014 20.0282 6.04283 20.1309 6.1823C20.2337 6.32177 20.3693 6.43369 20.5257 6.50813C21.0149 6.74427 21.4843 7.01926 21.9296 7.33047C22.0721 7.42965 22.2371 7.49181 22.4097 7.51134C22.5822 7.53087 22.7569 7.50716 22.9181 7.44234L25.8548 6.26019C26.0104 6.20092 26.1819 6.19848 26.3392 6.25329C26.4965 6.3081 26.6293 6.41665 26.7144 6.55981L29.5124 11.4009C29.5965 11.5456 29.6266 11.7154 29.5972 11.8801C29.5679 12.0448 29.481 12.1938 29.3521 12.3005L26.8524 14.2631C26.7149 14.3714 26.6066 14.5125 26.5375 14.6734C26.4684 14.8342 26.4406 15.0098 26.4566 15.1842C26.4782 15.455 26.4926 15.7272 26.4926 16Z" stroke="#03182B" stroke-width="2" stroke-linecap="round" stroke-linejoin="round"/>
</g>
<defs>
<clipPath id="clip0_2460_778">
<rect width="32" height="32" fill="white"/>
</clipPath>
</defs>
</svg>
