<svg width="32" height="32" viewBox="0 0 32 32" fill="none" xmlns="http://www.w3.org/2000/svg">
<path d="M16.0002 6.08334V10.1667M16.0002 6.08334C16.0002 5.27573 16.2396 4.48626 16.6883 3.81476C17.137 3.14326 17.7747 2.61988 18.5209 2.31083C19.267 2.00177 20.088 1.92091 20.8801 2.07846C21.6722 2.23602 22.3998 2.62492 22.9708 3.19598C23.5419 3.76705 23.9308 4.49463 24.0884 5.28672C24.2459 6.07881 24.1651 6.89983 23.856 7.64596C23.5469 8.39209 23.0236 9.02982 22.3521 9.4785C21.6806 9.92718 20.8911 10.1667 20.0835 10.1667H16.0002M16.0002 6.08334C16.0002 5.27573 15.7607 4.48626 15.312 3.81476C14.8633 3.14326 14.2256 2.61988 13.4795 2.31083C12.7333 2.00177 11.9123 1.92091 11.1202 2.07846C10.3281 2.23602 9.60054 2.62492 9.02948 3.19598C8.45841 3.76705 8.06951 4.49463 7.91196 5.28672C7.7544 6.07881 7.83527 6.89983 8.14432 7.64596C8.45338 8.39209 8.97675 9.02982 9.64825 9.4785C10.3198 9.92718 11.1092 10.1667 11.9168 10.1667H16.0002" stroke="#0067B1" stroke-width="2" stroke-miterlimit="10" stroke-linecap="round"/>
<path d="M27.6667 10.167H4.33333C3.04467 10.167 2 11.0624 2 12.167V15.167C2 16.2716 3.04467 17.167 4.33333 17.167H27.6667C28.9553 17.167 30 16.2716 30 15.167V12.167C30 11.0624 28.9553 10.167 27.6667 10.167Z" stroke="#0067B1" stroke-width="2" stroke-linecap="round" stroke-linejoin="round"/>
<path d="M27.6668 17.1667V26.6842C27.6668 27.5636 27.2981 28.407 26.6417 29.0288C25.9853 29.6507 25.0951 30 24.1668 30H7.8335C6.90524 30 6.015 29.6507 5.35862 29.0288C4.70225 28.407 4.3335 27.5636 4.3335 26.6842V17.1667M16.0002 9V30" stroke="#0067B1" stroke-width="2" stroke-linecap="round" stroke-linejoin="round"/>
</svg>
