<svg width="32" height="32" viewBox="0 0 32 32" fill="none" xmlns="http://www.w3.org/2000/svg">
<g clip-path="url(#clip0_495_2661)">
<path d="M27.2917 11.507C26.9736 11.8231 26.5433 12.0005 26.0948 12.0005C25.6463 12.0005 25.2161 11.8231 24.8979 11.507L23.4929 10.1014C23.1767 9.78341 22.9992 9.35322 22.9992 8.9048C22.9992 8.45638 23.1767 8.02619 23.4929 7.70824L26.6736 4.52761C26.6797 4.5215 26.6842 4.51399 26.6868 4.50572C26.6893 4.49746 26.6898 4.4887 26.6882 4.4802C26.6866 4.4717 26.683 4.46372 26.6776 4.45695C26.6722 4.45018 26.6652 4.44483 26.6573 4.44136C24.6048 3.56261 21.9429 4.00949 20.2529 5.68761C18.6354 7.29324 18.5436 9.70449 19.1361 11.8126C19.2203 12.1121 19.2201 12.429 19.1355 12.7283C19.0509 13.0276 18.8852 13.2978 18.6567 13.5089L7.8442 23.5564C7.58612 23.7875 7.37789 24.0687 7.23223 24.3831C7.08658 24.6974 7.00655 25.0381 6.99705 25.3844C6.98755 25.7306 7.04878 26.0752 7.17699 26.397C7.3052 26.7189 7.49769 27.0111 7.74271 27.256C7.98773 27.5009 8.28011 27.6933 8.602 27.8213C8.92388 27.9493 9.2685 28.0104 9.61478 28.0007C9.96106 27.991 10.3017 27.9108 10.616 27.765C10.9302 27.6192 11.2114 27.4108 11.4423 27.1526L21.5767 16.3214C21.7855 16.0967 22.0516 15.9331 22.3464 15.8483C22.6412 15.7635 22.9535 15.7607 23.2498 15.8401C25.3411 16.3989 27.7179 16.2939 29.3167 14.7189C31.0348 13.0264 31.4054 10.0351 30.5729 8.32324C30.5692 8.31573 30.5637 8.30922 30.5569 8.30425C30.5501 8.29928 30.5423 8.29599 30.534 8.29465C30.5257 8.2933 30.5172 8.29395 30.5092 8.29653C30.5012 8.29911 30.4939 8.30355 30.4879 8.30949L27.2917 11.507Z" stroke="#0067B1" stroke-width="2" stroke-miterlimit="10" stroke-linecap="round"/>
<path d="M14.0001 17.7501C12.9076 16.6876 12.407 16.1932 12.0626 15.8569C11.8903 15.6857 11.7771 15.4639 11.7397 15.2239C11.7023 14.9839 11.7425 14.7381 11.8545 14.5226C11.9135 14.4166 11.9872 14.3194 12.0732 14.2338L13.0532 13.2782C13.1546 13.1766 13.2739 13.0946 13.4051 13.0363C13.6122 12.9447 13.842 12.9172 14.0648 12.9576C14.2877 12.9979 14.4933 13.1041 14.6551 13.2626C14.9957 13.5932 15.6195 14.2001 16.7432 15.2951M19.817 18.2063C22.3764 20.5876 25.4807 23.4107 26.692 24.4194C26.7826 24.4941 26.8565 24.5869 26.9091 24.6919C26.9617 24.7969 26.9917 24.9117 26.9972 25.0289C27.0027 25.1462 26.9837 25.2633 26.9412 25.3728C26.8988 25.4822 26.8339 25.5816 26.7507 25.6644L24.6645 27.7501C24.5796 27.833 24.4787 27.8979 24.3679 27.9406C24.2572 27.9833 24.1389 28.0031 24.0202 27.9986C23.9016 27.9942 23.7851 27.9656 23.6779 27.9147C23.5706 27.8638 23.4748 27.7917 23.3964 27.7026C22.3632 26.5038 19.5782 23.5082 17.192 21.0151" stroke="#0067B1" stroke-width="2" stroke-linecap="round" stroke-linejoin="round"/>
<path d="M1.08381 12.0938L2.92194 10.2975C2.95001 10.2699 2.98334 10.2482 3.01995 10.2337C3.05656 10.2192 3.0957 10.2122 3.13506 10.2131C3.21441 10.2123 3.29093 10.2426 3.34819 10.2975C3.41475 10.3633 3.49544 10.4132 3.58414 10.4432C3.67283 10.4732 3.76719 10.4826 3.86006 10.4706C4.09943 10.4444 4.35506 10.3706 4.52069 10.2131C4.89569 9.85063 4.46193 9.13625 4.79193 8.67938C5.16927 8.17923 5.58244 7.70716 6.02818 7.26688C6.40318 6.89938 7.89319 5.49688 10.3969 4.48875C11.1976 4.16511 12.0533 3.99915 12.9169 4C14.3288 4 15.4169 4.625 15.8082 4.97938C16.043 5.20281 16.258 5.44623 16.4507 5.70688C16.2625 5.63752 16.0703 5.57971 15.8751 5.53375C15.4645 5.44665 15.0433 5.42012 14.6251 5.455C13.7919 5.52313 12.7869 5.90875 12.2501 6.33C11.3813 7.0175 11.0082 7.9375 10.9494 9.12438C10.9069 10.0069 11.1194 10.5056 13.2057 12.5925C13.277 12.6721 13.3146 12.7763 13.3107 12.883C13.3067 12.9898 13.2614 13.0909 13.1844 13.165L12.0457 14.29C11.9663 14.3678 11.8599 14.4119 11.7487 14.4129C11.6375 14.414 11.5303 14.3719 11.4494 14.2956C10.0782 12.9244 9.15881 12.2275 8.63694 11.9106C8.11506 11.5938 7.69506 11.5044 7.49319 11.4825C7.09671 11.4432 6.6978 11.5277 6.35131 11.7244C6.29051 11.7578 6.23493 11.7999 6.18631 11.8494C6.10516 11.9333 6.04143 12.0324 5.99879 12.141C5.95616 12.2497 5.93546 12.3657 5.9379 12.4823C5.94034 12.599 5.96587 12.7141 6.01301 12.8208C6.06015 12.9276 6.12797 13.024 6.21256 13.1044L6.31944 13.2044C6.34718 13.2313 6.36923 13.2636 6.38429 13.2992C6.39935 13.3349 6.40711 13.3732 6.40711 13.4119C6.40711 13.4506 6.39935 13.4889 6.38429 13.5245C6.36923 13.5602 6.34718 13.5924 6.31944 13.6194L4.48319 15.4125C4.45537 15.4407 4.42216 15.4629 4.38554 15.478C4.34892 15.493 4.30964 15.5005 4.27006 15.5C4.19073 15.5008 4.11423 15.4705 4.05694 15.4156L1.08381 12.5138C1.03 12.4571 1 12.3819 1 12.3038C1 12.2256 1.03 12.1504 1.08381 12.0938Z" stroke="#0067B1" stroke-width="2" stroke-linecap="round" stroke-linejoin="round"/>
</g>
<defs>
<clipPath id="clip0_495_2661">
<rect width="32" height="32" fill="white"/>
</clipPath>
</defs>
</svg>
