<svg width="32" height="32" viewBox="0 0 32 32" fill="none" xmlns="http://www.w3.org/2000/svg">
<path d="M27.8342 12C26.882 6.32457 21.9461 2 16.0001 2C10.0541 2 5.11817 6.32457 4.16602 12" stroke="#0067B1" stroke-width="2"/>
<rect x="2" y="12" width="4" height="8" rx="2" stroke="#0067B1" stroke-width="2"/>
<rect x="19" y="26" width="4" height="6" rx="2" transform="rotate(90 19 26)" stroke="#0067B1" stroke-width="2"/>
<rect x="26" y="12" width="4" height="8" rx="2" stroke="#0067B1" stroke-width="2"/>
<path d="M28 20V20C28 25.5228 23.5228 30 18 30H16" stroke="#0067B1" stroke-width="2"/>
<path d="M10.7075 14.5288C10.9984 14.471 11.2997 14.5013 11.5737 14.6147C11.8478 14.7283 12.0827 14.9199 12.2476 15.1665C12.4124 15.4132 12.5005 15.7038 12.5005 16.0005C12.5004 16.3982 12.3423 16.7798 12.061 17.061C11.7798 17.3423 11.3982 17.5004 11.0005 17.5005C10.7038 17.5005 10.4132 17.4124 10.1665 17.2476C9.91986 17.0827 9.72827 16.8478 9.61475 16.5737C9.50129 16.2997 9.47096 15.9984 9.52881 15.7075C9.58669 15.4165 9.73016 15.1497 9.93994 14.9399C10.1497 14.7302 10.4165 14.5867 10.7075 14.5288ZM15.7075 14.5288C15.9984 14.471 16.2997 14.5013 16.5737 14.6147C16.8478 14.7283 17.0827 14.9199 17.2476 15.1665C17.4124 15.4132 17.5005 15.7038 17.5005 16.0005C17.5004 16.3982 17.3423 16.7798 17.061 17.061C16.7798 17.3423 16.3982 17.5004 16.0005 17.5005C15.7038 17.5005 15.4132 17.4124 15.1665 17.2476C14.9199 17.0827 14.7283 16.8478 14.6147 16.5737C14.5013 16.2997 14.471 15.9984 14.5288 15.7075C14.5867 15.4165 14.7302 15.1497 14.9399 14.9399C15.1497 14.7302 15.4165 14.5867 15.7075 14.5288ZM20.7075 14.5288C20.9984 14.471 21.2997 14.5013 21.5737 14.6147C21.8478 14.7283 22.0827 14.9199 22.2476 15.1665C22.4124 15.4132 22.5005 15.7038 22.5005 16.0005C22.5004 16.3982 22.3423 16.7798 22.061 17.061C21.7798 17.3423 21.3982 17.5004 21.0005 17.5005C20.7038 17.5005 20.4132 17.4124 20.1665 17.2476C19.9199 17.0827 19.7283 16.8478 19.6147 16.5737C19.5013 16.2997 19.471 15.9984 19.5288 15.7075C19.5867 15.4165 19.7302 15.1497 19.9399 14.9399C20.1497 14.7302 20.4165 14.5867 20.7075 14.5288Z" fill="#0067B1"/>
</svg>
