<svg width="32" height="32" viewBox="0 0 32 32" fill="none" xmlns="http://www.w3.org/2000/svg">
<path d="M26.1956 11H5.80438C4.80785 11 4 11.9088 4 13.0299V26.9701C4 28.0912 4.80785 29 5.80438 29H26.1956C27.1922 29 28 28.0912 28 26.9701V13.0299C28 11.9088 27.1922 11 26.1956 11Z" stroke="#0067B1" stroke-width="2" stroke-linejoin="round"/>
<path d="M9 5H23H9ZM7 8H25H7Z" fill="#0067B1"/>
<path d="M9 5H23M7 8H25" stroke="#0067B1" stroke-width="2" stroke-miterlimit="10" stroke-linecap="round"/>
<path d="M18.5869 15.4004C16.8541 15.4004 16 17.1049 16 17.1049C16 17.1049 15.1459 15.4004 13.4131 15.4004C12.0048 15.4004 10.8897 16.576 10.8753 17.9788C10.8459 20.8906 13.1902 22.9614 15.7598 24.7016C15.8306 24.7497 15.9143 24.7754 16 24.7754C16.0857 24.7754 16.1694 24.7497 16.2402 24.7016C18.8095 22.9614 21.1538 20.8906 21.1247 17.9788C21.1103 16.576 19.9952 15.4004 18.5869 15.4004Z" stroke="#0067B1" stroke-width="2" stroke-linecap="round" stroke-linejoin="round"/>
</svg>
