<svg width="32" height="32" viewBox="0 0 32 32" fill="none" xmlns="http://www.w3.org/2000/svg">
<g clip-path="url(#clip0_277_2483)">
<path d="M16 2C8.2688 2 2 8.2688 2 16C2 23.7312 8.2688 30 16 30C23.7312 30 30 23.7312 30 16C30 8.2688 23.7312 2 16 2Z" stroke="#0067B1" stroke-width="2" stroke-miterlimit="10"/>
<path d="M13.8696 13.8691H16.3044V22.6952" stroke="#0067B1" stroke-width="2" stroke-linecap="round" stroke-linejoin="round"/>
<path d="M12.9565 23H19.6522" stroke="#0067B1" stroke-width="2" stroke-miterlimit="10" stroke-linecap="round"/>
<path d="M15.9997 7.02148C15.6085 7.02148 15.226 7.13751 14.9007 7.35488C14.5754 7.57226 14.3218 7.88122 14.1721 8.2427C14.0223 8.60418 13.9832 9.00194 14.0595 9.38568C14.1358 9.76943 14.3242 10.1219 14.6009 10.3986C14.8776 10.6753 15.2301 10.8637 15.6138 10.94C15.9976 11.0163 16.3953 10.9772 16.7568 10.8274C17.1183 10.6777 17.4272 10.4241 17.6446 10.0988C17.862 9.77348 17.978 9.39101 17.978 8.99975C17.978 8.47508 17.7696 7.9719 17.3986 7.6009C17.0276 7.22991 16.5244 7.02148 15.9997 7.02148Z" fill="#0067B1"/>
</g>
<defs>
<clipPath id="clip0_277_2483">
<rect width="32" height="32" fill="white"/>
</clipPath>
</defs>
</svg>
