<svg width="32" height="32" viewBox="0 0 32 32" fill="none" xmlns="http://www.w3.org/2000/svg">
<path d="M12.2752 22.4612H8.46154C6.74784 22.4612 5.10432 21.7804 3.89254 20.5686C2.68077 19.3569 2 17.7133 2 15.9996C2 14.2859 2.68077 12.6424 3.89254 11.4306C5.10432 10.2189 6.74784 9.53809 8.46154 9.53809H12.1911M19.809 9.53809H23.5385C25.2522 9.53809 26.8957 10.2189 28.1075 11.4306C29.3193 12.6424 30 14.2859 30 15.9996C30 17.7133 29.3193 19.3569 28.1075 20.5686C26.8957 21.7804 25.2522 22.4612 23.5385 22.4612H19.7248M10.149 15.9996H21.9857" stroke="#0067B1" stroke-width="2" stroke-linecap="round" stroke-linejoin="round"/>
</svg>
