<svg width="32" height="32" viewBox="0 0 32 32" fill="none" xmlns="http://www.w3.org/2000/svg">
<path d="M14 12C19.4721 12 25.22 4.28783 25.22 4.28783C25.6952 3.67145 27 4.11533 27 4.95467V27.0737C27 27.9157 25.6279 28.2894 25.22 27.7439C25.22 27.7439 19.4721 20 14 20M14 12H4L4 20H14M14 12L14 20M4 18C4 18 2 17.7733 2 16.0005C2 14.2277 4 14 4 14M27 20C27 20 30 19.0011 30 16.0005C30 13 27 12 27 12" stroke="#0067B1" stroke-width="2" stroke-linecap="round" stroke-linejoin="round"/>
<path d="M12 20C10 24 14 30 14 30H10L6 20H12Z" stroke="#0067B1" stroke-width="2" stroke-linecap="round" stroke-linejoin="round"/>
</svg>
