<svg width="33" height="32" viewBox="0 0 33 32" fill="none" xmlns="http://www.w3.org/2000/svg">
<path d="M3.99997 14.9999V27.9997M2 28.9997H29.9996M12.9999 15.1248H5.21808C2.87061 15.053 1.35751 12.8005 2.26875 10.8124L4.97496 4.90373C5.50371 3.74999 6.73369 3 8.09555 3H23.9041C25.266 3 26.4959 3.74999 27.0247 4.90373L28.2077 7.48661M8.49992 19.8976H11.4999C11.8977 19.8976 12.2792 20.0556 12.5605 20.3369C12.8418 20.6183 12.9999 20.9998 12.9999 21.3976V24.9997H6.99994V21.3976C6.99994 20.9998 7.15797 20.6183 7.43927 20.3369C7.72057 20.0556 8.1021 19.8976 8.49992 19.8976Z" stroke="#0067B1" stroke-width="1.99997" stroke-linecap="round" stroke-linejoin="round"/>
<ellipse cx="23.9999" cy="17.9999" rx="8.0001" ry="7.9999" stroke="#0067B1" stroke-width="1.99997" stroke-linecap="round" stroke-linejoin="round"/>
<path d="M26.286 16.1711C26.286 15.1654 25.262 14.3425 24.0003 14.3425M24.0003 14.3425C22.7386 14.3425 21.7146 15.1654 21.7146 16.1711C21.7146 17.1767 22.7386 17.9996 24.0003 17.9996C25.262 17.9996 26.286 18.8224 26.286 19.8281C26.286 20.8338 25.262 21.6566 24.0003 21.6566M24.0003 14.3425L24.0002 13.4282M24.0003 21.6566C22.7386 21.6566 21.7146 20.8338 21.7146 19.8281M24.0003 21.6566L24.0002 22.571" stroke="#0067B1" stroke-width="1.99997" stroke-miterlimit="10" stroke-linecap="round" stroke-linejoin="round"/>
</svg>
