<svg width="32" height="32" viewBox="0 0 32 32" fill="none" xmlns="http://www.w3.org/2000/svg">
<path d="M12 9H20L21.6722 10.0033C26.8387 13.1032 30 18.6866 30 24.7118V24.7118C30 27.0801 28.0801 29 25.7118 29H6.28822C3.9199 29 2 27.0801 2 24.7118V24.7118C2 18.6866 5.16125 13.1032 10.3278 10.0033L12 9Z" stroke="#0067B1" stroke-width="2"/>
<path d="M19 16.6C19 15.28 17.656 14.2001 16 14.2001M16 14.2001C14.344 14.2001 13 15.28 13 16.6C13 17.92 14.344 19 16 19C17.656 19 19 20.08 19 21.3999C19 22.7199 17.656 23.7999 16 23.7999M16 14.2001L15.9999 13M16 23.7999C14.344 23.7999 13 22.7199 13 21.3999M16 23.7999L15.9999 25" stroke="#0067B1" stroke-width="2" stroke-miterlimit="10" stroke-linecap="round" stroke-linejoin="round"/>
<path d="M12 7H20L24 3H16H8L12 7Z" stroke="#0067B1" stroke-width="2" stroke-linejoin="round"/>
<rect x="11" y="7" width="10" height="2" rx="1" stroke="#0067B1" stroke-width="2" stroke-linejoin="round"/>
</svg>
