<svg width="32" height="32" viewBox="0 0 32 32" fill="none" xmlns="http://www.w3.org/2000/svg">
<path d="M24.1769 6.74786L22.3276 8.59708M24.1769 6.74786C24.5426 6.38212 25.0086 6.13305 25.5159 6.03214C26.0232 5.93123 26.549 5.98302 27.0269 6.18096C27.5047 6.37889 27.9132 6.71409 28.2005 7.14416C28.4879 7.57422 28.6413 8.07984 28.6413 8.59708C28.6413 9.11432 28.4879 9.61994 28.2005 10.05C27.9132 10.4801 27.5047 10.8153 27.0269 11.0132C26.549 11.2111 26.0232 11.2629 25.5159 11.162C25.0086 11.0611 24.5426 10.812 24.1769 10.4463L22.3276 8.59708M24.1769 6.74786C24.5426 6.38212 24.7917 5.91614 24.8926 5.40884C24.9935 4.90154 24.9417 4.37571 24.7438 3.89785C24.5458 3.41998 24.2106 3.01155 23.7806 2.72418C23.3505 2.43682 22.8449 2.28345 22.3276 2.28345C21.8104 2.28345 21.3048 2.43682 20.8747 2.72418C20.4446 3.01155 20.1095 3.41998 19.9115 3.89785C19.7136 4.37571 19.6618 4.90154 19.7627 5.40884C19.8636 5.91614 20.1127 6.38212 20.4784 6.74786L22.3276 8.59708" stroke="#0067B1" stroke-width="2.02409" stroke-miterlimit="10" stroke-linecap="round"/>
<path d="M19.6135 11.4178L21.6152 9.41211" stroke="#0067B1" stroke-width="2.02409" stroke-linecap="round"/>
<path d="M27.5934 13.7741L17.0264 3.20709C16.4428 2.62349 15.5642 2.5559 15.064 3.05613L13.7054 4.41474C13.2051 4.91497 13.2727 5.79358 13.8563 6.37718L24.4233 16.9442C25.0069 17.5278 25.8855 17.5953 26.3857 17.0951L27.7444 15.7365C28.2446 15.2363 28.177 14.3577 27.5934 13.7741Z" stroke="#0067B1" stroke-width="2.02409" stroke-linecap="round" stroke-linejoin="round"/>
<path d="M6 20H24.66V26.4C24.66 28.3882 23.0482 30 21.06 30H9.6C7.61178 30 6 28.3882 6 26.4V20Z" stroke="#0067B1" stroke-width="2" stroke-linejoin="round"/>
<path d="M15.5801 20L15.5801 28" stroke="#0067B1" stroke-width="2" stroke-linecap="square"/>
<path d="M11.4667 8.46866C11.5414 8.39682 11.666 8.44177 11.6776 8.54472L11.9674 11.1148C11.9721 11.1557 11.9965 11.1917 12.0328 11.211L14.3142 12.4293C14.4056 12.4781 14.4014 12.6105 14.3071 12.6534L11.9523 13.7232C11.9149 13.7402 11.8882 13.7746 11.881 13.8151L11.4274 16.3613C11.4092 16.4633 11.2819 16.5002 11.212 16.4237L9.46693 14.5149C9.43917 14.4845 9.39825 14.4698 9.3575 14.4754L6.79569 14.8308C6.69306 14.8451 6.61866 14.7354 6.66978 14.6453L7.94596 12.3957C7.96626 12.36 7.96765 12.3165 7.94968 12.2795L6.82003 9.95287C6.77477 9.85967 6.85603 9.75504 6.95754 9.77581L9.49136 10.2944C9.53167 10.3026 9.57345 10.2905 9.6031 10.262L11.4667 8.46866Z" stroke="#0067B1" stroke-width="2"/>
</svg>
