<svg width="32" height="32" viewBox="0 0 32 32" fill="none" xmlns="http://www.w3.org/2000/svg">
<g clip-path="url(#clip0_2460_772)">
<path d="M25.5414 12.098C26.0312 11.6082 26.6955 11.333 27.3883 11.333C28.081 11.333 28.7453 11.6082 29.2352 12.098C29.725 12.5878 30.0002 13.2522 30.0002 13.9449C30.0002 14.6376 29.725 15.302 29.2352 15.7918L20.2585 24.7684L15.3334 25.9997L16.5647 21.0746L25.5414 12.098Z" stroke="#0067B1" stroke-width="2" stroke-linecap="round" stroke-linejoin="round"/>
<path d="M25.9998 7.01754V4C25.9998 2.89543 25.1044 2 23.9998 2H6.6665C5.56193 2 4.6665 2.89543 4.6665 4V28C4.6665 29.1046 5.56194 30 6.66651 30H23.9998C25.1044 30 25.9998 29.1046 25.9998 28V25.3333" stroke="#0067B1" stroke-width="2" stroke-linecap="round" stroke-linejoin="round"/>
<path d="M19.6665 7.33301H9.6665C9.11422 7.33301 8.6665 7.78072 8.6665 8.33301C8.6665 8.88529 9.11422 9.33301 9.6665 9.33301H19.6665C20.2188 9.33301 20.6665 8.88529 20.6665 8.33301C20.6665 7.78072 20.2188 7.33301 19.6665 7.33301Z" fill="#0067B1"/>
<path d="M15.6665 12H9.6665C9.11422 12 8.6665 12.4477 8.6665 13C8.6665 13.5523 9.11422 14 9.6665 14H15.6665C16.2188 14 16.6665 13.5523 16.6665 13C16.6665 12.4477 16.2188 12 15.6665 12Z" fill="#0067B1"/>
</g>
<defs>
<clipPath id="clip0_2460_772">
<rect width="32" height="32" fill="white"/>
</clipPath>
</defs>
</svg>
