<svg width="32" height="32" viewBox="0 0 32 32" fill="none" xmlns="http://www.w3.org/2000/svg">
<path d="M23 2H9C7.34315 2 6 3.34315 6 5V27C6 28.6569 7.34315 30 9 30H23C24.6569 30 26 28.6569 26 27V5C26 3.34315 24.6569 2 23 2Z" stroke="#0067B1" stroke-width="2" stroke-linecap="round" stroke-linejoin="round"/>
<path d="M16 27.5996C15.6044 27.5996 15.2178 27.4823 14.8889 27.2625C14.56 27.0428 14.3036 26.7304 14.1522 26.365C14.0009 25.9995 13.9613 25.5974 14.0384 25.2094C14.1156 24.8215 14.3061 24.4651 14.5858 24.1854C14.8655 23.9057 15.2219 23.7152 15.6098 23.638C15.9978 23.5609 16.3999 23.6005 16.7654 23.7519C17.1308 23.9032 17.4432 24.1596 17.6629 24.4885C17.8827 24.8174 18 25.204 18 25.5996C18 26.13 17.7893 26.6388 17.4142 27.0138C17.0391 27.3889 16.5304 27.5996 16 27.5996Z" fill="#0067B1"/>
<path d="M13 5.50391H19" stroke="#0067B1" stroke-width="2" stroke-linecap="round" stroke-linejoin="round"/>
</svg>
