<svg width="32" height="32" viewBox="0 0 32 32" fill="none" xmlns="http://www.w3.org/2000/svg">
<g clip-path="url(#clip0_2460_760)">
<path d="M23 2H9C7.34315 2 6 3.34315 6 5V27C6 28.6569 7.34315 30 9 30H23C24.6569 30 26 28.6569 26 27V5C26 3.34315 24.6569 2 23 2Z" stroke="#03182B" stroke-width="2" stroke-linecap="round" stroke-linejoin="round"/>
<path d="M13 5.5H19" stroke="#03182B" stroke-width="2" stroke-linecap="round" stroke-linejoin="round"/>
<path d="M17.8438 16.7821C17.6079 16.5309 17.3222 16.3315 17.005 16.1969C16.6877 16.0623 16.3459 15.9953 16.0013 16.0003C15.2763 16.0003 14.6206 16.2759 14.155 16.7771C13.6894 17.2784 13.455 17.9721 13.5088 18.7146C13.6156 20.1821 14.7338 21.3753 16.0013 21.3753C17.2688 21.3753 18.385 20.1821 18.4931 18.7159C18.5481 17.9796 18.3169 17.2928 17.8438 16.7821ZM20.2319 27.0003H11.7706C11.6605 27.002 11.5513 26.9796 11.4508 26.9346C11.3502 26.8895 11.2608 26.823 11.1888 26.7396C11.1107 26.6461 11.0546 26.5362 11.0248 26.418C10.9949 26.2999 10.992 26.1765 11.0163 26.0571C11.2194 24.9596 11.8525 24.0378 12.8475 23.3909C13.7313 22.8165 14.8513 22.5003 16.0013 22.5003C17.1513 22.5003 18.2713 22.8165 19.155 23.3909C20.15 24.0378 20.7832 24.9596 20.9863 26.0571C21.0105 26.1765 21.0076 26.2999 20.9778 26.418C20.9479 26.5362 20.8919 26.6461 20.8138 26.7396C20.7417 26.823 20.6523 26.8895 20.5518 26.9346C20.4512 26.9796 20.342 27.002 20.2319 27.0003Z" fill="#03182B"/>
</g>
<defs>
<clipPath id="clip0_2460_760">
<rect width="32" height="32" fill="white"/>
</clipPath>
</defs>
</svg>
