<svg width="32" height="32" viewBox="0 0 32 32" fill="none" xmlns="http://www.w3.org/2000/svg">
<g clip-path="url(#clip0_2460_757)">
<path d="M25.3332 20.667H21.185C20.8987 20.667 20.6665 20.8991 20.6665 21.1855V25.3337C20.6665 25.62 20.8987 25.8522 21.185 25.8522H25.3332C25.6195 25.8522 25.8517 25.62 25.8517 25.3337V21.1855C25.8517 20.8991 25.6195 20.667 25.3332 20.667Z" fill="#0067B1"/>
<path d="M20.1482 16.5186H17.0371C16.7507 16.5186 16.5186 16.7507 16.5186 17.0371V20.1482C16.5186 20.4346 16.7507 20.6667 17.0371 20.6667H20.1482C20.4346 20.6667 20.6667 20.4346 20.6667 20.1482V17.0371C20.6667 16.7507 20.4346 16.5186 20.1482 16.5186Z" fill="#0067B1"/>
<path d="M29.4817 25.8516H26.3706C26.0842 25.8516 25.8521 26.0837 25.8521 26.3701V29.4812C25.8521 29.7676 26.0842 29.9997 26.3706 29.9997H29.4817C29.7681 29.9997 30.0002 29.7676 30.0002 29.4812V26.3701C30.0002 26.0837 29.7681 25.8516 29.4817 25.8516Z" fill="#0067B1"/>
<path d="M29.4818 16.5186H27.4077C27.1213 16.5186 26.8892 16.7507 26.8892 17.0371V19.1111C26.8892 19.3975 27.1213 19.6297 27.4077 19.6297H29.4818C29.7681 19.6297 30.0003 19.3975 30.0003 19.1111V17.0371C30.0003 16.7507 29.7681 16.5186 29.4818 16.5186Z" fill="#0067B1"/>
<path d="M19.1111 26.8887H17.0371C16.7507 26.8887 16.5186 27.1208 16.5186 27.4072V29.4813C16.5186 29.7676 16.7507 29.9998 17.0371 29.9998H19.1111C19.3975 29.9998 19.6297 29.7676 19.6297 29.4813V27.4072C19.6297 27.1208 19.3975 26.8887 19.1111 26.8887Z" fill="#0067B1"/>
<path d="M25.3332 5.11133H21.185C20.8987 5.11133 20.6665 5.34348 20.6665 5.62985V9.778C20.6665 10.0644 20.8987 10.2965 21.185 10.2965H25.3332C25.6195 10.2965 25.8517 10.0644 25.8517 9.778V5.62985C25.8517 5.34348 25.6195 5.11133 25.3332 5.11133Z" fill="#0067B1"/>
<path d="M27.9265 2H18.5932C18.0204 2 17.5562 2.4643 17.5562 3.03704V12.3704C17.5562 12.9431 18.0204 13.4074 18.5932 13.4074H27.9265C28.4993 13.4074 28.9636 12.9431 28.9636 12.3704V3.03704C28.9636 2.4643 28.4993 2 27.9265 2Z" stroke="#0067B1" stroke-width="2" stroke-linecap="round" stroke-linejoin="round"/>
<path d="M9.77751 5.11133H5.62936C5.34299 5.11133 5.11084 5.34348 5.11084 5.62985V9.778C5.11084 10.0644 5.34299 10.2965 5.62936 10.2965H9.77751C10.0639 10.2965 10.296 10.0644 10.296 9.778V5.62985C10.296 5.34348 10.0639 5.11133 9.77751 5.11133Z" fill="#0067B1"/>
<path d="M12.3704 2H3.03704C2.4643 2 2 2.4643 2 3.03704V12.3704C2 12.9431 2.4643 13.4074 3.03704 13.4074H12.3704C12.9431 13.4074 13.4074 12.9431 13.4074 12.3704V3.03704C13.4074 2.4643 12.9431 2 12.3704 2Z" stroke="#0067B1" stroke-width="2" stroke-linecap="round" stroke-linejoin="round"/>
<path d="M9.77751 20.667H5.62936C5.34299 20.667 5.11084 20.8991 5.11084 21.1855V25.3337C5.11084 25.62 5.34299 25.8522 5.62936 25.8522H9.77751C10.0639 25.8522 10.296 25.62 10.296 25.3337V21.1855C10.296 20.8991 10.0639 20.667 9.77751 20.667Z" fill="#0067B1"/>
<path d="M12.3704 17.5557H3.03704C2.4643 17.5557 2 18.02 2 18.5927V27.926C2 28.4988 2.4643 28.9631 3.03704 28.9631H12.3704C12.9431 28.9631 13.4074 28.4988 13.4074 27.926V18.5927C13.4074 18.02 12.9431 17.5557 12.3704 17.5557Z" stroke="#0067B1" stroke-width="2" stroke-linecap="round" stroke-linejoin="round"/>
</g>
<defs>
<clipPath id="clip0_2460_757">
<rect width="32" height="32" fill="white"/>
</clipPath>
</defs>
</svg>
