<svg width="32" height="32" viewBox="0 0 32 32" fill="none" xmlns="http://www.w3.org/2000/svg">
<rect x="6" y="2" width="20" height="28" rx="2" stroke="#0067B1" stroke-width="2" stroke-linejoin="round"/>
<path d="M10 24H22" stroke="#0067B1" stroke-width="2" stroke-linecap="round" stroke-linejoin="round"/>
<path d="M16 18C19.3137 18 22 15.3137 22 12C22 8.68629 19.3137 6 16 6C12.6863 6 10 8.68629 10 12C10 15.3137 12.6863 18 16 18Z" stroke="#0067B1" stroke-width="2" stroke-linecap="round" stroke-linejoin="round"/>
<path d="M10 12H22" stroke="#0067B1" stroke-width="2" stroke-linecap="round" stroke-linejoin="round"/>
<path d="M16 6C17.2506 7.64301 17.9614 9.77522 18 12C17.9614 14.2248 17.2506 16.357 16 18C14.7494 16.357 14.0386 14.2248 14 12C14.0386 9.77522 14.7494 7.64301 16 6Z" stroke="#0067B1" stroke-width="2" stroke-linecap="round" stroke-linejoin="round"/>
</svg>
