<svg width="32" height="32" viewBox="0 0 32 32" fill="none" xmlns="http://www.w3.org/2000/svg">
<rect x="6" y="2" width="20" height="28" rx="2" stroke="#0067B1" stroke-width="2" stroke-linejoin="round"/>
<path d="M15.2325 6.52404C15.4741 5.82532 16.5259 5.82532 16.7675 6.52404L17.6307 9.02052C17.7387 9.333 18.0486 9.54456 18.3982 9.54456H21.1914C21.9732 9.54456 22.2983 10.4847 21.6658 10.9165L19.406 12.4594C19.1232 12.6525 19.0048 12.9949 19.1128 13.3073L19.976 15.8038C20.2176 16.5025 19.3666 17.0836 18.7341 16.6517L16.4744 15.1088C16.1915 14.9157 15.8085 14.9157 15.5256 15.1088L13.2659 16.6517C12.6334 17.0836 11.7824 16.5025 12.024 15.8038L12.8872 13.3073C12.9952 12.9949 12.8768 12.6525 12.594 12.4594L10.3342 10.9165C9.70174 10.4847 10.0268 9.54456 10.8086 9.54456H13.6018C13.9514 9.54456 14.2613 9.33299 14.3693 9.02052L15.2325 6.52404Z" fill="#0067B1"/>
</svg>
