<svg width="32" height="32" viewBox="0 0 32 32" fill="none" xmlns="http://www.w3.org/2000/svg">
<path d="M11.4749 8.22251C11.4749 8.22251 9.75246 7.37402 16.0001 7.37402C18.2377 7.37402 20.4249 8.03753 22.2854 9.28063C24.1458 10.5237 25.5958 12.2906 26.4521 14.3578C27.3084 16.425 27.5324 18.6997 27.0959 20.8942C26.6594 23.0888 25.5819 25.1046 23.9997 26.6867C22.4176 28.2689 20.4018 29.3464 18.2072 29.7829C16.0127 30.2194 13.738 29.9954 11.6708 29.1391C9.60359 28.2829 7.83672 26.8328 6.59362 24.9724C5.35052 23.112 4.68701 20.9247 4.68701 18.6872" stroke="#03182B" stroke-width="2" stroke-miterlimit="10" stroke-linecap="round"/>
<path d="M16.0003 2L10.3438 7.65656L16.0003 13.3131" stroke="#03182B" stroke-width="2" stroke-linecap="round" stroke-linejoin="round"/>
</svg>
