<svg width="32" height="32" viewBox="0 0 32 32" fill="none" xmlns="http://www.w3.org/2000/svg">
<path d="M30.243 14.9481C29.8612 14.4225 28.4429 14.0607 27.8428 13.1149C27.2428 12.1692 26.7516 10.121 25.2244 9.33404C23.6973 8.54708 20.7783 8.32617 19.1116 8.32617C17.4448 8.32617 14.528 8.54222 12.9987 9.33242C11.4694 10.1226 10.9804 12.1692 10.3803 13.1133C9.78028 14.0574 8.36197 14.4225 7.98017 14.9481C7.59838 15.4736 7.32962 18.7959 7.49317 20.4249C7.65672 22.0539 7.96194 23.0175 7.96194 23.0175H12.4414C13.1748 23.0175 13.4133 22.7318 14.9134 22.5854C16.5593 22.4234 18.174 22.3694 19.1116 22.3694C20.0491 22.3694 21.7159 22.4234 23.3608 22.5854C24.8609 22.7329 25.1072 23.0175 25.8328 23.0175H30.2602C30.2602 23.0175 30.5654 22.0539 30.7289 20.4249C30.8925 18.7959 30.6227 15.4736 30.243 14.9481ZM26.612 23.0175H29.5289V23.8817H26.612V23.0175ZM8.69428 23.0175H11.6111V23.8817H8.69428V23.0175Z" stroke="#0067B1" stroke-width="2" stroke-linecap="round" stroke-linejoin="round"/>
<path d="M24.247 18.6383C23.9672 18.3224 23.0552 18.0587 21.8479 17.882C20.6405 17.7053 20.2002 17.6595 19.1206 17.6595C18.0411 17.6595 17.5501 17.7354 16.3929 17.882C15.2357 18.0286 14.3669 18.2895 13.9943 18.6383C13.4351 19.1674 14.2542 19.7613 14.8972 19.8335C15.5203 19.9028 16.766 19.8774 19.1258 19.8774C21.4857 19.8774 22.7314 19.9028 23.3545 19.8335C23.9965 19.7571 24.7569 19.2044 24.247 18.6383ZM27.424 15.5805C27.4214 15.5437 27.4049 15.5092 27.3778 15.4836C27.3507 15.458 27.3149 15.4431 27.2772 15.4417C26.7181 15.4223 26.1504 15.4611 25.1433 15.7511C24.6295 15.8977 24.147 16.1336 23.7191 16.4477C23.6111 16.53 23.6495 16.7525 23.7849 16.7761C24.615 16.8712 25.45 16.9191 26.2858 16.9195C26.7872 16.9195 27.3047 16.7807 27.4008 16.3441C27.4498 16.0924 27.4577 15.8346 27.424 15.5805ZM10.7983 15.5805C10.801 15.5437 10.8174 15.5092 10.8445 15.4836C10.8716 15.458 10.9074 15.4431 10.9451 15.4417C11.5043 15.4223 12.072 15.4611 13.0791 15.7511C13.5929 15.8977 14.0753 16.1336 14.5033 16.4477C14.6112 16.53 14.5729 16.7525 14.4375 16.7761C13.6074 16.8712 12.7723 16.9191 11.9366 16.9195C11.4351 16.9195 10.9176 16.7807 10.8215 16.3441C10.7725 16.0924 10.7647 15.8346 10.7983 15.5805Z" fill="#0067B1"/>
<path d="M28.9147 12.2148H29.8059M8.41699 12.2148H9.3082M9.1968 14.1593C9.1968 14.1593 11.7785 12.9312 19.1114 12.9312C26.4444 12.9312 29.0261 14.1593 29.0261 14.1593" stroke="#0067B1" stroke-width="2" stroke-linecap="round" stroke-linejoin="round"/>
<path d="M22.4814 5.11111L13.2987 2L1.22217 6.66667L1.22217 14.4611C1.22217 18.0547 2.37408 21.2989 4.65934 24.2103C6.94459 27.1218 9.82439 29.0517 13.2987 30C15.8222 29.2992 18.032 28.0893 19.9281 26.3704" stroke="#0067B1" stroke-width="2" stroke-miterlimit="10" stroke-linecap="round" stroke-linejoin="round"/>
</svg>
