<svg width="32" height="32" viewBox="0 0 32 32" fill="none" xmlns="http://www.w3.org/2000/svg">
<path d="M10.5781 8.64068C11.9582 4.77029 15.6555 2 19.9999 2C25.5227 2 29.9999 6.47715 29.9999 12C29.9999 16.3229 27.2569 20.0051 23.4165 21.4011" stroke="#0067B1" stroke-width="2" stroke-linecap="round" stroke-linejoin="round"/>
<path d="M12 12H30" stroke="#0067B1" stroke-width="2" stroke-linecap="round" stroke-linejoin="round"/>
<path d="M23.0002 17.13C23.6203 15.503 23.9631 13.769 24 12C23.9228 8.29203 22.5013 4.73835 20 2C17.4987 4.73835 16.0772 8.29203 16 12C16.0514 14.4664 16.6975 16.8646 17.8606 19" stroke="#0067B1" stroke-width="2" stroke-linecap="round" stroke-linejoin="round"/>
<path d="M21.3757 25.6718C20.6123 24.9026 18.7632 23.7801 17.866 23.3277C16.6977 22.7393 16.6016 22.6912 15.6833 23.3734C15.0708 23.8287 15.1054 23.7773 14.3886 23.6244C13.6717 23.4715 12.114 22.6096 10.75 21.25C9.38602 19.8904 8.47398 18.2876 8.32061 17.5732C8.16725 16.8588 8.13889 16.9145 8.58986 16.3006C9.22545 15.4353 9.17737 15.291 8.63409 14.1228C8.21052 13.2142 7.05521 11.3826 6.28307 10.623C5.45709 9.80714 5.45709 9.95136 4.92487 10.1725C4.49157 10.3548 4.07588 10.5764 3.68301 10.8345C2.91376 11.3455 2.48683 11.77 2.18826 12.408C1.8897 13.0459 1.75556 14.5416 3.29742 17.3424C4.83929 20.1432 5.92104 21.5754 8.16004 23.808C10.399 26.0406 12.1207 27.241 14.6376 28.6525C17.7511 30.3962 18.9454 30.0563 19.5853 29.7582C20.2252 29.4601 20.6517 29.0371 21.1637 28.2679C21.4225 27.8757 21.6446 27.4605 21.8272 27.0276C22.0488 26.4973 22.1931 26.4973 21.3757 25.6718Z" stroke="#0067B1" stroke-width="2" stroke-miterlimit="10"/>
</svg>
