<svg width="32" height="32" viewBox="0 0 32 32" fill="none" xmlns="http://www.w3.org/2000/svg">
<path d="M28.1874 23.3752C27.1949 22.3752 24.7911 20.9159 23.6249 20.3277C22.1061 19.5627 21.9811 19.5002 20.7874 20.3871C19.9911 20.979 19.4617 21.5077 18.5299 21.309C17.598 21.1102 15.573 19.9896 13.7999 18.2221C12.0267 16.4546 10.8411 14.3709 10.6417 13.4421C10.4424 12.5134 10.9799 11.9902 11.5661 11.1921C12.3924 10.0671 12.3299 9.87962 11.6236 8.36087C11.073 7.17962 9.57112 4.79837 8.56737 3.81087C7.49362 2.75025 7.49362 2.93775 6.80174 3.22525C6.23848 3.46224 5.69809 3.75032 5.18737 4.08587C4.18737 4.75025 3.63237 5.30212 3.24424 6.1315C2.85612 6.96087 2.68174 8.90525 4.68612 12.5465C6.69049 16.1877 8.09674 18.0496 11.0074 20.9521C13.918 23.8546 16.1561 25.4152 19.428 27.2502C23.4755 29.5171 25.028 29.0752 25.8599 28.6877C26.6917 28.3002 27.2461 27.7502 27.9117 26.7502C28.2482 26.2404 28.5369 25.7006 28.7742 25.1377C29.0624 24.4484 29.2499 24.4484 28.1874 23.3752Z" stroke="#0067B1" stroke-width="2" stroke-miterlimit="10"/>
</svg>
