<svg width="32" height="32" viewBox="0 0 32 32" fill="none" xmlns="http://www.w3.org/2000/svg">
<g clip-path="url(#clip0_2460_746)">
<path d="M6.42382 20C6.01788 20 5.6888 19.6709 5.6888 19.265V17.8439C5.6888 17.6868 5.6971 17.5336 5.71371 17.3844C5.72753 17.3016 5.57087 17.207 5.50193 17.2548C5.37735 17.3412 5.24447 17.4276 5.10328 17.514L3.70925 18.2817C3.38713 18.4591 2.98253 18.3537 2.78788 18.0416C2.57728 17.7041 2.69389 17.2589 3.04293 17.0679L4.38071 16.3358C4.53021 16.2494 4.67555 16.1787 4.81674 16.1237C4.88226 16.0996 4.8811 15.9151 4.81674 15.8881C4.67555 15.8252 4.53021 15.7506 4.38071 15.6642L3.03035 14.9172C2.68683 14.7272 2.57133 14.289 2.77656 13.9543C2.96981 13.6392 3.37733 13.5328 3.69997 13.7132L5.10328 14.4978C5.24447 14.5842 5.37735 14.6745 5.50193 14.7688C5.5035 14.7698 5.50507 14.7708 5.50664 14.7719C5.56767 14.8118 5.72573 14.7111 5.71371 14.6392C5.6971 14.4899 5.6888 14.3368 5.6888 14.1797V12.735C5.6888 12.3291 6.01788 12 6.42382 12C6.82976 12 7.15884 12.3291 7.15884 12.735V14.1561C7.15884 14.3211 7.14638 14.4821 7.12146 14.6392C7.11347 14.711 7.27385 14.81 7.33325 14.7688C7.45783 14.6745 7.59486 14.5842 7.74436 14.4978L9.13977 13.7294C9.46112 13.5524 9.86474 13.6575 10.0589 13.9688C10.2697 14.3066 10.1519 14.7522 9.80169 14.9417L8.46692 15.6642C8.31742 15.7506 8.16793 15.8252 8.01843 15.8881C7.94045 15.9184 7.93912 16.0988 8.01753 16.128C8.16339 16.1823 8.31318 16.2516 8.46692 16.3358L9.81592 17.082C10.1602 17.2725 10.2759 17.7116 10.0703 18.047C9.87722 18.3618 9.47068 18.4689 9.14757 18.2902L7.74436 17.514C7.59486 17.4276 7.45783 17.3412 7.33325 17.2548C7.26389 17.2067 7.10787 17.3062 7.12242 17.3893C7.1467 17.5281 7.15884 17.6757 7.15884 17.8321V19.265C7.15884 19.6709 6.82976 20 6.42382 20Z" fill="#0067B1"/>
<path d="M16.3999 20C15.994 20 15.6649 19.6709 15.6649 19.265V17.8439C15.6649 17.6868 15.6732 17.5336 15.6898 17.3844C15.7036 17.3016 15.547 17.207 15.478 17.2548C15.3534 17.3412 15.2205 17.4276 15.0794 17.514L13.6853 18.2817C13.3632 18.459 12.9586 18.3537 12.764 18.0417C12.5534 17.7041 12.67 17.2589 13.019 17.0679L14.3568 16.3358C14.5063 16.2494 14.6516 16.1787 14.7928 16.1237C14.8583 16.0996 14.8572 15.9151 14.7928 15.8881C14.6516 15.8252 14.5063 15.7506 14.3568 15.6642L13.0064 14.9172C12.6629 14.7272 12.5474 14.289 12.7526 13.9543C12.9459 13.6392 13.3534 13.5328 13.6761 13.7132L15.0794 14.4978C15.2205 14.5842 15.3534 14.6745 15.478 14.7688C15.4796 14.7698 15.4812 14.7708 15.4827 14.7719C15.5438 14.8118 15.7018 14.7111 15.6898 14.6392C15.6732 14.4899 15.6649 14.3368 15.6649 14.1797V12.735C15.6649 12.3291 15.994 12 16.3999 12C16.8058 12 17.1349 12.3291 17.1349 12.735V14.1561C17.1349 14.3211 17.1225 14.4821 17.0975 14.6392C17.0895 14.711 17.2499 14.81 17.3093 14.7688C17.4339 14.6745 17.5709 14.5842 17.7204 14.4978L19.1159 13.7294C19.4372 13.5524 19.8408 13.6575 20.035 13.9688C20.2457 14.3066 20.128 14.7522 19.7778 14.9417L18.443 15.6642C18.2935 15.7506 18.144 15.8252 17.9945 15.8881C17.9165 15.9184 17.9152 16.0988 17.9936 16.128C18.1395 16.1823 18.2893 16.2516 18.443 16.3358L19.792 17.082C20.1363 17.2725 20.252 17.7116 20.0463 18.047C19.8533 18.3618 19.4468 18.4689 19.1237 18.2902L17.7204 17.514C17.5709 17.4276 17.4339 17.3412 17.3093 17.2548C17.24 17.2067 17.084 17.3062 17.0985 17.3893C17.1228 17.5281 17.1349 17.6757 17.1349 17.8321V19.265C17.1349 19.6709 16.8058 20 16.3999 20Z" fill="#0067B1"/>
<path d="M26.376 20C25.97 20 25.641 19.6709 25.641 19.265V17.8439C25.641 17.6868 25.6493 17.5336 25.6659 17.3844C25.6797 17.3016 25.523 17.207 25.4541 17.2548C25.3295 17.3412 25.1966 17.4276 25.0554 17.514L23.6614 18.2817C23.3393 18.459 22.9347 18.3537 22.7401 18.0417C22.5295 17.7041 22.6461 17.2589 22.9951 17.0679L24.3329 16.3358C24.4824 16.2494 24.6277 16.1787 24.7689 16.1237C24.8344 16.0996 24.8333 15.9151 24.7689 15.8881C24.6277 15.8252 24.4824 15.7506 24.3329 15.6642L22.9825 14.9172C22.639 14.7272 22.5235 14.289 22.7287 13.9543C22.922 13.6392 23.3295 13.5328 23.6521 13.7132L25.0554 14.4978C25.1966 14.5842 25.3295 14.6745 25.4541 14.7688C25.4557 14.7698 25.4572 14.7708 25.4588 14.7719C25.5198 14.8118 25.6779 14.7111 25.6659 14.6392C25.6493 14.4899 25.641 14.3368 25.641 14.1797V12.735C25.641 12.3291 25.97 12 26.376 12C26.7819 12 27.111 12.3291 27.111 12.735V14.1561C27.111 14.3211 27.0985 14.4821 27.0736 14.6392C27.0656 14.711 27.226 14.81 27.2854 14.7688C27.41 14.6745 27.547 14.5842 27.6965 14.4978L29.0919 13.7294C29.4133 13.5524 29.8169 13.6575 30.0111 13.9688C30.2218 14.3066 30.104 14.7522 29.7539 14.9417L28.4191 15.6642C28.2696 15.7506 28.1201 15.8252 27.9706 15.8881C27.8926 15.9184 27.8913 16.0988 27.9697 16.128C28.1156 16.1823 28.2654 16.2516 28.4191 16.3358L29.7681 17.082C30.1124 17.2725 30.2281 17.7116 30.0224 18.047C29.8294 18.3618 29.4228 18.4689 29.0997 18.2902L27.6965 17.514C27.547 17.4276 27.41 17.3412 27.2854 17.2548C27.2161 17.2067 27.06 17.3062 27.0746 17.3893C27.0989 17.5281 27.111 17.6757 27.111 17.8321V19.265C27.111 19.6709 26.7819 20 26.376 20Z" fill="#0067B1"/>
</g>
<defs>
<clipPath id="clip0_2460_746">
<rect width="32" height="32" fill="white"/>
</clipPath>
</defs>
</svg>
