<svg width="32" height="32" viewBox="0 0 32 32" fill="none" xmlns="http://www.w3.org/2000/svg">
<g clip-path="url(#clip0_2460_744)">
<path d="M21 29H29.5C29.6326 29 29.7598 28.9473 29.8536 28.8536C29.9473 28.7598 30 28.6326 30 28.5V10C30 9.73478 29.8946 9.48043 29.7071 9.29289C29.5196 9.10536 29.2652 9 29 9H22C21.7348 9 21.4804 9.10536 21.2929 9.29289C21.1054 9.48043 21 9.73478 21 10V29ZM21 29V4C21 3.73478 20.8946 3.48043 20.7071 3.29289C20.5196 3.10536 20.2652 3 20 3H12C11.7348 3 11.4804 3.10536 11.2929 3.29289C11.1054 3.48043 11 3.73478 11 4V29M21 29H11M11 29V14C11 13.7348 10.8946 13.4804 10.7071 13.2929C10.5196 13.1054 10.2652 13 10 13H3C2.73478 13 2.48043 13.1054 2.29289 13.2929C2.10536 13.4804 2 13.7348 2 14V28.5C2 28.6326 2.05268 28.7598 2.14645 28.8536C2.24021 28.9473 2.36739 29 2.5 29H11Z" stroke="#0067B1" stroke-width="2" stroke-linecap="round" stroke-linejoin="round"/>
</g>
<defs>
<clipPath id="clip0_2460_744">
<rect width="32" height="32" fill="white"/>
</clipPath>
</defs>
</svg>
