<svg width="32" height="32" viewBox="0 0 32 32" fill="none" xmlns="http://www.w3.org/2000/svg">
<path d="M12 7.25H28M12 16H28M12 24.75H28" stroke="#03182B" stroke-width="2" stroke-linecap="round" stroke-linejoin="round"/>
<path d="M5.5 23C6.32843 23 7 23.6716 7 24.5C7 25.3284 6.32843 26 5.5 26C4.67157 26 4 25.3284 4 24.5C4 23.6716 4.67157 23 5.5 23ZM5.5 14.5C6.32843 14.5 7 15.1716 7 16C7 16.8284 6.32843 17.5 5.5 17.5C4.67157 17.5 4 16.8284 4 16C4 15.1716 4.67157 14.5 5.5 14.5ZM5.5 6C6.32843 6 7 6.67157 7 7.5C7 8.32843 6.32843 9 5.5 9C4.67157 9 4 8.32843 4 7.5C4 6.67157 4.67157 6 5.5 6Z" fill="#03182B"/>
</svg>
