<svg width="32" height="32" viewBox="0 0 32 32" fill="none" xmlns="http://www.w3.org/2000/svg">
<path d="M12.0347 14.2197L17.7804 19.9654L9.83592 27.9099C8.90734 28.8384 7.40182 28.8384 6.47324 27.9099L4.09022 25.5268C3.16165 24.5983 3.16165 23.0927 4.09022 22.1642L12.0347 14.2197Z" stroke="#0067B1" stroke-width="2" stroke-linejoin="round"/>
<path d="M13.2461 8.44043L23.559 18.7534L17.78 19.96L12.04 14.22L13.2461 8.44043Z" stroke="#0067B1" stroke-width="2" stroke-linejoin="round"/>
<path d="M16.1603 5.52622C16.6246 5.06193 17.3774 5.06193 17.8416 5.52622L26.4732 14.1578C26.9375 14.6221 26.9375 15.3749 26.4732 15.8392L23.5638 18.7486L13.2508 8.43571L16.1603 5.52622Z" stroke="#0067B1" stroke-width="2" stroke-linejoin="round"/>
<path d="M11.75 20L7.99984 23.7502" stroke="#0067B1" stroke-width="2" stroke-linecap="round" stroke-linejoin="round"/>
</svg>
