<svg width="32" height="32" viewBox="0 0 32 32" fill="none" xmlns="http://www.w3.org/2000/svg">
<path d="M6.18164 6.30762L7.54528 27.8461C7.61005 29.0906 8.52709 29.9999 9.72709 29.9999H22.2725C23.4773 29.9999 24.3773 29.0906 24.4544 27.8461L25.818 6.30762" stroke="#EF3E42" stroke-width="2" stroke-linecap="round" stroke-linejoin="round"/>
<path d="M4 6.30762H28H4Z" fill="#EF3E42"/>
<path d="M4 6.30762H28" stroke="#EF3E42" stroke-width="2" stroke-miterlimit="10" stroke-linecap="round"/>
<path d="M11.6363 6.3077V3.61539C11.6356 3.40308 11.6775 3.19274 11.7596 2.99648C11.8416 2.80021 11.9621 2.62188 12.1141 2.47176C12.2662 2.32163 12.4469 2.20266 12.6457 2.1217C12.8445 2.04074 13.0576 1.99938 13.2726 2.00001H18.7272C18.9423 1.99938 19.1553 2.04074 19.3541 2.1217C19.553 2.20266 19.7336 2.32163 19.8857 2.47176C20.0377 2.62188 20.1583 2.80021 20.2403 2.99648C20.3223 3.19274 20.3642 3.40308 20.3635 3.61539V6.3077M15.9999 10.6154V25.6923M11.0908 10.6154L11.6363 25.6923M20.909 10.6154L20.3635 25.6923" stroke="#EF3E42" stroke-width="2" stroke-linecap="round" stroke-linejoin="round"/>
</svg>
