<svg width="32" height="32" viewBox="0 0 32 32" fill="none" xmlns="http://www.w3.org/2000/svg">
<path d="M25.125 10.5C24.9419 13.0419 23.0562 15 21 15C18.9437 15 17.055 13.0425 16.875 10.5C16.6875 7.85562 18.5231 6 21 6C23.4769 6 25.3125 7.90375 25.125 10.5Z" stroke="#0067B1" stroke-width="2" stroke-linecap="round" stroke-linejoin="round"/>
<path d="M20.9998 19C16.9266 19 13.0098 21.0231 12.0285 24.9631C11.8985 25.4844 12.2254 26 12.761 26H29.2391C29.7748 26 30.0998 25.4844 29.9716 24.9631C28.9904 20.96 25.0735 19 20.9998 19Z" stroke="#0067B1" stroke-width="2" stroke-miterlimit="10"/>
<path d="M12.5001 11.6213C12.3539 13.6513 10.8301 15.25 9.18761 15.25C7.54511 15.25 6.01886 13.6519 5.87511 11.6213C5.72573 9.50938 7.20886 8 9.18761 8C11.1664 8 12.6495 9.54813 12.5001 11.6213Z" stroke="#0067B1" stroke-width="2" stroke-linecap="round" stroke-linejoin="round"/>
<path d="M8.5 23.9998L2.60762 23.9998C2.18012 23.9998 1.91887 23.5879 2.022 23.1717C2.80637 20.0248 5.93762 18.4092 9.18762 18.4092C10.1722 18.4092 11.1153 18.5203 12 18.7924" stroke="#0067B1" stroke-width="2" stroke-miterlimit="10" stroke-linecap="round"/>
</svg>
