<svg width="32" height="32" viewBox="0 0 32 32" fill="none" xmlns="http://www.w3.org/2000/svg">
<path d="M16.0001 17.1078V28.1847C16.0001 28.7723 15.7667 29.3358 15.3512 29.7512C14.9358 30.1667 14.3723 30.4001 13.7847 30.4001C13.1972 30.4001 12.6337 30.1667 12.2182 29.7512C11.8027 29.3358 11.5693 28.7723 11.5693 28.1847M16.0001 17.1078L15.3293 16.6045C14.2857 15.8219 12.9949 15.442 11.6938 15.5345C10.3928 15.6269 9.16867 16.1856 8.24625 17.1078C7.80987 16.6714 7.2918 16.3252 6.72162 16.089C6.15145 15.8528 5.54033 15.7313 4.92317 15.7313C4.30602 15.7313 3.6949 15.8528 3.12473 16.089C2.55455 16.3252 2.03648 16.6714 1.6001 17.1078C1.6001 9.15456 8.04687 2.70779 16.0001 2.70779M16.0001 17.1078L16.6709 16.6045C17.7145 15.8219 19.0053 15.442 20.3064 15.5345C21.6074 15.6269 22.8315 16.1856 23.7539 17.1078C24.1903 16.6714 24.7084 16.3252 25.2786 16.089C25.8487 15.8528 26.4599 15.7313 27.077 15.7313C27.6942 15.7313 28.3053 15.8528 28.8755 16.089C29.4456 16.3252 29.9637 16.6714 30.4001 17.1078C30.4001 9.15456 23.9533 2.70779 16.0001 2.70779M16.0001 2.70779V1.6001" stroke="#0067B1" stroke-width="2" stroke-linecap="round" stroke-linejoin="round"/>
</svg>
