<svg width="32" height="32" viewBox="0 0 32 32" fill="none" xmlns="http://www.w3.org/2000/svg">
<path d="M18.0672 7.45491C17.7263 10.5233 15.5102 13.0803 12.9533 13.0803C10.3963 13.0803 8.18021 10.5233 7.83928 7.45491C7.66882 4.38652 9.88487 2 12.9533 2C16.0216 2 18.2377 4.38652 18.0672 7.45491Z" stroke="#0067B1" stroke-width="2" stroke-linecap="round" stroke-linejoin="round"/>
<path d="M13 26.0002H2.97589C2.23304 26.0002 1.86161 25.2574 2.04733 24.7002C2.97589 18.9431 8.5473 15.9717 13.933 15.9717C14.5494 15.9717 15.1738 16.0116 15.7963 16.0916" stroke="#0067B1" stroke-width="2" stroke-miterlimit="10" stroke-linecap="round" stroke-linejoin="round"/>
<path d="M26.4197 19.2176V15.2969C26.4197 14.4446 26.0788 13.5922 25.3969 13.0808C24.7151 12.5694 23.8627 12.2285 23.0104 12.2285C22.1581 12.2285 21.3057 12.5694 20.6239 13.0808C19.942 13.5922 19.6011 14.4446 19.6011 15.2969V19.2176" stroke="#0067B1" stroke-width="2" stroke-linecap="round" stroke-linejoin="round"/>
<path d="M27.9545 19.2168H18.4084C17.2151 19.2168 16.3628 20.0691 16.3628 21.0919V27.5696C16.3628 28.5924 17.2151 29.4448 18.4084 29.4448H27.9545C29.1477 29.4448 30.0001 28.5924 30.0001 27.5696V20.9215C30.0001 20.0691 29.1477 19.2168 27.9545 19.2168Z" stroke="#0067B1" stroke-width="2" stroke-linecap="round" stroke-linejoin="round"/>
<path d="M23.1809 25.0133C23.6517 25.0133 24.0333 24.6317 24.0333 24.1609C24.0333 23.6902 23.6517 23.3086 23.1809 23.3086C22.7102 23.3086 22.3286 23.6902 22.3286 24.1609C22.3286 24.6317 22.7102 25.0133 23.1809 25.0133Z" stroke="#0067B1" stroke-width="2"/>
</svg>
