<svg width="32" height="32" viewBox="0 0 32 32" fill="none" xmlns="http://www.w3.org/2000/svg">
<path d="M19.5044 7.94284C19.133 11.2857 16.7187 14.0714 13.933 14.0714C11.1473 14.0714 8.73302 11.2857 8.36159 7.94284C8.17588 4.59999 10.5902 2 13.933 2C17.2758 2 19.6901 4.59999 19.5044 7.94284Z" stroke="#0067B1" stroke-width="2" stroke-linecap="round" stroke-linejoin="round"/>
<path d="M15 28.0002H2.97589C2.23304 28.0002 1.86161 27.2574 2.04733 26.7002C2.97589 20.9431 8.5473 17.9717 13.933 17.9717C14.5494 17.9717 15.1738 18.0116 15.7963 18.0916" stroke="#0067B1" stroke-width="2" stroke-miterlimit="10" stroke-linecap="round" stroke-linejoin="round"/>
<path d="M24 30C27.3137 30 30 27.3137 30 24C30 20.6863 27.3137 18 24 18C20.6863 18 18 20.6863 18 24C18 27.3137 20.6863 30 24 30Z" stroke="#0067B1" stroke-width="2" stroke-miterlimit="10" stroke-linecap="round" stroke-linejoin="round"/>
<path d="M20 20L28 28L20 20Z" fill="#0067B1"/>
<path d="M20 20L28 28" stroke="#0067B1" stroke-width="2" stroke-miterlimit="10" stroke-linecap="round" stroke-linejoin="round"/>
</svg>
