<svg width="32" height="32" viewBox="0 0 32 32" fill="none" xmlns="http://www.w3.org/2000/svg">
<path d="M29.3567 14.6625C28.8986 14.0544 27.1967 13.6356 26.4767 12.5413C25.7567 11.4469 25.1673 9.07688 23.3348 8.16625C21.5023 7.25563 17.9998 7 15.9998 7C13.9998 7 10.4998 7.25 8.66484 8.16438C6.82984 9.07875 6.24297 11.4469 5.52297 12.5394C4.80297 13.6319 3.10109 14.0544 2.64297 14.6625C2.18484 15.2706 1.86234 19.115 2.05859 21C2.25484 22.885 2.62109 24 2.62109 24H7.99609C8.87609 24 9.16234 23.6694 10.9623 23.5C12.9373 23.3125 14.8748 23.25 15.9998 23.25C17.1248 23.25 19.1248 23.3125 21.0986 23.5C22.8986 23.6706 23.1942 24 24.0648 24H29.3773C29.3773 24 29.7436 22.885 29.9398 21C30.1361 19.115 29.8123 15.2706 29.3567 14.6625ZM24.9998 24H28.4998V25H24.9998V24ZM3.49984 24H6.99984V25H3.49984V24Z" stroke="#0067B1" stroke-width="2" stroke-linecap="round" stroke-linejoin="round"/>
<path d="M22.7795 19.3221C22.4102 18.8953 21.2064 18.539 19.6127 18.3003C18.0189 18.0615 17.4377 17.9996 16.0127 17.9996C14.5877 17.9996 13.9395 18.1021 12.412 18.3003C10.8845 18.4984 9.73766 18.8509 9.24578 19.3221C8.50766 20.0371 9.58891 20.8396 10.4377 20.9371C11.2602 21.0309 12.9045 20.9965 16.0195 20.9965C19.1345 20.9965 20.7789 21.0309 21.6014 20.9371C22.4489 20.834 23.4527 20.0871 22.7795 19.3221ZM26.9733 15.1903C26.9698 15.1406 26.9481 15.094 26.9123 15.0594C26.8765 15.0248 26.8293 15.0046 26.7795 15.0028C26.0414 14.9765 25.292 15.029 23.9627 15.4209C23.2844 15.6189 22.6475 15.9377 22.0827 16.3621C21.9402 16.4734 21.9908 16.774 22.1695 16.8059C23.2653 16.9344 24.3675 16.9991 25.4708 16.9996C26.1327 16.9996 26.8158 16.8121 26.9427 16.2221C27.0073 15.882 27.0177 15.5337 26.9733 15.1903ZM5.02703 15.1903C5.03054 15.1406 5.05226 15.094 5.08802 15.0594C5.12378 15.0248 5.17106 15.0046 5.22078 15.0028C5.95891 14.9765 6.70829 15.029 8.03766 15.4209C8.71589 15.6189 9.35277 15.9377 9.91766 16.3621C10.0602 16.4734 10.0095 16.774 9.83078 16.8059C8.73505 16.9344 7.63278 16.9991 6.52953 16.9996C5.86766 16.9996 5.18453 16.8121 5.05766 16.2221C4.99297 15.882 4.98264 15.5337 5.02703 15.1903Z" fill="#0067B1"/>
<path d="M27 12H28M4 12H5M4.875 13.1875C4.875 13.1875 7.77188 12.4375 16 12.4375C24.2281 12.4375 27.125 13.1875 27.125 13.1875" stroke="#0067B1" stroke-width="2" stroke-linecap="round" stroke-linejoin="round"/>
</svg>
