<svg width="32" height="32" viewBox="0 0 32 32" fill="none" xmlns="http://www.w3.org/2000/svg">
<g clip-path="url(#clip0_2460_750)">
<path d="M30 16V26.6667C30 28.5076 28.5535 30 26.7692 30H5.23077C3.44646 30 2 28.5076 2 26.6667V13.3333C2 11.4924 3.44646 10 5.23077 10H15" stroke="#0067B1" stroke-width="2" stroke-linecap="round" stroke-linejoin="round"/>
<path d="M30 10L20 10" stroke="#0067B1" stroke-width="2" stroke-linecap="round" stroke-linejoin="round"/>
<path d="M26 14L30 10L26 6" stroke="#0067B1" stroke-width="2" stroke-linecap="round" stroke-linejoin="round"/>
<path d="M2 13.3335V10.1572C1.99949 9.40251 2.25991 8.67129 2.73633 8.08966C3.21274 7.50804 3.8753 7.11248 4.60972 6.9712L16.6667 4" stroke="#0067B1" stroke-width="2" stroke-linecap="round" stroke-linejoin="round"/>
<path d="M24 22C23.6044 22 23.2178 21.8827 22.8889 21.6629C22.56 21.4432 22.3036 21.1308 22.1522 20.7654C22.0009 20.3999 21.9613 19.9978 22.0384 19.6098C22.1156 19.2219 22.3061 18.8655 22.5858 18.5858C22.8655 18.3061 23.2219 18.1156 23.6098 18.0384C23.9978 17.9613 24.3999 18.0009 24.7654 18.1522C25.1308 18.3036 25.4432 18.56 25.6629 18.8889C25.8827 19.2178 26 19.6044 26 20C26 20.5304 25.7893 21.0391 25.4142 21.4142C25.0391 21.7893 24.5304 22 24 22Z" fill="#0067B1"/>
</g>
<defs>
<clipPath id="clip0_2460_750">
<rect width="32" height="32" fill="white"/>
</clipPath>
</defs>
</svg>
