<svg width="32" height="32" viewBox="0 0 32 32" fill="none" xmlns="http://www.w3.org/2000/svg">
<g clip-path="url(#clip0_2460_752)">
<path d="M26.7692 9.33301H5.23077C3.44646 9.33301 2 10.8254 2 12.6663V25.9997C2 27.8406 3.44646 29.333 5.23077 29.333H26.7692C28.5535 29.333 30 27.8406 30 25.9997V12.6663C30 10.8254 28.5535 9.33301 26.7692 9.33301Z" stroke="#0067B1" stroke-width="2" stroke-linecap="round" stroke-linejoin="round"/>
<path d="M26 9.18505V5.90705C25.9998 5.4301 25.8924 4.95905 25.6854 4.52753C25.4784 4.096 25.1769 3.71464 24.8024 3.41064C24.4279 3.10664 23.9897 2.88751 23.519 2.76886C23.0483 2.65022 22.5567 2.635 22.0793 2.72429L4.68428 6.30471C3.92888 6.44599 3.24739 6.84155 2.75736 7.42317C2.26733 8.0048 1.99948 8.73601 2 9.49071V12.667" stroke="#0067B1" stroke-width="2" stroke-linecap="round" stroke-linejoin="round"/>
<path d="M22.6665 20.667C22.2709 20.667 21.8843 20.5497 21.5554 20.3299C21.2265 20.1102 20.9701 19.7978 20.8187 19.4324C20.6674 19.0669 20.6278 18.6648 20.7049 18.2768C20.7821 17.8889 20.9726 17.5325 21.2523 17.2528C21.532 16.9731 21.8884 16.7826 22.2763 16.7054C22.6643 16.6283 23.0664 16.6679 23.4319 16.8192C23.7973 16.9706 24.1097 17.227 24.3294 17.5559C24.5492 17.8848 24.6665 18.2714 24.6665 18.667C24.6665 19.1974 24.4558 19.7061 24.0807 20.0812C23.7056 20.4563 23.1969 20.667 22.6665 20.667Z" fill="#0067B1"/>
</g>
<defs>
<clipPath id="clip0_2460_752">
<rect width="32" height="32" fill="white"/>
</clipPath>
</defs>
</svg>
