<svg width="24" height="24" viewBox="0 0 24 24" fill="none" xmlns="http://www.w3.org/2000/svg">
<g clip-path="url(#clip0_2451_9330)">
<g clip-path="url(#clip1_2451_9330)">
<path d="M15.2311 18.4613V19.269C15.2311 20.1258 14.8907 20.9476 14.2848 21.5535C13.6789 22.1594 12.8571 22.4998 12.0003 22.4998C11.1434 22.4998 10.3216 22.1594 9.71574 21.5535C9.10985 20.9476 8.76946 20.1258 8.76946 19.269V18.4613M20.6669 16.8171C19.3705 15.2305 18.4553 14.4228 18.4553 10.0487C18.4553 6.04303 16.4098 4.61593 14.7263 3.92283C14.5026 3.83096 14.2921 3.61995 14.224 3.39026C13.9286 2.38519 13.1008 1.49976 12.0003 1.49976C10.8998 1.49976 10.0714 2.38569 9.77909 3.39127C9.71094 3.62348 9.50043 3.83096 9.2768 3.92283C7.59123 4.61694 5.54775 6.03899 5.54775 10.0487C5.54522 14.4228 4.63 15.2305 3.33364 16.8171C2.79652 17.4744 3.267 18.4613 4.20646 18.4613H19.7991C20.7335 18.4613 21.201 17.4714 20.6669 16.8171Z" stroke="#03182B" stroke-width="1.5" stroke-linecap="round" stroke-linejoin="round"/>
</g>
</g>
<defs>
<clipPath id="clip0_2451_9330">
<rect width="24" height="24" fill="white" transform="translate(0 -0.000244141)"/>
</clipPath>
<clipPath id="clip1_2451_9330">
<rect width="24" height="24" fill="white" transform="translate(0 -0.000244141)"/>
</clipPath>
</defs>
</svg>
