<svg width="24" height="24" viewBox="0 0 24 24" fill="none" xmlns="http://www.w3.org/2000/svg">
<path d="M12 7.49976C12.75 4.53914 15.5827 3.02742 21.75 2.99976C21.8486 2.99939 21.9463 3.01854 22.0375 3.05609C22.1286 3.09365 22.2114 3.14888 22.2812 3.2186C22.3509 3.28832 22.4061 3.37115 22.4437 3.46231C22.4812 3.55347 22.5004 3.65117 22.5 3.74976V17.2498C22.5 17.4487 22.421 17.6394 22.2803 17.7801C22.1397 17.9207 21.9489 17.9998 21.75 17.9998C15.75 17.9998 13.432 19.2096 12 20.9998M12 7.49976C11.25 4.53914 8.41735 3.02742 2.25001 2.99976C2.15141 2.99939 2.05372 3.01854 1.96255 3.05609C1.87139 3.09365 1.78856 3.14888 1.71885 3.2186C1.64913 3.28832 1.5939 3.37115 1.55634 3.46231C1.51878 3.55347 1.49963 3.65117 1.50001 3.74976V17.1593C1.50001 17.6224 1.78688 17.9998 2.25001 17.9998C8.25001 17.9998 10.5764 19.2185 12 20.9998M12 7.49976V20.9998" stroke="#0067B1" stroke-width="1.5" stroke-linecap="round" stroke-linejoin="round"/>
</svg>
