<svg width="24" height="24" viewBox="0 0 24 24" fill="none" xmlns="http://www.w3.org/2000/svg">
<path d="M19.6731 2.24976H4.32692C3.57783 2.2519 2.86003 2.5522 2.33034 3.08504C1.80065 3.61788 1.50213 4.33996 1.5 5.09351V14.8435C1.50213 15.5971 1.80065 16.3191 2.33034 16.852C2.86003 17.3848 3.57783 17.6851 4.32692 17.6873H6.34615V21.7498L11.0772 17.7817C11.1499 17.7207 11.2415 17.6872 11.3362 17.6873H19.6731C20.4222 17.6851 21.14 17.3848 21.6697 16.852C22.1993 16.3191 22.4979 15.5971 22.5 14.8435V5.09351C22.4979 4.33996 22.1993 3.61788 21.6697 3.08504C21.14 2.5522 20.4222 2.2519 19.6731 2.24976Z" stroke="#0067B1" stroke-width="1.5" stroke-linejoin="round"/>
<path d="M16.8506 9.04886C16.9722 8.9655 16.9132 8.77515 16.7658 8.77515H13.3275C13.2625 8.77515 13.2049 8.73331 13.1848 8.67151L12.1424 5.46409C12.0975 5.3259 11.902 5.3259 11.8571 5.46409L10.8147 8.67151C10.7946 8.73331 10.737 8.77515 10.672 8.77515H7.23374C7.08634 8.77515 7.02735 8.9655 7.14892 9.04886L9.93743 10.961C9.99279 10.9989 10.0162 11.0691 9.99472 11.1327L8.91558 14.3301C8.86887 14.4685 9.02743 14.5853 9.14572 14.4995L11.9117 12.4952C11.9642 12.4571 12.0353 12.4571 12.0878 12.4952L14.8538 14.4995C14.9721 14.5853 15.1306 14.4685 15.0839 14.3301L14.0048 11.1327C13.9833 11.0691 14.0067 10.9989 14.0621 10.961L16.8506 9.04886Z" stroke="#0067B1" stroke-width="1.5" stroke-linejoin="round"/>
</svg>
