<svg width="24" height="24" viewBox="0 0 24 24" fill="none" xmlns="http://www.w3.org/2000/svg">
<path d="M19.6731 2.24976H4.32692C3.57783 2.2519 2.86003 2.5522 2.33034 3.08504C1.80065 3.61788 1.50213 4.33996 1.5 5.09351V14.8435C1.50213 15.5971 1.80065 16.3191 2.33034 16.852C2.86003 17.3848 3.57783 17.6851 4.32692 17.6873H6.34615V21.7498L11.0772 17.7817C11.1499 17.7207 11.2415 17.6872 11.3362 17.6873H19.6731C20.4222 17.6851 21.14 17.3848 21.6697 16.852C22.1993 16.3191 22.4979 15.5971 22.5 14.8435V5.09351C22.4979 4.33996 22.1993 3.61788 21.6697 3.08504C21.14 2.5522 20.4222 2.2519 19.6731 2.24976Z" stroke="#0067B1" stroke-width="1.5" stroke-linejoin="round"/>
<path d="M9.75 8.0866C9.91811 7.24418 10.7588 5.66004 12.7761 6.06475C14.3484 6.3802 14.8827 8.54732 13.2804 9.35021C12.0196 9.98203 12.0196 11.1193 12.0196 11.6248" stroke="#0067B1" stroke-width="1.5" stroke-linecap="round" stroke-linejoin="round"/>
<path fill-rule="evenodd" clip-rule="evenodd" d="M12 13.4998C12.4142 13.4998 12.75 13.8355 12.75 14.2498C12.75 14.664 12.4142 14.9998 12 14.9998C11.5858 14.9998 11.25 14.664 11.25 14.2498C11.25 13.8355 11.5858 13.4998 12 13.4998Z" fill="#0067B1"/>
</svg>
