<svg width="24" height="24" viewBox="0 0 24 24" fill="none" xmlns="http://www.w3.org/2000/svg">
<g clip-path="url(#clip0_757_1755)">
<path d="M8.25 19.4998V22.4998M8.25 22.4998H14.25V2.99976C14.25 2.17133 13.5784 1.49976 12.75 1.49976H3.75C2.92157 1.49976 2.25 2.17133 2.25 2.99976V22.4998H8.25Z" stroke="#0067B1" stroke-width="1.5" stroke-linecap="round" stroke-linejoin="round"/>
<path d="M14.25 10.4998C14.25 9.67133 14.9216 8.99976 15.75 8.99976H20.25C21.0784 8.99976 21.75 9.67133 21.75 10.4998V22.4998H14.25V10.4998Z" stroke="#0067B1" stroke-width="1.5" stroke-linecap="round" stroke-linejoin="round"/>
<path d="M4.59775 20.2437C4.44242 20.264 4.28463 20.2351 4.14652 20.1612C4.00841 20.0873 3.89692 19.972 3.82769 19.8314C3.75847 19.6909 3.73498 19.5322 3.76053 19.3777C3.78608 19.2231 3.85939 19.0804 3.97016 18.9697C4.08093 18.8589 4.2236 18.7856 4.37816 18.76C4.53272 18.7345 4.69139 18.758 4.83192 18.8272C4.97245 18.8964 5.08777 19.0079 5.1617 19.146C5.23564 19.2841 5.26447 19.4419 5.24416 19.5973C5.22272 19.7612 5.14772 19.9134 5.03082 20.0303C4.91392 20.1472 4.76167 20.2222 4.59775 20.2437ZM4.59775 16.4937C4.44242 16.514 4.28463 16.4851 4.14652 16.4112C4.00841 16.3373 3.89692 16.222 3.82769 16.0814C3.75847 15.9409 3.73498 15.7822 3.76053 15.6277C3.78608 15.4731 3.85939 15.3304 3.97016 15.2197C4.08093 15.1089 4.2236 15.0356 4.37816 15.01C4.53272 14.9845 4.69139 15.008 4.83192 15.0772C4.97245 15.1464 5.08777 15.2579 5.1617 15.396C5.23564 15.5341 5.26447 15.6919 5.24416 15.8473C5.22272 16.0112 5.14772 16.1634 5.03082 16.2803C4.91392 16.3972 4.76167 16.4722 4.59775 16.4937ZM4.59775 12.7437C4.44242 12.764 4.28463 12.7351 4.14652 12.6612C4.00841 12.5873 3.89692 12.472 3.82769 12.3314C3.75847 12.1909 3.73498 12.0322 3.76053 11.8777C3.78608 11.7231 3.85939 11.5804 3.97016 11.4697C4.08093 11.3589 4.2236 11.2856 4.37816 11.26C4.53272 11.2345 4.69139 11.258 4.83192 11.3272C4.97245 11.3964 5.08777 11.5079 5.1617 11.646C5.23564 11.7841 5.26447 11.9419 5.24416 12.0973C5.22272 12.2612 5.14772 12.4134 5.03082 12.5303C4.91392 12.6472 4.76167 12.7222 4.59775 12.7437ZM4.59775 8.99366C4.44242 9.01398 4.28463 8.98514 4.14652 8.91121C4.00841 8.83728 3.89692 8.72195 3.82769 8.58142C3.75847 8.4409 3.73498 8.28222 3.76053 8.12767C3.78608 7.97311 3.85939 7.83044 3.97016 7.71967C4.08093 7.6089 4.2236 7.53559 4.37816 7.51004C4.53272 7.48449 4.69139 7.50797 4.83192 7.5772C4.97245 7.64643 5.08777 7.75792 5.1617 7.89602C5.23564 8.03413 5.26447 8.19193 5.24416 8.34726C5.22272 8.51118 5.14772 8.66343 5.03082 8.78033C4.91392 8.89722 4.76167 8.97222 4.59775 8.99366ZM4.59775 5.24366C4.44242 5.26398 4.28463 5.23514 4.14652 5.16121C4.00841 5.08728 3.89692 4.97195 3.82769 4.83142C3.75847 4.6909 3.73498 4.53222 3.76053 4.37767C3.78608 4.22311 3.85939 4.08044 3.97016 3.96967C4.08093 3.85889 4.2236 3.78559 4.37816 3.76004C4.53272 3.73449 4.69139 3.75797 4.83192 3.8272C4.97245 3.89643 5.08777 4.00792 5.1617 4.14602C5.23564 4.28413 5.26447 4.44193 5.24416 4.59726C5.22272 4.76118 5.14772 4.91343 5.03082 5.03033C4.91392 5.14722 4.76167 5.22222 4.59775 5.24366ZM8.34775 16.4937C8.19242 16.514 8.03463 16.4851 7.89652 16.4112C7.75841 16.3373 7.64692 16.222 7.57769 16.0814C7.50847 15.9409 7.48498 15.7822 7.51053 15.6277C7.53608 15.4731 7.60939 15.3304 7.72016 15.2197C7.83093 15.1089 7.97361 15.0356 8.12816 15.01C8.28272 14.9845 8.44139 15.008 8.58192 15.0772C8.72245 15.1464 8.83777 15.2579 8.9117 15.396C8.98564 15.5341 9.01447 15.6919 8.99416 15.8473C8.97272 16.0112 8.89772 16.1634 8.78082 16.2803C8.66392 16.3972 8.51167 16.4722 8.34775 16.4937ZM8.34775 12.7437C8.19242 12.764 8.03463 12.7351 7.89652 12.6612C7.75841 12.5873 7.64692 12.472 7.57769 12.3314C7.50847 12.1909 7.48498 12.0322 7.51053 11.8777C7.53608 11.7231 7.60939 11.5804 7.72016 11.4697C7.83093 11.3589 7.97361 11.2856 8.12816 11.26C8.28272 11.2345 8.44139 11.258 8.58192 11.3272C8.72245 11.3964 8.83777 11.5079 8.9117 11.646C8.98564 11.7841 9.01447 11.9419 8.99416 12.0973C8.97272 12.2612 8.89772 12.4134 8.78082 12.5303C8.66392 12.6472 8.51167 12.7222 8.34775 12.7437ZM8.34775 8.99366C8.19242 9.01398 8.03463 8.98514 7.89652 8.91121C7.75841 8.83728 7.64692 8.72195 7.57769 8.58142C7.50847 8.4409 7.48498 8.28222 7.51053 8.12767C7.53608 7.97311 7.60939 7.83044 7.72016 7.71967C7.83093 7.6089 7.97361 7.53559 8.12816 7.51004C8.28272 7.48449 8.44139 7.50797 8.58192 7.5772C8.72245 7.64643 8.83777 7.75792 8.9117 7.89602C8.98564 8.03413 9.01447 8.19193 8.99416 8.34726C8.97272 8.51118 8.89772 8.66343 8.78082 8.78033C8.66392 8.89722 8.51167 8.97222 8.34775 8.99366ZM8.34775 5.24366C8.19242 5.26398 8.03463 5.23514 7.89652 5.16121C7.75841 5.08728 7.64692 4.97195 7.57769 4.83142C7.50847 4.6909 7.48498 4.53222 7.51053 4.37767C7.53608 4.22311 7.60939 4.08044 7.72016 3.96967C7.83093 3.85889 7.97361 3.78559 8.12816 3.76004C8.28272 3.73449 8.44139 3.75797 8.58192 3.8272C8.72245 3.89643 8.83777 4.00792 8.9117 4.14602C8.98564 4.28413 9.01447 4.44193 8.99416 4.59726C8.97272 4.76118 8.89772 4.91343 8.78082 5.03033C8.66392 5.14722 8.51167 5.22222 8.34775 5.24366ZM12.0977 20.2437C11.9424 20.264 11.7846 20.2351 11.6465 20.1612C11.5084 20.0873 11.3969 19.972 11.3277 19.8314C11.2585 19.6909 11.235 19.5322 11.2605 19.3777C11.2861 19.2231 11.3594 19.0804 11.4702 18.9697C11.5809 18.8589 11.7236 18.7856 11.8782 18.76C12.0327 18.7345 12.1914 18.758 12.3319 18.8272C12.4724 18.8964 12.5878 19.0079 12.6617 19.146C12.7356 19.2841 12.7645 19.4419 12.7442 19.5973C12.7227 19.7612 12.6477 19.9134 12.5308 20.0303C12.4139 20.1472 12.2617 20.2222 12.0977 20.2437ZM12.0977 16.4937C11.9424 16.514 11.7846 16.4851 11.6465 16.4112C11.5084 16.3373 11.3969 16.222 11.3277 16.0814C11.2585 15.9409 11.235 15.7822 11.2605 15.6277C11.2861 15.4731 11.3594 15.3304 11.4702 15.2197C11.5809 15.1089 11.7236 15.0356 11.8782 15.01C12.0327 14.9845 12.1914 15.008 12.3319 15.0772C12.4724 15.1464 12.5878 15.2579 12.6617 15.396C12.7356 15.5341 12.7645 15.6919 12.7442 15.8473C12.7227 16.0112 12.6477 16.1634 12.5308 16.2803C12.4139 16.3972 12.2617 16.4722 12.0977 16.4937ZM12.0977 12.7437C11.9424 12.764 11.7846 12.7351 11.6465 12.6612C11.5084 12.5873 11.3969 12.472 11.3277 12.3314C11.2585 12.1909 11.235 12.0322 11.2605 11.8777C11.2861 11.7231 11.3594 11.5804 11.4702 11.4697C11.5809 11.3589 11.7236 11.2856 11.8782 11.26C12.0327 11.2345 12.1914 11.258 12.3319 11.3272C12.4724 11.3964 12.5878 11.5079 12.6617 11.646C12.7356 11.7841 12.7645 11.9419 12.7442 12.0973C12.7227 12.2612 12.6477 12.4134 12.5308 12.5303C12.4139 12.6472 12.2617 12.7222 12.0977 12.7437Z" fill="#0067B1"/>
<path d="M12.5316 8.78069C12.8235 8.48872 12.8224 8.01414 12.5289 7.7207C12.2355 7.42725 11.7609 7.42607 11.4689 7.71804C11.1769 8.01002 11.1781 8.4846 11.4716 8.77804C11.765 9.07148 12.2396 9.07267 12.5316 8.78069Z" fill="#0067B1"/>
<path d="M11.6465 5.16097C11.7846 5.23491 11.9424 5.26374 12.0977 5.24342C12.2616 5.22198 12.4139 5.14699 12.5308 5.03009C12.6477 4.91319 12.7227 4.76094 12.7441 4.59702C12.7644 4.44169 12.7356 4.28389 12.6616 4.14579C12.5877 4.00768 12.4724 3.89619 12.3319 3.82696C12.1913 3.75773 12.0327 3.73425 11.8781 3.7598C11.7235 3.78535 11.5809 3.85866 11.4701 3.96943C11.3593 4.0802 11.286 4.22287 11.2605 4.37743C11.2349 4.53198 11.2584 4.69066 11.3276 4.83119C11.3969 4.97171 11.5084 5.08704 11.6465 5.16097Z" fill="#0067B1"/>
<path d="M18.75 18.7498C18.6017 18.7498 18.4567 18.7937 18.3333 18.8762C18.21 18.9586 18.1139 19.0757 18.0571 19.2127C18.0003 19.3498 17.9855 19.5006 18.0144 19.6461C18.0434 19.7916 18.1148 19.9252 18.2197 20.0301C18.3246 20.135 18.4582 20.2064 18.6037 20.2353C18.7492 20.2643 18.9 20.2494 19.037 20.1927C19.1741 20.1359 19.2912 20.0398 19.3736 19.9164C19.456 19.7931 19.5 19.6481 19.5 19.4998C19.5 19.3008 19.421 19.1101 19.2803 18.9694C19.1397 18.8288 18.9489 18.7498 18.75 18.7498ZM18.75 14.9998C18.6017 14.9998 18.4567 15.0437 18.3333 15.1262C18.21 15.2086 18.1139 15.3257 18.0571 15.4627C18.0003 15.5998 17.9855 15.7506 18.0144 15.8961C18.0434 16.0416 18.1148 16.1752 18.2197 16.2801C18.3246 16.385 18.4582 16.4564 18.6037 16.4853C18.7492 16.5143 18.9 16.4994 19.037 16.4427C19.1741 16.3859 19.2912 16.2898 19.3736 16.1664C19.456 16.0431 19.5 15.8981 19.5 15.7498C19.5 15.5508 19.421 15.3601 19.2803 15.2194C19.1397 15.0788 18.9489 14.9998 18.75 14.9998ZM18.75 11.2498C18.6017 11.2498 18.4567 11.2937 18.3333 11.3762C18.21 11.4586 18.1139 11.5757 18.0571 11.7127C18.0003 11.8498 17.9855 12.0006 18.0144 12.1461C18.0434 12.2916 18.1148 12.4252 18.2197 12.5301C18.3246 12.635 18.4582 12.7064 18.6037 12.7353C18.7492 12.7643 18.9 12.7494 19.037 12.6927C19.1741 12.6359 19.2912 12.5398 19.3736 12.4164C19.456 12.2931 19.5 12.1481 19.5 11.9998C19.5 11.8008 19.421 11.6101 19.2803 11.4694C19.1397 11.3288 18.9489 11.2498 18.75 11.2498ZM15.75 18.7498C15.6017 18.7498 15.4567 18.7937 15.3333 18.8762C15.21 18.9586 15.1139 19.0757 15.0571 19.2127C15.0003 19.3498 14.9855 19.5006 15.0144 19.6461C15.0434 19.7916 15.1148 19.9252 15.2197 20.0301C15.3246 20.135 15.4582 20.2064 15.6037 20.2353C15.7492 20.2643 15.9 20.2494 16.037 20.1927C16.1741 20.1359 16.2912 20.0398 16.3736 19.9164C16.456 19.7931 16.5 19.6481 16.5 19.4998C16.5 19.3008 16.421 19.1101 16.2803 18.9694C16.1397 18.8288 15.9489 18.7498 15.75 18.7498ZM15.75 14.9998C15.6017 14.9998 15.4567 15.0437 15.3333 15.1262C15.21 15.2086 15.1139 15.3257 15.0571 15.4627C15.0003 15.5998 14.9855 15.7506 15.0144 15.8961C15.0434 16.0416 15.1148 16.1752 15.2197 16.2801C15.3246 16.385 15.4582 16.4564 15.6037 16.4853C15.7492 16.5143 15.9 16.4994 16.037 16.4427C16.1741 16.3859 16.2912 16.2898 16.3736 16.1664C16.456 16.0431 16.5 15.8981 16.5 15.7498C16.5 15.5508 16.421 15.3601 16.2803 15.2194C16.1397 15.0788 15.9489 14.9998 15.75 14.9998ZM15.75 11.2498C15.6017 11.2498 15.4567 11.2937 15.3333 11.3762C15.21 11.4586 15.1139 11.5757 15.0571 11.7127C15.0003 11.8498 14.9855 12.0006 15.0144 12.1461C15.0434 12.2916 15.1148 12.4252 15.2197 12.5301C15.3246 12.635 15.4582 12.7064 15.6037 12.7353C15.7492 12.7643 15.9 12.7494 16.037 12.6927C16.1741 12.6359 16.2912 12.5398 16.3736 12.4164C16.456 12.2931 16.5 12.1481 16.5 11.9998C16.5 11.8008 16.421 11.6101 16.2803 11.4694C16.1397 11.3288 15.9489 11.2498 15.75 11.2498Z" fill="#0067B1"/>
</g>
<defs>
<clipPath id="clip0_757_1755">
<rect width="24" height="24" fill="white" transform="translate(0 -0.000244141)"/>
</clipPath>
</defs>
</svg>
