<svg width="24" height="24" viewBox="0 0 24 24" fill="none" xmlns="http://www.w3.org/2000/svg">
<path d="M17.8333 2.24976H6.16667C5.24619 2.24976 4.5 2.92133 4.5 3.74976V20.2498C4.5 21.0782 5.24619 21.7498 6.16667 21.7498H17.8333C18.7538 21.7498 19.5 21.0782 19.5 20.2498V3.74976C19.5 2.92133 18.7538 2.24976 17.8333 2.24976Z" stroke="#0067B1" stroke-width="1.5" stroke-linecap="round" stroke-linejoin="round"/>
<path d="M6.75 4.49976H17.25V7.49976H6.75V4.49976Z" stroke="#0067B1" stroke-width="1.5" stroke-linecap="round" stroke-linejoin="round"/>
<path d="M7.875 11.9998C8.49632 11.9998 9 11.4961 9 10.8748C9 10.2534 8.49632 9.74976 7.875 9.74976C7.25368 9.74976 6.75 10.2534 6.75 10.8748C6.75 11.4961 7.25368 11.9998 7.875 11.9998Z" fill="#0067B1"/>
<path d="M12 11.9998C12.6213 11.9998 13.125 11.4961 13.125 10.8748C13.125 10.2534 12.6213 9.74976 12 9.74976C11.3787 9.74976 10.875 10.2534 10.875 10.8748C10.875 11.4961 11.3787 11.9998 12 11.9998Z" fill="#0067B1"/>
<path d="M16.125 11.9998C16.7463 11.9998 17.25 11.4961 17.25 10.8748C17.25 10.2534 16.7463 9.74976 16.125 9.74976C15.5037 9.74976 15 10.2534 15 10.8748C15 11.4961 15.5037 11.9998 16.125 11.9998Z" fill="#0067B1"/>
<path d="M7.875 15.7498C8.49632 15.7498 9 15.2461 9 14.6248C9 14.0034 8.49632 13.4998 7.875 13.4998C7.25368 13.4998 6.75 14.0034 6.75 14.6248C6.75 15.2461 7.25368 15.7498 7.875 15.7498Z" fill="#0067B1"/>
<path d="M12 15.7498C12.6213 15.7498 13.125 15.2461 13.125 14.6248C13.125 14.0034 12.6213 13.4998 12 13.4998C11.3787 13.4998 10.875 14.0034 10.875 14.6248C10.875 15.2461 11.3787 15.7498 12 15.7498Z" fill="#0067B1"/>
<path d="M7.875 19.4998C8.49632 19.4998 9 18.9961 9 18.3748C9 17.7534 8.49632 17.2498 7.875 17.2498C7.25368 17.2498 6.75 17.7534 6.75 18.3748C6.75 18.9961 7.25368 19.4998 7.875 19.4998Z" fill="#0067B1"/>
<path d="M12 19.4998C12.6213 19.4998 13.125 18.9961 13.125 18.3748C13.125 17.7534 12.6213 17.2498 12 17.2498C11.3787 17.2498 10.875 17.7534 10.875 18.3748C10.875 18.9961 11.3787 19.4998 12 19.4998Z" fill="#0067B1"/>
<path d="M17.25 14.6248C17.25 14.0034 16.7463 13.4998 16.125 13.4998C15.5037 13.4998 15 14.0034 15 14.6248V18.3748C15 18.9961 15.5037 19.4998 16.125 19.4998C16.7463 19.4998 17.25 18.9961 17.25 18.3748V14.6248Z" fill="#0067B1"/>
</svg>
