<svg width="24" height="24" viewBox="0 0 24 24" fill="none" xmlns="http://www.w3.org/2000/svg">
<g clip-path="url(#clip0_2451_9336)">
<g clip-path="url(#clip1_2451_9336)">
<rect x="1.5" y="2.99976" width="21" height="19.5" rx="1.5" stroke="#0067B1" stroke-width="1.5" stroke-linecap="round" stroke-linejoin="round"/>
<path d="M6 1.49976V2.99976M18 1.49976V2.99976" stroke="#0067B1" stroke-width="1.5" stroke-linecap="round" stroke-linejoin="round"/>
<path d="M21.75 7.49976H2.25" stroke="#0067B1" stroke-width="1.5" stroke-linecap="round" stroke-linejoin="round"/>
<path d="M14.4001 13.1998C14.4001 12.2098 13.3921 11.3998 12.1501 11.3998M12.1501 11.3998C10.9081 11.3998 9.90015 12.2098 9.90015 13.1998C9.90015 14.1897 10.9081 14.9997 12.1501 14.9997C13.3921 14.9997 14.4001 15.8097 14.4001 16.7997C14.4001 17.7897 13.3921 18.5997 12.1501 18.5997M12.1501 11.3998L12.1501 10.4998M12.1501 18.5997C10.9081 18.5997 9.90015 17.7897 9.90015 16.7997M12.1501 18.5997L12.1501 19.4998" stroke="#0067B1" stroke-width="1.5" stroke-miterlimit="10" stroke-linecap="round" stroke-linejoin="round"/>
</g>
</g>
<defs>
<clipPath id="clip0_2451_9336">
<rect width="24" height="24" fill="white" transform="translate(0 -0.000244141)"/>
</clipPath>
<clipPath id="clip1_2451_9336">
<rect width="24" height="24" fill="white" transform="translate(0 -0.000244141)"/>
</clipPath>
</defs>
</svg>
