<svg width="24" height="24" viewBox="0 0 24 24" fill="none" xmlns="http://www.w3.org/2000/svg">
<g clip-path="url(#clip0_2451_9337)">
<g clip-path="url(#clip1_2451_9337)">
<rect x="1.5" y="2.99976" width="21" height="19.5" rx="1.5" stroke="#03182B" stroke-width="1.5" stroke-linecap="round" stroke-linejoin="round"/>
<path d="M13.875 12.3748C14.4963 12.3748 15 11.8711 15 11.2498C15 10.6284 14.4963 10.1248 13.875 10.1248C13.2537 10.1248 12.75 10.6284 12.75 11.2498C12.75 11.8711 13.2537 12.3748 13.875 12.3748Z" fill="#03182B"/>
<path d="M17.625 12.3748C18.2463 12.3748 18.75 11.8711 18.75 11.2498C18.75 10.6284 18.2463 10.1248 17.625 10.1248C17.0037 10.1248 16.5 10.6284 16.5 11.2498C16.5 11.8711 17.0037 12.3748 17.625 12.3748Z" fill="#03182B"/>
<path d="M13.875 16.1248C14.4963 16.1248 15 15.6211 15 14.9998C15 14.3784 14.4963 13.8748 13.875 13.8748C13.2537 13.8748 12.75 14.3784 12.75 14.9998C12.75 15.6211 13.2537 16.1248 13.875 16.1248Z" fill="#03182B"/>
<path d="M17.625 16.1248C18.2463 16.1248 18.75 15.6211 18.75 14.9998C18.75 14.3784 18.2463 13.8748 17.625 13.8748C17.0037 13.8748 16.5 14.3784 16.5 14.9998C16.5 15.6211 17.0037 16.1248 17.625 16.1248Z" fill="#03182B"/>
<path d="M6.375 16.1248C6.99632 16.1248 7.5 15.6211 7.5 14.9998C7.5 14.3784 6.99632 13.8748 6.375 13.8748C5.75368 13.8748 5.25 14.3784 5.25 14.9998C5.25 15.6211 5.75368 16.1248 6.375 16.1248Z" fill="#03182B"/>
<path d="M10.125 16.1248C10.7463 16.1248 11.25 15.6211 11.25 14.9998C11.25 14.3784 10.7463 13.8748 10.125 13.8748C9.50368 13.8748 9 14.3784 9 14.9998C9 15.6211 9.50368 16.1248 10.125 16.1248Z" fill="#03182B"/>
<path d="M6.375 19.8748C6.99632 19.8748 7.5 19.3711 7.5 18.7498C7.5 18.1284 6.99632 17.6248 6.375 17.6248C5.75368 17.6248 5.25 18.1284 5.25 18.7498C5.25 19.3711 5.75368 19.8748 6.375 19.8748Z" fill="#03182B"/>
<path d="M10.125 19.8748C10.7463 19.8748 11.25 19.3711 11.25 18.7498C11.25 18.1284 10.7463 17.6248 10.125 17.6248C9.50368 17.6248 9 18.1284 9 18.7498C9 19.3711 9.50368 19.8748 10.125 19.8748Z" fill="#03182B"/>
<path d="M13.875 19.8748C14.4963 19.8748 15 19.3711 15 18.7498C15 18.1284 14.4963 17.6248 13.875 17.6248C13.2537 17.6248 12.75 18.1284 12.75 18.7498C12.75 19.3711 13.2537 19.8748 13.875 19.8748Z" fill="#03182B"/>
<path d="M6 1.49976V2.99976M18 1.49976V2.99976" stroke="#03182B" stroke-width="1.5" stroke-linecap="round" stroke-linejoin="round"/>
<path d="M21.75 7.49976H2.25" stroke="#03182B" stroke-width="1.5" stroke-linecap="round" stroke-linejoin="round"/>
</g>
</g>
<defs>
<clipPath id="clip0_2451_9337">
<rect width="24" height="24" fill="white" transform="translate(0 -0.000244141)"/>
</clipPath>
<clipPath id="clip1_2451_9337">
<rect width="24" height="24" fill="white" transform="translate(0 -0.000244141)"/>
</clipPath>
</defs>
</svg>
