<svg width="24" height="24" viewBox="0 0 24 24" fill="none" xmlns="http://www.w3.org/2000/svg">
<rect x="1.5" y="3.74976" width="21" height="16.5" rx="1.5" stroke="#0067B1" stroke-width="1.5" stroke-linecap="round" stroke-linejoin="round"/>
<path d="M12.75 7.49976H5.25C4.83579 7.49976 4.5 7.83554 4.5 8.24976C4.5 8.66397 4.83579 8.99976 5.25 8.99976H12.75C13.1642 8.99976 13.5 8.66397 13.5 8.24976C13.5 7.83554 13.1642 7.49976 12.75 7.49976Z" fill="#0067B1"/>
<path d="M9.75 10.8748H5.25C4.83579 10.8748 4.5 11.2105 4.5 11.6248C4.5 12.039 4.83579 12.3748 5.25 12.3748H9.75C10.1642 12.3748 10.5 12.039 10.5 11.6248C10.5 11.2105 10.1642 10.8748 9.75 10.8748Z" fill="#0067B1"/>
<path d="M17.8828 10.3364C17.7059 10.1479 17.4917 9.9984 17.2537 9.89743C17.0158 9.79646 16.7594 9.74623 16.501 9.74995C15.9572 9.74995 15.4655 9.95667 15.1163 10.3326C14.767 10.7085 14.5913 11.2289 14.6316 11.7857C14.7117 12.8864 15.5503 13.7812 16.501 13.7812C17.4516 13.7812 18.2888 12.8864 18.3699 11.7867C18.4111 11.2345 18.2377 10.7193 17.8828 10.3364ZM19.6739 17.9999H13.328C13.2454 18.0013 13.1635 17.9844 13.0881 17.9507C13.0127 17.9169 12.9456 17.867 12.8916 17.8045C12.833 17.7343 12.791 17.6519 12.7686 17.5633C12.7462 17.4747 12.744 17.3822 12.7622 17.2926C12.9145 16.4695 13.3894 15.7781 14.1356 15.2929C14.7985 14.8621 15.6385 14.6249 16.501 14.6249C17.3635 14.6249 18.2035 14.8621 18.8663 15.2929C19.6125 15.7781 20.0874 16.4695 20.2397 17.2926C20.2579 17.3822 20.2557 17.4747 20.2333 17.5633C20.2109 17.6519 20.1689 17.7343 20.1103 17.8045C20.0563 17.867 19.9892 17.9169 19.9138 17.9507C19.8384 17.9844 19.7565 18.0013 19.6739 17.9999Z" fill="#0067B1"/>
</svg>
