<svg width="24" height="24" viewBox="0 0 24 24" fill="none" xmlns="http://www.w3.org/2000/svg">
<g clip-path="url(#clip0_204_1408)">
<path d="M3.1069 14.3291C3.65207 16.3405 4.88594 18.1028 6.59822 19.3156C8.3105 20.5285 10.3952 21.1168 12.4972 20.9804C14.5991 20.844 16.5881 19.9913 18.1253 18.5675C19.6625 17.1438 20.6527 15.2372 20.9272 13.1726C21.2017 11.108 20.7435 9.01313 19.6307 7.24508C18.5179 5.47703 16.8193 4.14516 14.8244 3.47645C12.8295 2.80773 10.6618 2.84355 8.69062 3.57781C6.71946 4.31206 5.06685 5.69931 4.01442 7.50314L3.00488 9.23173" stroke="#0067B1" stroke-width="1.5" stroke-linecap="round" stroke-linejoin="round"/>
<path d="M11.25 7.49976V12.7498H16.5" stroke="#0067B1" stroke-width="1.5" stroke-linecap="round" stroke-linejoin="round"/>
<path d="M1.875 5.24976L2.97308 9.34783L7.07115 8.24976" stroke="#0067B1" stroke-width="1.5" stroke-linecap="round" stroke-linejoin="round"/>
</g>
<defs>
<clipPath id="clip0_204_1408">
<rect width="24" height="24" fill="white" transform="translate(0 -0.000244141)"/>
</clipPath>
</defs>
</svg>
