<svg width="24" height="24" viewBox="0 0 24 24" fill="none" xmlns="http://www.w3.org/2000/svg">
<path d="M21.75 15.1498C21.75 13.9948 20.574 13.0498 19.125 13.0498M19.125 13.0498C17.676 13.0498 16.5 13.9948 16.5 15.1498C16.5 16.3047 17.676 17.2497 19.125 17.2497C20.574 17.2497 21.75 18.1947 21.75 19.3497C21.75 20.5047 20.574 21.4497 19.125 21.4497M19.125 13.0498L19.1249 11.9998M19.125 21.4497C17.676 21.4497 16.5 20.5047 16.5 19.3497M19.125 21.4497L19.1249 22.4998" stroke="#0067B1" stroke-width="1.5" stroke-miterlimit="10" stroke-linecap="round" stroke-linejoin="round"/>
<path d="M9 13.4998L12 11.9998V6.74976" stroke="#0067B1" stroke-width="1.5" stroke-linecap="round" stroke-linejoin="round"/>
<path d="M13.5628 20.863C11.8809 21.1596 10.1494 20.9715 8.57037 20.3207C6.99138 19.6699 5.63016 18.5832 4.6457 17.1876C3.66123 15.7921 3.09417 14.1452 3.01074 12.4394C2.92732 10.7336 3.33097 9.03925 4.17454 7.55428C5.01812 6.06931 6.26681 4.85502 7.77475 4.05323C9.2827 3.25144 10.9876 2.89526 12.6905 3.02628C14.3933 3.15731 16.0237 3.77013 17.3912 4.79317C18.7587 5.81622 19.807 7.20725 20.4134 8.80379" stroke="#0067B1" stroke-width="1.5" stroke-linecap="round" stroke-linejoin="round"/>
</svg>
