<svg width="24" height="24" viewBox="0 0 24 24" fill="none" xmlns="http://www.w3.org/2000/svg">
<path d="M20.5229 15.2263C20.715 15.1749 20.9201 15.2012 21.0923 15.3005C21.2644 15.3999 21.3894 15.5647 21.4409 15.7566L22.5396 19.8542C22.6467 20.2543 22.4092 20.6659 22.0093 20.7732C21.6092 20.8804 21.1976 20.6429 21.0903 20.2429L20.4692 17.9236L20.3237 18.1736C19.1833 20.1281 17.3934 21.6294 15.2612 22.4236C13.1292 23.2177 10.785 23.2561 8.62744 22.533C6.46983 21.8096 4.63002 20.3685 3.42432 18.4529C3.20399 18.1024 3.30933 17.6393 3.65967 17.4187C4.01011 17.1982 4.47313 17.3038 4.69385 17.6541C5.71372 19.2743 7.27213 20.4969 9.104 21.1111C10.9361 21.7252 12.9276 21.6916 14.7378 21.0173C16.5476 20.3431 18.0634 19.0705 19.0278 17.4177V17.4167L19.1919 17.1355L16.813 17.7732C16.4129 17.8804 16.0013 17.6429 15.894 17.2429C15.7871 16.843 16.0245 16.4313 16.4243 16.324L20.5229 15.2263ZM11.9995 5.99976C12.4136 5.99981 12.7493 6.33572 12.7495 6.74976V7.12573C14.1593 7.40227 15.3744 8.43934 15.3745 9.90015C15.3743 10.3142 15.0386 10.6501 14.6245 10.6501C14.2106 10.65 13.8747 10.3141 13.8745 9.90015C13.8743 9.30611 13.1979 8.54956 11.9995 8.54956C10.8013 8.54968 10.1247 9.30616 10.1245 9.90015C10.1248 10.4941 10.8014 11.2496 11.9995 11.2498C13.6988 11.2498 15.3741 12.3838 15.3745 14.0994C15.3745 15.5602 14.1593 16.5962 12.7495 16.8728V17.2498C12.7495 17.6639 12.4136 17.9997 11.9995 17.9998C11.5855 17.9996 11.2495 17.6638 11.2495 17.2498V16.8728C9.83988 16.5961 8.62451 15.5601 8.62451 14.0994C8.62482 13.6855 8.96062 13.3495 9.37451 13.3494C9.78853 13.3494 10.1242 13.6854 10.1245 14.0994C10.1245 14.6934 10.8011 15.4498 11.9995 15.45C13.1981 15.45 13.8745 14.6934 13.8745 14.0994C13.8741 13.5054 13.1977 12.7498 11.9995 12.7498C10.3003 12.7496 8.62476 11.6157 8.62451 9.90015C8.62465 8.43942 9.83985 7.40234 11.2495 7.12573V6.74976C11.2496 6.33578 11.5855 5.99995 11.9995 5.99976ZM8.73779 1.57593C10.8698 0.781773 13.2141 0.743395 15.3716 1.46655C17.5293 2.18984 19.369 3.631 20.5747 5.54663C20.7953 5.89713 20.6898 6.36013 20.3394 6.58081C19.9888 6.80145 19.5258 6.69601 19.3052 6.34546C18.2853 4.72516 16.727 3.50252 14.895 2.88843C13.0629 2.27434 11.0714 2.30789 9.26123 2.98218C7.45141 3.65643 5.93559 4.92904 4.97119 6.58179V6.58276L4.80615 6.86401L7.18701 6.22632C7.58693 6.11942 7.99874 6.35672 8.10596 6.75659C8.2131 7.15644 7.97534 7.56802 7.57568 7.67554L3.47705 8.77319C3.28506 8.8246 3.07988 8.79828 2.90771 8.69897C2.73551 8.59951 2.61055 8.43501 2.55908 8.24292L1.46045 4.14526C1.35326 3.74522 1.59072 3.33359 1.99072 3.22632C2.39063 3.11942 2.80243 3.35674 2.90967 3.75659L3.52979 6.07397L3.67529 5.82593C4.8157 3.87141 6.60568 2.37014 8.73779 1.57593Z" fill="#0067B1"/>
</svg>
