<svg width="24" height="24" viewBox="0 0 24 24" fill="none" xmlns="http://www.w3.org/2000/svg">
<g clip-path="url(#clip0_2451_9361)">
<g clip-path="url(#clip1_2451_9361)">
<path d="M20 5.19872C18.074 2.93544 15.2046 1.49976 11.9998 1.49976C6.20064 1.49976 1.49951 6.20077 1.49951 11.9998C1.49951 17.7987 6.20064 22.4998 11.9998 22.4998C15.2046 22.4998 18.074 21.0641 20 18.8008" stroke="#0067B1" stroke-width="1.5" stroke-linecap="round" stroke-linejoin="round"/>
<path d="M22.5 11.9998H16.5" stroke="#0067B1" stroke-width="1.5" stroke-linecap="round" stroke-linejoin="round"/>
<path d="M19.5 8.99976V14.9998" stroke="#0067B1" stroke-width="1.5" stroke-linecap="round" stroke-linejoin="round"/>
<path d="M13.5 9.89977C13.5 8.74479 12.324 7.7998 10.875 7.7998M10.875 7.7998C9.426 7.7998 8.25 8.74479 8.25 9.89977C8.25 11.0547 9.426 11.9997 10.875 11.9997C12.324 11.9997 13.5 12.9447 13.5 14.0997C13.5 15.2547 12.324 16.1997 10.875 16.1997M10.875 7.7998L10.8749 6.74976M10.875 16.1997C9.426 16.1997 8.25 15.2547 8.25 14.0997M10.875 16.1997L10.8749 17.2498" stroke="#0067B1" stroke-width="1.5" stroke-miterlimit="10" stroke-linecap="round" stroke-linejoin="round"/>
</g>
</g>
<defs>
<clipPath id="clip0_2451_9361">
<rect width="24" height="24" fill="white" transform="translate(0 -0.000244141)"/>
</clipPath>
<clipPath id="clip1_2451_9361">
<rect width="24" height="24" fill="white" transform="translate(0 -0.000244141)"/>
</clipPath>
</defs>
</svg>
