<svg width="24" height="24" viewBox="0 0 24 24" fill="none" xmlns="http://www.w3.org/2000/svg">
<g clip-path="url(#clip0_1656_3860)">
<path d="M15 11.3998C15 10.2448 13.824 9.2998 12.375 9.2998M12.375 9.2998C10.926 9.2998 9.75 10.2448 9.75 11.3998C9.75 12.5547 10.926 13.4997 12.375 13.4997C13.824 13.4997 15 14.4447 15 15.5997C15 16.7547 13.824 17.6997 12.375 17.6997M12.375 9.2998L12.3749 8.24976M12.375 17.6997C10.926 17.6997 9.75 16.7547 9.75 15.5997M12.375 17.6997L12.3749 18.7498" stroke="#0067B1" stroke-width="1.5" stroke-miterlimit="10" stroke-linecap="round" stroke-linejoin="round"/>
<rect x="4.5" y="1.49976" width="15" height="3" rx="1.5" stroke="#0067B1" stroke-width="1.5"/>
<path d="M7.5 4.49976V4.49976C7.5 5.39554 6.92679 6.19082 6.07698 6.4741L5.05132 6.81598C3.82629 7.22433 3 8.37074 3 9.66203V19.4998C3 21.1566 4.34315 22.4998 6 22.4998H18C19.6569 22.4998 21 21.1566 21 19.4998V9.66203C21 8.37074 20.1737 7.22433 18.9487 6.81598L17.923 6.4741C17.0732 6.19083 16.5 5.39554 16.5 4.49976V4.49976" stroke="#0067B1" stroke-width="1.5"/>
</g>
<defs>
<clipPath id="clip0_1656_3860">
<rect width="24" height="24" fill="white" transform="translate(0 -0.000244141)"/>
</clipPath>
</defs>
</svg>
