<svg width="24" height="24" viewBox="0 0 24 24" fill="none" xmlns="http://www.w3.org/2000/svg">
<path d="M7.5 1.49976H4.5C2.84315 1.49976 1.5 2.8429 1.5 4.49976V7.49976" stroke="#0067B1" stroke-width="1.5" stroke-linecap="round"/>
<path d="M16.5 1.49976H19.5C21.1569 1.49976 22.5 2.8429 22.5 4.49976V7.49976" stroke="#0067B1" stroke-width="1.5" stroke-linecap="round"/>
<path d="M7.5 22.4998H4.5C2.84315 22.4998 1.5 21.1566 1.5 19.4998V16.4998" stroke="#0067B1" stroke-width="1.5" stroke-linecap="round"/>
<path d="M16.5 22.4998H19.5C21.1569 22.4998 22.5 21.1566 22.5 19.4998V16.4998" stroke="#0067B1" stroke-width="1.5" stroke-linecap="round"/>
<path d="M6.75 7.49976V9.74976" stroke="#0067B1" stroke-width="1.5" stroke-linecap="round"/>
<path d="M17.25 7.49976V9.74976" stroke="#0067B1" stroke-width="1.5" stroke-linecap="round"/>
<path d="M12 7.49976V11.9998C12 12.8282 11.3284 13.4998 10.5 13.4998V13.4998" stroke="#0067B1" stroke-width="1.5" stroke-linecap="round"/>
<path d="M8.25 16.4998C8.5 16.9998 9.6 17.9998 12 17.9998C14.4 17.9998 15.5 16.9998 15.75 16.4998" stroke="#0067B1" stroke-width="1.5" stroke-linecap="round"/>
</svg>
