<svg width="24" height="24" viewBox="0 0 24 24" fill="none" xmlns="http://www.w3.org/2000/svg">
<g clip-path="url(#clip0_4019_4311)">
<path d="M21 8.89399C19.9968 7.42961 18.7264 6.27997 17.2206 5.4733C14.0339 3.76283 9.96612 3.76853 6.78465 5.48444C5.27357 6.2994 3.99771 7.45707 3 8.93259M4.55654 19.1177C3.98213 17.5096 3.81812 16.117 3.81812 14.9399C3.81812 13.6964 4.04316 12.5719 4.49029 11.6021C5.81627 8.7062 8.75134 6.83563 11.9646 6.83563C16.4852 6.83563 20.1639 10.4718 20.1639 14.9427C20.1639 16.4348 18.9359 17.6451 17.4325 17.6451C15.9291 17.6451 14.7011 16.432 14.7011 14.9427C14.7011 13.4535 13.4756 12.2403 11.9698 12.2403C10.4639 12.2403 9.23841 13.4506 9.23841 14.9427C9.23519 16.9679 9.99991 18.8939 11.3743 20.3197C12.4462 21.4333 13.4836 22.0468 15.0743 22.4998M9.62004 22.2593C8.75457 21.3475 8.27817 20.7672 7.57945 19.4658C6.89388 18.1863 6.53137 16.6196 6.53137 14.9343C6.53137 11.9555 8.98484 9.52957 11.9993 9.52957C15.0138 9.52957 17.4672 11.9529 17.4672 14.9343M18.1501 3.12449C16.0567 1.99427 14.1908 1.49976 12.0098 1.49976C9.82876 1.49976 7.75394 2.04686 5.85901 3.12449M18.4067 20.1042C17.8854 20.2008 17.409 20.2174 17.2077 20.2174C16.0485 20.2174 15.056 19.9218 14.225 19.3333C12.7958 18.3191 11.941 16.6778 11.941 14.9399" stroke="#0067B1" stroke-width="1.5" stroke-miterlimit="10" stroke-linecap="round" stroke-linejoin="round"/>
</g>
<defs>
<clipPath id="clip0_4019_4311">
<rect width="24" height="24" fill="white" transform="translate(0 -0.000244141)"/>
</clipPath>
</defs>
</svg>
