<svg width="24" height="24" viewBox="0 0 24 24" fill="none" xmlns="http://www.w3.org/2000/svg">
<path d="M20.3121 2.24976C20.3121 5.98401 12.0223 4.32407 12.0223 10.5482M12 10.5482C9.74381 10.5482 9.44325 9.30266 7.18706 9.30266C4.93219 9.30266 1.5 14.6969 1.5 18.8455C1.5 20.5054 2.37544 21.7498 3.68794 21.7498C7.62544 21.7498 9.375 18.0155 12 18.0155C14.625 18.0155 16.3746 21.7498 20.3121 21.7498C21.6246 21.7498 22.5 20.5054 22.5 18.8455C22.5 14.6969 19.0678 9.30266 16.8129 9.30266C14.5554 9.30266 14.2562 10.5482 12 10.5482V10.5482Z" stroke="#0067B1" stroke-width="1.5" stroke-linecap="round" stroke-linejoin="round"/>
<path d="M16.5 15.1248C16.9832 15.1248 17.375 15.5165 17.375 15.9998C17.3749 16.4829 16.9832 16.8748 16.5 16.8748C16.0168 16.8747 15.6251 16.4829 15.625 15.9998C15.625 15.5165 16.0168 15.1248 16.5 15.1248ZM14.75 13.3748C15.2332 13.3748 15.6249 13.7666 15.625 14.2498C15.625 14.733 15.2332 15.1248 14.75 15.1248C14.2668 15.1248 13.875 14.733 13.875 14.2498C13.8751 13.7666 14.2668 13.3748 14.75 13.3748ZM18.25 13.3748C18.7332 13.3748 19.1249 13.7666 19.125 14.2498C19.125 14.733 18.7332 15.1247 18.25 15.1248C17.7668 15.1248 17.375 14.733 17.375 14.2498C17.3751 13.7666 17.7668 13.3748 18.25 13.3748ZM16.5 11.6248C16.9832 11.6248 17.375 12.0165 17.375 12.4998C17.375 12.983 16.9832 13.3748 16.5 13.3748C16.0168 13.3747 15.625 12.983 15.625 12.4998C15.625 12.0165 16.0168 11.6248 16.5 11.6248Z" fill="#0067B1"/>
<path fill-rule="evenodd" clip-rule="evenodd" d="M8.09978 13.6495V12.3748H6.89978V13.6495H5.625V14.8495H6.89978V16.1248H8.09978V14.8495H9.375V13.6495H8.09978Z" fill="#0067B1"/>
</svg>
