<svg width="24" height="24" viewBox="0 0 24 24" fill="none" xmlns="http://www.w3.org/2000/svg">
<g clip-path="url(#clip0_2451_9342)">
<g clip-path="url(#clip1_2451_9342)">
<path d="M12.3085 8.87478C11.6643 8.81115 11.0161 8.94822 10.4527 9.26722C9.88931 9.58622 9.43831 10.0716 9.16142 10.6568C8.88454 11.242 8.79531 11.8985 8.90595 12.5364C9.01659 13.1743 9.32169 13.7624 9.77949 14.2202C10.2373 14.678 10.8254 14.9831 11.4633 15.0938C12.1012 15.2044 12.7577 15.1152 13.3429 14.8383C13.9281 14.5614 14.4134 14.1104 14.7324 13.547C15.0514 12.9836 15.1885 12.3354 15.1249 11.6911C15.0523 10.9689 14.7323 10.2939 14.219 9.78063C13.7057 9.26735 13.0308 8.94732 12.3085 8.87478ZM19.8695 11.9998C19.8675 12.3411 19.8424 12.6819 19.7944 13.0198L22.0126 14.7597C22.1092 14.8398 22.1743 14.9515 22.1963 15.075C22.2183 15.1985 22.1958 15.3258 22.1328 15.4343L20.0343 19.0652C19.9706 19.1726 19.871 19.2541 19.753 19.2954C19.6351 19.3366 19.5064 19.3348 19.3896 19.2904L17.1866 18.4033C17.0651 18.3549 16.9335 18.3374 16.8036 18.3524C16.6737 18.3674 16.5496 18.4144 16.4423 18.4891C16.1061 18.7207 15.7527 18.9264 15.3854 19.1044C15.2699 19.1606 15.17 19.2443 15.0946 19.3481C15.0191 19.452 14.9703 19.5729 14.9527 19.7001L14.6224 22.0498C14.6008 22.1739 14.5366 22.2866 14.4411 22.3687C14.3455 22.4508 14.2244 22.4971 14.0984 22.4998H9.90141C9.77754 22.4976 9.6581 22.4533 9.56276 22.3742C9.46742 22.2951 9.40187 22.1859 9.37691 22.0645L9.04719 19.7182C9.02867 19.5897 8.97867 19.4676 8.90163 19.363C8.8246 19.2584 8.72291 19.1745 8.6056 19.1187C8.2387 18.9416 7.88659 18.7353 7.55267 18.5019C7.44575 18.4275 7.32201 18.3809 7.19259 18.3663C7.06317 18.3516 6.93213 18.3694 6.8113 18.418L4.60877 19.3046C4.49205 19.3491 4.36338 19.3509 4.24545 19.3098C4.12751 19.2687 4.02786 19.1873 3.96405 19.0799L1.86554 15.4491C1.80245 15.3406 1.77991 15.2132 1.80192 15.0897C1.82393 14.9661 1.88908 14.8544 1.98575 14.7744L3.86053 13.3024C3.96324 13.2209 4.04396 13.115 4.09537 12.9944C4.14678 12.8737 4.16725 12.7422 4.15492 12.6116C4.13725 12.407 4.12646 12.2029 4.12646 11.9983C4.12646 11.7937 4.13676 11.5925 4.15492 11.3923C4.1659 11.2626 4.14443 11.1321 4.09244 11.0127C4.04045 10.8933 3.95957 10.7887 3.85709 10.7084L1.9833 9.23639C1.88819 9.15597 1.82442 9.04464 1.80316 8.92192C1.7819 8.7992 1.8045 8.67291 1.86701 8.56518L3.96553 4.93434C4.02925 4.82688 4.12887 4.74536 4.24682 4.70416C4.36476 4.66296 4.49346 4.66472 4.61024 4.70913L6.81326 5.59623C6.93475 5.6446 7.06634 5.66208 7.19624 5.64709C7.32614 5.6321 7.45029 5.58513 7.55758 5.51036C7.89379 5.27883 8.24709 5.07315 8.61444 4.89508C8.72992 4.83895 8.82981 4.75525 8.90529 4.65136C8.98076 4.54748 9.0295 4.42661 9.04719 4.29943L9.3774 1.94969C9.39908 1.82559 9.4632 1.71288 9.55877 1.63081C9.65435 1.54875 9.77546 1.50242 9.90141 1.49976H14.0984C14.2223 1.5019 14.3417 1.54617 14.4371 1.62528C14.5324 1.70439 14.598 1.81362 14.6229 1.93497L14.9527 4.28127C14.9712 4.40986 15.0212 4.53188 15.0982 4.63648C15.1752 4.74108 15.2769 4.82503 15.3942 4.88085C15.7611 5.05796 16.1132 5.2642 16.4472 5.49761C16.5541 5.572 16.6778 5.61862 16.8073 5.63326C16.9367 5.64791 17.0677 5.63012 17.1885 5.58151L19.3911 4.6949C19.5078 4.65045 19.6365 4.64862 19.7544 4.68973C19.8723 4.73083 19.972 4.81224 20.0358 4.91962L22.1343 8.55046C22.1974 8.65893 22.2199 8.78628 22.1979 8.90983C22.1759 9.03337 22.1108 9.1451 22.0141 9.22511L20.1393 10.6971C20.0362 10.7783 19.955 10.8841 19.9031 11.0048C19.8513 11.1254 19.8304 11.2571 19.8425 11.3879C19.8587 11.591 19.8695 11.7952 19.8695 11.9998Z" stroke="#03182B" stroke-width="1.5" stroke-linecap="round" stroke-linejoin="round"/>
</g>
</g>
<defs>
<clipPath id="clip0_2451_9342">
<rect width="24" height="24" fill="white" transform="translate(0 -0.000244141)"/>
</clipPath>
<clipPath id="clip1_2451_9342">
<rect width="24" height="24" fill="white" transform="translate(0 -0.000244141)"/>
</clipPath>
</defs>
</svg>
