<svg width="24" height="24" viewBox="0 0 24 24" fill="none" xmlns="http://www.w3.org/2000/svg">
<g clip-path="url(#clip0_9178_3549)">
<path d="M12 4.56226V7.62476M12 4.56226C12 3.95655 12.1796 3.36445 12.5161 2.86082C12.8526 2.3572 13.3309 1.96467 13.8905 1.73288C14.4501 1.50108 15.0659 1.44044 15.66 1.5586C16.254 1.67677 16.7997 1.96844 17.228 2.39674C17.6563 2.82504 17.948 3.37073 18.0662 3.96479C18.1843 4.55886 18.1237 5.17463 17.8919 5.73422C17.6601 6.29382 17.2676 6.77212 16.7639 7.10863C16.2603 7.44514 15.6682 7.62476 15.0625 7.62476H12M12 4.56226C12 3.95655 11.8204 3.36445 11.4839 2.86082C11.1474 2.3572 10.6691 1.96467 10.1095 1.73288C9.54987 1.50108 8.9341 1.44044 8.34004 1.5586C7.74597 1.67677 7.20029 1.96844 6.77199 2.39674C6.34369 2.82504 6.05201 3.37073 5.93385 3.96479C5.81568 4.55886 5.87633 5.17463 6.10812 5.73422C6.33991 6.29382 6.73244 6.77212 7.23607 7.10863C7.73969 7.44514 8.3318 7.62476 8.9375 7.62476H12" stroke="#0067B1" stroke-width="1.5" stroke-miterlimit="10" stroke-linecap="round"/>
<path d="M20.75 7.62451H3.25C2.2835 7.62451 1.5 8.29608 1.5 9.12451V11.3745C1.5 12.2029 2.2835 12.8745 3.25 12.8745H20.75C21.7165 12.8745 22.5 12.2029 22.5 11.3745V9.12451C22.5 8.29608 21.7165 7.62451 20.75 7.62451Z" stroke="#0067B1" stroke-width="1.5" stroke-linecap="round" stroke-linejoin="round"/>
<path d="M20.75 12.8748V20.0129C20.75 20.6725 20.4734 21.305 19.9812 21.7714C19.4889 22.2378 18.8212 22.4998 18.125 22.4998H5.875C5.17881 22.4998 4.51113 22.2378 4.01884 21.7714C3.52656 21.305 3.25 20.6725 3.25 20.0129V12.8748M12 6.74976V22.4998" stroke="#0067B1" stroke-width="1.5" stroke-linecap="round" stroke-linejoin="round"/>
</g>
<defs>
<clipPath id="clip0_9178_3549">
<rect width="24" height="24" fill="white" transform="translate(0 -0.000244141)"/>
</clipPath>
</defs>
</svg>
