<svg width="24" height="24" viewBox="0 0 24 24" fill="none" xmlns="http://www.w3.org/2000/svg">
<g clip-path="url(#clip0_495_2647)">
<path d="M20.4688 8.63C20.2302 8.86707 19.9075 9.00012 19.5711 9.00012C19.2348 9.00012 18.9121 8.86707 18.6735 8.63L17.6197 7.57578C17.3826 7.33731 17.2494 7.01467 17.2494 6.67836C17.2494 6.34204 17.3826 6.0194 17.6197 5.78094L20.0052 3.39547C20.0098 3.39088 20.0132 3.38525 20.0151 3.37905C20.017 3.37285 20.0174 3.36628 20.0162 3.3599C20.015 3.35353 20.0122 3.34754 20.0082 3.34247C20.0042 3.33739 19.9989 3.33338 19.993 3.33078C18.4536 2.67172 16.4572 3.00687 15.1897 4.26547C13.9766 5.46969 13.9077 7.27812 14.3521 8.85922C14.4152 9.08381 14.415 9.32148 14.3516 9.54598C14.2881 9.77049 14.1639 9.97309 13.9925 10.1314L5.88315 17.667C5.68959 17.8403 5.53342 18.0513 5.42418 18.287C5.31493 18.5228 5.25491 18.7783 5.24779 19.038C5.24066 19.2977 5.28658 19.5562 5.38274 19.7975C5.4789 20.0389 5.62327 20.2581 5.80703 20.4418C5.99079 20.6254 6.21008 20.7697 6.4515 20.8657C6.69291 20.9618 6.95137 21.0075 7.21108 21.0003C7.47079 20.993 7.72629 20.9329 7.96197 20.8235C8.19764 20.7141 8.40853 20.5579 8.58174 20.3642L16.1825 12.2408C16.3391 12.0722 16.5387 11.9496 16.7598 11.886C16.9809 11.8224 17.2152 11.8203 17.4374 11.8798C19.0058 12.2989 20.7885 12.2202 21.9875 11.0389C23.2761 9.76953 23.5541 7.52609 22.9297 6.24219C22.9269 6.23655 22.9228 6.23167 22.9177 6.22794C22.9126 6.22422 22.9067 6.22175 22.9005 6.22074C22.8942 6.21973 22.8879 6.22022 22.8819 6.22215C22.8759 6.22409 22.8704 6.22742 22.866 6.23187L20.4688 8.63Z" stroke="#0067B1" stroke-width="1.5" stroke-miterlimit="10" stroke-linecap="round"/>
<path d="M10.5 13.3123C9.68059 12.5154 9.30512 12.1446 9.04684 11.8925C8.91758 11.764 8.83273 11.5977 8.80465 11.4177C8.77657 11.2376 8.80673 11.0534 8.89075 10.8917C8.93504 10.8122 8.99026 10.7393 9.05481 10.6751L9.78981 9.9584C9.86586 9.88221 9.95533 9.82071 10.0537 9.77699C10.209 9.70825 10.3814 9.68767 10.5485 9.71792C10.7156 9.74817 10.8699 9.82786 10.9912 9.94668C11.2467 10.1946 11.7145 10.6498 12.5573 11.4711M14.8626 13.6545C16.7822 15.4404 19.1104 17.5578 20.0189 18.3143C20.0868 18.3703 20.1423 18.4399 20.1817 18.5187C20.2211 18.5974 20.2436 18.6835 20.2478 18.7714C20.2519 18.8594 20.2376 18.9472 20.2058 19.0293C20.174 19.1114 20.1253 19.1859 20.0629 19.2481L18.4982 20.8123C18.4346 20.8745 18.3589 20.9231 18.2758 20.9552C18.1927 20.9872 18.104 21.002 18.015 20.9987C17.9261 20.9954 17.8387 20.974 17.7583 20.9358C17.6778 20.8976 17.606 20.8435 17.5472 20.7767C16.7723 19.8776 14.6836 17.6309 12.8939 15.7611" stroke="#0067B1" stroke-width="1.5" stroke-linecap="round" stroke-linejoin="round"/>
<path d="M0.812858 9.07007L2.19145 7.72288C2.21251 7.70218 2.23751 7.68591 2.26496 7.67505C2.29242 7.66418 2.32177 7.65892 2.3513 7.6596C2.41081 7.65896 2.46819 7.68168 2.51114 7.72288C2.56106 7.77227 2.62158 7.80963 2.6881 7.83213C2.75462 7.85463 2.82539 7.86167 2.89504 7.85273C3.07458 7.83304 3.2663 7.77773 3.39051 7.6596C3.67176 7.38773 3.34645 6.85195 3.59395 6.50929C3.87695 6.13418 4.18683 5.78012 4.52114 5.44991C4.80239 5.17429 5.91989 4.12241 7.7977 3.36632C8.39822 3.12359 9.03998 2.99912 9.6877 2.99976C10.7466 2.99976 11.5627 3.46851 11.8561 3.73429C12.0323 3.90187 12.1935 4.08443 12.338 4.27991C12.1969 4.2279 12.0527 4.18454 11.9063 4.15007C11.5984 4.08475 11.2825 4.06485 10.9688 4.09101C10.344 4.1421 9.5902 4.43132 9.18755 4.74726C8.53598 5.26288 8.25614 5.95288 8.21208 6.84304C8.1802 7.50491 8.33958 7.87898 9.90426 9.44413C9.95774 9.50383 9.98597 9.58195 9.98299 9.66204C9.98002 9.74213 9.94608 9.81794 9.88833 9.87351L9.03426 10.7173C8.97473 10.7756 8.8949 10.8087 8.81152 10.8095C8.72814 10.8103 8.6477 10.7787 8.58708 10.7215C7.55864 9.69304 6.86911 9.17038 6.4777 8.93273C6.0863 8.69507 5.7713 8.62804 5.61989 8.61163C5.32253 8.58217 5.02335 8.64554 4.76348 8.79304C4.71789 8.81809 4.67619 8.84968 4.63973 8.88679C4.57887 8.9497 4.53107 9.02404 4.4991 9.10552C4.46712 9.187 4.4516 9.27401 4.45343 9.36152C4.45526 9.44903 4.4744 9.53531 4.50976 9.61538C4.54512 9.69546 4.59598 9.76773 4.65942 9.82804L4.73958 9.90304C4.76038 9.92327 4.77693 9.94746 4.78822 9.97419C4.79952 10.0009 4.80533 10.0296 4.80533 10.0587C4.80533 10.0877 4.79952 10.1164 4.78822 10.1431C4.77693 10.1699 4.76038 10.1941 4.73958 10.2143L3.36239 11.5591C3.34153 11.5803 3.31662 11.597 3.28915 11.6082C3.26169 11.6195 3.23223 11.6251 3.20255 11.6248C3.14304 11.6253 3.08567 11.6026 3.0427 11.5615L0.812858 9.38507C0.7725 9.34256 0.75 9.28618 0.75 9.22757C0.75 9.16896 0.7725 9.11258 0.812858 9.07007Z" stroke="#0067B1" stroke-width="1.5" stroke-linecap="round" stroke-linejoin="round"/>
</g>
<defs>
<clipPath id="clip0_495_2647">
<rect width="24" height="24" fill="white" transform="translate(0 -0.000244141)"/>
</clipPath>
</defs>
</svg>
