<svg width="24" height="24" viewBox="0 0 24 24" fill="none" xmlns="http://www.w3.org/2000/svg">
<path d="M20.8756 8.99976C20.1615 4.74319 16.4596 1.49976 12.0001 1.49976C7.54058 1.49976 3.83863 4.74319 3.12451 8.99976" stroke="#0067B1" stroke-width="1.5"/>
<rect x="1.5" y="8.99976" width="3" height="6" rx="1.5" stroke="#0067B1" stroke-width="1.5"/>
<rect x="14.25" y="19.4998" width="3" height="4.5" rx="1.5" transform="rotate(90 14.25 19.4998)" stroke="#0067B1" stroke-width="1.5"/>
<rect x="19.5" y="8.99976" width="3" height="6" rx="1.5" stroke="#0067B1" stroke-width="1.5"/>
<path d="M21 14.9998V14.9998C21 19.1419 17.6421 22.4998 13.5 22.4998H12" stroke="#0067B1" stroke-width="1.5"/>
<path d="M8.03027 10.8962C8.2485 10.8528 8.4751 10.8755 8.68066 10.9607C8.88613 11.0459 9.06198 11.1898 9.18555 11.3748C9.30913 11.5597 9.375 11.7773 9.375 11.9998C9.375 12.2981 9.25688 12.5847 9.0459 12.7957C8.83492 13.0066 8.54837 13.1248 8.25 13.1248C8.02753 13.1248 7.80999 13.0589 7.625 12.9353C7.44006 12.8117 7.2961 12.6359 7.21094 12.4304C7.12579 12.2249 7.10308 11.9983 7.14648 11.78C7.18992 11.5619 7.29682 11.3611 7.4541 11.2039C7.61138 11.0466 7.81213 10.9397 8.03027 10.8962ZM11.7803 10.8962C11.9985 10.8528 12.2251 10.8755 12.4307 10.9607C12.6361 11.0459 12.812 11.1898 12.9355 11.3748C13.0591 11.5597 13.125 11.7773 13.125 11.9998C13.125 12.2981 13.0069 12.5847 12.7959 12.7957C12.5849 13.0066 12.2984 13.1248 12 13.1248C11.7775 13.1248 11.56 13.0589 11.375 12.9353C11.1901 12.8117 11.0461 12.6359 10.9609 12.4304C10.8758 12.2249 10.8531 11.9983 10.8965 11.78C10.9399 11.5619 11.0468 11.3611 11.2041 11.2039C11.3614 11.0466 11.5621 10.9397 11.7803 10.8962ZM15.5303 10.8962C15.7485 10.8528 15.9751 10.8755 16.1807 10.9607C16.3861 11.0459 16.562 11.1898 16.6855 11.3748C16.8091 11.5597 16.875 11.7773 16.875 11.9998C16.875 12.2981 16.7569 12.5847 16.5459 12.7957C16.3349 13.0066 16.0484 13.1248 15.75 13.1248C15.5275 13.1248 15.31 13.0589 15.125 12.9353C14.9401 12.8117 14.7961 12.6359 14.7109 12.4304C14.6258 12.2249 14.6031 11.9983 14.6465 11.78C14.6899 11.5619 14.7968 11.3611 14.9541 11.2039C15.1114 11.0466 15.3121 10.9397 15.5303 10.8962Z" fill="#0067B1"/>
</svg>
