<svg width="24" height="24" viewBox="0 0 24 24" fill="none" xmlns="http://www.w3.org/2000/svg">
<path d="M19.6467 8.24976H4.35328C3.60588 8.24976 3 8.93138 3 9.7722V20.2273C3 21.0681 3.60588 21.7498 4.35328 21.7498H19.6467C20.3941 21.7498 21 21.0681 21 20.2273V9.7722C21 8.93138 20.3941 8.24976 19.6467 8.24976Z" stroke="#0067B1" stroke-width="1.5" stroke-linejoin="round"/>
<path d="M6.75 3.74976H17.25H6.75ZM5.25 5.99976H18.75H5.25Z" fill="#0067B1"/>
<path d="M6.75 3.74976H17.25M5.25 5.99976H18.75" stroke="#0067B1" stroke-width="1.5" stroke-miterlimit="10" stroke-linecap="round"/>
<path d="M13.9402 11.5498C12.6406 11.5498 12 12.8282 12 12.8282C12 12.8282 11.3594 11.5498 10.0598 11.5498C9.00364 11.5498 8.16726 12.4315 8.15645 13.4836C8.13443 15.6675 9.89266 17.2205 11.8198 18.5257C11.873 18.5618 11.9357 18.5811 12 18.5811C12.0643 18.5811 12.127 18.5618 12.1802 18.5257C14.1071 17.2205 15.8654 15.6675 15.8435 13.4836C15.8327 12.4315 14.9964 11.5498 13.9402 11.5498Z" stroke="#0067B1" stroke-width="1.5" stroke-linecap="round" stroke-linejoin="round"/>
</svg>
