<svg width="24" height="24" viewBox="0 0 24 24" fill="none" xmlns="http://www.w3.org/2000/svg">
<g clip-path="url(#clip0_277_2473)">
<g clip-path="url(#clip1_277_2473)">
<path d="M12 1.49976C6.2016 1.49976 1.5 6.20136 1.5 11.9998C1.5 17.7982 6.2016 22.4998 12 22.4998C17.7984 22.4998 22.5 17.7982 22.5 11.9998C22.5 6.20136 17.7984 1.49976 12 1.49976Z" stroke="#0067B1" stroke-width="1.5" stroke-miterlimit="10"/>
<path d="M10.4023 10.4019H12.2284V17.0214" stroke="#0067B1" stroke-width="1.5" stroke-linecap="round" stroke-linejoin="round"/>
<path d="M9.71729 17.2498H14.739" stroke="#0067B1" stroke-width="1.5" stroke-miterlimit="10" stroke-linecap="round"/>
<path d="M11.9998 5.26611C11.7064 5.26611 11.4195 5.35313 11.1755 5.51616C10.9315 5.67919 10.7414 5.91091 10.6291 6.18202C10.5168 6.45313 10.4874 6.75145 10.5446 7.03926C10.6019 7.32707 10.7432 7.59144 10.9507 7.79894C11.1582 8.00644 11.4225 8.14775 11.7104 8.205C11.9982 8.26224 12.2965 8.23286 12.5676 8.12057C12.8387 8.00827 13.0704 7.8181 13.2335 7.57411C13.3965 7.33011 13.4835 7.04326 13.4835 6.74981C13.4835 6.35631 13.3272 5.97892 13.0489 5.70068C12.7707 5.42243 12.3933 5.26611 11.9998 5.26611Z" fill="#0067B1"/>
</g>
</g>
<defs>
<clipPath id="clip0_277_2473">
<rect width="24" height="24" fill="white" transform="translate(0 -0.000244141)"/>
</clipPath>
<clipPath id="clip1_277_2473">
<rect width="24" height="24" fill="white" transform="translate(0 -0.000244141)"/>
</clipPath>
</defs>
</svg>
