<svg width="24" height="24" viewBox="0 0 24 24" fill="none" xmlns="http://www.w3.org/2000/svg">
<path d="M9.2064 16.8461H6.34616C5.06088 16.8461 3.82824 16.3356 2.91941 15.4267C2.01058 14.5179 1.5 13.2852 1.5 12C1.5 10.7147 2.01058 9.48205 2.91941 8.57322C3.82824 7.66438 5.06088 7.15381 6.34616 7.15381H9.1433M14.8567 7.15381H17.6539C18.9391 7.15381 20.1718 7.66438 21.0806 8.57322C21.9894 9.48205 22.5 10.7147 22.5 12C22.5 13.2852 21.9894 14.5179 21.0806 15.4267C20.1718 16.3356 18.9391 16.8461 17.6539 16.8461H14.7936M7.61171 12H16.4893" stroke="#0067B1" stroke-width="1.5" stroke-linecap="round" stroke-linejoin="round"/>
</svg>
