<svg width="24" height="24" viewBox="0 0 24 24" fill="none" xmlns="http://www.w3.org/2000/svg">
<g clip-path="url(#clip0_3793_4454)">
<path d="M10.5 8.99976C14.6041 8.99976 18.915 3.21563 18.915 3.21563C19.2714 2.75334 20.25 3.08625 20.25 3.71576V20.305C20.25 20.9366 19.2209 21.2168 18.915 20.8077C18.915 20.8077 14.6041 14.9998 10.5 14.9998M10.5 8.99976H3L3 14.9998H10.5M10.5 8.99976L10.5 14.9998M3 13.4998C3 13.4998 1.5 13.3298 1.5 12.0002C1.5 10.6706 3 10.4998 3 10.4998M20.25 14.9998C20.25 14.9998 22.5 14.2506 22.5 12.0002C22.5 9.74976 20.25 8.99976 20.25 8.99976" stroke="#0067B1" stroke-width="1.5" stroke-linecap="round" stroke-linejoin="round"/>
<path d="M9 14.9998C7.5 17.9998 10.5 22.4998 10.5 22.4998H7.5L4.5 14.9998H9Z" stroke="#0067B1" stroke-width="1.5" stroke-linecap="round" stroke-linejoin="round"/>
</g>
<defs>
<clipPath id="clip0_3793_4454">
<rect width="24" height="24" fill="white" transform="translate(0 -0.000244141)"/>
</clipPath>
</defs>
</svg>
