<svg width="25" height="24" viewBox="0 0 25 24" fill="none" xmlns="http://www.w3.org/2000/svg">
<g clip-path="url(#clip0_15852_1468)">
<path d="M2.99998 11.2496V20.9995M1.5 21.7495H22.4997M9.7499 11.3434H3.91356C2.15296 11.2895 1.01813 9.60013 1.70156 8.10906L3.73122 3.67755C4.12778 2.81225 5.05027 2.24976 6.07166 2.24976H17.9281C18.9495 2.24976 19.872 2.81225 20.2685 3.67755L21.1557 5.61472M6.37494 14.923H8.62491C8.92327 14.923 9.20942 15.0415 9.4204 15.2525C9.63137 15.4634 9.7499 15.7496 9.7499 16.048V18.7495H5.24995V16.048C5.24995 15.7496 5.36848 15.4634 5.57945 15.2525C5.79043 15.0415 6.07657 14.923 6.37494 14.923Z" stroke="#0067B1" stroke-width="1.49998" stroke-linecap="round" stroke-linejoin="round"/>
</g>
<ellipse cx="17.9998" cy="13.4997" rx="6.00008" ry="5.99992" stroke="#0067B1" stroke-width="1.49998" stroke-linecap="round" stroke-linejoin="round"/>
<path d="M19.7144 12.1282C19.7144 11.3739 18.9464 10.7568 18.0002 10.7568M18.0002 10.7568C17.0539 10.7568 16.2859 11.3739 16.2859 12.1282C16.2859 12.8824 17.0539 13.4996 18.0002 13.4996C18.9464 13.4996 19.7144 14.1167 19.7144 14.8709C19.7144 15.6252 18.9464 16.2423 18.0002 16.2423M18.0002 10.7568L18.0001 10.071M18.0002 16.2423C17.0539 16.2423 16.2859 15.6252 16.2859 14.8709M18.0002 16.2423L18.0001 16.9281" stroke="#0067B1" stroke-width="1.49998" stroke-miterlimit="10" stroke-linecap="round" stroke-linejoin="round"/>
<defs>
<clipPath id="clip0_15852_1468">
<rect width="23.9997" height="23.9997" fill="white" transform="translate(0 -0.000244141)"/>
</clipPath>
</defs>
</svg>
