<svg width="24" height="24" viewBox="0 0 24 24" fill="none" xmlns="http://www.w3.org/2000/svg">
<path d="M9 6.74976H15L16.2542 7.50225C20.1291 9.82719 22.5 14.0147 22.5 18.5336V18.5336C22.5 20.3098 21.0601 21.7498 19.2838 21.7498H4.71616C2.93992 21.7498 1.5 20.3098 1.5 18.5336V18.5336C1.5 14.0147 3.87094 9.82719 7.74584 7.50225L9 6.74976Z" stroke="#0067B1" stroke-width="1.5"/>
<path d="M14.25 12.4498C14.25 11.4598 13.242 10.6498 12 10.6498M12 10.6498C10.758 10.6498 9.75 11.4598 9.75 12.4498C9.75 13.4397 10.758 14.2497 12 14.2497C13.242 14.2497 14.25 15.0597 14.25 16.0497C14.25 17.0397 13.242 17.8497 12 17.8497M12 10.6498L11.9999 9.74976M12 17.8497C10.758 17.8497 9.75 17.0397 9.75 16.0497M12 17.8497L11.9999 18.7498" stroke="#0067B1" stroke-width="1.5" stroke-miterlimit="10" stroke-linecap="round" stroke-linejoin="round"/>
<path d="M9 5.24976H15L18 2.24976H12H6L9 5.24976Z" stroke="#0067B1" stroke-width="1.5" stroke-linejoin="round"/>
<rect x="8.25" y="5.24976" width="7.5" height="1.5" rx="0.75" stroke="#0067B1" stroke-width="1.5" stroke-linejoin="round"/>
</svg>
