<svg width="24" height="24" viewBox="0 0 24 24" fill="none" xmlns="http://www.w3.org/2000/svg">
<g clip-path="url(#clip0_10730_2208)">
<path d="M18.1325 5.06016L16.7456 6.44708M18.1325 5.06016C18.4068 4.78586 18.7563 4.59905 19.1368 4.52337C19.5173 4.44769 19.9116 4.48653 20.27 4.63499C20.6284 4.78344 20.9348 5.03484 21.1503 5.35739C21.3658 5.67993 21.4808 6.05915 21.4808 6.44708C21.4808 6.83501 21.3658 7.21422 21.1503 7.53677C20.9348 7.85932 20.6284 8.11072 20.27 8.25917C19.9116 8.40762 19.5173 8.44647 19.1368 8.37078C18.7563 8.2951 18.4068 8.1083 18.1325 7.83399L16.7456 6.44708M18.1325 5.06016C18.4068 4.78586 18.5936 4.43637 18.6693 4.0559C18.745 3.67542 18.7062 3.28105 18.5577 2.92265C18.4092 2.56426 18.1578 2.25793 17.8353 2.04241C17.5127 1.82689 17.1335 1.71185 16.7456 1.71185C16.3577 1.71185 15.9785 1.82689 15.6559 2.04241C15.3334 2.25793 15.082 2.56426 14.9335 2.92265C14.7851 3.28105 14.7462 3.67542 14.8219 4.0559C14.8976 4.43637 15.0844 4.78586 15.3587 5.06016L16.7456 6.44708" stroke="#0067B1" stroke-width="1.51807" stroke-miterlimit="10" stroke-linecap="round"/>
<path d="M14.7101 8.56289L16.2114 7.05859" stroke="#0067B1" stroke-width="1.51807" stroke-linecap="round"/>
<path d="M20.6951 10.3296L12.7698 2.40434C12.3321 1.96664 11.6732 1.91595 11.298 2.29112L10.279 3.31008C9.90386 3.68525 9.95455 4.34421 10.3922 4.78191L18.3175 12.7071C18.7552 13.1448 19.4141 13.1955 19.7893 12.8204L20.8083 11.8014C21.1834 11.4262 21.1327 10.7673 20.6951 10.3296Z" stroke="#0067B1" stroke-width="1.51807" stroke-linecap="round" stroke-linejoin="round"/>
<path d="M4.5 14.9998H18.495V19.7998C18.495 21.2909 17.2862 22.4998 15.795 22.4998H7.2C5.70883 22.4998 4.5 21.2909 4.5 19.7998V14.9998Z" stroke="#0067B1" stroke-width="1.5" stroke-linejoin="round"/>
<path d="M11.6851 14.9998L11.6851 20.9998" stroke="#0067B1" stroke-width="1.5" stroke-linecap="square"/>
<path d="M8.60018 6.351C8.65617 6.29712 8.74964 6.33084 8.75835 6.40805L8.97571 8.33559C8.97917 8.36626 8.99749 8.39325 9.02471 8.40779L10.7358 9.32149C10.8043 9.35809 10.8012 9.4574 10.7304 9.48954L8.96438 10.2919C8.93629 10.3047 8.91628 10.3304 8.91086 10.3608L8.57064 12.2705C8.55701 12.347 8.46158 12.3747 8.40915 12.3173L7.10032 10.8857C7.0795 10.8629 7.04881 10.8518 7.01824 10.8561L5.09689 11.1226C5.01992 11.1333 4.96412 11.0511 5.00246 10.9835L5.95959 9.29632C5.97482 9.26949 5.97586 9.23687 5.96238 9.20912L5.11514 7.46417C5.0812 7.39427 5.14215 7.31579 5.21828 7.33137L7.11864 7.72029C7.14887 7.72648 7.18021 7.71739 7.20245 7.696L8.60018 6.351Z" stroke="#0067B1" stroke-width="1.5"/>
</g>
<defs>
<clipPath id="clip0_10730_2208">
<rect width="24" height="24" fill="white" transform="translate(0 -0.000244141)"/>
</clipPath>
</defs>
</svg>
