<svg width="24" height="24" viewBox="0 0 24 24" fill="none" xmlns="http://www.w3.org/2000/svg">
<g clip-path="url(#clip0_597_2269)">
<path d="M19.5 10.3708V19.4998C19.5 20.0965 19.2629 20.6688 18.841 21.0907C18.419 21.5127 17.8467 21.7498 17.25 21.7498H6.75C6.15326 21.7498 5.58097 21.5127 5.15901 21.0907C4.73705 20.6688 4.5 20.0965 4.5 19.4998V4.49976C4.5 3.90302 4.73705 3.33072 5.15901 2.90877C5.58097 2.48681 6.15326 2.24976 6.75 2.24976H11.3789C11.7766 2.24982 12.158 2.4078 12.4392 2.68897L19.0608 9.31054C19.342 9.59178 19.4999 9.97316 19.5 10.3708Z" stroke="#0067B1" stroke-width="1.5" stroke-linejoin="round"/>
<path d="M12 2.62476V8.24976C12 8.64758 12.158 9.02911 12.4393 9.31042C12.7206 9.59172 13.1022 9.74976 13.5 9.74976H19.125M8.25 13.4998H15.75M8.25 17.2498H15.75" stroke="#0067B1" stroke-width="1.5" stroke-linecap="round" stroke-linejoin="round"/>
</g>
<defs>
<clipPath id="clip0_597_2269">
<rect width="24" height="24" fill="white" transform="translate(0 -0.000244141)"/>
</clipPath>
</defs>
</svg>
