<svg width="24" height="24" viewBox="0 0 24 24" fill="none" xmlns="http://www.w3.org/2000/svg">
<g clip-path="url(#clip0_2451_9328)">
<g clip-path="url(#clip1_2451_9328)">
<path d="M19.1559 9.07375C19.5233 8.70639 20.0215 8.5 20.5411 8.5C21.0606 8.5 21.5589 8.70639 21.9262 9.07375C22.2936 9.44112 22.5 9.93938 22.5 10.4589C22.5 10.9785 22.2936 11.4767 21.9262 11.8441L15.1937 18.5766L11.5 19.5L12.4234 15.8062L19.1559 9.07375Z" stroke="#0067B1" stroke-width="1.5" stroke-linecap="round" stroke-linejoin="round"/>
<path d="M19.5 5.26291V2.99976C19.5 2.17133 18.8284 1.49976 18 1.49976H5C4.17157 1.49976 3.5 2.17133 3.5 2.99976V20.9998C3.5 21.8282 4.17157 22.4998 5 22.4998H18C18.8284 22.4998 19.5 21.8282 19.5 20.9998V18.9998" stroke="#0067B1" stroke-width="1.5" stroke-linecap="round" stroke-linejoin="round"/>
<path d="M14.75 5.5H7.25C6.83579 5.5 6.5 5.83579 6.5 6.25C6.5 6.66421 6.83579 7 7.25 7H14.75C15.1642 7 15.5 6.66421 15.5 6.25C15.5 5.83579 15.1642 5.5 14.75 5.5Z" fill="#0067B1"/>
<path d="M11.75 8.99976H7.25C6.83579 8.99976 6.5 9.33554 6.5 9.74976C6.5 10.164 6.83579 10.4998 7.25 10.4998H11.75C12.1642 10.4998 12.5 10.164 12.5 9.74976C12.5 9.33554 12.1642 8.99976 11.75 8.99976Z" fill="#0067B1"/>
</g>
</g>
<defs>
<clipPath id="clip0_2451_9328">
<rect width="24" height="24" fill="white" transform="translate(0 -0.000244141)"/>
</clipPath>
<clipPath id="clip1_2451_9328">
<rect width="24" height="24" fill="white" transform="translate(0 -0.000244141)"/>
</clipPath>
</defs>
</svg>
