<svg width="24" height="24" viewBox="0 0 24 24" fill="none" xmlns="http://www.w3.org/2000/svg">
<g clip-path="url(#clip0_4117_6082)">
<path d="M10.5 22.4998H6.75C5.50736 22.4998 4.5 21.4924 4.5 20.2498V3.74976C4.5 2.50712 5.50736 1.49976 6.75 1.49976H17.25C18.4926 1.49976 19.5 2.50712 19.5 3.74976V6.74976" stroke="#0067B1" stroke-width="1.5" stroke-linecap="round" stroke-linejoin="round"/>
<path d="M9.75 4.12476H14.25" stroke="#0067B1" stroke-width="1.5" stroke-linecap="round" stroke-linejoin="round"/>
<path d="M21 11.9998L16.3941 17.2498L14.25 15.2305" stroke="#0067B1" stroke-width="1.5" stroke-linecap="round" stroke-linejoin="round"/>
<path d="M18.2983 9.74976L16.125 8.99976L10.5 11.2498V15.0078C10.5 16.7404 11.0365 18.3046 12.101 19.7083C13.1654 21.1121 14.5067 22.0425 16.125 22.4998C17.7433 22.0345 19.0846 21.104 20.149 19.7083C20.8989 18.7194 21.3868 17.6508 21.6097 16.4998" stroke="#0067B1" stroke-width="1.5" stroke-miterlimit="10" stroke-linecap="round" stroke-linejoin="round"/>
</g>
<defs>
<clipPath id="clip0_4117_6082">
<rect width="24" height="24" fill="white" transform="translate(0 -0.000244141)"/>
</clipPath>
</defs>
</svg>
