<svg width="24" height="24" viewBox="0 0 24 24" fill="none" xmlns="http://www.w3.org/2000/svg">
<g clip-path="url(#clip0_2451_9343)">
<g clip-path="url(#clip1_2451_9343)">
<path d="M17.25 1.49976H6.75C5.50736 1.49976 4.5 2.50712 4.5 3.74976V20.2498C4.5 21.4924 5.50736 22.4998 6.75 22.4998H17.25C18.4926 22.4998 19.5 21.4924 19.5 20.2498V3.74976C19.5 2.50712 18.4926 1.49976 17.25 1.49976Z" stroke="#03182B" stroke-width="1.5" stroke-linecap="round" stroke-linejoin="round"/>
<path d="M9.75 4.12476H14.25" stroke="#03182B" stroke-width="1.5" stroke-linecap="round" stroke-linejoin="round"/>
<path d="M13.3828 12.5864C13.2059 12.3979 12.9917 12.2484 12.7537 12.1474C12.5158 12.0465 12.2594 11.9962 12.001 11.9999C11.4572 11.9999 10.9655 12.2067 10.6163 12.5826C10.267 12.9585 10.0913 13.4789 10.1316 14.0357C10.2117 15.1364 11.0503 16.0312 12.001 16.0312C12.9516 16.0312 13.7888 15.1364 13.8699 14.0367C13.9111 13.4845 13.7377 12.9693 13.3828 12.5864ZM15.1739 20.2499H8.82799C8.74538 20.2513 8.66348 20.2344 8.58808 20.2007C8.51268 20.1669 8.4456 20.117 8.39158 20.0545C8.33301 19.9843 8.29097 19.9019 8.26858 19.8133C8.24618 19.7247 8.24401 19.6322 8.26221 19.5426C8.41455 18.7195 8.88939 18.0281 9.63564 17.5429C10.2985 17.1121 11.1385 16.8749 12.001 16.8749C12.8635 16.8749 13.7035 17.1121 14.3663 17.5429C15.1125 18.0281 15.5874 18.7195 15.7397 19.5426C15.7579 19.6322 15.7557 19.7247 15.7333 19.8133C15.7109 19.9019 15.6689 19.9843 15.6103 20.0545C15.5563 20.117 15.4892 20.1669 15.4138 20.2007C15.3384 20.2344 15.2565 20.2513 15.1739 20.2499Z" fill="#03182B"/>
</g>
</g>
<defs>
<clipPath id="clip0_2451_9343">
<rect width="24" height="24" fill="white" transform="translate(0 -0.000244141)"/>
</clipPath>
<clipPath id="clip1_2451_9343">
<rect width="24" height="24" fill="white" transform="translate(0 -0.000244141)"/>
</clipPath>
</defs>
</svg>
