<svg width="24" height="24" viewBox="0 0 24 24" fill="none" xmlns="http://www.w3.org/2000/svg">
<g clip-path="url(#clip0_2451_9344)">
<g clip-path="url(#clip1_2451_9344)">
<path d="M17.25 1.49976H6.75C5.50736 1.49976 4.5 2.50712 4.5 3.74976V20.2498C4.5 21.4924 5.50736 22.4998 6.75 22.4998H17.25C18.4926 22.4998 19.5 21.4924 19.5 20.2498V3.74976C19.5 2.50712 18.4926 1.49976 17.25 1.49976Z" stroke="#0067B1" stroke-width="1.5" stroke-linecap="round" stroke-linejoin="round"/>
<path d="M9.75 4.12476H14.25" stroke="#0067B1" stroke-width="1.5" stroke-linecap="round" stroke-linejoin="round"/>
<path d="M14.625 12.1498C14.625 10.9948 13.449 10.0498 12 10.0498M12 10.0498C10.551 10.0498 9.375 10.9948 9.375 12.1498C9.375 13.3047 10.551 14.2497 12 14.2497C13.449 14.2497 14.625 15.1947 14.625 16.3497C14.625 17.5047 13.449 18.4497 12 18.4497M12 10.0498L11.9999 8.99976M12 18.4497C10.551 18.4497 9.375 17.5047 9.375 16.3497M12 18.4497L11.9999 19.4998" stroke="#0067B1" stroke-width="1.5" stroke-miterlimit="10" stroke-linecap="round" stroke-linejoin="round"/>
</g>
</g>
<defs>
<clipPath id="clip0_2451_9344">
<rect width="24" height="24" fill="white" transform="translate(0 -0.000244141)"/>
</clipPath>
<clipPath id="clip1_2451_9344">
<rect width="24" height="24" fill="white" transform="translate(0 -0.000244141)"/>
</clipPath>
</defs>
</svg>
