<svg width="24" height="24" viewBox="0 0 24 24" fill="none" xmlns="http://www.w3.org/2000/svg">
<path d="M17.25 1.49976H6.75C5.50736 1.49976 4.5 2.50712 4.5 3.74976V20.2498C4.5 21.4924 5.50736 22.4998 6.75 22.4998H17.25C18.4926 22.4998 19.5 21.4924 19.5 20.2498V3.74976C19.5 2.50712 18.4926 1.49976 17.25 1.49976Z" stroke="#0067B1" stroke-width="1.5" stroke-linecap="round" stroke-linejoin="round"/>
<path d="M12 20.6997C11.7033 20.6997 11.4133 20.6117 11.1666 20.4469C10.92 20.2821 10.7277 20.0478 10.6142 19.7737C10.5006 19.4996 10.4709 19.198 10.5288 18.9071C10.5867 18.6161 10.7296 18.3488 10.9393 18.139C11.1491 17.9293 11.4164 17.7864 11.7074 17.7285C11.9983 17.6707 12.2999 17.7004 12.574 17.8139C12.8481 17.9274 13.0824 18.1197 13.2472 18.3664C13.412 18.613 13.5 18.903 13.5 19.1997C13.5 19.5975 13.342 19.9791 13.0607 20.2604C12.7794 20.5417 12.3978 20.6997 12 20.6997Z" fill="#0067B1"/>
<path d="M9.75 4.12769H14.25" stroke="#0067B1" stroke-width="1.5" stroke-linecap="round" stroke-linejoin="round"/>
</svg>
