<svg width="24" height="24" viewBox="0 0 24 24" fill="none" xmlns="http://www.w3.org/2000/svg">
<g clip-path="url(#clip0_2451_9346)">
<path d="M19 15.4995H15.8889C15.6741 15.4995 15.5 15.6736 15.5 15.8884V18.9995C15.5 19.2143 15.6741 19.3884 15.8889 19.3884H19C19.2148 19.3884 19.3889 19.2143 19.3889 18.9995V15.8884C19.3889 15.6736 19.2148 15.4995 19 15.4995Z" fill="#0067B1"/>
<path d="M15.1111 12.3887H12.7778C12.563 12.3887 12.3889 12.5628 12.3889 12.7776V15.1109C12.3889 15.3257 12.563 15.4998 12.7778 15.4998H15.1111C15.3259 15.4998 15.5 15.3257 15.5 15.1109V12.7776C15.5 12.5628 15.3259 12.3887 15.1111 12.3887Z" fill="#0067B1"/>
<path d="M22.1114 19.3887H19.778C19.5633 19.3887 19.3892 19.5628 19.3892 19.7776V22.1109C19.3892 22.3257 19.5633 22.4998 19.778 22.4998H22.1114C22.3262 22.4998 22.5003 22.3257 22.5003 22.1109V19.7776C22.5003 19.5628 22.3262 19.3887 22.1114 19.3887Z" fill="#0067B1"/>
<path d="M22.1114 12.3887H20.5559C20.3411 12.3887 20.167 12.5628 20.167 12.7776V14.3331C20.167 14.5479 20.3411 14.722 20.5559 14.722H22.1114C22.3262 14.722 22.5003 14.5479 22.5003 14.3331V12.7776C22.5003 12.5628 22.3262 12.3887 22.1114 12.3887Z" fill="#0067B1"/>
<path d="M14.3334 20.1663H12.7778C12.563 20.1663 12.3889 20.3404 12.3889 20.5551V22.1107C12.3889 22.3255 12.563 22.4996 12.7778 22.4996H14.3334C14.5481 22.4996 14.7222 22.3255 14.7222 22.1107V20.5551C14.7222 20.3404 14.5481 20.1663 14.3334 20.1663Z" fill="#0067B1"/>
<path d="M19 3.83325H15.8889C15.6741 3.83325 15.5 4.00736 15.5 4.22214V7.33325C15.5 7.54803 15.6741 7.72214 15.8889 7.72214H19C19.2148 7.72214 19.3889 7.54803 19.3889 7.33325V4.22214C19.3889 4.00736 19.2148 3.83325 19 3.83325Z" fill="#0067B1"/>
<path d="M20.9448 1.49976H13.9448C13.5152 1.49976 13.167 1.84798 13.167 2.27753V9.27753C13.167 9.70709 13.5152 10.0553 13.9448 10.0553H20.9448C21.3743 10.0553 21.7225 9.70709 21.7225 9.27753V2.27753C21.7225 1.84798 21.3743 1.49976 20.9448 1.49976Z" stroke="#0067B1" stroke-width="1.5" stroke-linecap="round" stroke-linejoin="round"/>
<path d="M7.33301 3.83325H4.2219C4.00712 3.83325 3.83301 4.00736 3.83301 4.22214V7.33325C3.83301 7.54803 4.00712 7.72214 4.2219 7.72214H7.33301C7.54779 7.72214 7.7219 7.54803 7.7219 7.33325V4.22214C7.7219 4.00736 7.54779 3.83325 7.33301 3.83325Z" fill="#0067B1"/>
<path d="M9.27778 1.49976H2.27778C1.84822 1.49976 1.5 1.84798 1.5 2.27753V9.27753C1.5 9.70709 1.84822 10.0553 2.27778 10.0553H9.27778C9.70733 10.0553 10.0556 9.70709 10.0556 9.27753V2.27753C10.0556 1.84798 9.70733 1.49976 9.27778 1.49976Z" stroke="#0067B1" stroke-width="1.5" stroke-linecap="round" stroke-linejoin="round"/>
<path d="M7.33301 15.4995H4.2219C4.00712 15.4995 3.83301 15.6736 3.83301 15.8884V18.9995C3.83301 19.2143 4.00712 19.3884 4.2219 19.3884H7.33301C7.54779 19.3884 7.7219 19.2143 7.7219 18.9995V15.8884C7.7219 15.6736 7.54779 15.4995 7.33301 15.4995Z" fill="#0067B1"/>
<path d="M9.27778 13.1665H2.27778C1.84822 13.1665 1.5 13.5147 1.5 13.9443V20.9443C1.5 21.3738 1.84822 21.7221 2.27778 21.7221H9.27778C9.70733 21.7221 10.0556 21.3738 10.0556 20.9443V13.9443C10.0556 13.5147 9.70733 13.1665 9.27778 13.1665Z" stroke="#0067B1" stroke-width="1.5" stroke-linecap="round" stroke-linejoin="round"/>
</g>
<defs>
<clipPath id="clip0_2451_9346">
<rect width="24" height="24" fill="white" transform="translate(0 -0.000244141)"/>
</clipPath>
</defs>
</svg>
