<svg width="24" height="24" viewBox="0 0 24 24" fill="none" xmlns="http://www.w3.org/2000/svg">
<g clip-path="url(#clip0_757_1759)">
<rect x="4.5" y="1.49976" width="15" height="21" rx="1.5" stroke="#0067B1" stroke-width="1.5" stroke-linejoin="round"/>
<path d="M7.5 17.9998H16.5" stroke="#0067B1" stroke-width="1.5" stroke-linecap="round" stroke-linejoin="round"/>
<path d="M12 13.4998C14.4853 13.4998 16.5 11.485 16.5 8.99976C16.5 6.51447 14.4853 4.49976 12 4.49976C9.51472 4.49976 7.5 6.51447 7.5 8.99976C7.5 11.485 9.51472 13.4998 12 13.4998Z" stroke="#0067B1" stroke-width="1.5" stroke-linecap="round" stroke-linejoin="round"/>
<path d="M7.5 8.99976H16.5" stroke="#0067B1" stroke-width="1.5" stroke-linecap="round" stroke-linejoin="round"/>
<path d="M12 4.49976C12.938 5.73201 13.471 7.33117 13.5 8.99976C13.471 10.6683 12.938 12.2675 12 13.4998C11.062 12.2675 10.529 10.6683 10.5 8.99976C10.529 7.33117 11.062 5.73201 12 4.49976Z" stroke="#0067B1" stroke-width="1.5" stroke-linecap="round" stroke-linejoin="round"/>
</g>
<defs>
<clipPath id="clip0_757_1759">
<rect width="24" height="24" fill="white" transform="translate(0 -0.000244141)"/>
</clipPath>
</defs>
</svg>
