<svg width="24" height="24" viewBox="0 0 24 24" fill="none" xmlns="http://www.w3.org/2000/svg">
<g clip-path="url(#clip0_757_1757)">
<rect x="4.5" y="1.49976" width="15" height="21" rx="1.5" stroke="#0067B1" stroke-width="1.5" stroke-linejoin="round"/>
<path d="M11.4244 4.89278C11.6055 4.36875 12.3945 4.36875 12.5756 4.89278L13.223 6.76515C13.304 6.9995 13.5364 7.15817 13.7986 7.15817H15.8936C16.4799 7.15817 16.7237 7.86326 16.2493 8.18714L14.5545 9.34432C14.3424 9.48916 14.2536 9.7459 14.3346 9.98025L14.982 11.8526C15.1632 12.3766 14.525 12.8124 14.0506 12.4885L12.3558 11.3314C12.1436 11.1865 11.8564 11.1865 11.6442 11.3314L9.9494 12.4885C9.47505 12.8124 8.83681 12.3767 9.018 11.8526L9.66537 9.98025C9.7464 9.7459 9.65763 9.48916 9.44549 9.34432L7.75066 8.18714C7.27631 7.86326 7.52009 7.15817 8.10642 7.15817H10.2014C10.4636 7.15817 10.696 6.9995 10.777 6.76515L11.4244 4.89278Z" fill="#0067B1"/>
</g>
<defs>
<clipPath id="clip0_757_1757">
<rect width="24" height="24" fill="white" transform="translate(0 -0.000244141)"/>
</clipPath>
</defs>
</svg>
