<svg width="24" height="24" viewBox="0 0 24 24" fill="none" xmlns="http://www.w3.org/2000/svg">
<g clip-path="url(#clip0_1760_2377)">
<path d="M8.60604 6.16615C8.60604 6.16615 7.31423 5.52979 12 5.52979C13.6781 5.52979 15.3186 6.02741 16.7139 6.95974C18.1092 7.89207 19.1968 9.21722 19.839 10.7676C20.4812 12.318 20.6492 14.024 20.3218 15.6699C19.9944 17.3158 19.1863 18.8277 17.9997 20.0143C16.813 21.201 15.3012 22.0091 13.6553 22.3364C12.0094 22.6638 10.3034 22.4958 8.75297 21.8536C7.20257 21.2114 5.87742 20.1239 4.94509 18.7286C4.01276 17.3332 3.51514 15.6928 3.51514 14.0146" stroke="#03182B" stroke-width="1.5" stroke-miterlimit="10" stroke-linecap="round"/>
<path d="M12.0002 1.49976L7.75781 5.74218L12.0002 9.9846" stroke="#03182B" stroke-width="1.5" stroke-linecap="round" stroke-linejoin="round"/>
</g>
<defs>
<clipPath id="clip0_1760_2377">
<rect width="24" height="24" fill="white" transform="translate(0 -0.000244141)"/>
</clipPath>
</defs>
</svg>
