<svg width="24" height="24" viewBox="0 0 24 24" fill="none" xmlns="http://www.w3.org/2000/svg">
<g clip-path="url(#clip0_622_2516)">
<g clip-path="url(#clip1_622_2516)">
<path d="M9 9.15722C9.22415 8.03398 10.345 5.9218 13.0348 6.46141C15.1313 6.88201 15.8436 9.77151 13.7072 10.842C12.0261 11.6845 12.0261 13.2008 12.0261 13.8748" stroke="#0067B1" stroke-width="1.5" stroke-linecap="round" stroke-linejoin="round"/>
<path fill-rule="evenodd" clip-rule="evenodd" d="M12.0863 15.7498C12.5833 15.7498 12.9863 16.1527 12.9863 16.6498C12.9863 17.1468 12.5833 17.5498 12.0863 17.5498C11.5892 17.5498 11.1863 17.1468 11.1863 16.6498C11.1863 16.1527 11.5892 15.7498 12.0863 15.7498Z" fill="#0067B1"/>
<path d="M12 22.4998C11.3328 22.1863 2.33794 18.2112 3.0389 5.24976L12 1.49976L20.9611 5.24976C21.6621 18.2112 12.6672 22.1863 12 22.4998Z" stroke="#0067B1" stroke-width="1.5" stroke-linecap="round" stroke-linejoin="round"/>
</g>
</g>
<defs>
<clipPath id="clip0_622_2516">
<rect width="24" height="24" fill="white" transform="translate(0 -0.000244141)"/>
</clipPath>
<clipPath id="clip1_622_2516">
<rect width="24" height="24" fill="white" transform="translate(0 -0.000244141)"/>
</clipPath>
</defs>
</svg>
