<svg width="24" height="24" viewBox="0 0 24 24" fill="none" xmlns="http://www.w3.org/2000/svg">
<path d="M22.6822 11.2106C22.3959 10.8164 21.3321 10.545 20.8821 9.83569C20.4321 9.12637 20.0637 7.59026 18.9183 7.00004C17.7729 6.40982 15.5838 6.24414 14.3337 6.24414C13.0836 6.24414 10.896 6.40618 9.74903 6.99883C8.60208 7.59148 8.23527 9.12637 7.78524 9.83448C7.33521 10.5426 6.27148 10.8164 5.98513 11.2106C5.69879 11.6047 5.49721 14.0965 5.61987 15.3182C5.74254 16.54 5.97146 17.2627 5.97146 17.2627H9.33103C9.88107 17.2627 10.06 17.0484 11.1851 16.9386C12.4195 16.8171 13.6305 16.7765 14.3337 16.7765C15.0368 16.7765 16.2869 16.8171 17.5206 16.9386C18.6457 17.0492 18.8304 17.2627 19.3746 17.2627H22.6951C22.6951 17.2627 22.924 16.54 23.0467 15.3182C23.1694 14.0965 22.967 11.6047 22.6822 11.2106ZM19.959 17.2627H22.1466V17.9108H19.959V17.2627ZM6.52071 17.2627H8.70834V17.9108H6.52071V17.2627Z" stroke="#0067B1" stroke-width="1.5" stroke-linecap="round" stroke-linejoin="round"/>
<path d="M18.1854 13.9782C17.9755 13.7413 17.2915 13.5435 16.386 13.411C15.4805 13.2785 15.1502 13.2442 14.3406 13.2442C13.531 13.2442 13.1627 13.3011 12.2948 13.411C11.4269 13.521 10.7753 13.7167 10.4958 13.9782C10.0765 14.3751 10.6908 14.8205 11.173 14.8746C11.6404 14.9266 12.5746 14.9076 14.3445 14.9076C16.1144 14.9076 17.0487 14.9266 17.516 14.8746C17.9975 14.8174 18.5678 14.4028 18.1854 13.9782ZM20.5681 11.6849C20.5661 11.6573 20.5538 11.6314 20.5335 11.6122C20.5132 11.593 20.4863 11.5818 20.4581 11.5808C20.0387 11.5662 19.6129 11.5954 18.8576 11.8129C18.4722 11.9228 18.1104 12.0997 17.7894 12.3353C17.7084 12.397 17.7372 12.5639 17.8388 12.5816C18.4613 12.6529 19.0876 12.6888 19.7145 12.6891C20.0905 12.6891 20.4786 12.5851 20.5507 12.2576C20.5875 12.0688 20.5934 11.8755 20.5681 11.6849ZM8.09886 11.6849C8.10085 11.6573 8.11319 11.6314 8.13351 11.6122C8.15382 11.593 8.18069 11.5818 8.20894 11.5808C8.62832 11.5662 9.0541 11.5954 9.80941 11.8129C10.1948 11.9228 10.5566 12.0997 10.8776 12.3353C10.9585 12.397 10.9298 12.5639 10.8282 12.5816C10.2057 12.6529 9.57937 12.6888 8.95254 12.6891C8.57648 12.6891 8.18834 12.5851 8.11626 12.2576C8.0795 12.0688 8.07363 11.8755 8.09886 11.6849Z" fill="#0067B1"/>
<path d="M21.686 9.16064H22.3544M6.31274 9.16064H6.98115M6.8976 10.619C6.8976 10.619 8.83388 9.69793 14.3336 9.69793C19.8333 9.69793 21.7696 10.619 21.7696 10.619" stroke="#0067B1" stroke-width="1.5" stroke-linecap="round" stroke-linejoin="round"/>
<path d="M16.8609 3.83309L9.97392 1.49976L0.916504 4.99976L0.916504 10.8456C0.916504 13.5408 1.78044 15.9739 3.49438 18.1575C5.20832 20.3411 7.36817 21.7885 9.97392 22.4998C11.8665 21.9741 13.5238 21.0667 14.946 19.7775" stroke="#0067B1" stroke-width="1.5" stroke-miterlimit="10" stroke-linecap="round" stroke-linejoin="round"/>
</svg>
