<svg width="24" height="24" viewBox="0 0 24 24" fill="none" xmlns="http://www.w3.org/2000/svg">
<path d="M21.1404 17.5307C20.396 16.7807 18.5932 15.6862 17.7185 15.2451C16.5795 14.6713 16.4857 14.6245 15.5904 15.2896C14.9932 15.7335 14.5962 16.1301 13.8973 15.981C13.1984 15.832 11.6796 14.9915 10.3498 13.6659C9.01994 12.3402 8.13072 10.7774 7.98119 10.0809C7.83165 9.38429 8.23478 8.99195 8.67447 8.39336C9.29415 7.54961 9.24728 7.40898 8.71759 6.26992C8.30462 5.38398 7.17822 3.59805 6.4254 2.85742C5.62009 2.06195 5.62009 2.20258 5.10119 2.4182C4.67874 2.59595 4.27345 2.812 3.8904 3.06367C3.14041 3.56195 2.72416 3.97586 2.43306 4.59789C2.14197 5.21992 2.01119 6.6782 3.51447 9.40914C5.01775 12.1401 6.07244 13.5365 8.2554 15.7134C10.4384 17.8902 12.117 19.0607 14.5709 20.437C17.6065 22.1371 18.7709 21.8057 19.3948 21.5151C20.0187 21.2245 20.4345 20.812 20.9337 20.062C21.186 19.6796 21.4025 19.2747 21.5806 18.8526C21.7967 18.3355 21.9373 18.3355 21.1404 17.5307Z" stroke="#0067B1" stroke-width="1.5" stroke-miterlimit="10"/>
</svg>
