<svg width="24" height="24" viewBox="0 0 24 24" fill="none" xmlns="http://www.w3.org/2000/svg">
<path d="M7.93359 6.48027C8.96867 3.57747 11.7417 1.49976 14.9999 1.49976C19.142 1.49976 22.4999 4.85762 22.4999 8.99976C22.4999 12.2419 20.4427 15.0036 17.5624 16.0506" stroke="#0067B1" stroke-width="1.5" stroke-linecap="round" stroke-linejoin="round"/>
<path d="M9 8.99976H22.5" stroke="#0067B1" stroke-width="1.5" stroke-linecap="round" stroke-linejoin="round"/>
<path d="M17.2502 12.8472C17.7152 11.627 17.9724 10.3265 18 8.99976C17.9421 6.21878 16.876 3.55352 15 1.49976C13.124 3.55352 12.0579 6.21878 12 8.99976C12.0385 10.8496 12.5231 12.6482 13.3955 14.2498" stroke="#0067B1" stroke-width="1.5" stroke-linecap="round" stroke-linejoin="round"/>
<path d="M16.0318 19.2536C15.4592 18.6767 14.0724 17.8348 13.3995 17.4955C12.5233 17.0542 12.4512 17.0182 11.7625 17.5298C11.3031 17.8712 11.329 17.8327 10.7914 17.7181C10.2538 17.6034 9.08548 16.9569 8.0625 15.9373C7.03952 14.9176 6.35549 13.7155 6.24046 13.1797C6.12543 12.6439 6.10416 12.6856 6.44239 12.2252C6.91909 11.5762 6.88303 11.468 6.47557 10.5919C6.15789 9.91041 5.2914 8.53667 4.7123 7.96698C4.09282 7.35511 4.09282 7.46328 3.69365 7.62914C3.36868 7.76586 3.05691 7.93205 2.76226 8.12563C2.18532 8.50891 1.86512 8.82728 1.6412 9.30575C1.41727 9.78421 1.31667 10.9059 2.47307 13.0065C3.62947 15.1072 4.44078 16.1813 6.12003 17.8557C7.79928 19.5302 9.09054 20.4305 10.9782 21.4891C13.3134 22.7969 14.209 22.542 14.689 22.3184C15.1689 22.0949 15.4888 21.7776 15.8728 21.2007C16.0669 20.9065 16.2335 20.5951 16.3704 20.2704C16.5366 19.8727 16.6448 19.8727 16.0318 19.2536Z" stroke="#0067B1" stroke-width="1.5" stroke-miterlimit="10"/>
</svg>
