<svg width="24" height="24" viewBox="0 0 24 24" fill="none" xmlns="http://www.w3.org/2000/svg">
<g clip-path="url(#clip0_2451_9353)">
<path d="M4.81774 14.9998C4.51329 14.9998 4.26648 14.7529 4.26648 14.4485V13.3827C4.26648 13.2649 4.27271 13.15 4.28516 13.038C4.29553 12.976 4.17803 12.905 4.12632 12.9408C4.03289 13.0056 3.93323 13.0704 3.82733 13.1352L2.78182 13.711C2.54022 13.844 2.23677 13.765 2.09079 13.531C1.93284 13.2778 2.02029 12.9439 2.28208 12.8006L3.28541 12.2516C3.39754 12.1868 3.50654 12.1338 3.61243 12.0925C3.66157 12.0745 3.6607 11.9361 3.61243 11.9158C3.50654 11.8687 3.39754 11.8127 3.28541 11.7479L2.27264 11.1877C2.015 11.0452 1.92837 10.7165 2.0823 10.4655C2.22724 10.2292 2.53287 10.1493 2.77486 10.2846L3.82733 10.8731C3.93323 10.9379 4.03289 11.0056 4.12632 11.0763C4.12751 11.0771 4.12868 11.0779 4.12986 11.0786C4.17563 11.1086 4.29417 11.0331 4.28516 10.9791C4.27271 10.8672 4.26648 10.7523 4.26648 10.6345V9.55102C4.26648 9.24656 4.51329 8.99976 4.81774 8.99976C5.1222 8.99976 5.369 9.24657 5.369 9.55102V10.6168C5.369 10.7406 5.35966 10.8613 5.34097 10.9791C5.33498 11.033 5.45527 11.1072 5.49981 11.0763C5.59325 11.0056 5.69603 10.9379 5.80815 10.8731L6.85471 10.2968C7.09572 10.1641 7.39843 10.2429 7.54406 10.4763C7.70212 10.7297 7.61378 11.0639 7.35115 11.2061L6.35007 11.7479C6.23795 11.8127 6.12582 11.8687 6.0137 11.9158C5.95522 11.9386 5.95422 12.0738 6.01303 12.0957C6.12242 12.1365 6.23476 12.1885 6.35007 12.2516L7.36181 12.8113C7.62001 12.9541 7.70683 13.2835 7.55257 13.535C7.40779 13.7711 7.10289 13.8515 6.86056 13.7174L5.80815 13.1352C5.69603 13.0704 5.59325 13.0056 5.49981 12.9408C5.44779 12.9048 5.33078 12.9794 5.34169 13.0417C5.3599 13.1458 5.369 13.2565 5.369 13.3738V14.4485C5.369 14.7529 5.1222 14.9998 4.81774 14.9998Z" fill="#0067B1"/>
<path d="M12.2998 14.9998C11.9953 14.9998 11.7485 14.7529 11.7485 14.4485V13.3827C11.7485 13.2649 11.7548 13.15 11.7672 13.038C11.7776 12.976 11.6601 12.905 11.6084 12.9408C11.515 13.0056 11.4153 13.0704 11.3094 13.1352L10.2639 13.711C10.0223 13.844 9.71884 13.765 9.57285 13.531C9.4149 13.2778 9.50236 12.9439 9.76414 12.8006L10.7675 12.2516C10.8796 12.1868 10.9886 12.1338 11.0945 12.0925C11.1436 12.0745 11.1428 11.9361 11.0945 11.9158C10.9886 11.8687 10.8796 11.8127 10.7675 11.7479L9.7547 11.1877C9.49706 11.0452 9.41044 10.7165 9.56436 10.4655C9.7093 10.2292 10.0149 10.1493 10.2569 10.2846L11.3094 10.8731C11.4153 10.9379 11.515 11.0056 11.6084 11.0763C11.6096 11.0771 11.6107 11.0779 11.6119 11.0786C11.6577 11.1086 11.7762 11.0331 11.7672 10.9791C11.7548 10.8672 11.7485 10.7523 11.7485 10.6345V9.55102C11.7485 9.24656 11.9953 8.99976 12.2998 8.99976C12.6043 8.99976 12.8511 9.24657 12.8511 9.55102V10.6168C12.8511 10.7406 12.8417 10.8613 12.823 10.9791C12.817 11.033 12.9373 11.1072 12.9819 11.0763C13.0753 11.0056 13.1781 10.9379 13.2902 10.8731L14.3368 10.2968C14.5778 10.1641 14.8805 10.2429 15.0261 10.4763C15.1842 10.7297 15.0958 11.0639 14.8332 11.2061L13.8321 11.7479C13.72 11.8127 13.6079 11.8687 13.4958 11.9158C13.4373 11.9386 13.4363 12.0738 13.4951 12.0957C13.6045 12.1365 13.7168 12.1885 13.8321 12.2516L14.8439 12.8113C15.1021 12.9541 15.1889 13.2835 15.0346 13.535C14.8899 13.7711 14.585 13.8515 14.3426 13.7174L13.2902 13.1352C13.1781 13.0704 13.0753 13.0056 12.9819 12.9408C12.9299 12.9048 12.8128 12.9794 12.8238 13.0417C12.842 13.1458 12.8511 13.2565 12.8511 13.3738V14.4485C12.8511 14.7529 12.6043 14.9998 12.2998 14.9998Z" fill="#0067B1"/>
<path d="M19.7819 14.9998C19.4774 14.9998 19.2306 14.7529 19.2306 14.4485V13.3827C19.2306 13.2649 19.2368 13.15 19.2493 13.038C19.2597 12.976 19.1422 12.905 19.0905 12.9408C18.997 13.0056 18.8974 13.0704 18.7915 13.1352L17.7459 13.711C17.5044 13.844 17.2009 13.765 17.0549 13.531C16.897 13.2778 16.9844 12.9439 17.2462 12.8006L18.2495 12.2516C18.3617 12.1868 18.4707 12.1338 18.5766 12.0925C18.6257 12.0745 18.6248 11.9361 18.5766 11.9158C18.4707 11.8687 18.3617 11.8127 18.2495 11.7479L17.2368 11.1877C16.9791 11.0452 16.8925 10.7165 17.0464 10.4655C17.1914 10.2292 17.497 10.1493 17.739 10.2846L18.7915 10.8731C18.8974 10.9379 18.997 11.0056 19.0905 11.0763C19.0916 11.0771 19.0928 11.0779 19.094 11.0786C19.1398 11.1086 19.2583 11.0331 19.2493 10.9791C19.2368 10.8672 19.2306 10.7523 19.2306 10.6345V9.55102C19.2306 9.24656 19.4774 8.99976 19.7819 8.99976C20.0863 8.99976 20.3331 9.24657 20.3331 9.55102V10.6168C20.3331 10.7406 20.3238 10.8613 20.3051 10.9791C20.2991 11.033 20.4194 11.1072 20.4639 11.0763C20.5574 11.0056 20.6602 10.9379 20.7723 10.8731L21.8188 10.2968C22.0598 10.1641 22.3626 10.2429 22.5082 10.4763C22.6663 10.7297 22.5779 11.0639 22.3153 11.2061L21.3142 11.7479C21.2021 11.8127 21.09 11.8687 20.9778 11.9158C20.9193 11.9386 20.9183 12.0738 20.9772 12.0957C21.0865 12.1365 21.1989 12.1885 21.3142 12.2516L22.3259 12.8113C22.5841 12.9541 22.671 13.2835 22.5167 13.535C22.3719 13.7711 22.067 13.8515 21.8247 13.7174L20.7723 13.1352C20.6602 13.0704 20.5574 13.0056 20.4639 12.9408C20.4119 12.9048 20.2949 12.9794 20.3058 13.0417C20.324 13.1458 20.3331 13.2565 20.3331 13.3738V14.4485C20.3331 14.7529 20.0863 14.9998 19.7819 14.9998Z" fill="#0067B1"/>
</g>
<defs>
<clipPath id="clip0_2451_9353">
<rect width="24" height="24" fill="white" transform="translate(0 -0.000244141)"/>
</clipPath>
</defs>
</svg>
