<svg width="24" height="24" viewBox="0 0 24 24" fill="none" xmlns="http://www.w3.org/2000/svg">
<g clip-path="url(#clip0_2451_9369)">
<path d="M15.75 21.7498H22.125C22.2245 21.7498 22.3198 21.7102 22.3902 21.6399C22.4605 21.5696 22.5 21.4742 22.5 21.3748V7.49976C22.5 7.30084 22.421 7.11008 22.2803 6.96943C22.1397 6.82877 21.9489 6.74976 21.75 6.74976H16.5C16.3011 6.74976 16.1103 6.82877 15.9697 6.96943C15.829 7.11008 15.75 7.30084 15.75 7.49976V21.7498ZM15.75 21.7498V2.99976C15.75 2.80084 15.671 2.61008 15.5303 2.46943C15.3897 2.32877 15.1989 2.24976 15 2.24976H9C8.80109 2.24976 8.61032 2.32877 8.46967 2.46943C8.32902 2.61008 8.25 2.80084 8.25 2.99976V21.7498M15.75 21.7498H8.25M8.25 21.7498V10.4998C8.25 10.3008 8.17098 10.1101 8.03033 9.96943C7.88968 9.82877 7.69891 9.74976 7.5 9.74976H2.25C2.05109 9.74976 1.86032 9.82877 1.71967 9.96943C1.57902 10.1101 1.5 10.3008 1.5 10.4998V21.3748C1.5 21.4742 1.53951 21.5696 1.60983 21.6399C1.68016 21.7102 1.77554 21.7498 1.875 21.7498H8.25Z" stroke="#0067B1" stroke-width="1.5" stroke-linecap="round" stroke-linejoin="round"/>
</g>
<defs>
<clipPath id="clip0_2451_9369">
<rect width="24" height="24" fill="white" transform="translate(0 -0.000244141)"/>
</clipPath>
</defs>
</svg>
