<svg width="24" height="24" viewBox="0 0 24 24" fill="none" xmlns="http://www.w3.org/2000/svg">
<path d="M9 5.43726H21M9 11.9998H21M9 18.5623H21" stroke="#03182B" stroke-width="1.5" stroke-linecap="round" stroke-linejoin="round"/>
<path d="M4.125 17.2498C4.74632 17.2498 5.25 17.7534 5.25 18.3748C5.25 18.9961 4.74632 19.4998 4.125 19.4998C3.50368 19.4998 3 18.9961 3 18.3748C3 17.7534 3.50368 17.2498 4.125 17.2498ZM4.125 10.8748C4.74632 10.8748 5.25 11.3784 5.25 11.9998C5.25 12.6211 4.74632 13.1248 4.125 13.1248C3.50368 13.1248 3 12.6211 3 11.9998C3 11.3784 3.50368 10.8748 4.125 10.8748ZM4.125 4.49976C4.74632 4.49976 5.25 5.00344 5.25 5.62476C5.25 6.24608 4.74632 6.74976 4.125 6.74976C3.50368 6.74976 3 6.24608 3 5.62476C3 5.00344 3.50368 4.49976 4.125 4.49976Z" fill="#03182B"/>
</svg>
