<svg width="24" height="24" viewBox="0 0 24 24" fill="none" xmlns="http://www.w3.org/2000/svg">
<path d="M17.25 5.99976H21M3 5.99976H14.25M17.25 17.9998H21M3 17.9998H14.25M9.75 11.9998H21M3 11.9998H6.75" stroke="#03182B" stroke-width="1.5" stroke-linecap="round" stroke-linejoin="round"/>
<path d="M15.75 7.49976C16.5784 7.49976 17.25 6.82818 17.25 5.99976C17.25 5.17133 16.5784 4.49976 15.75 4.49976C14.9216 4.49976 14.25 5.17133 14.25 5.99976C14.25 6.82818 14.9216 7.49976 15.75 7.49976Z" stroke="#03182B" stroke-width="1.5" stroke-linecap="round" stroke-linejoin="round"/>
<path d="M8.25 13.4998C9.07843 13.4998 9.75 12.8282 9.75 11.9998C9.75 11.1713 9.07843 10.4998 8.25 10.4998C7.42157 10.4998 6.75 11.1713 6.75 11.9998C6.75 12.8282 7.42157 13.4998 8.25 13.4998Z" stroke="#03182B" stroke-width="1.5" stroke-linecap="round" stroke-linejoin="round"/>
<path d="M15.75 19.4998C16.5784 19.4998 17.25 18.8282 17.25 17.9998C17.25 17.1713 16.5784 16.4998 15.75 16.4998C14.9216 16.4998 14.25 17.1713 14.25 17.9998C14.25 18.8282 14.9216 19.4998 15.75 19.4998Z" stroke="#03182B" stroke-width="1.5" stroke-linecap="round" stroke-linejoin="round"/>
</svg>
