<svg width="24" height="24" viewBox="0 0 24 24" fill="none" xmlns="http://www.w3.org/2000/svg">
<path d="M9.02588 10.6641L13.3351 14.9733L7.37682 20.9317C6.68038 21.6281 5.55124 21.6281 4.85481 20.9317L3.06755 19.1444C2.37111 18.448 2.37111 17.3188 3.06755 16.6224L9.02588 10.6641Z" stroke="#0067B1" stroke-width="1.5" stroke-linejoin="round"/>
<path d="M9.93457 6.33008L17.6693 14.0648L13.335 14.9698L9.03 10.6648L9.93457 6.33008Z" stroke="#0067B1" stroke-width="1.5" stroke-linejoin="round"/>
<path d="M12.1202 4.14466C12.4684 3.79645 13.033 3.79645 13.3812 4.14466L19.8549 10.6184C20.2032 10.9666 20.2032 11.5311 19.8549 11.8794L17.6728 14.0615L9.93811 6.32678L12.1202 4.14466Z" stroke="#0067B1" stroke-width="1.5" stroke-linejoin="round"/>
<path d="M8.8125 14.9998L5.99988 17.8124" stroke="#0067B1" stroke-width="1.5" stroke-linecap="round" stroke-linejoin="round"/>
</svg>
