<svg width="24" height="24" viewBox="0 0 24 24" fill="none" xmlns="http://www.w3.org/2000/svg">
<g clip-path="url(#clip0_1057_1319)">
<path d="M4.63623 4.73047L5.65896 20.8843C5.70754 21.8177 6.39532 22.4997 7.29532 22.4997H16.7044C17.608 22.4997 18.283 21.8177 18.3408 20.8843L19.3635 4.73047" stroke="#EF3E42" stroke-width="1.5" stroke-linecap="round" stroke-linejoin="round"/>
<path d="M3 4.73047H21H3Z" fill="#EF3E42"/>
<path d="M3 4.73047H21" stroke="#EF3E42" stroke-width="1.5" stroke-miterlimit="10" stroke-linecap="round"/>
<path d="M8.72721 4.73053V2.7113C8.72673 2.55207 8.75816 2.39431 8.81966 2.24711C8.88117 2.09991 8.97156 1.96617 9.08561 1.85357C9.19967 1.74098 9.33515 1.65175 9.48426 1.59103C9.63338 1.53031 9.79318 1.49929 9.95448 1.49976H14.0454C14.2067 1.49929 14.3665 1.53031 14.5156 1.59103C14.6647 1.65175 14.8002 1.74098 14.9143 1.85357C15.0283 1.96617 15.1187 2.09991 15.1802 2.24711C15.2417 2.39431 15.2731 2.55207 15.2727 2.7113V4.73053M11.9999 7.9613V19.269M8.31812 7.9613L8.72721 19.269M15.6818 7.9613L15.2727 19.269" stroke="#EF3E42" stroke-width="1.5" stroke-linecap="round" stroke-linejoin="round"/>
</g>
<defs>
<clipPath id="clip0_1057_1319">
<rect width="24" height="24" fill="white" transform="translate(0 -0.000244141)"/>
</clipPath>
</defs>
</svg>
