<svg width="24" height="24" viewBox="0 0 24 24" fill="none" xmlns="http://www.w3.org/2000/svg">
<path d="M18 19.4998C18.4142 19.4998 18.75 19.8355 18.75 20.2498C18.75 20.664 18.4142 20.9998 18 20.9998H6C5.58579 20.9998 5.25 20.664 5.25 20.2498C5.25 19.8355 5.58579 19.4998 6 19.4998H18ZM22.5 2.99976C22.9142 2.99976 23.25 3.33554 23.25 3.74976V17.2498C23.25 17.664 22.9142 17.9998 22.5 17.9998H1.5C1.08579 17.9998 0.75 17.664 0.75 17.2498V3.74976C0.75 3.33554 1.08579 2.99976 1.5 2.99976H22.5ZM2.25 16.4998H21.75V4.49976H2.25V16.4998Z" fill="#0067B1"/>
</svg>
