<svg width="24" height="24" viewBox="0 0 24 24" fill="none" xmlns="http://www.w3.org/2000/svg">
<path d="M18.8439 7.87476C18.7065 9.78116 17.2923 11.2498 15.7501 11.2498C14.2079 11.2498 12.7914 9.78163 12.6564 7.87476C12.5157 5.89147 13.8925 4.49976 15.7501 4.49976C17.6078 4.49976 18.9845 5.92757 18.8439 7.87476Z" stroke="#0067B1" stroke-width="1.5" stroke-linecap="round" stroke-linejoin="round"/>
<path d="M15.7498 14.2498C12.695 14.2498 9.75731 15.7671 9.02138 18.7221C8.92388 19.113 9.16903 19.4998 9.57075 19.4998H21.9293C22.3311 19.4998 22.5748 19.113 22.4787 18.7221C21.7428 15.7198 18.8051 14.2498 15.7498 14.2498Z" stroke="#0067B1" stroke-width="1.5" stroke-miterlimit="10"/>
<path d="M9.37496 8.71569C9.26527 10.2382 8.12246 11.4373 6.89058 11.4373C5.65871 11.4373 4.51402 10.2387 4.40621 8.71569C4.29418 7.13179 5.40652 5.99976 6.89058 5.99976C8.37465 5.99976 9.48699 7.16085 9.37496 8.71569Z" stroke="#0067B1" stroke-width="1.5" stroke-linecap="round" stroke-linejoin="round"/>
<path d="M6.37488 18.0001L1.9556 18.0001C1.63497 18.0001 1.43903 17.6912 1.51638 17.379C2.10466 15.0188 4.4531 13.8071 6.8906 13.8071C7.62905 13.8071 8.33633 13.8905 8.99988 14.0945" stroke="#0067B1" stroke-width="1.5" stroke-miterlimit="10" stroke-linecap="round"/>
</svg>
