<svg width="24" height="24" viewBox="0 0 24 24" fill="none" xmlns="http://www.w3.org/2000/svg">
<path d="M12.0002 12.8305V21.1382C12.0002 21.5788 11.8251 22.0015 11.5135 22.3131C11.2019 22.6247 10.7793 22.7997 10.3387 22.7997C9.89799 22.7997 9.47537 22.6247 9.16377 22.3131C8.85217 22.0015 8.67712 21.5788 8.67712 21.1382M12.0002 12.8305L11.4971 12.453C10.7144 11.8661 9.74631 11.5812 8.7705 11.6505C7.79469 11.7198 6.87662 12.1388 6.18481 12.8305C5.85752 12.5032 5.46897 12.2435 5.04134 12.0664C4.61371 11.8893 4.15537 11.7981 3.6925 11.7981C3.22963 11.7981 2.7713 11.8893 2.34367 12.0664C1.91603 12.2435 1.52748 12.5032 1.2002 12.8305C1.2002 6.86555 6.03527 2.03048 12.0002 2.03048M12.0002 12.8305L12.5033 12.453C13.286 11.8661 14.2541 11.5812 15.2299 11.6505C16.2057 11.7198 17.1238 12.1388 17.8156 12.8305C18.1429 12.5032 18.5314 12.2435 18.9591 12.0664C19.3867 11.8893 19.845 11.7981 20.3079 11.7981C20.7708 11.7981 21.2291 11.8893 21.6567 12.0664C22.0844 12.2435 22.4729 12.5032 22.8002 12.8305C22.8002 6.86555 17.9651 2.03048 12.0002 2.03048M12.0002 2.03048V1.19971" stroke="#0067B1" stroke-width="1.5" stroke-linecap="round" stroke-linejoin="round"/>
</svg>
