<svg width="25" height="25" viewBox="0 0 25 25" fill="none" xmlns="http://www.w3.org/2000/svg">
<path d="M12.5 0.609375C19.1212 0.609375 24.5 5.98814 24.5 12.6094C24.5 19.2306 19.1212 24.6094 12.5 24.6094C5.87876 24.6094 0.5 19.2306 0.5 12.6094C0.5 5.98814 5.87876 0.609375 12.5 0.609375ZM12.5 1.65332C6.4427 1.65332 1.54395 6.55208 1.54395 12.6094C1.54395 18.6667 6.4427 23.5654 12.5 23.5654C18.5573 23.5654 23.4561 18.6667 23.4561 12.6094C23.4561 6.55208 18.5573 1.65332 12.5 1.65332ZM12.5 6.60938C12.7761 6.60938 13 6.83323 13 7.10938V12.0879H18.2393C18.5273 12.088 18.7607 12.3213 18.7607 12.6094C18.7607 12.8975 18.5273 13.1308 18.2393 13.1309H13V18.1094C13 18.3855 12.7761 18.6094 12.5 18.6094C12.2239 18.6094 12 18.3855 12 18.1094V13.1309H6.76074C6.47265 13.1308 6.23926 12.8975 6.23926 12.6094C6.23926 12.3213 6.47265 12.088 6.76074 12.0879H12V7.10938C12 6.83323 12.2239 6.60938 12.5 6.60938Z" fill="#0067B1"/>
</svg>
