<svg width="24" height="24" viewBox="0 0 24 24" fill="none" xmlns="http://www.w3.org/2000/svg">
<g clip-path="url(#clip0_12078_2667)">
<path d="M7.5 1.49976H4.5C2.84315 1.49976 1.5 2.8429 1.5 4.49976V7.49976" stroke="#0067B1" stroke-width="1.5" stroke-linecap="round"/>
<path d="M16.5 1.49976H19.5C21.1569 1.49976 22.5 2.8429 22.5 4.49976V7.49976" stroke="#0067B1" stroke-width="1.5" stroke-linecap="round"/>
<path d="M7.5 22.4998H4.5C2.84315 22.4998 1.5 21.1566 1.5 19.4998V16.4998" stroke="#0067B1" stroke-width="1.5" stroke-linecap="round"/>
<path d="M16.5 22.4998H19.5C21.1569 22.4998 22.5 21.1566 22.5 19.4998V16.4998" stroke="#0067B1" stroke-width="1.5" stroke-linecap="round"/>
<g clip-path="url(#clip1_12078_2667)">
<path d="M15.0939 8.06226C14.9561 9.92097 13.547 11.4373 12.0002 11.4373C10.4533 11.4373 9.04175 9.92132 8.9064 8.06226C8.76578 6.12866 10.1369 4.68726 12.0002 4.68726C13.8634 4.68726 15.2345 6.16382 15.0939 8.06226Z" stroke="#0067B1" stroke-width="1.5" stroke-linecap="round" stroke-linejoin="round"/>
<path d="M12.0001 13.6873C8.94149 13.6873 5.83719 15.3748 5.26274 18.5599C5.19348 18.9438 5.41075 19.3123 5.81259 19.3123H18.1876C18.5898 19.3123 18.807 18.9438 18.7378 18.5599C18.163 15.3748 15.0587 13.6873 12.0001 13.6873Z" stroke="#0067B1" stroke-width="1.5" stroke-miterlimit="10"/>
</g>
</g>
<defs>
<clipPath id="clip0_12078_2667">
<rect width="24" height="24" fill="white" transform="translate(0 -0.000244141)"/>
</clipPath>
<clipPath id="clip1_12078_2667">
<rect width="18" height="18" fill="white" transform="translate(3 2.99976)"/>
</clipPath>
</defs>
</svg>
