<svg width="24" height="24" viewBox="0 0 24 24" fill="none" xmlns="http://www.w3.org/2000/svg">
<path d="M13.5504 5.59094C13.2947 7.89223 11.6327 9.80997 9.71494 9.80997C7.7972 9.80997 6.13516 7.89223 5.87946 5.59094C5.75161 3.28965 7.41365 1.49976 9.71494 1.49976C12.0162 1.49976 13.6783 3.28965 13.5504 5.59094Z" stroke="#0067B1" stroke-width="1.5" stroke-linecap="round" stroke-linejoin="round"/>
<path d="M9.75 19.4994H2.23192C1.67478 19.4994 1.39621 18.9423 1.53549 18.5244C2.23192 14.2066 6.41048 11.978 10.4497 11.978C10.9121 11.978 11.3804 12.008 11.8472 12.0679" stroke="#0067B1" stroke-width="1.5" stroke-miterlimit="10" stroke-linecap="round" stroke-linejoin="round"/>
<path d="M19.8147 14.4127V11.4722C19.8147 10.8329 19.559 10.1937 19.0476 9.81015C18.5362 9.4266 17.8969 9.1709 17.2577 9.1709C16.6184 9.1709 15.9792 9.4266 15.4678 9.81015C14.9564 10.1937 14.7007 10.8329 14.7007 11.4722V14.4127" stroke="#0067B1" stroke-width="1.5" stroke-linecap="round" stroke-linejoin="round"/>
<path d="M20.9657 14.4126H13.8062C12.9112 14.4126 12.272 15.0518 12.272 15.8189V20.6772C12.272 21.4443 12.9112 22.0836 13.8062 22.0836H20.9657C21.8607 22.0836 22.4999 21.4443 22.4999 20.6772V15.6911C22.4999 15.0518 21.8607 14.4126 20.9657 14.4126Z" stroke="#0067B1" stroke-width="1.5" stroke-linecap="round" stroke-linejoin="round"/>
<path d="M17.3858 18.7595C17.7389 18.7595 18.0251 18.4733 18.0251 18.1202C18.0251 17.7672 17.7389 17.481 17.3858 17.481C17.0328 17.481 16.7466 17.7672 16.7466 18.1202C16.7466 18.4733 17.0328 18.7595 17.3858 18.7595Z" stroke="#0067B1" stroke-width="1.5"/>
</svg>
