<svg width="24" height="24" viewBox="0 0 24 24" fill="none" xmlns="http://www.w3.org/2000/svg">
<path d="M14.6283 5.95688C14.3497 8.46402 12.539 10.5533 10.4497 10.5533C8.36047 10.5533 6.54976 8.46402 6.27119 5.95688C6.13191 3.44975 7.94261 1.49976 10.4497 1.49976C12.9569 1.49976 14.7676 3.44975 14.6283 5.95688Z" stroke="#0067B1" stroke-width="1.5" stroke-linecap="round" stroke-linejoin="round"/>
<path d="M11.25 20.9999H2.23192C1.67478 20.9999 1.39621 20.4428 1.53549 20.0249C2.23192 15.7071 6.41048 13.4785 10.4497 13.4785C10.9121 13.4785 11.3804 13.5085 11.8472 13.5684" stroke="#0067B1" stroke-width="1.5" stroke-miterlimit="10" stroke-linecap="round" stroke-linejoin="round"/>
<path d="M18 22.4998C20.4853 22.4998 22.5 20.485 22.5 17.9998C22.5 15.5145 20.4853 13.4998 18 13.4998C15.5147 13.4998 13.5 15.5145 13.5 17.9998C13.5 20.485 15.5147 22.4998 18 22.4998Z" stroke="#0067B1" stroke-width="1.5" stroke-miterlimit="10" stroke-linecap="round" stroke-linejoin="round"/>
<path d="M15 14.9998L21 20.9998L15 14.9998Z" fill="#0067B1"/>
<path d="M15 14.9998L21 20.9998" stroke="#0067B1" stroke-width="1.5" stroke-miterlimit="10" stroke-linecap="round" stroke-linejoin="round"/>
</svg>
