<svg width="24" height="24" viewBox="0 0 24 24" fill="none" xmlns="http://www.w3.org/2000/svg">
<path d="M22.0175 10.9966C21.6739 10.5405 20.3975 10.2265 19.8575 9.40569C19.3175 8.58491 18.8755 6.80741 17.5011 6.12444C16.1268 5.44147 13.4999 5.24976 11.9999 5.24976C10.4999 5.24976 7.87488 5.43726 6.49863 6.12304C5.12238 6.80882 4.68223 8.58491 4.14223 9.40429C3.60223 10.2237 2.32582 10.5405 1.98223 10.9966C1.63863 11.4527 1.39676 14.336 1.54394 15.7498C1.69113 17.1635 1.96582 17.9998 1.96582 17.9998H5.99707C6.65707 17.9998 6.87176 17.7518 8.22176 17.6248C9.70301 17.4841 11.1561 17.4373 11.9999 17.4373C12.8436 17.4373 14.3436 17.4841 15.8239 17.6248C17.1739 17.7527 17.3957 17.9998 18.0486 17.9998H22.033C22.033 17.9998 22.3077 17.1635 22.4549 15.7498C22.6021 14.336 22.3593 11.4527 22.0175 10.9966ZM18.7499 17.9998H21.3749V18.7498H18.7499V17.9998ZM2.62488 17.9998H5.24988V18.7498H2.62488V17.9998Z" stroke="#0067B1" stroke-width="1.5" stroke-linecap="round" stroke-linejoin="round"/>
<path d="M17.0847 14.4918C16.8076 14.1717 15.9048 13.9045 14.7095 13.7254C13.5142 13.5464 13.0782 13.5 12.0095 13.5C10.9407 13.5 10.4547 13.5768 9.30903 13.7254C8.1634 13.874 7.30324 14.1384 6.93434 14.4918C6.38074 15.0281 7.19168 15.63 7.82824 15.7031C8.44512 15.7734 9.6784 15.7476 12.0147 15.7476C14.3509 15.7476 15.5842 15.7734 16.2011 15.7031C16.8367 15.6257 17.5895 15.0656 17.0847 14.4918ZM20.23 11.3929C20.2273 11.3557 20.211 11.3208 20.1842 11.2948C20.1574 11.2689 20.1219 11.2537 20.0847 11.2523C19.5311 11.2326 18.969 11.272 17.972 11.5659C17.4633 11.7144 16.9857 11.9536 16.562 12.2718C16.4551 12.3553 16.4931 12.5807 16.6272 12.6047C17.4489 12.701 18.2757 12.7496 19.1031 12.75C19.5995 12.75 20.1118 12.6093 20.207 12.1668C20.2555 11.9117 20.2633 11.6505 20.23 11.3929ZM3.77028 11.3929C3.77291 11.3557 3.7892 11.3208 3.81601 11.2948C3.84283 11.2689 3.87829 11.2537 3.91559 11.2523C4.46918 11.2326 5.03121 11.272 6.02824 11.5659C6.53691 11.7144 7.01458 11.9536 7.43824 12.2718C7.54512 12.3553 7.50715 12.5807 7.37309 12.6047C6.55129 12.701 5.72458 12.7496 4.89715 12.75C4.40074 12.75 3.8884 12.6093 3.79324 12.1668C3.74473 11.9117 3.73698 11.6505 3.77028 11.3929Z" fill="#0067B1"/>
<path d="M20.25 8.99976H21M3 8.99976H3.75M3.65625 9.89038C3.65625 9.89038 5.82891 9.32788 12 9.32788C18.1711 9.32788 20.3438 9.89038 20.3438 9.89038" stroke="#0067B1" stroke-width="1.5" stroke-linecap="round" stroke-linejoin="round"/>
</svg>
