<svg width="24" height="24" viewBox="0 0 24 24" fill="none" xmlns="http://www.w3.org/2000/svg">
<g clip-path="url(#clip0_2451_9341)">
<g clip-path="url(#clip1_2451_9341)">
<path d="M22.5 11.9998V19.9998C22.5 21.3805 21.4152 22.4998 20.0769 22.4998H3.92308C2.58485 22.4998 1.5 21.3805 1.5 19.9998V9.99976C1.5 8.61904 2.58485 7.49976 3.92308 7.49976H11.25" stroke="#0067B1" stroke-width="1.5" stroke-linecap="round" stroke-linejoin="round"/>
<path d="M22.5 7.49976L15 7.49976" stroke="#0067B1" stroke-width="1.5" stroke-linecap="round" stroke-linejoin="round"/>
<path d="M19.5 10.4998L22.5 7.49976L19.5 4.49976" stroke="#0067B1" stroke-width="1.5" stroke-linecap="round" stroke-linejoin="round"/>
<path d="M1.5 9.99987V7.61766C1.49962 7.05164 1.69493 6.50322 2.05224 6.067C2.40956 5.63079 2.90647 5.33411 3.45729 5.22815L12.5 2.99976" stroke="#0067B1" stroke-width="1.5" stroke-linecap="round" stroke-linejoin="round"/>
<path d="M18 16.4998C17.7033 16.4998 17.4133 16.4118 17.1666 16.247C16.92 16.0821 16.7277 15.8479 16.6142 15.5738C16.5006 15.2997 16.4709 14.9981 16.5288 14.7071C16.5867 14.4161 16.7296 14.1489 16.9393 13.9391C17.1491 13.7293 17.4164 13.5865 17.7074 13.5286C17.9983 13.4707 18.2999 13.5004 18.574 13.6139C18.8481 13.7275 19.0824 13.9197 19.2472 14.1664C19.412 14.4131 19.5 14.7031 19.5 14.9998C19.5 15.3976 19.342 15.7791 19.0607 16.0604C18.7794 16.3417 18.3978 16.4998 18 16.4998Z" fill="#0067B1"/>
</g>
</g>
<defs>
<clipPath id="clip0_2451_9341">
<rect width="24" height="24" fill="white" transform="translate(0 -0.000244141)"/>
</clipPath>
<clipPath id="clip1_2451_9341">
<rect width="24" height="24" fill="white" transform="translate(0 -0.000244141)"/>
</clipPath>
</defs>
</svg>
