<svg width="24" height="24" viewBox="0 0 24 24" fill="none" xmlns="http://www.w3.org/2000/svg">
<g clip-path="url(#clip0_2451_9355)">
<g clip-path="url(#clip1_2451_9355)">
<path d="M20.0769 7H3.92308C2.58485 7 1.5 8.11929 1.5 9.5V19.5C1.5 20.8807 2.58485 22 3.92308 22H20.0769C21.4152 22 22.5 20.8807 22.5 19.5V9.5C22.5 8.11929 21.4152 7 20.0769 7Z" stroke="#0067B1" stroke-width="1.5" stroke-linecap="round" stroke-linejoin="round"/>
<path d="M19.5 6.88805V4.42956C19.4999 4.07184 19.4193 3.71856 19.2641 3.39491C19.1088 3.07127 18.8827 2.78525 18.6018 2.55725C18.3209 2.32925 17.9923 2.1649 17.6392 2.07592C17.2862 1.98693 16.9175 1.97552 16.5594 2.04248L3.51321 4.7278C2.94666 4.83376 2.43555 5.13043 2.06802 5.56665C1.7005 6.00286 1.49961 6.55128 1.5 7.1173V9.49951" stroke="#0067B1" stroke-width="1.5" stroke-linecap="round" stroke-linejoin="round"/>
<path d="M17 15.4995C16.7033 15.4995 16.4133 15.4115 16.1666 15.2467C15.92 15.0819 15.7277 14.8476 15.6142 14.5735C15.5006 14.2994 15.4709 13.9978 15.5288 13.7069C15.5867 13.4159 15.7296 13.1486 15.9393 12.9389C16.1491 12.7291 16.4164 12.5862 16.7074 12.5283C16.9983 12.4705 17.2999 12.5002 17.574 12.6137C17.8481 12.7272 18.0824 12.9195 18.2472 13.1662C18.412 13.4128 18.5 13.7028 18.5 13.9995C18.5 14.3973 18.342 14.7789 18.0607 15.0602C17.7794 15.3415 17.3978 15.4995 17 15.4995Z" fill="#0067B1"/>
</g>
</g>
<defs>
<clipPath id="clip0_2451_9355">
<rect width="24" height="24" fill="white" transform="translate(0 -0.000244141)"/>
</clipPath>
<clipPath id="clip1_2451_9355">
<rect width="24" height="24" fill="white" transform="translate(0 -0.000244141)"/>
</clipPath>
</defs>
</svg>
