<svg width="48" height="48" viewBox="0 0 48 48" fill="none" xmlns="http://www.w3.org/2000/svg">
<path d="M24 3C12.4032 3 3 12.4032 3 24C3 35.5968 12.4032 45 24 45C35.5968 45 45 35.5968 45 24C45 12.4032 35.5968 3 24 3Z" fill="#0067B1"/>
<path d="M22.5 21H24.75V33" stroke="white" stroke-width="3" stroke-linecap="round" stroke-linejoin="round"/>
<path d="M21.75 33.75H27.75H21.75Z" fill="white"/>
<path d="M21.75 33.75H27.75" stroke="white" stroke-width="3" stroke-miterlimit="10" stroke-linecap="round"/>
<path d="M24.6 12C24.1847 12 23.7786 12.1232 23.4333 12.3539C23.088 12.5847 22.8188 12.9126 22.6599 13.2964C22.5009 13.6801 22.4593 14.1023 22.5404 14.5097C22.6214 14.917 22.8214 15.2912 23.1151 15.5849C23.4088 15.8786 23.783 16.0786 24.1903 16.1596C24.5977 16.2407 25.0199 16.1991 25.4036 16.0401C25.7874 15.8812 26.1153 15.612 26.3461 15.2667C26.5768 14.9214 26.7 14.5153 26.7 14.1C26.7 13.543 26.4787 13.0089 26.0849 12.6151C25.6911 12.2212 25.157 12 24.6 12Z" fill="white"/>
</svg>
