<svg width="48" height="48" viewBox="0 0 48 48" fill="none" xmlns="http://www.w3.org/2000/svg">
<path fill-rule="evenodd" clip-rule="evenodd" d="M41.8063 15.7414C46.1295 25.4513 41.7626 36.8273 32.0527 41.1505C28.3173 42.8136 24.3353 43.1906 20.6032 42.4721L19.1795 39.2746C22.9081 40.4738 27.0748 40.3573 30.9345 38.6388C39.2572 34.9333 43.0003 25.1824 39.2947 16.8596C39.2371 16.7301 39.178 16.6017 39.1174 16.4745L41.6297 15.3559C41.6898 15.4835 41.7487 15.6119 41.8063 15.7414ZM9.15523 30.2786L6.64361 31.3968C2.32047 21.6869 6.68732 10.3109 16.3972 5.98772C20.5818 4.12465 25.0757 3.87549 29.1813 4.97238L30.7075 8.40025C26.6357 6.66126 21.8793 6.55645 17.5155 8.49935C9.1927 12.2049 5.44969 21.9558 9.15523 30.2786ZM19.3802 25.0942C21.8106 24.0121 22.9036 21.1647 21.8215 18.7343C20.7394 16.3039 17.892 15.2109 15.4616 16.2929C13.0312 17.375 11.9381 20.2225 13.0202 22.6529C14.1023 25.0833 16.9497 26.1763 19.3802 25.0942ZM19.3099 19.8525C19.7744 20.8958 19.3052 22.1181 18.2619 22.5826C17.2186 23.0471 15.9963 22.5779 15.5318 21.5346C15.0674 20.4914 15.5365 19.2691 16.5798 18.8046C17.6231 18.3401 18.8454 18.8093 19.3099 19.8525ZM33.5855 31.1172C36.0159 30.0351 37.1089 27.1877 36.0268 24.7573C34.9447 22.3268 32.0973 21.2338 29.6669 22.3159C27.2365 23.398 26.1435 26.2454 27.2255 28.6758C28.3076 31.1062 31.1551 32.1993 33.5855 31.1172ZM33.5152 25.8755C33.9797 26.9188 33.5105 28.1411 32.4672 28.6056C31.424 29.0701 30.2017 28.6009 29.7372 27.5576C29.2727 26.5143 29.7419 25.292 30.7851 24.8275C31.8284 24.363 33.0507 24.8322 33.5152 25.8755ZM21.015 36.0226C20.2853 35.8133 19.8633 35.0521 20.0725 34.3223L25.8761 14.0831C26.0853 13.3533 26.8466 12.9313 27.5764 13.1406C28.3062 13.3498 28.7281 14.1111 28.5189 14.8409L22.7154 35.0801C22.5061 35.8099 21.7448 36.2319 21.015 36.0226ZM15.7415 41.179C15.4695 41.8878 14.6743 42.2418 13.9655 41.9697L9.42821 40.228C8.71943 39.9559 8.36542 39.1608 8.63749 38.452C8.90956 37.7432 9.7047 37.3892 10.4135 37.6613L11.8525 38.2137L10.1738 34.4432C9.86499 33.7496 10.1769 32.937 10.8705 32.6282C11.564 32.3194 12.3766 32.6314 12.6854 33.3249L14.3642 37.0954L14.9165 35.6564C15.1886 34.9476 15.9838 34.5936 16.6925 34.8657C17.4013 35.1378 17.7553 35.9329 17.4833 36.6417L15.7415 41.179ZM35.5761 4.61481C34.8673 4.34273 34.0722 4.69675 33.8001 5.40553L32.0584 9.94287C31.7863 10.6516 32.1403 11.4468 32.8491 11.7189C33.5579 11.9909 34.353 11.6369 34.6251 10.9281L35.1775 9.48908L36.8562 13.2596C37.165 13.9532 37.9776 14.2651 38.6712 13.9563C39.3647 13.6475 39.6767 12.8349 39.3679 12.1414L37.6891 8.37084L39.1282 8.92324C39.837 9.19531 40.6321 8.84129 40.9042 8.13252C41.1762 7.42374 40.8222 6.6286 40.1134 6.35653L35.5761 4.61481Z" fill="white"/>
<path d="M14.7191 24H33.2807H14.7191Z" fill="#EF3E42"/>
<path d="M14.7191 24H33.2807" stroke="white" stroke-width="2.625" stroke-miterlimit="10" stroke-linecap="round" stroke-linejoin="round"/>
</svg>
