<svg width="16" height="16" viewBox="0 0 16 16" fill="none" xmlns="http://www.w3.org/2000/svg">
<path d="M1.53846 5.05762C1.24108 5.05762 1 5.29869 1 5.59608V6.94439C1.16842 6.88486 1.34966 6.85247 1.53846 6.85247H4.519C5.28185 6.85247 5.85883 7.37963 6.11938 7.97377C6.30403 8.39483 6.53234 8.67054 6.80926 8.84704C7.08805 9.02472 7.46507 9.13301 8 9.13301C8.53493 9.13301 8.91195 9.02472 9.19074 8.84704C9.46766 8.67054 9.69597 8.39483 9.88062 7.97377C10.1412 7.37963 10.7181 6.85247 11.481 6.85247H14.4615C14.6503 6.85247 14.8316 6.88486 15 6.94439V5.59608C15 5.29869 14.7589 5.05762 14.4615 5.05762H1.53846Z" fill="#0067B1"/>
<path d="M2 2.18591C1.5 2.18591 1 2.70262 1 3V4.07269C1.16842 4.01316 1.34966 3.98077 1.53846 3.98077H14.4615C14.6503 3.98077 14.8316 4.01316 15 4.07269V3C15 2.5 14.5 2.18591 14 2.18591H2Z" fill="#0067B1"/>
<path d="M15 8.4679C15 8.17052 14.7589 7.92944 14.4615 7.92944H11.481C11.2539 7.92944 11.0039 8.09391 10.8669 8.40633C10.6184 8.9729 10.2674 9.43792 9.76955 9.75524C9.27353 10.0714 8.68024 10.21 8 10.21C7.31976 10.21 6.72647 10.0714 6.23045 9.75524C5.73256 9.43792 5.38159 8.9729 5.13312 8.40633C4.99611 8.09391 4.74606 7.92944 4.519 7.92944H1.53846C1.24108 7.92944 1 8.17052 1 8.4679V12.5C1 13.5 1.5 13.8141 2.5 13.8141H13.5C14.5 13.8141 15 13.5 15 12.5L15 8.4679Z" fill="#0067B1"/>
</svg>
