<svg width="16" height="16" viewBox="0 0 16 16" fill="none" xmlns="http://www.w3.org/2000/svg">
<g clip-path="url(#clip0_9178_3595)">
<path fill-rule="evenodd" clip-rule="evenodd" d="M3.61022 4.01432C3.69478 4.21845 3.8051 4.40955 3.9377 4.58334H2.16667C1.32128 4.58334 0.5 5.18538 0.5 6.08334V7.58334C0.5 8.30098 1.02455 8.82962 1.66675 9.01299V9.01501H7.5V4.58499H8.5V9.01501H14.3334V9.01294C14.9755 8.82953 15.5 8.30092 15.5 7.58334V6.08334C15.5 5.18538 14.6787 4.58334 13.8333 4.58334H12.0625C12.1951 4.40955 12.3054 4.21845 12.3899 4.01432C12.5823 3.54989 12.6326 3.03885 12.5346 2.54581C12.4365 2.05278 12.1944 1.5999 11.839 1.24444C11.4835 0.88898 11.0306 0.646909 10.5376 0.548839C10.0446 0.450768 9.53352 0.501101 9.06909 0.693474C8.64306 0.869943 8.27381 1.15867 8.00008 1.52784C7.72636 1.15867 7.3571 0.869943 6.93107 0.693474C6.46664 0.501101 5.9556 0.450768 5.46256 0.548839C4.96953 0.646909 4.51664 0.88898 4.16119 1.24444C3.80573 1.5999 3.56366 2.05278 3.46559 2.54581C3.36752 3.03885 3.41785 3.54989 3.61022 4.01432ZM14.3334 10.015H8.5V15.5H12.0834C12.6717 15.5 13.2409 15.2789 13.6647 14.8774C14.0894 14.4751 14.3334 13.9234 14.3334 13.3421V10.015ZM7.5 15.5V10.015H1.66675V13.3421C1.66675 13.9234 1.91075 14.4751 2.33544 14.8774C2.75921 15.2789 3.32847 15.5 3.91675 15.5H7.5ZM6.54839 1.61735C6.26668 1.50067 5.95671 1.47014 5.65765 1.52962C5.3586 1.58911 5.0839 1.73594 4.86829 1.95155C4.65269 2.16715 4.50586 2.44185 4.44637 2.7409C4.38689 3.03996 4.41742 3.34994 4.5341 3.63164C4.65079 3.91334 4.84839 4.15412 5.10191 4.32352C5.35544 4.49292 5.6535 4.58333 5.95842 4.58333H7.50008V4.4993V3.04167C7.50008 2.73675 7.40967 2.43869 7.24026 2.18516C7.07086 1.93164 6.83009 1.73404 6.54839 1.61735ZM10.0417 4.58333H8.50008V3.04167C8.50008 2.73676 8.5905 2.43869 8.7599 2.18516C8.9293 1.93164 9.17008 1.73404 9.45178 1.61735C9.73348 1.50067 10.0435 1.47014 10.3425 1.52962C10.6416 1.58911 10.9163 1.73594 11.1319 1.95155C11.3475 2.16715 11.4943 2.44185 11.5538 2.7409C11.6133 3.03996 11.5827 3.34993 11.4661 3.63164C11.3494 3.91334 11.1518 4.15412 10.8983 4.32352C10.6447 4.49292 10.3467 4.58333 10.0417 4.58333Z" fill="#0067B1"/>
</g>
<defs>
<clipPath id="clip0_9178_3595">
<rect width="16" height="16" fill="white"/>
</clipPath>
</defs>
</svg>
