<svg width="16" height="16" viewBox="0 0 16 16" fill="none" xmlns="http://www.w3.org/2000/svg">
<path d="M8.33548 1.12923C8.14503 0.956923 7.85501 0.956923 7.66456 1.12923L0.664564 7.46257C0.511225 7.6013 0.459108 7.82012 0.533446 8.01308C0.607783 8.20604 0.793234 8.33333 1.00002 8.33333H2.00002V13.8333C2.00002 14.4777 2.52236 15 3.16669 15H6.60002C6.87616 15 7.10002 14.7761 7.10002 14.5V10.3333H8.90002V14.5C8.90002 14.7761 9.12388 15 9.40002 15H12.8334C13.4777 15 14 14.4777 14 13.8333V8.33333H15C15.2068 8.33333 15.3923 8.20604 15.4666 8.01308C15.5409 7.82012 15.4888 7.6013 15.3355 7.46257L8.33548 1.12923Z" fill="#0067B1"/>
</svg>
