<svg width="16" height="16" viewBox="0 0 16 16" fill="none" xmlns="http://www.w3.org/2000/svg">
<path fill-rule="evenodd" clip-rule="evenodd" d="M3.33325 0.5C2.50482 0.5 1.83325 1.17157 1.83325 2V14C1.83325 14.8284 2.50482 15.5 3.33325 15.5H11.9999C12.8283 15.5 13.4999 14.8284 13.4999 14V9.72074L10.4827 12.7379C10.4187 12.802 10.3384 12.8474 10.2504 12.8694L7.78793 13.4851C7.61754 13.5277 7.4373 13.4777 7.31311 13.3535C7.18892 13.2293 7.13899 13.0491 7.18159 12.8787L7.79722 10.4162C7.8192 10.3283 7.86466 10.248 7.92874 10.1839L12.4171 5.6956C12.7097 5.403 13.0923 5.22117 13.4999 5.17711V2C13.4999 1.17157 12.8283 0.5 11.9999 0.5H3.33325ZM4.83325 3.66665H9.83325C10.1094 3.66665 10.3333 3.89051 10.3333 4.16665C10.3333 4.44279 10.1094 4.66665 9.83325 4.66665H4.83325C4.55711 4.66665 4.33325 4.44279 4.33325 4.16665C4.33325 3.89051 4.55711 3.66665 4.83325 3.66665ZM4.83325 6H7.83325C8.10939 6 8.33325 6.22386 8.33325 6.5C8.33325 6.77614 8.10939 7 7.83325 7H4.83325C4.55711 7 4.33325 6.77614 4.33325 6.5C4.33325 6.22386 4.55711 6 4.83325 6Z" fill="#0067B1"/>
<path d="M13.6942 6.16663C13.4805 6.16663 13.2755 6.25154 13.1243 6.40268L8.73393 10.7931L8.354 12.3128L9.87371 11.9328L14.2641 7.54246C14.4153 7.39132 14.5002 7.18632 14.5002 6.97257C14.5002 6.75882 14.4153 6.55383 14.2641 6.40268C14.113 6.25154 13.908 6.16663 13.6942 6.16663Z" fill="#0067B1"/>
</svg>
