<svg width="24" height="24" viewBox="0 0 24 24" fill="none" xmlns="http://www.w3.org/2000/svg">
<path d="M12 1.5C6.2016 1.5 1.5 6.2016 1.5 12C1.5 17.7984 6.2016 22.5 12 22.5C17.7984 22.5 22.5 17.7984 22.5 12C22.5 6.2016 17.7984 1.5 12 1.5Z" fill="#0067B1"/>
<path d="M11.25 10.5H12.375V16.5" stroke="white" stroke-width="1.5" stroke-linecap="round" stroke-linejoin="round"/>
<path d="M10.875 16.875H13.875H10.875Z" fill="white"/>
<path d="M10.875 16.875H13.875" stroke="white" stroke-width="1.5" stroke-miterlimit="10" stroke-linecap="round"/>
<path d="M12.3 6C12.0923 6 11.8893 6.06158 11.7167 6.17696C11.544 6.29233 11.4094 6.45632 11.3299 6.64818C11.2505 6.84004 11.2297 7.05116 11.2702 7.25484C11.3107 7.45852 11.4107 7.64562 11.5575 7.79246C11.7044 7.93931 11.8915 8.03931 12.0952 8.07982C12.2988 8.12034 12.51 8.09955 12.7018 8.02007C12.8937 7.9406 13.0577 7.80602 13.173 7.63335C13.2884 7.46068 13.35 7.25767 13.35 7.05C13.35 6.77152 13.2394 6.50445 13.0425 6.30754C12.8455 6.11062 12.5785 6 12.3 6Z" fill="white"/>
</svg>
