<svg width="24" height="24" viewBox="0 0 24 24" fill="none" xmlns="http://www.w3.org/2000/svg">
<path fill-rule="evenodd" clip-rule="evenodd" d="M20.9032 7.87056C23.0648 12.7255 20.8814 18.4135 16.0264 20.5751C14.1587 21.4067 12.1677 21.5952 10.3016 21.2359L9.58982 19.6372C11.4541 20.2368 13.5375 20.1785 15.4673 19.3193C19.6287 17.4665 21.5002 12.5911 19.6474 8.42968C19.6186 8.36494 19.589 8.30075 19.5588 8.23712L20.8149 7.67785C20.845 7.74161 20.8744 7.80585 20.9032 7.87056ZM4.57768 15.1392L3.32186 15.6983C1.1603 10.8433 3.34372 5.15531 8.19868 2.99374C10.291 2.0622 12.5379 1.93763 14.5907 2.48607L15.3538 4.2C13.3179 3.33051 10.9397 3.27811 8.75781 4.24955C4.59641 6.10232 2.7249 10.9778 4.57768 15.1392ZM9.69014 12.547C10.9053 12.0059 11.4519 10.5822 10.9108 9.36703C10.3698 8.15182 8.94605 7.60531 7.73085 8.14635C6.51564 8.6874 5.96913 10.1111 6.51017 11.3263C7.05122 12.5415 8.47493 13.088 9.69014 12.547ZM9.655 9.92615C9.88725 10.4478 9.65265 11.0589 9.13101 11.2912C8.60938 11.5234 7.99823 11.2888 7.76599 10.7672C7.53374 10.2456 7.76833 9.63441 8.28997 9.40216C8.81161 9.16992 9.42275 9.40451 9.655 9.92615ZM16.7928 15.5585C18.008 15.0174 18.5545 13.5937 18.0135 12.3785C17.4724 11.1633 16.0487 10.6168 14.8335 11.1578C13.6183 11.6989 13.0718 13.1226 13.6128 14.3378C14.1539 15.553 15.5776 16.0995 16.7928 15.5585ZM16.7577 12.9376C16.9899 13.4593 16.7553 14.0704 16.2337 14.3027C15.712 14.5349 15.1009 14.3003 14.8686 13.7787C14.6364 13.257 14.871 12.6459 15.3926 12.4136C15.9143 12.1814 16.5254 12.416 16.7577 12.9376ZM10.5076 18.0112C10.1427 17.9066 9.9317 17.5259 10.0363 17.161L12.9381 7.0414C13.0427 6.67651 13.4233 6.46552 13.7882 6.57016C14.1531 6.67479 14.3641 7.05542 14.2595 7.42031L11.3577 17.5399C11.2531 17.9048 10.8725 18.1158 10.5076 18.0112ZM7.87083 20.5894C7.73479 20.9438 7.33722 21.1208 6.98284 20.9847L4.71417 20.1139C4.35978 19.9778 4.18277 19.5803 4.31881 19.2259C4.45484 18.8715 4.85241 18.6945 5.2068 18.8305L5.92632 19.1067L5.08695 17.2215C4.93256 16.8747 5.08851 16.4684 5.4353 16.314C5.78208 16.1596 6.18837 16.3156 6.34277 16.6623L7.18214 18.5476L7.45834 17.8281C7.59437 17.4737 7.99194 17.2967 8.34633 17.4327C8.70072 17.5688 8.87773 17.9663 8.74169 18.3207L7.87083 20.5894ZM17.7881 2.30728C17.4337 2.17125 17.0362 2.34825 16.9001 2.70264L16.0293 4.97131C15.8932 5.3257 16.0702 5.72327 16.4246 5.85931C16.779 5.99534 17.1766 5.81833 17.3126 5.46394L17.5888 4.74442L18.4282 6.62968C18.5826 6.97646 18.9889 7.13242 19.3357 6.97802C19.6824 6.82363 19.8384 6.41734 19.684 6.07055L18.8446 4.1853L19.5641 4.4615C19.9185 4.59753 20.3161 4.42052 20.4521 4.06614C20.5882 3.71175 20.4112 3.31418 20.0568 3.17814L17.7881 2.30728Z" fill="white"/>
<path d="M7.35962 12H16.6404H7.35962Z" fill="#EF3E42"/>
<path d="M7.35962 12H16.6404" stroke="white" stroke-width="1.3125" stroke-miterlimit="10" stroke-linecap="round" stroke-linejoin="round"/>
</svg>
