<svg width="24" height="24" viewBox="0 0 24 24" fill="none" xmlns="http://www.w3.org/2000/svg">
<g clip-path="url(#clip0_890_1206)">
<path d="M2.30769 7.58643C1.86162 7.58643 1.5 7.94804 1.5 8.39412V10.4166C1.75263 10.3273 2.02449 10.2787 2.30769 10.2787H6.7785C7.92278 10.2787 8.78824 11.0695 9.17907 11.9607C9.45604 12.5923 9.79851 13.0058 10.2139 13.2706C10.6321 13.5371 11.1976 13.6995 12 13.6995C12.8024 13.6995 13.3679 13.5371 13.7861 13.2706C14.2015 13.0058 14.544 12.5923 14.8209 11.9607C15.2118 11.0695 16.0772 10.2787 17.2215 10.2787H21.6923C21.9755 10.2787 22.2474 10.3273 22.5 10.4166V8.39412C22.5 7.94804 22.1384 7.58643 21.6923 7.58643H2.30769Z" fill="#0067B1"/>
<path d="M3 3.27881C2.25 3.27881 1.5 4.05386 1.5 4.49994V6.10897C1.75263 6.01968 2.02449 5.97109 2.30769 5.97109H21.6923C21.9755 5.97109 22.2474 6.01968 22.5 6.10897V4.49994C22.5 3.74994 21.75 3.27881 21 3.27881H3Z" fill="#0067B1"/>
<path d="M22.5 12.7019C22.5 12.2558 22.1384 11.8942 21.6923 11.8942H17.2215C16.8809 11.8942 16.5058 12.1409 16.3003 12.6095C15.9276 13.4594 15.4012 14.1569 14.6543 14.6329C13.9103 15.1071 13.0204 15.315 12 15.315C10.9796 15.315 10.0897 15.1071 9.34568 14.6329C8.59885 14.1569 8.07238 13.4594 7.69968 12.6095C7.49417 12.1409 7.11908 11.8942 6.7785 11.8942H2.30769C1.86162 11.8942 1.5 12.2558 1.5 12.7019V18.75C1.5 20.25 2.25 20.7211 3.75 20.7211H20.25C21.75 20.7211 22.5 20.25 22.5 18.75L22.5 12.7019Z" fill="#0067B1"/>
</g>
<defs>
<clipPath id="clip0_890_1206">
<rect width="24" height="24" fill="white"/>
</clipPath>
</defs>
</svg>
