<svg width="24" height="24" viewBox="0 0 24 24" fill="none" xmlns="http://www.w3.org/2000/svg">
<g clip-path="url(#clip0_890_1201)">
<path d="M12.3085 8.87502C11.6643 8.81139 11.0161 8.94846 10.4527 9.26746C9.88931 9.58646 9.43831 10.0718 9.16142 10.657C8.88454 11.2423 8.79531 11.8988 8.90595 12.5367C9.01659 13.1746 9.32169 13.7627 9.77949 14.2205C10.2373 14.6783 10.8254 14.9834 11.4633 15.094C12.1012 15.2046 12.7577 15.1154 13.3429 14.8385C13.9281 14.5616 14.4134 14.1106 14.7324 13.5473C15.0514 12.9839 15.1885 12.3357 15.1249 11.6914C15.0523 10.9691 14.7323 10.2942 14.219 9.78088C13.7057 9.2676 13.0308 8.94757 12.3085 8.87502ZM19.8695 12C19.8675 12.3413 19.8424 12.6821 19.7944 13.0201L22.0126 14.7599C22.1092 14.84 22.1743 14.9517 22.1963 15.0752C22.2183 15.1988 22.1958 15.3261 22.1328 15.4346L20.0343 19.0654C19.9706 19.1729 19.871 19.2544 19.753 19.2956C19.6351 19.3368 19.5064 19.335 19.3896 19.2906L17.1866 18.4035C17.0651 18.3552 16.9335 18.3377 16.8036 18.3527C16.6737 18.3677 16.5496 18.4146 16.4423 18.4894C16.1061 18.7209 15.7527 18.9266 15.3854 19.1047C15.2699 19.1608 15.17 19.2445 15.0946 19.3484C15.0191 19.4523 14.9703 19.5731 14.9527 19.7003L14.6224 22.0501C14.6008 22.1742 14.5366 22.2869 14.4411 22.3689C14.3455 22.451 14.2244 22.4973 14.0984 22.5H9.90141C9.77754 22.4979 9.6581 22.4536 9.56276 22.3745C9.46742 22.2954 9.40187 22.1861 9.37691 22.0648L9.04719 19.7185C9.02867 19.5899 8.97867 19.4679 8.90163 19.3633C8.8246 19.2587 8.72291 19.1747 8.6056 19.1189C8.2387 18.9418 7.88659 18.7356 7.55267 18.5021C7.44575 18.4278 7.32201 18.3811 7.19259 18.3665C7.06317 18.3518 6.93213 18.3696 6.8113 18.4182L4.60877 19.3049C4.49205 19.3493 4.36338 19.3511 4.24545 19.31C4.12751 19.2689 4.02786 19.1875 3.96405 19.0801L1.86554 15.4493C1.80245 15.3408 1.77991 15.2135 1.80192 15.0899C1.82393 14.9664 1.88908 14.8547 1.98575 14.7746L3.86053 13.3027C3.96324 13.2212 4.04396 13.1153 4.09537 12.9946C4.14678 12.874 4.16725 12.7424 4.15492 12.6118C4.13725 12.4072 4.12646 12.2031 4.12646 11.9985C4.12646 11.7939 4.13676 11.5928 4.15492 11.3926C4.1659 11.2628 4.14443 11.1323 4.09244 11.0129C4.04045 10.8935 3.95957 10.789 3.85709 10.7086L1.9833 9.23664C1.88819 9.15621 1.82442 9.04489 1.80316 8.92216C1.7819 8.79944 1.8045 8.67315 1.86701 8.56542L3.96553 4.93458C4.02925 4.82712 4.12887 4.74561 4.24681 4.70441C4.36476 4.66321 4.49346 4.66496 4.61024 4.70937L6.81326 5.59647C6.93475 5.64484 7.06634 5.66232 7.19624 5.64733C7.32614 5.63235 7.45029 5.58537 7.55758 5.51061C7.89379 5.27908 8.24709 5.0734 8.61444 4.89533C8.72992 4.8392 8.82981 4.75549 8.90529 4.65161C8.98076 4.54772 9.0295 4.42686 9.04719 4.29967L9.3774 1.94993C9.39908 1.82583 9.4632 1.71312 9.55877 1.63106C9.65435 1.54899 9.77546 1.50267 9.90141 1.5H14.0984C14.2223 1.50214 14.3417 1.54642 14.4371 1.62553C14.5324 1.70464 14.598 1.81386 14.6229 1.93521L14.9527 4.28152C14.9712 4.4101 15.0212 4.53212 15.0982 4.63672C15.1752 4.74132 15.2769 4.82527 15.3942 4.8811C15.7611 5.0582 16.1132 5.26445 16.4472 5.49785C16.5541 5.57224 16.6778 5.61886 16.8073 5.63351C16.9367 5.64815 17.0677 5.63037 17.1885 5.58175L19.3911 4.69514C19.5078 4.65069 19.6365 4.64886 19.7544 4.68997C19.8723 4.73108 19.972 4.81249 20.0358 4.91986L22.1343 8.5507C22.1974 8.65918 22.2199 8.78653 22.1979 8.91007C22.1759 9.03362 22.1108 9.14534 22.0141 9.22535L20.1393 10.6973C20.0362 10.7786 19.955 10.8844 19.9031 11.005C19.8513 11.1257 19.8304 11.2574 19.8425 11.3882C19.8587 11.5913 19.8695 11.7954 19.8695 12Z" fill="#0067B1"/>
</g>
<defs>
<clipPath id="clip0_890_1201">
<rect width="24" height="24" fill="white"/>
</clipPath>
</defs>
</svg>
