<svg width="24" height="24" viewBox="0 0 24 24" fill="none" xmlns="http://www.w3.org/2000/svg">
<g clip-path="url(#clip0_9178_3609)">
<path d="M11.25 15.0234V23.25H5.875C4.99265 23.25 4.13856 22.9186 3.50293 22.3164C2.86589 21.7129 2.5 20.8846 2.5 20.0127V15.0234H11.25ZM21.5 20.0127C21.5 20.8846 21.1341 21.7129 20.4971 22.3164C19.8614 22.9185 19.0073 23.25 18.125 23.25H12.75V15.0234H21.5V20.0127ZM13.6035 1.04004C14.3002 0.75148 15.0671 0.676136 15.8066 0.823242C16.5461 0.970371 17.2257 1.33311 17.7588 1.86621C18.2919 2.39931 18.6546 3.07895 18.8018 3.81836C18.9489 4.55791 18.8735 5.32485 18.585 6.02148C18.4581 6.32767 18.2926 6.61431 18.0938 6.875H20.75C22.0181 6.875 23.25 7.77807 23.25 9.125V11.375C23.25 12.4514 22.4632 13.2444 21.5 13.5195V13.5234H12.75V6.87793H11.25V13.5234H2.5V13.5195C1.53675 13.2444 0.75 12.4514 0.75 11.375V9.125C0.750009 7.77807 1.98192 6.875 3.25 6.875H5.90625C5.70741 6.61434 5.54184 6.32762 5.41504 6.02148C5.12651 5.32487 5.05114 4.55788 5.19824 3.81836C5.34539 3.07893 5.70908 2.39932 6.24219 1.86621C6.7752 1.33337 7.45418 0.970368 8.19336 0.823242C8.93285 0.676148 9.69989 0.751536 10.3965 1.04004C11.0355 1.30474 11.5894 1.73823 12 2.29199C12.4106 1.73824 12.9645 1.30474 13.6035 1.04004ZM9.82227 2.42578C9.39981 2.25088 8.93478 2.20572 8.48633 2.29492C8.03784 2.38418 7.62609 2.60438 7.30273 2.92773C6.97938 3.25111 6.75916 3.66281 6.66992 4.11133C6.58071 4.55981 6.62585 5.02479 6.80078 5.44727C6.97581 5.86982 7.27303 6.23125 7.65332 6.48535C8.0335 6.73928 8.48031 6.87498 8.9375 6.875H11.25V4.5625C11.25 4.10513 11.1145 3.65763 10.8604 3.27734C10.6063 2.8972 10.2447 2.60076 9.82227 2.42578ZM15.5137 2.29492C15.0651 2.2057 14.6002 2.2508 14.1777 2.42578C13.7552 2.60078 13.3937 2.89714 13.1396 3.27734C12.8855 3.65763 12.75 4.10513 12.75 4.5625V6.875H15.0625C15.5199 6.875 15.9674 6.73945 16.3477 6.48535C16.7279 6.23126 17.0242 5.86976 17.1992 5.44727C17.3742 5.02478 17.4203 4.55982 17.3311 4.11133C17.2419 3.66294 17.0214 3.25108 16.6982 2.92773C16.3748 2.60433 15.9623 2.38415 15.5137 2.29492Z" fill="#0067B1"/>
</g>
<defs>
<clipPath id="clip0_9178_3609">
<rect width="24" height="24" fill="white"/>
</clipPath>
</defs>
</svg>
