<svg width="24" height="24" viewBox="0 0 24 24" fill="none" xmlns="http://www.w3.org/2000/svg">
<g clip-path="url(#clip0_890_1203)">
<path d="M12.5032 1.69385C12.2175 1.43538 11.7825 1.43538 11.4968 1.69385L0.996846 11.1938C0.766837 11.402 0.688663 11.7302 0.800169 12.0196C0.911675 12.3091 1.18985 12.5 1.50003 12.5H3.00003V20.75C3.00003 21.7165 3.78353 22.5 4.75003 22.5H9.90003C10.3142 22.5 10.65 22.1642 10.65 21.75V15.5H13.35V21.75C13.35 22.1642 13.6858 22.5 14.1 22.5H19.25C20.2165 22.5 21 21.7165 21 20.75V12.5H22.5C22.8102 12.5 23.0884 12.3091 23.1999 12.0196C23.3114 11.7302 23.2332 11.402 23.0032 11.1938L12.5032 1.69385Z" fill="#0067B1"/>
</g>
<defs>
<clipPath id="clip0_890_1203">
<rect width="24" height="24" fill="white"/>
</clipPath>
</defs>
</svg>
