<svg width="24" height="24" viewBox="0 0 24 24" fill="none" xmlns="http://www.w3.org/2000/svg">
<g clip-path="url(#clip0_890_1202)">
<path fill-rule="evenodd" clip-rule="evenodd" d="M5 0.75C3.75736 0.75 2.75 1.75736 2.75 3V21C2.75 22.2426 3.75736 23.25 5 23.25H18C19.2426 23.25 20.25 22.2426 20.25 21V14.5811L15.7242 19.1069C15.6281 19.203 15.5077 19.2712 15.3758 19.3041L11.682 20.2276C11.4264 20.2915 11.1561 20.2166 10.9698 20.0303C10.7835 19.844 10.7086 19.5737 10.7725 19.3181L11.696 15.6243C11.7289 15.4924 11.7971 15.372 11.8932 15.2759L18.6257 8.5434C19.0646 8.1045 19.6386 7.83176 20.25 7.76567V3C20.25 1.75736 19.2426 0.75 18 0.75H5ZM7.25 5.49998H14.75C15.1642 5.49998 15.5 5.83576 15.5 6.24998C15.5 6.66419 15.1642 6.99998 14.75 6.99998H7.25C6.83579 6.99998 6.5 6.66419 6.5 6.24998C6.5 5.83576 6.83579 5.49998 7.25 5.49998ZM7.25 9H11.75C12.1642 9 12.5 9.33579 12.5 9.75C12.5 10.1642 12.1642 10.5 11.75 10.5H7.25C6.83579 10.5 6.5 10.1642 6.5 9.75C6.5 9.33579 6.83579 9 7.25 9Z" fill="#0067B1"/>
<path d="M20.5413 9.25C20.2207 9.25 19.9132 9.37737 19.6865 9.60408L13.1009 16.1897L12.531 18.4692L14.8106 17.8993L21.3962 11.3138C21.6229 11.087 21.7503 10.7795 21.7503 10.4589C21.7503 10.1383 21.6229 9.8308 21.3962 9.60408C21.1695 9.37737 20.862 9.25 20.5413 9.25Z" fill="#0067B1"/>
</g>
<defs>
<clipPath id="clip0_890_1202">
<rect width="24" height="24" fill="white"/>
</clipPath>
</defs>
</svg>
