<svg width="16" height="16" viewBox="0 0 16 16" fill="none" xmlns="http://www.w3.org/2000/svg">
<path d="M10.154 12.3077V12.8462C10.154 13.4174 9.92704 13.9652 9.52311 14.3692C9.11918 14.7731 8.57134 15 8.0001 15C7.42885 15 6.88101 14.7731 6.47708 14.3692C6.07315 13.9652 5.84623 13.4174 5.84623 12.8462V12.3077M13.7778 11.2116C12.9136 10.1538 12.3035 9.61538 12.3035 6.69928C12.3035 4.02885 10.9398 3.07745 9.81742 2.61538C9.66833 2.55413 9.528 2.41346 9.48256 2.26034C9.28569 1.59029 8.73376 1 8.0001 1C7.26643 1 6.71417 1.59063 6.51931 2.26101C6.47388 2.41582 6.33354 2.55413 6.18445 2.61538C5.06074 3.07812 3.69842 4.02615 3.69842 6.69928C3.69673 9.61538 3.08658 10.1538 2.22234 11.2116C1.86426 11.6498 2.17792 12.3077 2.80423 12.3077H13.1993C13.8223 12.3077 14.1339 11.6477 13.7778 11.2116Z" stroke="#03182B" stroke-linecap="round" stroke-linejoin="round"/>
</svg>
