<svg width="16" height="16" viewBox="0 0 16 16" fill="none" xmlns="http://www.w3.org/2000/svg">
<path d="M11.8889 1.5H4.11111C3.49746 1.5 3 1.94772 3 2.5V13.5C3 14.0523 3.49746 14.5 4.11111 14.5H11.8889C12.5025 14.5 13 14.0523 13 13.5V2.5C13 1.94772 12.5025 1.5 11.8889 1.5Z" stroke="#0067B1" stroke-linecap="round" stroke-linejoin="round"/>
<path d="M4.5 3H11.5V5H4.5V3Z" stroke="#0067B1" stroke-linecap="round" stroke-linejoin="round"/>
<path d="M5.25 8C5.66421 8 6 7.66421 6 7.25C6 6.83579 5.66421 6.5 5.25 6.5C4.83579 6.5 4.5 6.83579 4.5 7.25C4.5 7.66421 4.83579 8 5.25 8Z" fill="#0067B1"/>
<path d="M8 8C8.41421 8 8.75 7.66421 8.75 7.25C8.75 6.83579 8.41421 6.5 8 6.5C7.58579 6.5 7.25 6.83579 7.25 7.25C7.25 7.66421 7.58579 8 8 8Z" fill="#0067B1"/>
<path d="M10.75 8C11.1642 8 11.5 7.66421 11.5 7.25C11.5 6.83579 11.1642 6.5 10.75 6.5C10.3358 6.5 10 6.83579 10 7.25C10 7.66421 10.3358 8 10.75 8Z" fill="#0067B1"/>
<path d="M5.25 10.5C5.66421 10.5 6 10.1642 6 9.75C6 9.33579 5.66421 9 5.25 9C4.83579 9 4.5 9.33579 4.5 9.75C4.5 10.1642 4.83579 10.5 5.25 10.5Z" fill="#0067B1"/>
<path d="M8 10.5C8.41421 10.5 8.75 10.1642 8.75 9.75C8.75 9.33579 8.41421 9 8 9C7.58579 9 7.25 9.33579 7.25 9.75C7.25 10.1642 7.58579 10.5 8 10.5Z" fill="#0067B1"/>
<path d="M5.25 13C5.66421 13 6 12.6642 6 12.25C6 11.8358 5.66421 11.5 5.25 11.5C4.83579 11.5 4.5 11.8358 4.5 12.25C4.5 12.6642 4.83579 13 5.25 13Z" fill="#0067B1"/>
<path d="M8 13C8.41421 13 8.75 12.6642 8.75 12.25C8.75 11.8358 8.41421 11.5 8 11.5C7.58579 11.5 7.25 11.8358 7.25 12.25C7.25 12.6642 7.58579 13 8 13Z" fill="#0067B1"/>
<path d="M11.5 9.75C11.5 9.33579 11.1642 9 10.75 9C10.3358 9 10 9.33579 10 9.75V12.25C10 12.6642 10.3358 13 10.75 13C11.1642 13 11.5 12.6642 11.5 12.25V9.75Z" fill="#0067B1"/>
</svg>
