<svg width="16" height="16" viewBox="0 0 16 16" fill="none" xmlns="http://www.w3.org/2000/svg">
<g clip-path="url(#clip0_2446_3255)">
<rect x="1" y="2" width="14" height="13" rx="1" stroke="#03182B" stroke-linecap="round" stroke-linejoin="round"/>
<path d="M9.25 8.25C9.66421 8.25 10 7.91421 10 7.5C10 7.08579 9.66421 6.75 9.25 6.75C8.83579 6.75 8.5 7.08579 8.5 7.5C8.5 7.91421 8.83579 8.25 9.25 8.25Z" fill="#03182B"/>
<path d="M11.75 8.25C12.1642 8.25 12.5 7.91421 12.5 7.5C12.5 7.08579 12.1642 6.75 11.75 6.75C11.3358 6.75 11 7.08579 11 7.5C11 7.91421 11.3358 8.25 11.75 8.25Z" fill="#03182B"/>
<path d="M9.25 10.75C9.66421 10.75 10 10.4142 10 10C10 9.58579 9.66421 9.25 9.25 9.25C8.83579 9.25 8.5 9.58579 8.5 10C8.5 10.4142 8.83579 10.75 9.25 10.75Z" fill="#03182B"/>
<path d="M11.75 10.75C12.1642 10.75 12.5 10.4142 12.5 10C12.5 9.58579 12.1642 9.25 11.75 9.25C11.3358 9.25 11 9.58579 11 10C11 10.4142 11.3358 10.75 11.75 10.75Z" fill="#03182B"/>
<path d="M4.25 10.75C4.66421 10.75 5 10.4142 5 10C5 9.58579 4.66421 9.25 4.25 9.25C3.83579 9.25 3.5 9.58579 3.5 10C3.5 10.4142 3.83579 10.75 4.25 10.75Z" fill="#03182B"/>
<path d="M6.75 10.75C7.16421 10.75 7.5 10.4142 7.5 10C7.5 9.58579 7.16421 9.25 6.75 9.25C6.33579 9.25 6 9.58579 6 10C6 10.4142 6.33579 10.75 6.75 10.75Z" fill="#03182B"/>
<path d="M4.25 13.25C4.66421 13.25 5 12.9142 5 12.5C5 12.0858 4.66421 11.75 4.25 11.75C3.83579 11.75 3.5 12.0858 3.5 12.5C3.5 12.9142 3.83579 13.25 4.25 13.25Z" fill="#03182B"/>
<path d="M6.75 13.25C7.16421 13.25 7.5 12.9142 7.5 12.5C7.5 12.0858 7.16421 11.75 6.75 11.75C6.33579 11.75 6 12.0858 6 12.5C6 12.9142 6.33579 13.25 6.75 13.25Z" fill="#03182B"/>
<path d="M9.25 13.25C9.66421 13.25 10 12.9142 10 12.5C10 12.0858 9.66421 11.75 9.25 11.75C8.83579 11.75 8.5 12.0858 8.5 12.5C8.5 12.9142 8.83579 13.25 9.25 13.25Z" fill="#03182B"/>
<path d="M4 1V2M12 1V2" stroke="#03182B" stroke-linecap="round" stroke-linejoin="round"/>
<path d="M14.5 5H1.5" stroke="#03182B" stroke-linecap="round" stroke-linejoin="round"/>
</g>
<defs>
<clipPath id="clip0_2446_3255">
<rect width="16" height="16" fill="white"/>
</clipPath>
</defs>
</svg>
