<svg width="16" height="16" viewBox="0 0 16 16" fill="none" xmlns="http://www.w3.org/2000/svg">
<path d="M15 9.5V12.5C15 13.0523 14.5523 13.5 14 13.5H2C1.44772 13.5 1 13.0523 1 12.5V3.5C1 2.94771 1.44772 2.5 2 2.5H9.5" stroke="#0067B1" stroke-linecap="round" stroke-linejoin="round"/>
<path d="M1 6H9.5" stroke="#0067B1" stroke-linecap="round" stroke-linejoin="round"/>
<path d="M15 3.10001C15 2.33002 14.216 1.70003 13.25 1.70003M13.25 1.70003C12.284 1.70003 11.5 2.33002 11.5 3.10001C11.5 3.86999 12.284 4.49998 13.25 4.49998C14.216 4.49998 15 5.12997 15 5.89996C15 6.66995 14.216 7.29994 13.25 7.29994M13.25 1.70003L13.2499 1M13.25 7.29994C12.284 7.29994 11.5 6.66995 11.5 5.89996M13.25 7.29994L13.2499 8" stroke="#0067B1" stroke-miterlimit="10" stroke-linecap="round" stroke-linejoin="round"/>
<path d="M6 8H3V9.25H6V8Z" fill="#0067B1"/>
</svg>
