<svg width="16" height="16" viewBox="0 0 16 16" fill="none" xmlns="http://www.w3.org/2000/svg">
<rect x="1" y="2.5" width="14" height="11" rx="1" stroke="#0067B1" stroke-linecap="round" stroke-linejoin="round"/>
<path d="M8.5 5H3.5C3.22386 5 3 5.22386 3 5.5C3 5.77614 3.22386 6 3.5 6H8.5C8.77614 6 9 5.77614 9 5.5C9 5.22386 8.77614 5 8.5 5Z" fill="#0067B1"/>
<path d="M6.5 7.25H3.5C3.22386 7.25 3 7.47386 3 7.75C3 8.02614 3.22386 8.25 3.5 8.25H6.5C6.77614 8.25 7 8.02614 7 7.75C7 7.47386 6.77614 7.25 6.5 7.25Z" fill="#0067B1"/>
<path d="M11.9219 6.89107C11.804 6.76543 11.6611 6.66576 11.5025 6.59845C11.3439 6.53114 11.1729 6.49765 11.0006 6.50013C10.6381 6.50013 10.3103 6.63794 10.0775 6.88857C9.8447 7.13919 9.72751 7.48607 9.75439 7.85732C9.80782 8.59107 10.3669 9.18763 11.0006 9.18763C11.6344 9.18763 12.1925 8.59107 12.2466 7.85794C12.2741 7.48982 12.1585 7.14638 11.9219 6.89107ZM13.116 12.0001H8.88532C8.83025 12.001 8.77565 11.9898 8.72539 11.9673C8.67512 11.9448 8.6304 11.9115 8.59439 11.8698C8.55534 11.823 8.52732 11.7681 8.51239 11.709C8.49746 11.6499 8.496 11.5883 8.50814 11.5286C8.6097 10.9798 8.92626 10.5189 9.42376 10.1954C9.86564 9.90825 10.4256 9.75013 11.0006 9.75013C11.5756 9.75013 12.1356 9.90825 12.5775 10.1954C13.075 10.5189 13.3916 10.9798 13.4931 11.5286C13.5053 11.5883 13.5038 11.6499 13.4889 11.709C13.474 11.7681 13.4459 11.823 13.4069 11.8698C13.3709 11.9115 13.3262 11.9448 13.2759 11.9673C13.2256 11.9898 13.171 12.001 13.116 12.0001Z" fill="#0067B1"/>
</svg>
