<svg width="16" height="16" viewBox="0 0 16 16" fill="none" xmlns="http://www.w3.org/2000/svg">
<path d="M15 6.66671V3.33337C15 2.78109 14.5523 2.33337 14 2.33337H2C1.44772 2.33337 1 2.78109 1 3.33337V6.66671" stroke="#03182B" stroke-linecap="round" stroke-linejoin="round"/>
<path d="M15 9V6C15 5.44772 14.5523 5 14 5H2C1.44772 5 1 5.44772 1 6V9" stroke="#03182B" stroke-linecap="round" stroke-linejoin="round"/>
<path d="M14 13.6666H8.36842H2C1.44772 13.6666 1 13.2189 1 12.6666V8.66663C1 8.11434 1.44771 7.66663 2 7.66663H4.76764C5.22724 7.66663 5.61122 7.98774 5.7958 8.40864C6.19798 9.32573 6.87163 9.78427 8 9.78427C9.12837 9.78427 9.80202 9.32573 10.2042 8.40864C10.3888 7.98774 10.7728 7.66663 11.2324 7.66663H14C14.5523 7.66663 15 8.11434 15 8.66663V12.6666C15 13.2189 14.5523 13.6666 14 13.6666Z" stroke="#03182B" stroke-linecap="round" stroke-linejoin="round"/>
</svg>
