<svg width="16" height="16" viewBox="0 0 16 16" fill="none" xmlns="http://www.w3.org/2000/svg">
<path d="M2.07118 9.55287C2.43463 10.8938 3.25721 12.0687 4.39873 12.8772C5.54026 13.6858 6.93008 14.078 8.33137 13.9871C9.73265 13.8962 11.0587 13.3277 12.0835 12.3785C13.1083 11.4294 13.7684 10.1583 13.9514 8.78187C14.1344 7.40547 13.8289 6.00892 13.087 4.83022C12.3452 3.65151 11.2128 2.7636 9.88284 2.31779C8.55292 1.87198 7.10777 1.89587 5.79366 2.38537C4.47956 2.87487 3.37782 3.7997 2.6762 5.00226L2.00317 6.15465" stroke="#0067B1" stroke-linecap="round" stroke-linejoin="round"/>
<path d="M7.5 5V8.5H11" stroke="#0067B1" stroke-linecap="round" stroke-linejoin="round"/>
<path d="M1.25 3.50012L1.98205 6.23217L4.7141 5.50012" stroke="#0067B1" stroke-linecap="round" stroke-linejoin="round"/>
</svg>
