<svg width="16" height="16" viewBox="0 0 16 16" fill="none" xmlns="http://www.w3.org/2000/svg">
<path d="M14.5 10.1C14.5 9.33002 13.716 8.70003 12.75 8.70003M12.75 8.70003C11.784 8.70003 11 9.33002 11 10.1C11 10.87 11.784 11.5 12.75 11.5C13.716 11.5 14.5 12.13 14.5 12.9C14.5 13.6699 13.716 14.2999 12.75 14.2999M12.75 8.70003L12.7499 8M12.75 14.2999C11.784 14.2999 11 13.6699 11 12.9M12.75 14.2999L12.7499 15" stroke="#0067B1" stroke-miterlimit="10" stroke-linecap="round" stroke-linejoin="round"/>
<path d="M6 9L8 8V4.5" stroke="#0067B1" stroke-linecap="round" stroke-linejoin="round"/>
<path d="M9.04189 13.9088C7.92062 14.1066 6.76624 13.9812 5.71358 13.5473C4.66092 13.1134 3.75344 12.389 3.09713 11.4586C2.44082 10.5282 2.06278 9.43031 2.00716 8.2931C1.95154 7.15589 2.22064 6.02633 2.78303 5.03635C3.34542 4.04637 4.17787 3.23684 5.18317 2.70232C6.18847 2.16779 7.3251 1.93033 8.46031 2.01768C9.59553 2.10503 10.6825 2.51358 11.5941 3.19561C12.5058 3.87764 13.2046 4.80499 13.609 5.86936" stroke="#0067B1" stroke-linecap="round" stroke-linejoin="round"/>
</svg>
