<svg width="16" height="16" viewBox="0 0 16 16" fill="none" xmlns="http://www.w3.org/2000/svg">
<path fill-rule="evenodd" clip-rule="evenodd" d="M5.82531 1.05085C7.24668 0.521391 8.80954 0.49558 10.2479 0.977753C11.6864 1.45995 12.9125 2.42079 13.7164 3.69791C13.8635 3.93161 13.7933 4.24031 13.5596 4.38741C13.3259 4.5345 13.0172 4.46429 12.8701 4.23059C12.1901 3.15031 11.1515 2.33532 9.9301 1.9259C8.70866 1.51645 7.38121 1.53841 6.17438 1.98795C4.96763 2.43746 3.95722 3.28623 3.31425 4.38826L3.31414 4.38845L3.20448 4.57621L4.79111 4.15107C5.05785 4.0796 5.33202 4.23789 5.40349 4.50462C5.47496 4.77136 5.31667 5.04553 5.04993 5.117L2.31788 5.84905C2.18979 5.88337 2.05332 5.8654 1.93847 5.7991C1.82363 5.73279 1.73983 5.62358 1.70551 5.49549L0.97346 2.76344C0.901989 2.49671 1.06028 2.22254 1.32701 2.15107C1.59375 2.0796 1.86791 2.23789 1.93939 2.50462L2.35356 4.05033L2.45051 3.88432L2.45062 3.88413C3.2109 2.58114 4.40391 1.58032 5.82531 1.05085ZM5.75158 15.0224C7.18998 15.5045 8.75283 15.4787 10.1742 14.9493C11.5956 14.4198 12.7886 13.419 13.5489 12.116L13.549 12.1158L13.6461 11.9495L14.0604 13.4955C14.1318 13.7622 14.406 13.9205 14.6727 13.8491C14.9395 13.7776 15.0978 13.5034 15.0263 13.2367L14.2942 10.5046C14.2599 10.3765 14.1761 10.2673 14.0613 10.201C13.9464 10.1347 13.81 10.1168 13.6819 10.1511L10.9498 10.8831C10.6831 10.9546 10.5248 11.2288 10.5963 11.4955C10.6677 11.7622 10.9419 11.9205 11.2086 11.8491L12.795 11.424L12.6854 11.6117L12.6853 11.6119C12.0423 12.7139 11.0319 13.5627 9.82514 14.0122C8.61831 14.4617 7.29086 14.4837 6.06941 14.0742C4.84805 13.6648 3.80939 12.8498 3.12945 11.7695C2.98236 11.5358 2.67366 11.4656 2.43995 11.6127C2.20625 11.7598 2.13604 12.0685 2.28314 12.3022C3.08697 13.5793 4.3131 14.5402 5.75158 15.0224ZM8.49981 4.50001C8.49978 4.22387 8.2759 4.00003 7.99976 4.00006C7.72361 4.00009 7.49978 4.22397 7.49981 4.50011L7.49983 4.7489C6.55981 4.93318 5.74988 5.62601 5.74988 6.60007C5.74988 7.74399 6.86693 8.50004 7.99988 8.50004C8.79893 8.50004 9.24988 9.00397 9.24988 9.40002C9.24988 9.79607 8.79893 10.3 7.99988 10.3C7.20083 10.3 6.74988 9.79607 6.74988 9.40002C6.74988 9.12388 6.52602 8.90002 6.24988 8.90002C5.97374 8.90002 5.74988 9.12388 5.74988 9.40002C5.74988 10.3741 6.55981 11.0669 7.49983 11.2512L7.49981 11.5C7.49978 11.7762 7.72361 12 7.99976 12.0001C8.2759 12.0001 8.49978 11.7763 8.49981 11.5001L8.49983 11.2512C9.43989 11.067 10.2499 10.3741 10.2499 9.40002C10.2499 8.2561 9.13283 7.50004 7.99988 7.50004C7.20083 7.50004 6.74988 6.99612 6.74988 6.60007C6.74988 6.20402 7.20083 5.70009 7.99988 5.70009C8.79893 5.70009 9.24988 6.20402 9.24988 6.60007C9.24988 6.87621 9.47374 7.10007 9.74988 7.10007C10.026 7.10007 10.2499 6.87621 10.2499 6.60007C10.2499 5.62598 9.43989 4.93313 8.49983 4.74888L8.49981 4.50001Z" fill="#0067B1"/>
</svg>
