<svg width="16" height="16" viewBox="0 0 16 16" fill="none" xmlns="http://www.w3.org/2000/svg">
<path d="M10 7.60001C10 6.83002 9.216 6.20003 8.25 6.20003M8.25 6.20003C7.284 6.20003 6.5 6.83002 6.5 7.60001C6.5 8.36999 7.284 8.99998 8.25 8.99998C9.216 8.99998 10 9.62997 10 10.4C10 11.1699 9.216 11.7999 8.25 11.7999M8.25 6.20003L8.24993 5.5M8.25 11.7999C7.284 11.7999 6.5 11.1699 6.5 10.4M8.25 11.7999L8.24993 12.5" stroke="#0067B1" stroke-miterlimit="10" stroke-linecap="round" stroke-linejoin="round"/>
<rect x="3" y="1" width="10" height="2" rx="1" stroke="#0067B1"/>
<path d="M5 3V3C5 3.59719 4.61786 4.12738 4.05132 4.31623L3.36754 4.54415C2.55086 4.81638 2 5.58066 2 6.44152V13C2 14.1046 2.89543 15 4 15H12C13.1046 15 14 14.1046 14 13V6.44152C14 5.58066 13.4491 4.81638 12.6325 4.54415L11.9487 4.31623C11.3821 4.12738 11 3.59719 11 3V3" stroke="#0067B1"/>
</svg>
