<svg width="16" height="14" viewBox="0 0 16 14" fill="none" xmlns="http://www.w3.org/2000/svg">
<path d="M7.64594 0.689961C7.84118 0.885201 7.84121 1.20174 7.646 1.39701L2.3978 6.64693C2.20259 6.84221 2.20261 7.15874 2.39785 7.35398L7.64605 12.6022C7.84125 12.7974 7.84132 13.1138 7.64622 13.3091L7.3315 13.6241C7.13627 13.8196 6.81956 13.8196 6.62423 13.6243L0.35394 7.35402C0.158688 7.15876 0.158677 6.8422 0.353916 6.64693L6.6244 0.375576C6.81965 0.180291 7.13626 0.180279 7.33153 0.375551L7.64594 0.689961Z" fill="#0067B1"/>
<path d="M15.6459 0.690144C15.8412 0.885384 15.8412 1.20192 15.646 1.39719L10.3978 6.64712C10.2026 6.84239 10.2026 7.15893 10.3979 7.35417L15.6461 12.6024C15.8413 12.7976 15.8413 13.114 15.6462 13.3093L15.3315 13.6243C15.1363 13.8197 14.8196 13.8198 14.6242 13.6245L8.35395 7.3542C8.1587 7.15895 8.15868 6.84238 8.35392 6.64712L14.6244 0.375759C14.8197 0.180474 15.1363 0.180462 15.3315 0.375734L15.6459 0.690144Z" fill="#0067B1"/>
</svg>
