<svg width="16" height="16" viewBox="0 0 16 16" fill="none" xmlns="http://www.w3.org/2000/svg">
<path d="M14 5.92949C13.3312 4.95324 12.4843 4.18681 11.4804 3.64903C9.35592 2.50872 6.64408 2.51252 4.5231 3.65646C3.51571 4.19976 2.66514 4.97154 2 5.95522M3.03769 12.7453C2.65475 11.6732 2.54541 10.7448 2.54541 9.96007C2.54541 9.13112 2.69544 8.38145 2.99352 7.73487C3.87751 5.80429 5.83423 4.55725 7.97638 4.55725C10.9901 4.55725 13.4426 6.98139 13.4426 9.96197C13.4426 10.9567 12.6239 11.7635 11.6217 11.7635C10.6194 11.7635 9.80076 10.9548 9.80076 9.96197C9.80076 8.96913 8.98377 8.16039 7.97985 8.16039C6.97594 8.16039 6.15894 8.96723 6.15894 9.96197C6.15679 11.3121 6.66661 12.5961 7.58285 13.5466C8.29745 14.2891 8.98906 14.698 10.0495 15M6.41336 14.8397C5.83638 14.2318 5.51878 13.845 5.05297 12.9773C4.59592 12.1244 4.35425 11.0799 4.35425 9.95635C4.35425 7.97051 5.98989 6.35321 7.99954 6.35321C10.0092 6.35321 11.6448 7.96879 11.6448 9.95635M12.1001 2.08315C10.7045 1.32968 9.46054 1 8.00652 1C6.55251 1 5.16929 1.36474 3.90601 2.08315M12.2711 13.403C11.9236 13.4674 11.606 13.4784 11.4718 13.4784C10.699 13.4784 10.0373 13.2814 9.48336 12.889C8.53055 12.2129 7.96069 11.1187 7.96069 9.96008" stroke="#0067B1" stroke-miterlimit="10" stroke-linecap="round" stroke-linejoin="round"/>
</svg>
