<svg width="16" height="16" viewBox="0 0 16 16" fill="none" xmlns="http://www.w3.org/2000/svg">
<path d="M13.5414 1.5C13.5414 3.9895 8.01488 2.88288 8.01488 7.03231M8 7.03231C6.49588 7.03231 6.2955 6.20194 4.79138 6.20194C3.28813 6.20194 1 9.79806 1 12.5638C1 13.6704 1.58362 14.5 2.45862 14.5C5.08362 14.5 6.25 12.0105 8 12.0105C9.75 12.0105 10.9164 14.5 13.5414 14.5C14.4164 14.5 15 13.6704 15 12.5638C15 9.79806 12.7119 6.20194 11.2086 6.20194C9.70362 6.20194 9.50412 7.03231 8 7.03231V7.03231Z" stroke="#0067B1" stroke-linecap="round" stroke-linejoin="round"/>
<path fill-rule="evenodd" clip-rule="evenodd" d="M11 8.91667C11.3222 8.91667 11.5833 8.6555 11.5833 8.33333C11.5833 8.01117 11.3222 7.75 11 7.75C10.6778 7.75 10.4167 8.01117 10.4167 8.33333C10.4167 8.6555 10.6778 8.91667 11 8.91667ZM9.83333 10.0833C10.1555 10.0833 10.4167 9.82217 10.4167 9.5C10.4167 9.17783 10.1555 8.91667 9.83333 8.91667C9.51117 8.91667 9.25 9.17783 9.25 9.5C9.25 9.82217 9.51117 10.0833 9.83333 10.0833ZM11.5833 10.6667C11.5833 10.9888 11.3222 11.25 11 11.25C10.6778 11.25 10.4167 10.9888 10.4167 10.6667C10.4167 10.3445 10.6778 10.0833 11 10.0833C11.3222 10.0833 11.5833 10.3445 11.5833 10.6667ZM12.1667 10.0833C12.4888 10.0833 12.75 9.82217 12.75 9.5C12.75 9.17783 12.4888 8.91667 12.1667 8.91667C11.8445 8.91667 11.5833 9.17783 11.5833 9.5C11.5833 9.82217 11.8445 10.0833 12.1667 10.0833Z" fill="#0067B1"/>
<path fill-rule="evenodd" clip-rule="evenodd" d="M5.39998 9.09998V8.25H4.59998V9.09998H3.75V9.89998H4.59998V10.75H5.39998V9.89998H6.25V9.09998H5.39998Z" fill="#0067B1"/>
</svg>
