<svg width="16" height="16" viewBox="0 0 16 16" fill="none" xmlns="http://www.w3.org/2000/svg">
<path d="M8.20569 5.91668C7.77617 5.87426 7.34404 5.96564 6.96846 6.17831C6.59287 6.39097 6.29221 6.71453 6.10762 7.10468C5.92303 7.49483 5.86354 7.9325 5.9373 8.35777C6.01106 8.78303 6.21446 9.17511 6.51966 9.4803C6.82485 9.7855 7.21692 9.98891 7.64218 10.0627C8.06744 10.1364 8.50511 10.0769 8.89526 9.89235C9.2854 9.70776 9.60896 9.40709 9.82163 9.0315C10.0343 8.65592 10.1257 8.22378 10.0832 7.79425C10.0349 7.31275 9.82154 6.86277 9.47935 6.52059C9.13717 6.1784 8.68719 5.96504 8.20569 5.91668ZM13.2463 8C13.245 8.22755 13.2282 8.45475 13.1963 8.68005L14.6751 9.83995C14.7395 9.89333 14.7829 9.96781 14.7975 10.0502C14.8122 10.1325 14.7972 10.2174 14.7552 10.2897L13.3562 12.7103C13.3137 12.7819 13.2473 12.8363 13.1687 12.8637C13.0901 12.8912 13.0043 12.89 12.9264 12.8604L11.4577 12.269C11.3767 12.2368 11.289 12.2251 11.2024 12.2351C11.1158 12.2451 11.033 12.2764 10.9615 12.3263C10.7374 12.4806 10.5018 12.6177 10.2569 12.7364C10.1799 12.7739 10.1134 12.8297 10.063 12.8989C10.0127 12.9682 9.98023 13.0488 9.96844 13.1336L9.7483 14.7C9.73384 14.7828 9.6911 14.8579 9.62738 14.9126C9.56366 14.9673 9.48292 14.9982 9.39895 15H6.60094C6.51836 14.9986 6.43873 14.9691 6.37517 14.9163C6.31161 14.8636 6.26791 14.7908 6.25127 14.7099L6.03146 13.1457C6.01912 13.0599 5.98578 12.9786 5.93442 12.9089C5.88306 12.8391 5.81527 12.7832 5.73707 12.7459C5.49247 12.6279 5.25773 12.4904 5.03511 12.3348C4.96384 12.2852 4.88134 12.2541 4.79506 12.2443C4.70878 12.2346 4.62142 12.2464 4.54086 12.2788L3.07251 12.8699C2.9947 12.8995 2.90892 12.9008 2.8303 12.8734C2.75167 12.8459 2.68524 12.7917 2.6427 12.7201L1.2437 10.2995C1.20163 10.2272 1.1866 10.1423 1.20128 10.06C1.21595 9.97759 1.25938 9.90311 1.32383 9.84977L2.57368 8.86846C2.64216 8.8141 2.69597 8.74351 2.73025 8.66308C2.76452 8.58265 2.77817 8.49494 2.76994 8.4079C2.75817 8.2715 2.75097 8.13542 2.75097 7.99902C2.75097 7.86262 2.75784 7.72851 2.76994 7.59505C2.77727 7.50854 2.76295 7.42157 2.72829 7.34197C2.69363 7.26237 2.63971 7.19264 2.57139 7.13907L1.3222 6.15776C1.25879 6.10414 1.21628 6.02993 1.20211 5.94811C1.18793 5.86629 1.203 5.7821 1.24468 5.71028L2.64368 3.28972C2.68617 3.21808 2.75258 3.16374 2.83121 3.13627C2.90984 3.1088 2.99564 3.10998 3.07349 3.13958L4.54217 3.73098C4.62316 3.76323 4.71089 3.77488 4.79749 3.76489C4.88409 3.7549 4.96686 3.72358 5.03838 3.67374C5.26253 3.51939 5.49806 3.38226 5.74296 3.26355C5.81995 3.22613 5.88654 3.17033 5.93686 3.10107C5.98717 3.03182 6.01966 2.95124 6.03146 2.86645L6.2516 1.29995C6.26606 1.21722 6.3088 1.14208 6.37252 1.08737C6.43624 1.03266 6.51698 1.00178 6.60094 1H9.39895C9.48153 1.00143 9.56116 1.03094 9.62472 1.08368C9.68829 1.13642 9.73199 1.20924 9.74863 1.29014L9.96844 2.85435C9.98078 2.94007 10.0141 3.02141 10.0655 3.09115C10.1168 3.16088 10.1846 3.21685 10.2628 3.25407C10.5074 3.37214 10.7422 3.50963 10.9648 3.66523C11.0361 3.71483 11.1186 3.74591 11.2048 3.75567C11.2911 3.76544 11.3785 3.75358 11.459 3.72117L12.9274 3.13009C13.0052 3.10046 13.091 3.09924 13.1696 3.12665C13.2482 3.15405 13.3147 3.20833 13.3572 3.27991L14.7562 5.70047C14.7983 5.77279 14.8133 5.85768 14.7986 5.94005C14.7839 6.02241 14.7405 6.09689 14.6761 6.15023L13.4262 7.13154C13.3574 7.18572 13.3033 7.25624 13.2687 7.33668C13.2342 7.41712 13.2203 7.50492 13.2283 7.5921C13.2391 7.72752 13.2463 7.8636 13.2463 8Z" stroke="#03182B" stroke-linecap="round" stroke-linejoin="round"/>
</svg>
