<svg width="16" height="16" viewBox="0 0 16 16" fill="none" xmlns="http://www.w3.org/2000/svg">
<path d="M13.6458 5.75349C13.4868 5.91154 13.2716 6.00025 13.0474 6.00025C12.8232 6.00025 12.608 5.91154 12.449 5.75349L11.7465 5.05068C11.5884 4.89171 11.4996 4.67661 11.4996 4.4524C11.4996 4.22819 11.5884 4.0131 11.7465 3.85412L13.3368 2.26381C13.3398 2.26075 13.3421 2.25699 13.3434 2.25286C13.3447 2.24873 13.3449 2.24435 13.3441 2.2401C13.3433 2.23585 13.3415 2.23186 13.3388 2.22847C13.3361 2.22509 13.3326 2.22242 13.3287 2.22068C12.3024 1.78131 10.9715 2.00474 10.1265 2.84381C9.31772 3.64662 9.27179 4.85224 9.56804 5.90631C9.61013 6.05603 9.61003 6.21448 9.56773 6.36415C9.52543 6.51382 9.44259 6.64889 9.32835 6.75443L3.9221 11.7782C3.79306 11.8937 3.68895 12.0344 3.61612 12.1915C3.54329 12.3487 3.50328 12.519 3.49853 12.6922C3.49378 12.8653 3.52439 13.0376 3.58849 13.1985C3.6526 13.3594 3.74885 13.5056 3.87135 13.628C3.99386 13.7505 4.14006 13.8466 4.301 13.9107C4.46194 13.9747 4.63425 14.0052 4.80739 14.0004C4.98053 13.9955 5.15086 13.9554 5.30798 13.8825C5.46509 13.8096 5.60568 13.7054 5.72116 13.5763L10.7883 8.16068C10.8928 8.04833 11.0258 7.96656 11.1732 7.92416C11.3206 7.88176 11.4768 7.88034 11.6249 7.92006C12.6705 8.19943 13.859 8.14693 14.6583 7.35943C15.5174 6.51318 15.7027 5.01756 15.2865 4.16162C15.2846 4.15786 15.2818 4.15461 15.2784 4.15213C15.2751 4.14964 15.2711 4.14799 15.267 4.14732C15.2628 4.14665 15.2586 4.14697 15.2546 4.14826C15.2506 4.14956 15.2469 4.15178 15.244 4.15474L13.6458 5.75349Z" stroke="#0067B1" stroke-miterlimit="10" stroke-linecap="round"/>
<path d="M7.00006 8.87503C6.45381 8.34378 6.2035 8.0966 6.03131 7.92847C5.94514 7.84286 5.88857 7.73196 5.86985 7.61195C5.85113 7.49193 5.87124 7.36907 5.92725 7.26128C5.95677 7.20828 5.99359 7.15968 6.03662 7.11691L6.52662 6.6391C6.57732 6.5883 6.63697 6.5473 6.70256 6.51816C6.8061 6.47233 6.921 6.45861 7.03242 6.47878C7.14384 6.49894 7.24665 6.55207 7.32756 6.63128C7.49787 6.7966 7.80975 7.10003 8.37162 7.64753M9.9085 9.10316C11.1882 10.2938 12.7404 11.7053 13.346 12.2097C13.3913 12.2471 13.4283 12.2935 13.4545 12.3459C13.4808 12.3984 13.4958 12.4558 13.4986 12.5145C13.5014 12.5731 13.4918 12.6317 13.4706 12.6864C13.4494 12.7411 13.4169 12.7908 13.3754 12.8322L12.3322 13.875C12.2898 13.9165 12.2393 13.9489 12.184 13.9703C12.1286 13.9917 12.0694 14.0015 12.0101 13.9993C11.9508 13.9971 11.8926 13.9828 11.8389 13.9574C11.7853 13.9319 11.7374 13.8958 11.6982 13.8513C11.1816 13.2519 9.78912 11.7541 8.596 10.5075" stroke="#0067B1" stroke-linecap="round" stroke-linejoin="round"/>
<path d="M0.541905 6.04688L1.46097 5.14875C1.47501 5.13495 1.49167 5.12411 1.50997 5.11686C1.52828 5.10961 1.54785 5.10611 1.56753 5.10656C1.6072 5.10614 1.64546 5.12128 1.67409 5.14875C1.70737 5.18167 1.74772 5.20658 1.79207 5.22158C1.83641 5.23658 1.8836 5.24128 1.93003 5.23531C2.04972 5.22219 2.17753 5.18531 2.26034 5.10656C2.44784 4.92531 2.23097 4.56813 2.39597 4.33969C2.58464 4.08962 2.79122 3.85358 3.01409 3.63344C3.20159 3.44969 3.94659 2.74844 5.19847 2.24438C5.59882 2.08255 6.02665 1.99958 6.45847 2C7.1644 2 7.70847 2.3125 7.90409 2.48969C8.02151 2.60141 8.129 2.72311 8.22534 2.85344C8.13125 2.81876 8.03514 2.78985 7.93753 2.76688C7.73223 2.72333 7.52167 2.71006 7.31253 2.7275C6.89597 2.76156 6.39347 2.95438 6.12503 3.165C5.69066 3.50875 5.50409 3.96875 5.47472 4.56219C5.45347 5.00344 5.55972 5.25281 6.60284 6.29625C6.63849 6.33605 6.65731 6.38813 6.65533 6.44152C6.65335 6.49492 6.63072 6.54546 6.59222 6.5825L6.02284 7.145C5.98315 7.18392 5.92993 7.20595 5.87435 7.20647C5.81876 7.207 5.76514 7.18597 5.72472 7.14781C5.03909 6.46219 4.57941 6.11375 4.31847 5.95531C4.05753 5.79688 3.84753 5.75219 3.74659 5.74125C3.54836 5.72161 3.3489 5.76386 3.17566 5.86219C3.14526 5.87889 3.11746 5.89995 3.09316 5.92469C3.05258 5.96663 3.02071 6.01619 2.9994 6.07051C2.97808 6.12483 2.96773 6.18283 2.96895 6.24117C2.97017 6.29952 2.98294 6.35704 3.00651 6.41042C3.03008 6.4638 3.06399 6.51198 3.10628 6.55219L3.15972 6.60219C3.17359 6.61567 3.18462 6.6318 3.19215 6.64962C3.19968 6.66744 3.20356 6.68659 3.20356 6.70594C3.20356 6.72528 3.19968 6.74443 3.19215 6.76225C3.18462 6.78008 3.17359 6.7962 3.15972 6.80969L2.24159 7.70625C2.22768 7.72033 2.21108 7.73147 2.19277 7.73898C2.17446 7.7465 2.15482 7.75025 2.13503 7.75C2.09536 7.7504 2.05712 7.73525 2.02847 7.70781L0.541905 6.25688C0.515 6.22854 0.5 6.19095 0.5 6.15188C0.5 6.1128 0.515 6.07521 0.541905 6.04688Z" stroke="#0067B1" stroke-linecap="round" stroke-linejoin="round"/>
</svg>
