<svg width="16" height="16" viewBox="0 0 16 16" fill="none" xmlns="http://www.w3.org/2000/svg">
<path d="M13.9171 6C13.441 3.16229 10.973 1 8.00005 1C5.02705 1 2.55909 3.16229 2.08301 6" stroke="#0067B1"/>
<rect x="1" y="6" width="2" height="4" rx="1" stroke="#0067B1"/>
<rect x="9.5" y="13" width="2" height="3" rx="1" transform="rotate(90 9.5 13)" stroke="#0067B1"/>
<rect x="13" y="6" width="2" height="4" rx="1" stroke="#0067B1"/>
<path d="M14 10V10C14 12.7614 11.7614 15 9 15H8" stroke="#0067B1"/>
<path fill-rule="evenodd" clip-rule="evenodd" d="M5.5 8.75C5.35166 8.75 5.20666 8.70601 5.08332 8.6236C4.95999 8.54119 4.86386 8.42406 4.80709 8.28701C4.75032 8.14997 4.73547 7.99917 4.76441 7.85368C4.79335 7.7082 4.86478 7.57456 4.96967 7.46967C5.07456 7.36478 5.2082 7.29335 5.35368 7.26441C5.49917 7.23547 5.64997 7.25032 5.78701 7.30709C5.92406 7.36386 6.04119 7.45999 6.1236 7.58332C6.20601 7.70666 6.25 7.85166 6.25 8C6.25 8.19891 6.17098 8.38968 6.03033 8.53033C5.88968 8.67098 5.69891 8.75 5.5 8.75ZM8 8.75C7.85166 8.75 7.70666 8.70601 7.58332 8.6236C7.45999 8.54119 7.36386 8.42406 7.30709 8.28701C7.25032 8.14997 7.23547 7.99917 7.26441 7.85368C7.29335 7.7082 7.36478 7.57456 7.46967 7.46967C7.57456 7.36478 7.7082 7.29335 7.85368 7.26441C7.99917 7.23547 8.14997 7.25032 8.28701 7.30709C8.42406 7.36386 8.54119 7.45999 8.6236 7.58332C8.70601 7.70666 8.75 7.85166 8.75 8C8.75 8.19891 8.67098 8.38968 8.53033 8.53033C8.38968 8.67098 8.19891 8.75 8 8.75ZM10.0833 8.6236C10.2067 8.70601 10.3517 8.75 10.5 8.75C10.6989 8.75 10.8897 8.67098 11.0303 8.53033C11.171 8.38968 11.25 8.19891 11.25 8C11.25 7.85166 11.206 7.70666 11.1236 7.58332C11.0412 7.45999 10.9241 7.36386 10.787 7.30709C10.65 7.25032 10.4992 7.23547 10.3537 7.26441C10.2082 7.29335 10.0746 7.36478 9.96967 7.46967C9.86478 7.57456 9.79335 7.7082 9.76441 7.85368C9.73547 7.99917 9.75032 8.14997 9.80709 8.28701C9.86386 8.42406 9.95999 8.54119 10.0833 8.6236Z" fill="#0067B1"/>
</svg>
