<svg width="16" height="16" viewBox="0 0 16 16" fill="none" xmlns="http://www.w3.org/2000/svg">
<g clip-path="url(#clip0_277_2449)">
<path d="M8 1C4.1344 1 1 4.1344 1 8C1 11.8656 4.1344 15 8 15C11.8656 15 15 11.8656 15 8C15 4.1344 11.8656 1 8 1Z" stroke="#0067B1" stroke-miterlimit="10"/>
<path d="M6.93481 6.93469H8.15221V11.3477" stroke="#0067B1" stroke-linecap="round" stroke-linejoin="round"/>
<path d="M6.47827 11.5H9.8261" stroke="#0067B1" stroke-miterlimit="10" stroke-linecap="round"/>
<path d="M7.99987 3.51086C7.80424 3.51086 7.613 3.56888 7.45034 3.67756C7.28768 3.78625 7.1609 3.94073 7.08604 4.12147C7.01117 4.30221 6.99158 4.50109 7.02975 4.69296C7.06791 4.88484 7.16212 5.06108 7.30045 5.19942C7.43878 5.33775 7.61503 5.43195 7.8069 5.47012C7.99878 5.50828 8.19766 5.4887 8.3784 5.41383C8.55914 5.33897 8.71362 5.21219 8.82231 5.04953C8.93099 4.88686 8.989 4.69563 8.989 4.49999C8.989 4.23766 8.88479 3.98607 8.69929 3.80057C8.5138 3.61508 8.26221 3.51086 7.99987 3.51086Z" fill="#0067B1"/>
</g>
<defs>
<clipPath id="clip0_277_2449">
<rect width="16" height="16" fill="white"/>
</clipPath>
</defs>
</svg>
