<svg width="16" height="16" viewBox="0 0 16 16" fill="none" xmlns="http://www.w3.org/2000/svg">
<g clip-path="url(#clip0_4151_4412)">
<path d="M6.1376 11.2308H4.23077C3.37392 11.2308 2.55216 10.8904 1.94627 10.2846C1.34038 9.67867 1 8.85691 1 8.00006C1 7.1432 1.34038 6.32144 1.94627 5.71556C2.55216 5.10967 3.37392 4.76929 4.23077 4.76929H6.09553M9.90447 4.76929H11.7692C12.6261 4.76929 13.4478 5.10967 14.0537 5.71556C14.6596 6.32144 15 7.1432 15 8.00006C15 8.85691 14.6596 9.67867 14.0537 10.2846C13.4478 10.8904 12.6261 11.2308 11.7692 11.2308H9.8624M5.07447 8.00006H10.9928" stroke="#0067B1" stroke-linecap="round" stroke-linejoin="round"/>
</g>
<defs>
<clipPath id="clip0_4151_4412">
<rect width="16" height="16" fill="white"/>
</clipPath>
</defs>
</svg>
