<svg width="16" height="16" viewBox="0 0 16 16" fill="none" xmlns="http://www.w3.org/2000/svg">
<path d="M7 6C9.73606 6 12.61 2.14392 12.61 2.14392C12.8476 1.83572 13.5 2.05766 13.5 2.47734V13.5368C13.5 13.9579 12.8139 14.1447 12.61 13.872C12.61 13.872 9.73606 10 7 10M7 6H2L2 10H7M7 6L7 10M2 9C2 9 1 8.88666 1 8.00027C1 7.11387 2 7 2 7M13.5 10C13.5 10 15 9.50053 15 8.00027C15 6.5 13.5 6 13.5 6" stroke="#0067B1" stroke-linecap="round" stroke-linejoin="round"/>
<path d="M6 10C5 12 7 15 7 15H5L3 10H6Z" stroke="#0067B1" stroke-linecap="round" stroke-linejoin="round"/>
</svg>
