<svg width="16" height="16" viewBox="0 0 16 16" fill="none" xmlns="http://www.w3.org/2000/svg">
<path d="M12.0884 3.37381L11.1638 4.29842M12.0884 3.37381C12.2713 3.19094 12.5043 3.0664 12.7579 3.01595C13.0116 2.96549 13.2745 2.99139 13.5134 3.09036C13.7524 3.18933 13.9566 3.35692 14.1003 3.57196C14.2439 3.78699 14.3206 4.0398 14.3206 4.29842C14.3206 4.55704 14.2439 4.80985 14.1003 5.02488C13.9566 5.23991 13.7524 5.40751 13.5134 5.50648C13.2745 5.60545 13.0116 5.63134 12.7579 5.58089C12.5043 5.53044 12.2713 5.4059 12.0884 5.22303L11.1638 4.29842M12.0884 3.37381C12.2713 3.19094 12.3958 2.95795 12.4463 2.7043C12.4967 2.45065 12.4708 2.18773 12.3719 1.9488C12.2729 1.70987 12.1053 1.50565 11.8903 1.36197C11.6752 1.21829 11.4224 1.1416 11.1638 1.1416C10.9052 1.1416 10.6524 1.21829 10.4374 1.36197C10.2223 1.50565 10.0547 1.70987 9.95576 1.9488C9.85679 2.18773 9.83089 2.45065 9.88135 2.7043C9.9318 2.95795 10.0563 3.19094 10.2392 3.37381L11.1638 4.29842" stroke="#0067B1" stroke-width="1.01205" stroke-miterlimit="10" stroke-linecap="round"/>
<path d="M9.80673 5.70867L10.8076 4.70581" stroke="#0067B1" stroke-width="1.01205" stroke-linecap="round"/>
<path d="M13.7967 6.88667L8.51321 1.60318C8.22141 1.31138 7.78211 1.27759 7.53199 1.5277L6.85269 2.20701C6.60257 2.45712 6.63637 2.89643 6.92817 3.18822L12.2117 8.47171C12.5035 8.76351 12.9428 8.7973 13.1929 8.54719L13.8722 7.86789C14.1223 7.61777 14.0885 7.17847 13.7967 6.88667Z" stroke="#0067B1" stroke-width="1.01205" stroke-linecap="round" stroke-linejoin="round"/>
<path d="M3 10H12.33V13.2C12.33 14.1941 11.5241 15 10.53 15H4.8C3.80589 15 3 14.1941 3 13.2V10Z" stroke="#0067B1" stroke-linejoin="round"/>
<path d="M7.79004 10L7.79004 14" stroke="#0067B1" stroke-linecap="square"/>
<path d="M5.73337 4.23408C5.7707 4.19816 5.83301 4.22064 5.83882 4.27212L5.98372 5.55714C5.98603 5.57759 5.99824 5.59558 6.01639 5.60527L7.15712 6.2144C7.20281 6.23881 7.20069 6.30501 7.15353 6.32644L5.97617 6.86135C5.95745 6.86986 5.9441 6.88704 5.94049 6.90729L5.71368 8.18042C5.70459 8.23142 5.64097 8.24986 5.60602 8.21163L4.73347 7.25719C4.71959 7.24201 4.69912 7.23463 4.67875 7.23746L3.39784 7.41516C3.34653 7.42228 3.30933 7.36747 3.33489 7.32241L3.97298 6.19763C3.98313 6.17974 3.98383 6.158 3.97484 6.13949L3.41001 4.97619C3.38739 4.92959 3.42802 4.87728 3.47877 4.88766L4.74568 5.14694C4.76583 5.15107 4.78673 5.14501 4.80155 5.13075L5.73337 4.23408Z" stroke="#0067B1"/>
</svg>
