<svg width="16" height="16" viewBox="0 0 16 16" fill="none" xmlns="http://www.w3.org/2000/svg">
<path d="M12.7707 6.04913C13.0156 5.80422 13.3478 5.66663 13.6941 5.66663C14.0405 5.66663 14.3727 5.80422 14.6176 6.04913C14.8625 6.29404 15.0001 6.62621 15.0001 6.97257C15.0001 7.31893 14.8625 7.6511 14.6176 7.89602L10.1292 12.3843L7.66672 13L8.28235 10.5374L12.7707 6.04913Z" stroke="#0067B1" stroke-linecap="round" stroke-linejoin="round"/>
<path d="M12.9999 3.50877V2C12.9999 1.44772 12.5522 1 11.9999 1H3.33325C2.78097 1 2.33325 1.44772 2.33325 2V14C2.33325 14.5523 2.78097 15 3.33325 15H11.9999C12.5522 15 12.9999 14.5523 12.9999 14V12.6667" stroke="#0067B1" stroke-linecap="round" stroke-linejoin="round"/>
<path d="M9.83325 3.66663H4.83325C4.55711 3.66663 4.33325 3.89048 4.33325 4.16663C4.33325 4.44277 4.55711 4.66663 4.83325 4.66663H9.83325C10.1094 4.66663 10.3333 4.44277 10.3333 4.16663C10.3333 3.89048 10.1094 3.66663 9.83325 3.66663Z" fill="#0067B1"/>
<path d="M7.83325 6H4.83325C4.55711 6 4.33325 6.22386 4.33325 6.5C4.33325 6.77614 4.55711 7 4.83325 7H7.83325C8.10939 7 8.33325 6.77614 8.33325 6.5C8.33325 6.22386 8.10939 6 7.83325 6Z" fill="#0067B1"/>
</svg>
