<svg width="16" height="16" viewBox="0 0 16 16" fill="none" xmlns="http://www.w3.org/2000/svg">
<path d="M7 15H4.5C3.67157 15 3 14.3284 3 13.5V2.5C3 1.67157 3.67157 1 4.5 1H11.5C12.3284 1 13 1.67157 13 2.5V4.5" stroke="#0067B1" stroke-linecap="round" stroke-linejoin="round"/>
<path d="M6.5 2.75H9.5" stroke="#0067B1" stroke-linecap="round" stroke-linejoin="round"/>
<path d="M14 8L10.9294 11.5L9.5 10.1538" stroke="#0067B1" stroke-linecap="round" stroke-linejoin="round"/>
<path d="M12.1989 6.5L10.75 6L7 7.5V10.0053C7 11.1604 7.35769 12.2032 8.06731 13.139C8.77692 14.0749 9.67115 14.6952 10.75 15C11.8288 14.6898 12.7231 14.0695 13.4327 13.139C13.9326 12.4797 14.2579 11.7673 14.4065 11" stroke="#0067B1" stroke-miterlimit="10" stroke-linecap="round" stroke-linejoin="round"/>
</svg>
