<svg width="16" height="16" viewBox="0 0 16 16" fill="none" xmlns="http://www.w3.org/2000/svg">
<path d="M11.5 1H4.5C3.67157 1 3 1.67157 3 2.5V13.5C3 14.3284 3.67157 15 4.5 15H11.5C12.3284 15 13 14.3284 13 13.5V2.5C13 1.67157 12.3284 1 11.5 1Z" stroke="#0067B1" stroke-linecap="round" stroke-linejoin="round"/>
<path d="M8 13.7999C7.80222 13.7999 7.60888 13.7413 7.44443 13.6314C7.27998 13.5215 7.15181 13.3653 7.07612 13.1826C7.00043 12.9999 6.98063 12.7988 7.01922 12.6048C7.0578 12.4109 7.15304 12.2327 7.29289 12.0928C7.43275 11.953 7.61093 11.8577 7.80491 11.8191C7.99889 11.7806 8.19996 11.8004 8.38268 11.876C8.56541 11.9517 8.72159 12.0799 8.83147 12.2444C8.94135 12.4088 9 12.6021 9 12.7999C9 13.0651 8.89464 13.3195 8.70711 13.507C8.51957 13.6946 8.26522 13.7999 8 13.7999Z" fill="#0067B1"/>
<path d="M6.5 2.75208H9.5" stroke="#0067B1" stroke-linecap="round" stroke-linejoin="round"/>
</svg>
