<svg width="16" height="16" viewBox="0 0 16 16" fill="none" xmlns="http://www.w3.org/2000/svg">
<path d="M11.5 1H4.5C3.67157 1 3 1.67157 3 2.5V13.5C3 14.3284 3.67157 15 4.5 15H11.5C12.3284 15 13 14.3284 13 13.5V2.5C13 1.67157 12.3284 1 11.5 1Z" stroke="#0067B1" stroke-linecap="round" stroke-linejoin="round"/>
<path d="M6.5 2.75H9.5" stroke="#0067B1" stroke-linecap="round" stroke-linejoin="round"/>
<path d="M9.75 8.10001C9.75 7.33002 8.966 6.70003 8 6.70003M8 6.70003C7.034 6.70003 6.25 7.33002 6.25 8.10001C6.25 8.86999 7.034 9.49998 8 9.49998C8.966 9.49998 9.75 10.13 9.75 10.9C9.75 11.6699 8.966 12.2999 8 12.2999M8 6.70003L7.99993 6M8 12.2999C7.034 12.2999 6.25 11.6699 6.25 10.9M8 12.2999L7.99993 13" stroke="#0067B1" stroke-miterlimit="10" stroke-linecap="round" stroke-linejoin="round"/>
</svg>
