<svg width="16" height="16" viewBox="0 0 16 16" fill="none" xmlns="http://www.w3.org/2000/svg">
<path d="M11.5 1H4.5C3.67157 1 3 1.67157 3 2.5V13.5C3 14.3284 3.67157 15 4.5 15H11.5C12.3284 15 13 14.3284 13 13.5V2.5C13 1.67157 12.3284 1 11.5 1Z" stroke="#03182B" stroke-linecap="round" stroke-linejoin="round"/>
<path d="M6.5 2.75H9.5" stroke="#03182B" stroke-linecap="round" stroke-linejoin="round"/>
<path d="M8.92189 8.39107C8.80396 8.26543 8.66111 8.16576 8.50249 8.09845C8.34386 8.03114 8.17294 7.99765 8.00064 8.00013C7.63814 8.00013 7.31032 8.13794 7.07751 8.38857C6.8447 8.63919 6.72751 8.98607 6.75439 9.35732C6.80782 10.0911 7.36689 10.6876 8.00064 10.6876C8.63439 10.6876 9.19251 10.0911 9.24657 9.35794C9.27407 8.98982 9.15845 8.64638 8.92189 8.39107ZM10.116 13.5001H5.88532C5.83025 13.501 5.77565 13.4898 5.72539 13.4673C5.67512 13.4448 5.6304 13.4115 5.59439 13.3698C5.55534 13.323 5.52732 13.2681 5.51239 13.209C5.49746 13.1499 5.496 13.0883 5.50814 13.0286C5.6097 12.4798 5.92626 12.0189 6.42376 11.6954C6.86564 11.4083 7.42564 11.2501 8.00064 11.2501C8.57564 11.2501 9.13564 11.4083 9.57751 11.6954C10.075 12.0189 10.3916 12.4798 10.4931 13.0286C10.5053 13.0883 10.5038 13.1499 10.4889 13.209C10.474 13.2681 10.4459 13.323 10.4069 13.3698C10.3709 13.4115 10.3262 13.4448 10.2759 13.4673C10.2256 13.4898 10.171 13.501 10.116 13.5001Z" fill="#03182B"/>
</svg>
