<svg width="16" height="16" viewBox="0 0 16 16" fill="none" xmlns="http://www.w3.org/2000/svg">
<path d="M12.6666 10.3334H10.5925C10.4493 10.3334 10.3333 10.4494 10.3333 10.5926V12.6667C10.3333 12.8099 10.4493 12.926 10.5925 12.926H12.6666C12.8098 12.926 12.9258 12.8099 12.9258 12.6667V10.5926C12.9258 10.4494 12.8098 10.3334 12.6666 10.3334Z" fill="#0067B1"/>
<path d="M10.0741 8.25928H8.51854C8.37535 8.25928 8.25928 8.37535 8.25928 8.51854V10.0741C8.25928 10.2173 8.37535 10.3334 8.51854 10.3334H10.0741C10.2173 10.3334 10.3334 10.2173 10.3334 10.0741V8.51854C10.3334 8.37535 10.2173 8.25928 10.0741 8.25928Z" fill="#0067B1"/>
<path d="M14.7408 12.9259H13.1853C13.0421 12.9259 12.926 13.042 12.926 13.1852V14.7407C12.926 14.8839 13.0421 15 13.1853 15H14.7408C14.884 15 15.0001 14.8839 15.0001 14.7407V13.1852C15.0001 13.042 14.884 12.9259 14.7408 12.9259Z" fill="#0067B1"/>
<path d="M14.7409 8.25928H13.7038C13.5607 8.25928 13.4446 8.37535 13.4446 8.51854V9.55557C13.4446 9.69876 13.5607 9.81483 13.7038 9.81483H14.7409C14.8841 9.81483 15.0001 9.69876 15.0001 9.55557V8.51854C15.0001 8.37535 14.8841 8.25928 14.7409 8.25928Z" fill="#0067B1"/>
<path d="M9.55557 13.4445H8.51854C8.37535 13.4445 8.25928 13.5605 8.25928 13.7037V14.7408C8.25928 14.8839 8.37535 15 8.51854 15H9.55557C9.69876 15 9.81483 14.8839 9.81483 14.7408V13.7037C9.81483 13.5605 9.69876 13.4445 9.55557 13.4445Z" fill="#0067B1"/>
<path d="M12.6666 2.55554H10.5925C10.4493 2.55554 10.3333 2.67162 10.3333 2.8148V4.88888C10.3333 5.03206 10.4493 5.14813 10.5925 5.14813H12.6666C12.8098 5.14813 12.9258 5.03206 12.9258 4.88888V2.8148C12.9258 2.67162 12.8098 2.55554 12.6666 2.55554Z" fill="#0067B1"/>
<path d="M13.9633 1H9.29659C9.01022 1 8.77808 1.23215 8.77808 1.51852V6.18519C8.77808 6.47156 9.01022 6.7037 9.29659 6.7037H13.9633C14.2496 6.7037 14.4818 6.47156 14.4818 6.18519V1.51852C14.4818 1.23215 14.2496 1 13.9633 1Z" stroke="#0067B1" stroke-linecap="round" stroke-linejoin="round"/>
<path d="M4.88875 2.55554H2.81468C2.67149 2.55554 2.55542 2.67162 2.55542 2.8148V4.88888C2.55542 5.03206 2.67149 5.14813 2.81468 5.14813H4.88875C5.03194 5.14813 5.14801 5.03206 5.14801 4.88888V2.8148C5.14801 2.67162 5.03194 2.55554 4.88875 2.55554Z" fill="#0067B1"/>
<path d="M6.18518 1H1.51852C1.23215 1 1 1.23215 1 1.51852V6.18518C1 6.47155 1.23215 6.7037 1.51852 6.7037H6.18518C6.47155 6.7037 6.7037 6.47155 6.7037 6.18518V1.51852C6.7037 1.23215 6.47155 1 6.18518 1Z" stroke="#0067B1" stroke-linecap="round" stroke-linejoin="round"/>
<path d="M4.88875 10.3334H2.81468C2.67149 10.3334 2.55542 10.4494 2.55542 10.5926V12.6667C2.55542 12.8099 2.67149 12.926 2.81468 12.926H4.88875C5.03194 12.926 5.14801 12.8099 5.14801 12.6667V10.5926C5.14801 10.4494 5.03194 10.3334 4.88875 10.3334Z" fill="#0067B1"/>
<path d="M6.18518 8.77783H1.51852C1.23215 8.77783 1 9.00998 1 9.29635V13.963C1 14.2494 1.23215 14.4815 1.51852 14.4815H6.18518C6.47155 14.4815 6.7037 14.2494 6.7037 13.963V9.29635C6.7037 9.00998 6.47155 8.77783 6.18518 8.77783Z" stroke="#0067B1" stroke-linecap="round" stroke-linejoin="round"/>
</svg>
