<svg width="16" height="16" viewBox="0 0 16 16" fill="none" xmlns="http://www.w3.org/2000/svg">
<rect x="3" y="1" width="10" height="14" rx="1" stroke="#0067B1" stroke-linejoin="round"/>
<path d="M5 12H11" stroke="#0067B1" stroke-linecap="round" stroke-linejoin="round"/>
<path d="M8 9C9.65685 9 11 7.65685 11 6C11 4.34315 9.65685 3 8 3C6.34315 3 5 4.34315 5 6C5 7.65685 6.34315 9 8 9Z" stroke="#0067B1" stroke-linecap="round" stroke-linejoin="round"/>
<path d="M5 6H11" stroke="#0067B1" stroke-linecap="round" stroke-linejoin="round"/>
<path d="M8 3C8.62532 3.82151 8.98069 4.88761 9 6C8.98069 7.11239 8.62532 8.17849 8 9C7.37468 8.17849 7.01931 7.11239 7 6C7.01931 4.88761 7.37468 3.82151 8 3Z" stroke="#0067B1" stroke-linecap="round" stroke-linejoin="round"/>
</svg>
