<svg width="16" height="16" viewBox="0 0 16 16" fill="none" xmlns="http://www.w3.org/2000/svg">
<rect x="3" y="1" width="10" height="14" rx="1" stroke="#0067B1" stroke-linejoin="round"/>
<path d="M7.61624 3.26202C7.73703 2.91266 8.26297 2.91266 8.38376 3.26202L8.81534 4.51026C8.86936 4.6665 9.02429 4.77228 9.1991 4.77228H10.5957C10.9866 4.77228 11.1491 5.24234 10.8329 5.45825L9.703 6.22971C9.56158 6.32627 9.5024 6.49743 9.55642 6.65366L9.988 7.9019C10.1088 8.25126 9.6833 8.54178 9.36707 8.32586L8.23718 7.55441C8.09575 7.45785 7.90425 7.45784 7.76282 7.55441L6.63293 8.32586C6.3167 8.54178 5.89121 8.25126 6.012 7.90191L6.44358 6.65366C6.4976 6.49743 6.43842 6.32627 6.297 6.22971L5.16711 5.45825C4.85087 5.24234 5.01339 4.77228 5.40428 4.77228H6.8009C6.97571 4.77228 7.13064 4.6665 7.18466 4.51026L7.61624 3.26202Z" fill="#0067B1"/>
</svg>
