<svg width="16" height="16" viewBox="0 0 16 16" fill="none" xmlns="http://www.w3.org/2000/svg">
<path d="M5.73744 4.11113C5.73744 4.11113 4.87623 3.68689 8.00007 3.68689C9.11883 3.68689 10.2125 4.01864 11.1427 4.64019C12.0729 5.26174 12.7979 6.14518 13.2261 7.17878C13.6542 8.21238 13.7662 9.34973 13.5479 10.447C13.3297 11.5443 12.791 12.5522 11.9999 13.3432C11.2088 14.1343 10.2009 14.6731 9.10361 14.8913C8.00634 15.1096 6.869 14.9976 5.8354 14.5694C4.80179 14.1413 3.91836 13.4163 3.29681 12.4861C2.67526 11.5559 2.34351 10.4622 2.34351 9.34345" stroke="#03182B" stroke-miterlimit="10" stroke-linecap="round"/>
<path d="M8.00016 1L5.17188 3.82828L8.00016 6.65656" stroke="#03182B" stroke-linecap="round" stroke-linejoin="round"/>
</svg>
