<svg width="16" height="16" viewBox="0 0 16 16" fill="none" xmlns="http://www.w3.org/2000/svg">
<path d="M3 15V14M13 15V14" stroke="#0067B1" stroke-linecap="round" stroke-linejoin="round"/>
<path d="M14 5L12 5M14 10L12 10" stroke="#0067B1" stroke-linecap="round" stroke-linejoin="round"/>
<rect x="2" y="1" width="12" height="13" rx="1" stroke="#0067B1"/>
<rect x="4" y="3" width="8" height="9" stroke="#0067B1" stroke-linejoin="round"/>
<path d="M9.5 7.5C9.5 8.32843 8.82843 9 8 9C7.17157 9 6.5 8.32843 6.5 7.5C6.5 6.67157 7.17157 6 8 6C8.82843 6 9.5 6.67157 9.5 7.5Z" stroke="#0067B1"/>
<path d="M10 5.5L9.25 6.25M10 9.49933L9.25 8.75M6 9.49933L6.75 8.75M6 5.5L6.75 6.25" stroke="#0067B1" stroke-linecap="round" stroke-linejoin="round"/>
</svg>
