<svg width="16" height="16" viewBox="0 0 16 16" fill="none" xmlns="http://www.w3.org/2000/svg">
<path d="M6 6.10497C6.14944 5.35615 6.89667 3.94803 8.68984 4.30777C10.0875 4.58817 10.5624 6.5145 9.13814 7.22818C8.01738 7.7898 8.01738 8.80071 8.01738 9.25" stroke="#0067B1" stroke-linecap="round" stroke-linejoin="round"/>
<path fill-rule="evenodd" clip-rule="evenodd" d="M8.05752 10.5C8.38889 10.5 8.65752 10.7686 8.65752 11.1C8.65752 11.4314 8.38889 11.7 8.05752 11.7C7.72615 11.7 7.45752 11.4314 7.45752 11.1C7.45752 10.7686 7.72615 10.5 8.05752 10.5Z" fill="#0067B1"/>
<path d="M8 15C7.55519 14.791 1.55863 12.141 2.02594 3.5L8 1L13.9741 3.5C14.4414 12.141 8.44481 14.791 8 15Z" stroke="#0067B1" stroke-linecap="round" stroke-linejoin="round"/>
</svg>
