<svg width="16" height="16" viewBox="0 0 16 16" fill="none" xmlns="http://www.w3.org/2000/svg">
<path d="M5.28906 4.32034C5.97911 2.38514 7.82777 1 9.99994 1C12.7614 1 14.9999 3.23858 14.9999 6C14.9999 8.16143 13.6285 10.0025 11.7083 10.7006" stroke="#0067B1" stroke-linecap="round" stroke-linejoin="round"/>
<path d="M6 6H15" stroke="#0067B1" stroke-linecap="round" stroke-linejoin="round"/>
<path d="M11.5001 8.56499C11.8102 7.75148 11.9816 6.88452 12 6C11.9614 4.14602 11.2506 2.36918 10 1C8.74936 2.36918 8.03862 4.14602 8 6C8.02569 7.23322 8.34877 8.43232 8.93031 9.5" stroke="#0067B1" stroke-linecap="round" stroke-linejoin="round"/>
<path d="M10.6879 12.8359C10.3061 12.4513 9.38159 11.89 8.93302 11.6639C8.34887 11.3696 8.3008 11.3456 7.84165 11.6867C7.53539 11.9143 7.5527 11.8886 7.19428 11.8122C6.83585 11.7358 6.05699 11.3048 5.375 10.625C4.69301 9.94522 4.23699 9.14381 4.16031 8.78662C4.08362 8.42942 4.06944 8.45726 4.29493 8.1503C4.61273 7.71763 4.58869 7.64552 4.31705 7.06141C4.10526 6.6071 3.5276 5.69128 3.14154 5.31148C2.72855 4.90357 2.72855 4.97568 2.46243 5.08625C2.24579 5.1774 2.03794 5.2882 1.8415 5.41725C1.45688 5.67277 1.24341 5.88502 1.09413 6.20399C0.944848 6.52297 0.877779 7.27078 1.64871 8.6712C2.41964 10.0716 2.96052 10.7877 4.08002 11.904C5.19952 13.0203 6.06036 13.6205 7.3188 14.3262C8.87557 15.1981 9.4727 15.0281 9.79266 14.8791C10.1126 14.7301 10.3258 14.5185 10.5819 14.1339C10.7113 13.9378 10.8223 13.7302 10.9136 13.5138C11.0244 13.2486 11.0965 13.2486 10.6879 12.8359Z" stroke="#0067B1" stroke-miterlimit="10"/>
</svg>
