<svg width="16" height="16" viewBox="0 0 16 16" fill="none" xmlns="http://www.w3.org/2000/svg">
<path d="M11.5 4H14M2 4H9.5M11.5 12H14M2 12H9.5M6.5 8H14M2 8H4.5" stroke="#03182B" stroke-linecap="round" stroke-linejoin="round"/>
<path d="M10.5 5C11.0523 5 11.5 4.55228 11.5 4C11.5 3.44772 11.0523 3 10.5 3C9.94772 3 9.5 3.44772 9.5 4C9.5 4.55228 9.94772 5 10.5 5Z" stroke="#03182B" stroke-linecap="round" stroke-linejoin="round"/>
<path d="M5.5 9C6.05228 9 6.5 8.55228 6.5 8C6.5 7.44772 6.05228 7 5.5 7C4.94772 7 4.5 7.44772 4.5 8C4.5 8.55228 4.94772 9 5.5 9Z" stroke="#03182B" stroke-linecap="round" stroke-linejoin="round"/>
<path d="M10.5 13C11.0523 13 11.5 12.5523 11.5 12C11.5 11.4477 11.0523 11 10.5 11C9.94772 11 9.5 11.4477 9.5 12C9.5 12.5523 9.94772 13 10.5 13Z" stroke="#03182B" stroke-linecap="round" stroke-linejoin="round"/>
</svg>
