<svg width="16" height="16" viewBox="0 0 16 16" fill="none" xmlns="http://www.w3.org/2000/svg">
<path d="M10.5 14.5H14.75C14.8163 14.5 14.8799 14.4737 14.9268 14.4268C14.9737 14.3799 15 14.3163 15 14.25V5C15 4.86739 14.9473 4.74021 14.8536 4.64645C14.7598 4.55268 14.6326 4.5 14.5 4.5H11C10.8674 4.5 10.7402 4.55268 10.6464 4.64645C10.5527 4.74021 10.5 4.86739 10.5 5V14.5ZM10.5 14.5V2C10.5 1.86739 10.4473 1.74021 10.3536 1.64645C10.2598 1.55268 10.1326 1.5 10 1.5H6C5.86739 1.5 5.74021 1.55268 5.64645 1.64645C5.55268 1.74021 5.5 1.86739 5.5 2V14.5M10.5 14.5H5.5M5.5 14.5V7C5.5 6.86739 5.44732 6.74021 5.35355 6.64645C5.25979 6.55268 5.13261 6.5 5 6.5H1.5C1.36739 6.5 1.24021 6.55268 1.14645 6.64645C1.05268 6.74021 1 6.86739 1 7V14.25C1 14.3163 1.02634 14.3799 1.07322 14.4268C1.12011 14.4737 1.1837 14.5 1.25 14.5H5.5Z" stroke="#0067B1" stroke-linecap="round" stroke-linejoin="round"/>
</svg>
