<svg width="16" height="16" viewBox="0 0 16 16" fill="none" xmlns="http://www.w3.org/2000/svg">
<path d="M3.21191 10C3.00894 10 2.8444 9.83546 2.8444 9.63249V8.92194C2.8444 8.8434 2.84855 8.76681 2.85686 8.69219C2.86376 8.65082 2.78543 8.60349 2.75096 8.62739C2.68867 8.67059 2.62223 8.71379 2.55164 8.757L1.85463 9.14083C1.69356 9.22953 1.49126 9.17683 1.39394 9.02082C1.28864 8.85203 1.34694 8.62943 1.52147 8.53393L2.19036 8.16789C2.26511 8.12469 2.33778 8.08935 2.40837 8.06186C2.44113 8.04981 2.44055 7.95756 2.40837 7.94403C2.33778 7.91262 2.26511 7.87531 2.19036 7.83211L1.51517 7.45861C1.34341 7.3636 1.28566 7.14448 1.38828 6.97715C1.48491 6.8196 1.68866 6.76639 1.84999 6.85659L2.55164 7.2489C2.62223 7.2921 2.68867 7.33726 2.75096 7.38439C2.75175 7.3849 2.75254 7.38541 2.75332 7.38593C2.78383 7.4059 2.86286 7.35556 2.85686 7.31959C2.84855 7.24497 2.8444 7.16838 2.8444 7.08984V6.36751C2.8444 6.16454 3.00894 6 3.21191 6C3.41488 6 3.57942 6.16454 3.57942 6.36751V7.07806C3.57942 7.16053 3.57319 7.24104 3.56073 7.31959C3.55673 7.35551 3.63693 7.40499 3.66662 7.38439C3.72891 7.33726 3.79743 7.2921 3.87218 7.2489L4.56989 6.86468C4.73056 6.7762 4.93237 6.82877 5.02945 6.98439C5.13483 7.1533 5.07593 7.3761 4.90085 7.47087L4.23346 7.83211C4.15871 7.87531 4.08396 7.91262 4.00922 7.94403C3.97023 7.95922 3.96956 8.04938 4.00877 8.06399C4.08169 8.09117 4.15659 8.12581 4.23346 8.16789L4.90796 8.54101C5.08009 8.63623 5.13797 8.85582 5.03513 9.02351C4.93861 9.1809 4.73534 9.23447 4.57379 9.14511L3.87218 8.757C3.79743 8.71379 3.72891 8.67059 3.66662 8.62739C3.63194 8.60334 3.55394 8.65308 3.56121 8.69465C3.57335 8.76404 3.57942 8.83784 3.57942 8.91605V9.63249C3.57942 9.83546 3.41488 10 3.21191 10Z" fill="#0067B1"/>
<path d="M8.19995 10C7.99698 10 7.83244 9.83546 7.83244 9.63249V8.92194C7.83244 8.8434 7.83659 8.76681 7.8449 8.69219C7.85181 8.65082 7.77348 8.60349 7.73901 8.62739C7.67672 8.67059 7.61027 8.71379 7.53968 8.757L6.84267 9.14083C6.68161 9.22952 6.4793 9.17683 6.38198 9.02083C6.27668 8.85203 6.33499 8.62943 6.50951 8.53393L7.1784 8.16789C7.25315 8.12469 7.32582 8.08935 7.39641 8.06186C7.42917 8.04981 7.42859 7.95756 7.39641 7.94403C7.32582 7.91262 7.25315 7.87531 7.1784 7.83211L6.50322 7.45861C6.33146 7.3636 6.27371 7.14448 6.37632 6.97715C6.47295 6.8196 6.6767 6.76639 6.83803 6.85659L7.53968 7.2489C7.61027 7.2921 7.67672 7.33726 7.73901 7.38439C7.73979 7.3849 7.74058 7.38541 7.74136 7.38593C7.77188 7.4059 7.8509 7.35556 7.8449 7.31959C7.83659 7.24497 7.83244 7.16838 7.83244 7.08984V6.36751C7.83244 6.16454 7.99698 6 8.19995 6C8.40292 6 8.56746 6.16454 8.56746 6.36751V7.07806C8.56746 7.16053 8.56123 7.24104 8.54877 7.31959C8.54477 7.35551 8.62497 7.40499 8.65466 7.38439C8.71695 7.33726 8.78547 7.2921 8.86022 7.2489L9.55793 6.86468C9.7186 6.7762 9.92041 6.82877 10.0175 6.98439C10.1229 7.1533 10.064 7.3761 9.88889 7.47087L9.2215 7.83211C9.14675 7.87531 9.07201 7.91262 8.99726 7.94403C8.95827 7.95922 8.9576 8.04938 8.99681 8.06399C9.06973 8.09117 9.14463 8.12581 9.2215 8.16789L9.896 8.54101C10.0681 8.63623 10.126 8.85582 10.0232 9.02351C9.92665 9.1809 9.72338 9.23447 9.56183 9.14511L8.86022 8.757C8.78547 8.71379 8.71695 8.67059 8.65466 8.62739C8.61998 8.60334 8.54198 8.65308 8.54925 8.69465C8.56139 8.76404 8.56746 8.83784 8.56746 8.91605V9.63249C8.56746 9.83546 8.40292 10 8.19995 10Z" fill="#0067B1"/>
<path d="M13.188 10C12.985 10 12.8205 9.83546 12.8205 9.63249V8.92194C12.8205 8.8434 12.8246 8.76681 12.8329 8.69219C12.8398 8.65082 12.7615 8.60349 12.727 8.62739C12.6648 8.67059 12.5983 8.71379 12.5277 8.757L11.8307 9.14083C11.6696 9.22952 11.4673 9.17683 11.37 9.02083C11.2647 8.85203 11.323 8.62943 11.4976 8.53393L12.1664 8.16789C12.2412 8.12469 12.3139 8.08935 12.3845 8.06186C12.4172 8.04981 12.4166 7.95756 12.3845 7.94403C12.3139 7.91262 12.2412 7.87531 12.1664 7.83211L11.4913 7.45861C11.3195 7.3636 11.2617 7.14448 11.3644 6.97715C11.461 6.8196 11.6647 6.76639 11.8261 6.85659L12.5277 7.2489C12.5983 7.2921 12.6648 7.33726 12.727 7.38439C12.7278 7.3849 12.7286 7.38541 12.7294 7.38593C12.7599 7.4059 12.8389 7.35556 12.8329 7.31959C12.8246 7.24497 12.8205 7.16838 12.8205 7.08984V6.36751C12.8205 6.16454 12.985 6 13.188 6C13.391 6 13.5555 6.16454 13.5555 6.36751V7.07806C13.5555 7.16053 13.5493 7.24104 13.5368 7.31959C13.5328 7.35551 13.613 7.40499 13.6427 7.38439C13.705 7.33726 13.7735 7.2921 13.8483 7.2489L14.546 6.86468C14.7066 6.7762 14.9085 6.82877 15.0055 6.98439C15.1109 7.1533 15.052 7.3761 14.8769 7.47087L14.2095 7.83211C14.1348 7.87531 14.06 7.91262 13.9853 7.94403C13.9463 7.95922 13.9456 8.04938 13.9848 8.06399C14.0578 8.09117 14.1327 8.12581 14.2095 8.16789L14.884 8.54101C15.0562 8.63623 15.1141 8.85582 15.0112 9.02351C14.9147 9.1809 14.7114 9.23447 14.5499 9.14511L13.8483 8.757C13.7735 8.71379 13.705 8.67059 13.6427 8.62739C13.608 8.60334 13.53 8.65308 13.5373 8.69465C13.5494 8.76404 13.5555 8.83784 13.5555 8.91605V9.63249C13.5555 9.83546 13.391 10 13.188 10Z" fill="#0067B1"/>
</svg>
