<svg width="16" height="16" viewBox="0 0 16 16" fill="none" xmlns="http://www.w3.org/2000/svg">
<path d="M3.09082 3.15381L3.77264 13.923C3.80502 14.5453 4.26355 15 4.86355 15H11.1363C11.7387 15 12.1887 14.5453 12.2272 13.923L12.909 3.15381" stroke="#EF3E42" stroke-linecap="round" stroke-linejoin="round"/>
<path d="M2 3.15381H14H2Z" fill="#EF3E42"/>
<path d="M2 3.15381H14" stroke="#EF3E42" stroke-miterlimit="10" stroke-linecap="round"/>
<path d="M5.81814 3.15385V1.8077C5.81782 1.70154 5.83877 1.59637 5.87978 1.49824C5.92078 1.4001 5.98104 1.31094 6.05707 1.23588C6.13311 1.16081 6.22343 1.10133 6.32284 1.06085C6.42225 1.02037 6.52879 0.999692 6.63632 1H9.36359C9.47113 0.999692 9.57766 1.02037 9.67707 1.06085C9.77648 1.10133 9.8668 1.16081 9.94284 1.23588C10.0189 1.31094 10.0791 1.4001 10.1201 1.49824C10.1611 1.59637 10.1821 1.70154 10.1818 1.8077V3.15385M7.99996 5.3077V12.8462M5.54541 5.3077L5.81814 12.8462M10.4545 5.3077L10.1818 12.8462" stroke="#EF3E42" stroke-linecap="round" stroke-linejoin="round"/>
</svg>
