<svg width="16" height="16" viewBox="0 0 16 16" fill="none" xmlns="http://www.w3.org/2000/svg">
<path d="M9.03362 3.72746C8.86315 5.26165 7.75512 6.54014 6.47663 6.54014C5.19814 6.54014 4.09011 5.26165 3.91964 3.72746C3.83441 2.19326 4.94244 1 6.47663 1C8.01082 1 9.11885 2.19326 9.03362 3.72746Z" stroke="#0067B1" stroke-linecap="round" stroke-linejoin="round"/>
<path d="M6.5 13H1.48795C1.11652 13 0.930806 12.6286 1.02366 12.35C1.48795 9.47143 4.27365 7.98572 6.9665 7.98572C7.2747 7.98572 7.5869 8.0057 7.89813 8.04566" stroke="#0067B1" stroke-miterlimit="10" stroke-linecap="round" stroke-linejoin="round"/>
<path d="M13.2099 9.60857V7.64821C13.2099 7.22204 13.0394 6.79588 12.6985 6.54018C12.3575 6.28448 11.9314 6.11401 11.5052 6.11401C11.079 6.11401 10.6529 6.28448 10.3119 6.54018C9.971 6.79588 9.80054 7.22204 9.80054 7.64821V9.60857" stroke="#0067B1" stroke-linecap="round" stroke-linejoin="round"/>
<path d="M13.9772 9.60852H9.20419C8.60756 9.60852 8.1814 10.0347 8.1814 10.5461V13.7849C8.1814 14.2963 8.60756 14.7225 9.20419 14.7225H13.9772C14.5739 14.7225 15 14.2963 15 13.7849V10.4609C15 10.0347 14.5739 9.60852 13.9772 9.60852Z" stroke="#0067B1" stroke-linecap="round" stroke-linejoin="round"/>
<path d="M11.5905 12.5064C11.8258 12.5064 12.0166 12.3156 12.0166 12.0802C12.0166 11.8449 11.8258 11.6541 11.5905 11.6541C11.3551 11.6541 11.1643 11.8449 11.1643 12.0802C11.1643 12.3156 11.3551 12.5064 11.5905 12.5064Z" stroke="#0067B1"/>
</svg>
