<svg width="16" height="16" viewBox="0 0 16 16" fill="none" xmlns="http://www.w3.org/2000/svg">
<path d="M9.7522 3.97142C9.56649 5.64284 8.35935 7.03569 6.9665 7.03569C5.57365 7.03569 4.36651 5.64284 4.18079 3.97142C4.08794 2.3 5.29508 1 6.9665 1C8.63792 1 9.84506 2.3 9.7522 3.97142Z" stroke="#0067B1" stroke-linecap="round" stroke-linejoin="round"/>
<path d="M7.5 14H1.48795C1.11652 14 0.930806 13.6286 1.02366 13.35C1.48795 10.4714 4.27365 8.98572 6.9665 8.98572C7.2747 8.98572 7.5869 9.0057 7.89813 9.04566" stroke="#0067B1" stroke-miterlimit="10" stroke-linecap="round" stroke-linejoin="round"/>
<path d="M12 15C13.6569 15 15 13.6569 15 12C15 10.3431 13.6569 9 12 9C10.3431 9 9 10.3431 9 12C9 13.6569 10.3431 15 12 15Z" stroke="#0067B1" stroke-miterlimit="10" stroke-linecap="round" stroke-linejoin="round"/>
<path d="M10 10L14 14L10 10Z" fill="#0067B1"/>
<path d="M10 10L14 14" stroke="#0067B1" stroke-miterlimit="10" stroke-linecap="round" stroke-linejoin="round"/>
</svg>
