<svg width="16" height="16" viewBox="0 0 16 16" fill="none" xmlns="http://www.w3.org/2000/svg">
<g clip-path="url(#clip0_2446_3246)">
<path d="M15 8V13.3333C15 14.2538 14.2768 15 13.3846 15H2.61538C1.72323 15 1 14.2538 1 13.3333V6.66667C1 5.74619 1.72323 5 2.61538 5H7.5" stroke="#0067B1" stroke-linecap="round" stroke-linejoin="round"/>
<path d="M15 5L10 5" stroke="#0067B1" stroke-linecap="round" stroke-linejoin="round"/>
<path d="M13 7L15 5L13 3" stroke="#0067B1" stroke-linecap="round" stroke-linejoin="round"/>
<path d="M1 6.66674V5.0786C0.999747 4.70125 1.12995 4.33564 1.36816 4.04483C1.60637 3.75402 1.93765 3.55624 2.30486 3.4856L8.33333 2" stroke="#0067B1" stroke-linecap="round" stroke-linejoin="round"/>
<path d="M12 11C11.8022 11 11.6089 10.9414 11.4444 10.8315C11.28 10.7216 11.1518 10.5654 11.0761 10.3827C11.0004 10.2 10.9806 9.99889 11.0192 9.80491C11.0578 9.61093 11.153 9.43275 11.2929 9.29289C11.4327 9.15304 11.6109 9.0578 11.8049 9.01922C11.9989 8.98063 12.2 9.00043 12.3827 9.07612C12.5654 9.15181 12.7216 9.27998 12.8315 9.44443C12.9414 9.60888 13 9.80222 13 10C13 10.2652 12.8946 10.5196 12.7071 10.7071C12.5196 10.8946 12.2652 11 12 11Z" fill="#0067B1"/>
</g>
<defs>
<clipPath id="clip0_2446_3246">
<rect width="16" height="16" fill="white"/>
</clipPath>
</defs>
</svg>
