<svg width="16" height="16" viewBox="0 0 16 16" fill="none" xmlns="http://www.w3.org/2000/svg">
<g clip-path="url(#clip0_2446_3251)">
<path d="M13.3846 4.66663H2.61538C1.72323 4.66663 1 5.41282 1 6.33329V13C1 13.9204 1.72323 14.6666 2.61538 14.6666H13.3846C14.2768 14.6666 15 13.9204 15 13V6.33329C15 5.41282 14.2768 4.66663 13.3846 4.66663Z" stroke="#0067B1" stroke-linecap="round" stroke-linejoin="round"/>
<path d="M13 4.5924V2.9534C12.9999 2.71493 12.9462 2.4794 12.8427 2.26364C12.7392 2.04788 12.5884 1.8572 12.4012 1.7052C12.214 1.5532 11.9948 1.44363 11.7595 1.38431C11.5241 1.32499 11.2783 1.31738 11.0396 1.36202L2.34214 3.15223C1.96444 3.22287 1.6237 3.42065 1.37868 3.71146C1.13367 4.00228 0.99974 4.36789 1 4.74523V6.33337" stroke="#0067B1" stroke-linecap="round" stroke-linejoin="round"/>
<path d="M11.3333 10.3334C11.1355 10.3334 10.9421 10.2747 10.7777 10.1648C10.6132 10.055 10.4851 9.89878 10.4094 9.71606C10.3337 9.53333 10.3139 9.33227 10.3525 9.13828C10.3911 8.9443 10.4863 8.76612 10.6261 8.62627C10.766 8.48642 10.9442 8.39117 11.1382 8.35259C11.3321 8.314 11.5332 8.33381 11.7159 8.40949C11.8987 8.48518 12.0548 8.61335 12.1647 8.7778C12.2746 8.94225 12.3333 9.13559 12.3333 9.33337C12.3333 9.59859 12.2279 9.85294 12.0404 10.0405C11.8528 10.228 11.5985 10.3334 11.3333 10.3334Z" fill="#0067B1"/>
</g>
<defs>
<clipPath id="clip0_2446_3251">
<rect width="16" height="16" fill="white"/>
</clipPath>
</defs>
</svg>
