<svg width="16" height="16" viewBox="0 0 16 16" fill="none" xmlns="http://www.w3.org/2000/svg">
<path d="M8 1C4.1344 1 1 4.1344 1 8C1 11.8656 4.1344 15 8 15C11.8656 15 15 11.8656 15 8C15 4.1344 11.8656 1 8 1Z" fill="#0067B1"/>
<path d="M7.5 7H8.25V11" stroke="white" stroke-linecap="round" stroke-linejoin="round"/>
<path d="M7.25 11.25H9.25H7.25Z" fill="white"/>
<path d="M7.25 11.25H9.25" stroke="white" stroke-miterlimit="10" stroke-linecap="round"/>
<path d="M8.2 4C8.06155 4 7.92622 4.04105 7.8111 4.11797C7.69599 4.19489 7.60627 4.30421 7.55328 4.43212C7.5003 4.56003 7.48644 4.70078 7.51345 4.83656C7.54046 4.97235 7.60713 5.09708 7.70503 5.19497C7.80292 5.29287 7.92765 5.35954 8.06344 5.38655C8.19922 5.41356 8.33997 5.3997 8.46788 5.34672C8.59579 5.29373 8.70511 5.20401 8.78203 5.0889C8.85895 4.97378 8.9 4.83845 8.9 4.7C8.9 4.51435 8.82625 4.3363 8.69497 4.20503C8.5637 4.07375 8.38565 4 8.2 4Z" fill="white"/>
</svg>
