<svg width="16" height="16" viewBox="0 0 16 16" fill="none" xmlns="http://www.w3.org/2000/svg">
<g clip-path="url(#clip0_9128_2061)">
<path fill-rule="evenodd" clip-rule="evenodd" d="M13.9354 5.247C15.3765 8.48364 13.9209 12.2757 10.6842 13.7167C9.4391 14.2711 8.11177 14.3967 6.86772 14.1573L6.39317 13.0914C7.63602 13.4911 9.02494 13.4523 10.3115 12.8795C13.0857 11.6443 14.3334 8.39401 13.0982 5.61975C13.079 5.57659 13.0593 5.53379 13.0391 5.49138L13.8766 5.11852C13.8966 5.16103 13.9162 5.20386 13.9354 5.247ZM3.05174 10.0927L2.21454 10.4655C0.77349 7.22884 2.22911 3.43683 5.46575 1.99579C6.86059 1.37476 8.35858 1.29171 9.7271 1.65734L10.2358 2.79996C8.87857 2.2203 7.2931 2.18536 5.8385 2.83299C3.06423 4.06818 1.81656 7.31847 3.05174 10.0927ZM6.46005 8.36462C7.27019 8.00392 7.63453 7.05478 7.27383 6.24464C6.91314 5.43451 5.96399 5.07017 5.15386 5.43086C4.34372 5.79156 3.97938 6.7407 4.34007 7.55084C4.70077 8.36097 5.64992 8.72532 6.46005 8.36462ZM6.43663 6.61739C6.59146 6.96515 6.43506 7.37258 6.0873 7.52741C5.73954 7.68224 5.33211 7.52585 5.17728 7.17809C5.02245 6.83033 5.17885 6.4229 5.52661 6.26807C5.87436 6.11324 6.28179 6.26963 6.43663 6.61739ZM11.1952 10.3723C12.0053 10.0116 12.3696 9.06243 12.0089 8.2523C11.6482 7.44216 10.6991 7.07782 9.88896 7.43851C9.07883 7.79921 8.71449 8.74835 9.07518 9.55849C9.43588 10.3686 10.385 10.733 11.1952 10.3723ZM11.1717 8.62504C11.3266 8.9728 11.1702 9.38023 10.8224 9.53506C10.4747 9.6899 10.0672 9.5335 9.91239 9.18574C9.75756 8.83798 9.91395 8.43055 10.2617 8.27572C10.6095 8.12089 11.0169 8.27729 11.1717 8.62504ZM7.00501 12.0074C6.76175 11.9377 6.62109 11.6839 6.69085 11.4406L8.62535 4.69423C8.69511 4.45097 8.94886 4.31031 9.19212 4.38006C9.43539 4.44982 9.57604 4.70357 9.50629 4.94683L7.57179 11.6933C7.50203 11.9365 7.24828 12.0772 7.00501 12.0074ZM5.24718 13.7262C5.15649 13.9625 4.89144 14.0805 4.65518 13.9898L3.14274 13.4092C2.90648 13.3185 2.78847 13.0535 2.87916 12.8172C2.96985 12.581 3.2349 12.463 3.47116 12.5536L3.95084 12.7378L3.39126 11.4809C3.28833 11.2497 3.3923 10.9789 3.62349 10.876C3.85468 10.773 4.12554 10.877 4.22847 11.1082L4.78805 12.365L4.97218 11.8853C5.06287 11.6491 5.32792 11.5311 5.56418 11.6218C5.80044 11.7125 5.91844 11.9775 5.82775 12.2138L5.24718 13.7262ZM11.8587 1.53815C11.6224 1.44746 11.3574 1.56546 11.2667 1.80172L10.6861 3.31417C10.5954 3.55043 10.7134 3.81547 10.9497 3.90616C11.186 3.99685 11.451 3.87885 11.5417 3.64259L11.7258 3.16291L12.2854 4.41974C12.3883 4.65093 12.6592 4.75491 12.8904 4.65197C13.1216 4.54904 13.2256 4.27818 13.1226 4.047L12.563 2.79016L13.0427 2.97429C13.279 3.06498 13.544 2.94698 13.6347 2.71072C13.7254 2.47446 13.6074 2.20941 13.3711 2.11872L11.8587 1.53815Z" fill="white"/>
<path d="M4.90637 8H11.0936H4.90637Z" fill="#EF3E42"/>
<path d="M4.90637 8H11.0936" stroke="white" stroke-width="0.875" stroke-miterlimit="10" stroke-linecap="round" stroke-linejoin="round"/>
</g>
<defs>
<clipPath id="clip0_9128_2061">
<rect width="14" height="14" fill="white" transform="translate(1 1)"/>
</clipPath>
</defs>
</svg>
