<svg width="96" height="96" viewBox="0 0 96 96" fill="none" xmlns="http://www.w3.org/2000/svg">
<path d="M48.0019 96.0003C57.1922 95.9997 66.1892 93.361 73.9239 88.3975C81.6586 83.4341 87.8058 76.3546 91.6351 68.0002H4.36865C8.19797 76.3546 14.3452 83.4341 22.0799 88.3975C29.8145 93.361 38.8115 95.9997 48.0019 96.0003Z" fill="#138808"/>
<path d="M48.0019 0C38.8115 0.000545374 29.8145 2.63929 22.0799 7.60274C14.3452 12.5662 8.19797 19.6457 4.36865 28H91.6351C87.8058 19.6457 81.6586 12.5662 73.9239 7.60274C66.1892 2.63929 57.1922 0.000545374 48.0019 0Z" fill="#FF9933"/>
<path d="M3.16362e-05 47.9998C-0.00690182 54.9038 1.4834 61.7272 4.36818 67.9997H91.6347C94.511 61.7245 96 54.9028 96 47.9998C96 41.0968 94.511 34.275 91.6347 27.9998H4.36818C1.48243 34.2719 -0.007918 41.0956 3.16362e-05 47.9998Z" fill="white"/>
<path d="M61.9137 42.8632C61.7793 42.8994 61.6372 42.895 61.5054 42.8506C61.3735 42.8061 61.2578 42.7236 61.1728 42.6134C61.0879 42.5031 61.0375 42.3702 61.0281 42.2314C61.0187 42.0926 61.0506 41.954 61.1199 41.8333C61.1892 41.7127 61.2927 41.6152 61.4173 41.5534C61.542 41.4915 61.6822 41.468 61.8202 41.4858C61.9582 41.5035 62.0879 41.5618 62.1927 41.6533C62.2976 41.7447 62.3731 41.8652 62.4095 41.9995C62.4349 42.0888 62.4421 42.1822 62.4308 42.2743C62.4194 42.3664 62.3898 42.4553 62.3436 42.5358C62.2974 42.6163 62.2355 42.6867 62.1617 42.743C62.0879 42.7992 62.0036 42.84 61.9137 42.8632Z" fill="#000066"/>
<path d="M62.7692 46.6397C62.5826 46.6397 62.4036 46.5656 62.2716 46.4336C62.1396 46.3016 62.0654 46.1226 62.0654 45.9359C62.0654 45.7493 62.1396 45.5703 62.2716 45.4383C62.4036 45.3063 62.5826 45.2322 62.7692 45.2322C62.9559 45.2322 63.1349 45.3063 63.2669 45.4383C63.3989 45.5703 63.473 45.7493 63.473 45.9359C63.473 46.1226 63.3989 46.3016 63.2669 46.4336C63.1349 46.5656 62.9559 46.6397 62.7692 46.6397Z" fill="#000066"/>
<path d="M62.6179 50.5112C62.4829 50.4766 62.3613 50.4027 62.2683 50.2989C62.1754 50.1951 62.1153 50.066 62.0958 49.9281C62.0763 49.7901 62.0981 49.6495 62.1586 49.524C62.2191 49.3985 62.3155 49.2937 62.4356 49.2231C62.5557 49.1524 62.694 49.1189 62.8331 49.1269C62.9722 49.1349 63.1058 49.184 63.217 49.268C63.3281 49.352 63.4119 49.4671 63.4576 49.5988C63.5032 49.7304 63.5088 49.8726 63.4736 50.0074C63.4266 50.1875 63.3101 50.3416 63.1497 50.436C62.9894 50.5304 62.7981 50.5574 62.6179 50.5112Z" fill="#000066"/>
<path d="M61.4662 54.1997C61.3458 54.1294 61.249 54.0249 61.188 53.8995C61.1271 53.7741 61.1048 53.6334 61.124 53.4953C61.1432 53.3572 61.2029 53.2278 61.2957 53.1237C61.3884 53.0196 61.51 52.9454 61.645 52.9106C61.78 52.8757 61.9224 52.8817 62.054 52.9278C62.1856 52.974 62.3004 53.0582 62.3841 53.1697C62.4678 53.2813 62.5164 53.4152 62.5239 53.5544C62.5313 53.6937 62.4972 53.832 62.4259 53.9518C62.331 54.1114 62.1769 54.2269 61.9971 54.2733C61.8174 54.3198 61.6265 54.2933 61.4662 54.1997Z" fill="#000066"/>
<path d="M61.9137 42.8632C61.7793 42.8994 61.6372 42.895 61.5054 42.8506C61.3735 42.8061 61.2578 42.7236 61.1728 42.6134C61.0879 42.5031 61.0375 42.3702 61.0281 42.2314C61.0187 42.0926 61.0506 41.954 61.1199 41.8333C61.1892 41.7127 61.2927 41.6152 61.4173 41.5534C61.542 41.4915 61.6822 41.468 61.8202 41.4858C61.9582 41.5035 62.0879 41.5618 62.1927 41.6533C62.2976 41.7447 62.3731 41.8652 62.4095 41.9995C62.4349 42.0888 62.4421 42.1822 62.4308 42.2743C62.4194 42.3664 62.3898 42.4553 62.3436 42.5358C62.2974 42.6163 62.2355 42.6867 62.1617 42.743C62.0879 42.7992 62.0036 42.84 61.9137 42.8632Z" fill="#000066"/>
<path d="M62.7692 46.6397C62.5826 46.6397 62.4036 46.5656 62.2716 46.4336C62.1396 46.3016 62.0654 46.1226 62.0654 45.9359C62.0654 45.7493 62.1396 45.5703 62.2716 45.4383C62.4036 45.3063 62.5826 45.2322 62.7692 45.2322C62.9559 45.2322 63.1349 45.3063 63.2669 45.4383C63.3989 45.5703 63.473 45.7493 63.473 45.9359C63.473 46.1226 63.3989 46.3016 63.2669 46.4336C63.1349 46.5656 62.9559 46.6397 62.7692 46.6397Z" fill="#000066"/>
<path d="M62.6179 50.5112C62.4829 50.4766 62.3613 50.4027 62.2683 50.2989C62.1754 50.1951 62.1153 50.066 62.0958 49.9281C62.0763 49.7901 62.0981 49.6495 62.1586 49.524C62.2191 49.3985 62.3155 49.2937 62.4356 49.2231C62.5557 49.1524 62.694 49.1189 62.8331 49.1269C62.9722 49.1349 63.1058 49.184 63.217 49.268C63.3281 49.352 63.4119 49.4671 63.4576 49.5988C63.5032 49.7304 63.5088 49.8726 63.4736 50.0074C63.4266 50.1875 63.3101 50.3416 63.1497 50.436C62.9894 50.5304 62.7981 50.5574 62.6179 50.5112Z" fill="#000066"/>
<path d="M61.4662 54.1997C61.3458 54.1294 61.249 54.0249 61.188 53.8995C61.1271 53.7741 61.1048 53.6334 61.124 53.4953C61.1432 53.3572 61.2029 53.2278 61.2957 53.1237C61.3884 53.0196 61.51 52.9454 61.645 52.9106C61.78 52.8757 61.9224 52.8817 62.054 52.9278C62.1856 52.974 62.3004 53.0582 62.3841 53.1697C62.4678 53.2813 62.5164 53.4152 62.5239 53.5544C62.5313 53.6937 62.4972 53.832 62.4259 53.9518C62.331 54.1114 62.1769 54.2269 61.9971 54.2733C61.8174 54.3198 61.6265 54.2933 61.4662 54.1997Z" fill="#000066"/>
<path d="M46.6405 33.2314C46.6405 33.3706 46.5992 33.5067 46.5219 33.6224C46.4445 33.7381 46.3346 33.8284 46.206 33.8816C46.0774 33.9349 45.9359 33.9488 45.7994 33.9217C45.6629 33.8945 45.5375 33.8275 45.439 33.729C45.3406 33.6306 45.2736 33.5052 45.2464 33.3687C45.2193 33.2322 45.2332 33.0907 45.2865 32.9621C45.3398 32.8335 45.43 32.7236 45.5457 32.6462C45.6614 32.5689 45.7975 32.5276 45.9367 32.5276C46.0294 32.5266 46.1214 32.544 46.2073 32.579C46.2932 32.614 46.3712 32.6658 46.4367 32.7314C46.5023 32.7969 46.5541 32.875 46.5891 32.9608C46.6241 33.0467 46.6416 33.1387 46.6405 33.2314Z" fill="#000066"/>
<path d="M50.5127 33.3836C50.4638 33.5625 50.347 33.7153 50.1872 33.8094C50.0274 33.9035 49.8371 33.9315 49.6569 33.8874C49.522 33.8528 49.4003 33.7789 49.3074 33.6751C49.2144 33.5713 49.1544 33.4423 49.1349 33.3043C49.1154 33.1664 49.1372 33.0257 49.1977 32.9002C49.2582 32.7747 49.3546 32.67 49.4747 32.5993C49.5947 32.5286 49.733 32.4951 49.8721 32.5031C50.0112 32.5111 50.1448 32.5602 50.256 32.6442C50.3672 32.7282 50.4509 32.8433 50.4966 32.9749C50.5423 33.1066 50.5479 33.2488 50.5127 33.3836Z" fill="#000066"/>
<path d="M54.2084 34.5279C54.115 34.6901 53.9611 34.8087 53.7803 34.8574C53.5996 34.9061 53.4069 34.8811 53.2446 34.7878C53.0824 34.6945 52.9638 34.5405 52.9151 34.3598C52.8664 34.179 52.8914 33.9864 52.9847 33.8241C53.078 33.6618 53.232 33.5433 53.4128 33.4946C53.5935 33.4458 53.7862 33.4709 53.9484 33.5642C54.1107 33.6575 54.2292 33.8115 54.278 33.9922C54.3267 34.1729 54.3017 34.3656 54.2084 34.5279Z" fill="#000066"/>
<path d="M57.4816 36.5995C57.349 36.7321 57.1692 36.8066 56.9818 36.8066C56.7943 36.8066 56.6145 36.7321 56.4819 36.5995C56.3494 36.467 56.2749 36.2872 56.2749 36.0997C56.2749 35.9122 56.3494 35.7324 56.4819 35.5999C56.5476 35.5342 56.6255 35.4822 56.7113 35.4467C56.7971 35.4111 56.8889 35.3928 56.9818 35.3928C57.0746 35.3928 57.1665 35.4111 57.2523 35.4467C57.3381 35.4822 57.416 35.5342 57.4816 35.5999C57.5473 35.6655 57.5994 35.7434 57.6349 35.8292C57.6704 35.915 57.6887 36.0069 57.6887 36.0997C57.6887 36.1925 57.6704 36.2845 57.6349 36.3702C57.5994 36.456 57.5473 36.5339 57.4816 36.5995Z" fill="#000066"/>
<path d="M60.1141 39.4397C59.9926 39.5122 59.8521 39.5469 59.7107 39.5392C59.5694 39.5315 59.4335 39.4818 59.3205 39.3965C59.2075 39.3112 59.1225 39.1941 59.0764 39.0603C59.0303 38.9264 59.0251 38.7819 59.0616 38.6451C59.0981 38.5083 59.1746 38.3855 59.2812 38.2924C59.3879 38.1992 59.5199 38.14 59.6603 38.1223C59.8008 38.1046 59.9433 38.1292 60.0698 38.1929C60.1962 38.2566 60.3008 38.3565 60.3701 38.48C60.463 38.6413 60.4882 38.8328 60.4403 39.0127C60.3923 39.1925 60.275 39.3461 60.1141 39.4397Z" fill="#000066"/>
<path d="M59.4008 57.4875C59.2689 57.3529 59.1951 57.1721 59.1951 56.9837C59.1951 56.7953 59.2689 56.6144 59.4008 56.4798C59.5334 56.3483 59.7128 56.2749 59.8995 56.2756C60.0862 56.2764 60.265 56.3513 60.3965 56.4838C60.528 56.6164 60.6015 56.7958 60.6007 56.9825C60.6 57.1692 60.5251 57.348 60.3925 57.4795C60.2607 57.6095 60.0834 57.6831 59.8983 57.6846C59.7131 57.6861 59.5347 57.6154 59.4008 57.4875Z" fill="#000066"/>
<path d="M56.5623 60.1037C56.5133 60.0248 56.4806 59.9369 56.4661 59.8451C56.4517 59.7533 56.4557 59.6595 56.4781 59.5693C56.5005 59.4791 56.5406 59.3943 56.5963 59.3199C56.652 59.2455 56.722 59.183 56.8023 59.1361C56.9662 59.0455 57.159 59.0225 57.3396 59.0718C57.5203 59.121 57.6747 59.2388 57.77 59.4C57.8173 59.4802 57.8481 59.569 57.8608 59.6612C57.8736 59.7534 57.8678 59.8473 57.844 59.9373C57.8202 60.0273 57.7788 60.1117 57.7222 60.1855C57.6656 60.2594 57.5948 60.3214 57.5141 60.3677C57.3521 60.4554 57.1624 60.4769 56.985 60.4277C56.8075 60.3784 56.656 60.2623 56.5623 60.1037Z" fill="#000066"/>
<path d="M53.1295 61.9041C53.1042 61.8148 53.097 61.7214 53.1084 61.6293C53.1197 61.5372 53.1493 61.4483 53.1955 61.3678C53.2417 61.2873 53.3035 61.2169 53.3774 61.1607C53.4512 61.1044 53.5356 61.0635 53.6254 61.0404C53.7615 61.002 53.906 61.005 54.0403 61.0491C54.1747 61.0932 54.2929 61.1763 54.3799 61.2878C54.4668 61.3993 54.5186 61.5342 54.5286 61.6752C54.5385 61.8163 54.5062 61.9572 54.4358 62.0798C54.3654 62.2024 54.2601 62.3014 54.1332 62.3639C54.0064 62.4264 53.8638 62.4497 53.7236 62.4309C53.5835 62.412 53.4521 62.3519 53.3463 62.2581C53.2405 62.1642 53.165 62.041 53.1295 61.9041Z" fill="#000066"/>
<path d="M49.3532 62.7595C49.3516 62.6181 49.3922 62.4794 49.4698 62.3611C49.5474 62.2428 49.6585 62.1503 49.7889 62.0955C49.9192 62.0406 50.0631 62.0259 50.2019 62.0531C50.3407 62.0803 50.4682 62.1482 50.5683 62.2482C50.6683 62.3483 50.7362 62.4758 50.7634 62.6146C50.7906 62.7534 50.7759 62.8972 50.721 63.0276C50.6661 63.158 50.5737 63.269 50.4554 63.3466C50.3371 63.4242 50.1984 63.4649 50.057 63.4633C49.871 63.4612 49.6932 63.3864 49.5616 63.2548C49.4301 63.1233 49.3553 62.9455 49.3532 62.7595Z" fill="#000066"/>
<path d="M45.4899 62.6156C45.5123 62.5257 45.5523 62.4412 45.6074 62.3668C45.6626 62.2924 45.7319 62.2296 45.8114 62.1821C45.8909 62.1345 45.9791 62.1032 46.0707 62.0897C46.1624 62.0763 46.2558 62.081 46.3456 62.1038C46.4354 62.1274 46.5197 62.1685 46.5936 62.2247C46.6675 62.2809 46.7296 62.3511 46.7764 62.4313C46.8232 62.5115 46.8537 62.6002 46.8662 62.6922C46.8788 62.7842 46.8731 62.8778 46.8495 62.9676C46.8258 63.0574 46.7847 63.1416 46.7285 63.2155C46.6723 63.2894 46.6021 63.3516 46.5219 63.3984C46.4417 63.4452 46.3531 63.4757 46.2611 63.4882C46.1691 63.5007 46.0755 63.495 45.9857 63.4714C45.8071 63.4226 45.655 63.3054 45.5621 63.1452C45.4693 62.9851 45.4433 62.7948 45.4899 62.6156Z" fill="#000066"/>
<path d="M41.7852 61.4556C41.8323 61.3756 41.8947 61.3056 41.9689 61.2497C42.0431 61.1939 42.1275 61.1532 42.2175 61.1302C42.3074 61.1071 42.4011 61.1021 42.493 61.1154C42.5849 61.1287 42.6732 61.1601 42.753 61.2077C42.8343 61.2524 42.9056 61.3132 42.9628 61.3863C43.02 61.4594 43.0618 61.5433 43.0857 61.6329C43.1096 61.7226 43.1151 61.8162 43.1019 61.908C43.0887 61.9999 43.0571 62.0881 43.0089 62.1674C42.9153 62.3283 42.7617 62.4455 42.5819 62.4935C42.402 62.5414 42.2105 62.5162 42.0492 62.4233C41.8895 62.3266 41.773 62.1723 41.7239 61.9922C41.6748 61.8121 41.6967 61.62 41.7852 61.4556Z" fill="#000066"/>
<path d="M38.5137 59.3996C38.6452 59.2671 38.8239 59.1922 39.0107 59.1914C39.1974 59.1907 39.3768 59.2641 39.5093 59.3956C39.6419 59.5271 39.7168 59.7059 39.7175 59.8926C39.7183 60.0794 39.6449 60.2587 39.5133 60.3913C39.3802 60.5226 39.2006 60.5964 39.0135 60.5964C38.8264 60.5964 38.6469 60.5226 38.5137 60.3913C38.3828 60.2594 38.3093 60.0812 38.3093 59.8955C38.3093 59.7097 38.3828 59.5315 38.5137 59.3996Z" fill="#000066"/>
<path d="M35.8888 56.552C36.0092 56.4819 36.1477 56.4492 36.2867 56.4579C36.4258 56.4667 36.5591 56.5164 36.6698 56.601C36.7805 56.6856 36.8637 56.8011 36.9087 56.9329C36.9537 57.0648 36.9586 57.207 36.9227 57.3416C36.8868 57.4762 36.8118 57.5972 36.7071 57.6891C36.6024 57.781 36.4728 57.8398 36.3346 57.858C36.1965 57.8763 36.0561 57.853 35.9311 57.7914C35.8062 57.7297 35.7024 57.6323 35.6328 57.5116C35.5858 57.432 35.555 57.3439 35.5424 57.2523C35.5298 57.1607 35.5356 57.0675 35.5594 56.9781C35.5832 56.8888 35.6246 56.805 35.6812 56.7319C35.7377 56.6587 35.8083 56.5976 35.8888 56.552Z" fill="#000066"/>
<path d="M34.0893 53.1199C34.2706 53.0735 34.4629 53.1003 34.6246 53.1946C34.7862 53.2889 34.9043 53.4431 34.9531 53.6237C34.9772 53.713 34.9836 53.8062 34.9717 53.8979C34.9599 53.9896 34.9301 54.0781 34.8841 54.1583C34.838 54.2385 34.7766 54.3089 34.7033 54.3653C34.6301 54.4218 34.5465 54.4633 34.4572 54.4875C34.368 54.5116 34.2748 54.518 34.1831 54.5061C34.0914 54.4943 34.0029 54.4645 33.9227 54.4185C33.8425 54.3724 33.7721 54.311 33.7156 54.2377C33.6591 54.1645 33.6176 54.0809 33.5935 53.9916C33.5444 53.8103 33.5689 53.6169 33.6618 53.4536C33.7547 53.2903 33.9084 53.1704 34.0893 53.1199Z" fill="#000066"/>
<path d="M33.2334 49.344C33.4208 49.3461 33.5997 49.422 33.7315 49.5553C33.8633 49.6885 33.9372 49.8684 33.9372 50.0558C33.9372 50.2424 33.863 50.4214 33.731 50.5534C33.599 50.6854 33.42 50.7595 33.2334 50.7595C33.0467 50.7595 32.8677 50.6854 32.7357 50.5534C32.6037 50.4214 32.5296 50.2424 32.5296 50.0558C32.5285 49.9627 32.546 49.8703 32.5809 49.784C32.6158 49.6977 32.6674 49.6192 32.7329 49.553C32.7984 49.4868 32.8763 49.4342 32.9622 49.3983C33.0481 49.3625 33.1403 49.344 33.2334 49.344Z" fill="#000066"/>
<path d="M33.3848 45.4802C33.5208 45.5166 33.643 45.5925 33.7358 45.6983C33.8286 45.8041 33.888 45.9351 33.9064 46.0747C33.9249 46.2142 33.9015 46.3561 33.8393 46.4823C33.7771 46.6086 33.6788 46.7136 33.5569 46.784C33.4351 46.8545 33.2951 46.8872 33.1546 46.8781C33.0142 46.8689 32.8796 46.8184 32.7678 46.7327C32.6561 46.6471 32.5723 46.5303 32.5269 46.397C32.4816 46.2638 32.4768 46.1201 32.5131 45.9841C32.5637 45.8028 32.6833 45.6486 32.8462 45.5544C33.0092 45.4602 33.2025 45.4336 33.3848 45.4802Z" fill="#000066"/>
<path d="M34.5285 41.7837C34.6492 41.8533 34.7466 41.9571 34.8083 42.082C34.8699 42.2069 34.8931 42.3474 34.8749 42.4855C34.8567 42.6236 34.7979 42.7532 34.706 42.8579C34.6141 42.9625 34.4931 43.0376 34.3585 43.0735C34.2239 43.1094 34.0816 43.1045 33.9498 43.0595C33.8179 43.0145 33.7024 42.9314 33.6178 42.8207C33.5333 42.71 33.4835 42.5766 33.4748 42.4376C33.466 42.2986 33.4988 42.1601 33.5688 42.0396C33.6653 41.8819 33.8188 41.7673 33.9975 41.7196C34.1761 41.672 34.3663 41.6949 34.5285 41.7837Z" fill="#000066"/>
<path d="M36.6 38.5118C36.7314 38.645 36.8051 38.8245 36.8051 39.0116C36.8051 39.1987 36.7314 39.3783 36.6 39.5115C36.5346 39.5775 36.4567 39.6299 36.3709 39.6657C36.2851 39.7014 36.1931 39.7198 36.1002 39.7198C36.0072 39.7198 35.9152 39.7014 35.8294 39.6657C35.7436 39.6299 35.6658 39.5775 35.6003 39.5115C35.4689 39.3783 35.3953 39.1987 35.3953 39.0116C35.3953 38.8245 35.4689 38.645 35.6003 38.5118C35.6658 38.4458 35.7436 38.3934 35.8294 38.3576C35.9152 38.3219 36.0072 38.3035 36.1002 38.3035C36.1931 38.3035 36.2851 38.3219 36.3709 38.3576C36.4567 38.3934 36.5346 38.4458 36.6 38.5118Z" fill="#000066"/>
<path d="M39.4403 35.8879C39.4876 35.9681 39.5185 36.0568 39.5312 36.1491C39.5439 36.2413 39.5382 36.3351 39.5144 36.4251C39.4906 36.5151 39.4492 36.5995 39.3925 36.6734C39.3359 36.7473 39.2651 36.8092 39.1844 36.8556C39.1043 36.9023 39.0157 36.9326 38.9238 36.9446C38.8318 36.9567 38.7384 36.9502 38.649 36.9256C38.5596 36.901 38.476 36.8588 38.4031 36.8015C38.3303 36.7441 38.2696 36.6728 38.2247 36.5916C38.1713 36.5116 38.1347 36.4215 38.1175 36.3268C38.1002 36.2322 38.1026 36.135 38.1244 36.0412C38.1462 35.9475 38.187 35.8592 38.2442 35.7819C38.3015 35.7045 38.3739 35.6397 38.4572 35.5915C38.5405 35.5433 38.6328 35.5127 38.7284 35.5016C38.824 35.4904 38.9208 35.499 39.013 35.5267C39.1051 35.5545 39.1906 35.6009 39.2641 35.663C39.3376 35.7251 39.3976 35.8017 39.4403 35.8879Z" fill="#000066"/>
<path d="M42.872 34.0796C42.9166 34.2618 42.889 34.4542 42.7951 34.6166C42.7012 34.779 42.5483 34.8989 42.3682 34.9513C42.2784 34.9754 42.1847 34.9814 42.0925 34.9691C42.0003 34.9567 41.9115 34.9263 41.8312 34.8794C41.7509 34.8326 41.6807 34.7703 41.6246 34.6962C41.5685 34.622 41.5276 34.5375 41.5044 34.4475C41.4689 34.3544 41.4533 34.255 41.4587 34.1556C41.464 34.0561 41.4901 33.959 41.5353 33.8703C41.5806 33.7816 41.644 33.7033 41.7213 33.6407C41.7987 33.578 41.8884 33.5322 41.9845 33.5064C42.0807 33.4805 42.1812 33.4751 42.2796 33.4905C42.3779 33.5059 42.472 33.5418 42.5556 33.5958C42.6392 33.6498 42.7106 33.7208 42.7651 33.8041C42.8196 33.8875 42.856 33.9813 42.872 34.0796Z" fill="#000066"/>
<path d="M47.6888 47.9517L48.1129 42.0477L47.6488 33.1597L47.2328 42.0557L47.6888 47.9517Z" fill="#000066"/>
<path d="M47.6891 47.9523L49.6252 42.3523L51.4812 33.6562L48.7771 42.1362L47.6891 47.9523Z" fill="#000066"/>
<path d="M47.6891 47.9524L51.0092 43.0484L55.0493 35.1204L50.2492 42.6164L47.6891 47.9524Z" fill="#000066"/>
<path d="M47.6891 47.9522L52.1692 44.0801L58.1214 37.4641L51.5452 43.4562L47.6891 47.9522Z" fill="#000066"/>
<path d="M47.6891 47.9518L53.0093 45.3598L60.4735 40.5198L52.5772 44.6078L47.6891 47.9518Z" fill="#000066"/>
<path d="M47.6891 47.9521L53.5053 46.8321L61.9695 44.0801L53.2733 45.9841L47.6891 47.9521Z" fill="#000066"/>
<path d="M47.6891 47.9521L53.5933 48.3761L62.4815 47.9041L53.5933 47.4961L47.6891 47.9521Z" fill="#000066"/>
<path d="M47.6891 47.9517L53.2892 49.8876L62.0015 51.7356L53.5133 49.0477L47.6891 47.9517Z" fill="#000066"/>
<path d="M47.6891 47.9517L52.5932 51.2636L60.5215 55.3116L53.0253 50.5116L47.6891 47.9517Z" fill="#000066"/>
<path d="M47.6891 47.9517L51.5692 52.4236L58.1774 58.3837L52.1852 51.7997L47.6891 47.9517Z" fill="#000066"/>
<path d="M47.6891 47.9517L50.2812 53.2796L55.1293 60.7437L51.0412 52.8397L47.6891 47.9517Z" fill="#000066"/>
<path d="M47.6891 47.9517L48.8091 53.7597L51.5612 62.2236L49.6572 53.5356L47.6891 47.9517Z" fill="#000066"/>
<path d="M47.6897 47.9517L47.2657 53.8557L47.7377 62.7437L48.1458 53.8557L47.6897 47.9517Z" fill="#000066"/>
<path d="M47.6887 47.9517L45.7527 53.5437L43.8966 62.2557L46.6007 53.7676L47.6887 47.9517Z" fill="#000066"/>
<path d="M47.6896 47.9517L44.3775 52.8477L40.3374 60.7837L45.1295 53.2796L47.6896 47.9517Z" fill="#000066"/>
<path d="M47.6899 47.9517L43.2178 51.8236L37.2656 58.4397L43.8338 52.4477L47.6899 47.9517Z" fill="#000066"/>
<path d="M47.6891 47.9517L42.369 50.5356L34.8967 55.3836L42.809 51.2957L47.6891 47.9517Z" fill="#000066"/>
<path d="M47.6896 47.9517L41.8814 49.0796L33.4092 51.8236L42.1134 49.9196L47.6896 47.9517Z" fill="#000066"/>
<path d="M47.6891 47.9516L41.785 47.5276L32.8967 47.9996L41.785 48.4076L47.6891 47.9516Z" fill="#000066"/>
<path d="M47.6901 47.952L42.0979 46.016L33.3937 44.168L41.874 46.864L47.6901 47.952Z" fill="#000066"/>
<path d="M47.6901 47.9523L42.786 44.6323L34.8578 40.6003L42.354 45.3923L47.6901 47.9523Z" fill="#000066"/>
<path d="M47.6898 47.9519L43.8177 43.4798L37.2015 37.5278L43.1937 44.0959L47.6898 47.9519Z" fill="#000066"/>
<path d="M47.6901 47.952L45.098 42.632L40.2499 35.168L44.338 43.064L47.6901 47.952Z" fill="#000066"/>
<path d="M47.6892 47.9517L46.5692 42.1437L43.8171 33.6716L45.7212 42.3676L47.6892 47.9517Z" fill="#000066"/>
<path d="M52.3454 31.7762C49.1355 30.9158 45.7426 31.0267 42.5957 32.0949C39.4489 33.163 36.6895 35.1404 34.6666 37.7769C32.6437 40.4134 31.4481 43.5905 31.2312 46.9065C31.0142 50.2226 31.7856 53.5285 33.4477 56.4061C35.1099 59.2837 37.5881 61.6037 40.5689 63.0727C43.5498 64.5417 46.8994 65.0938 50.194 64.659C53.4887 64.2241 56.5803 62.8221 59.078 60.63C61.5757 58.438 63.3672 55.5545 64.2258 52.3442C65.3767 48.0414 64.7717 43.4576 62.5439 39.6007C60.3161 35.7438 56.6478 32.9293 52.3454 31.7762ZM44.1452 62.3762C41.3031 61.6104 38.7518 60.0193 36.8136 57.804C34.8755 55.5887 33.6375 52.8487 33.2561 49.9301C32.8747 47.0115 33.367 44.0454 34.6708 41.4064C35.9746 38.7675 38.0313 36.5743 40.5812 35.1039C43.1311 33.6334 46.0596 32.9518 48.9967 33.1451C51.9339 33.3384 54.7478 34.3979 57.0829 36.1898C59.4181 37.9818 61.1697 40.4256 62.1164 43.2127C63.0631 45.9997 63.1624 49.0048 62.4017 51.8482C61.895 53.7386 61.0206 55.5106 59.8287 57.0629C58.6367 58.6152 57.1506 59.9175 55.4552 60.8952C53.7597 61.8729 51.8882 62.507 49.9476 62.7611C48.007 63.0152 46.0353 62.8844 44.1452 62.3762Z" fill="#000066"/>
<path d="M50.8878 48.7744C50.7346 49.3459 50.4153 49.8592 49.9703 50.2492C49.5253 50.6392 48.9746 50.8884 48.3879 50.9654C47.8012 51.0424 47.2049 50.9436 46.6743 50.6816C46.1438 50.4196 45.7029 50.0061 45.4074 49.4935C45.1119 48.9808 44.9751 48.3921 45.0143 47.8017C45.0534 47.2113 45.2669 46.6458 45.6275 46.1767C45.9882 45.7076 46.4799 45.3561 47.0404 45.1665C47.6009 44.9769 48.2051 44.9578 48.7764 45.1116C49.5419 45.3177 50.1943 45.8193 50.5902 46.5061C50.9861 47.1929 51.0931 48.0088 50.8878 48.7744Z" fill="#000066"/>
<path d="M54.2084 34.5279C54.115 34.6901 53.9611 34.8087 53.7803 34.8574C53.5996 34.9061 53.4069 34.8811 53.2446 34.7878C53.0824 34.6945 52.9638 34.5405 52.9151 34.3598C52.8664 34.179 52.8914 33.9864 52.9847 33.8241C53.078 33.6618 53.232 33.5433 53.4128 33.4946C53.5935 33.4458 53.7862 33.4709 53.9484 33.5642C54.1107 33.6575 54.2292 33.8115 54.278 33.9922C54.3267 34.1729 54.3017 34.3656 54.2084 34.5279Z" fill="#000066"/>
<path d="M57.4816 36.5995C57.349 36.7321 57.1692 36.8066 56.9818 36.8066C56.7943 36.8066 56.6145 36.7321 56.4819 36.5995C56.3494 36.467 56.2749 36.2872 56.2749 36.0997C56.2749 35.9122 56.3494 35.7324 56.4819 35.5999C56.5476 35.5342 56.6255 35.4822 56.7113 35.4467C56.7971 35.4111 56.8889 35.3928 56.9818 35.3928C57.0746 35.3928 57.1665 35.4111 57.2523 35.4467C57.3381 35.4822 57.416 35.5342 57.4816 35.5999C57.5473 35.6655 57.5994 35.7434 57.6349 35.8292C57.6704 35.915 57.6887 36.0069 57.6887 36.0997C57.6887 36.1925 57.6704 36.2845 57.6349 36.3702C57.5994 36.456 57.5473 36.5339 57.4816 36.5995Z" fill="#000066"/>
<path d="M60.1141 39.4397C59.9926 39.5122 59.8521 39.5469 59.7107 39.5392C59.5694 39.5315 59.4335 39.4818 59.3205 39.3965C59.2075 39.3112 59.1225 39.1941 59.0764 39.0603C59.0303 38.9264 59.0251 38.7819 59.0616 38.6451C59.0981 38.5083 59.1746 38.3855 59.2812 38.2924C59.3879 38.1992 59.5199 38.14 59.6603 38.1223C59.8008 38.1046 59.9433 38.1292 60.0698 38.1929C60.1962 38.2566 60.3008 38.3565 60.3701 38.48C60.463 38.6413 60.4882 38.8328 60.4403 39.0127C60.3923 39.1925 60.275 39.3461 60.1141 39.4397Z" fill="#000066"/>
<path d="M59.4008 57.4875C59.2689 57.3529 59.1951 57.1721 59.1951 56.9837C59.1951 56.7953 59.2689 56.6144 59.4008 56.4798C59.5334 56.3483 59.7128 56.2749 59.8995 56.2756C60.0862 56.2764 60.265 56.3513 60.3965 56.4838C60.528 56.6164 60.6015 56.7958 60.6007 56.9825C60.6 57.1692 60.5251 57.348 60.3925 57.4795C60.2607 57.6095 60.0834 57.6831 59.8983 57.6846C59.7131 57.6861 59.5347 57.6154 59.4008 57.4875Z" fill="#000066"/>
<path d="M56.5623 60.1037C56.5133 60.0248 56.4806 59.9369 56.4661 59.8451C56.4517 59.7533 56.4557 59.6595 56.4781 59.5693C56.5005 59.4791 56.5406 59.3943 56.5963 59.3199C56.652 59.2455 56.722 59.183 56.8023 59.1361C56.9662 59.0455 57.159 59.0225 57.3396 59.0718C57.5203 59.121 57.6747 59.2388 57.77 59.4C57.8173 59.4802 57.8481 59.569 57.8608 59.6612C57.8736 59.7534 57.8678 59.8473 57.844 59.9373C57.8202 60.0273 57.7788 60.1117 57.7222 60.1855C57.6656 60.2594 57.5948 60.3214 57.5141 60.3677C57.3521 60.4554 57.1624 60.4769 56.985 60.4277C56.8075 60.3784 56.656 60.2623 56.5623 60.1037Z" fill="#000066"/>
<path d="M53.1295 61.9041C53.1042 61.8148 53.097 61.7214 53.1084 61.6293C53.1197 61.5372 53.1493 61.4483 53.1955 61.3678C53.2417 61.2873 53.3035 61.2169 53.3774 61.1607C53.4512 61.1044 53.5356 61.0635 53.6254 61.0404C53.7615 61.002 53.906 61.005 54.0403 61.0491C54.1747 61.0932 54.2929 61.1763 54.3799 61.2878C54.4668 61.3993 54.5186 61.5342 54.5286 61.6752C54.5385 61.8163 54.5062 61.9572 54.4358 62.0798C54.3654 62.2024 54.2601 62.3014 54.1332 62.3639C54.0064 62.4264 53.8638 62.4497 53.7236 62.4309C53.5835 62.412 53.4521 62.3519 53.3463 62.2581C53.2405 62.1642 53.165 62.041 53.1295 61.9041Z" fill="#000066"/>
<path d="M49.3532 62.7595C49.3516 62.6181 49.3922 62.4794 49.4698 62.3611C49.5474 62.2428 49.6585 62.1503 49.7889 62.0955C49.9192 62.0406 50.0631 62.0259 50.2019 62.0531C50.3407 62.0803 50.4682 62.1482 50.5683 62.2482C50.6683 62.3483 50.7362 62.4758 50.7634 62.6146C50.7906 62.7534 50.7759 62.8972 50.721 63.0276C50.6661 63.158 50.5737 63.269 50.4554 63.3466C50.3371 63.4242 50.1984 63.4649 50.057 63.4633C49.871 63.4612 49.6932 63.3864 49.5616 63.2548C49.4301 63.1233 49.3553 62.9455 49.3532 62.7595Z" fill="#000066"/>
<path d="M45.4899 62.6156C45.5123 62.5257 45.5523 62.4412 45.6074 62.3668C45.6626 62.2924 45.7319 62.2296 45.8114 62.1821C45.8909 62.1345 45.9791 62.1032 46.0707 62.0897C46.1624 62.0763 46.2558 62.081 46.3456 62.1038C46.4354 62.1274 46.5197 62.1685 46.5936 62.2247C46.6675 62.2809 46.7296 62.3511 46.7764 62.4313C46.8232 62.5115 46.8537 62.6002 46.8662 62.6922C46.8788 62.7842 46.8731 62.8778 46.8495 62.9676C46.8258 63.0574 46.7847 63.1416 46.7285 63.2155C46.6723 63.2894 46.6021 63.3516 46.5219 63.3984C46.4417 63.4452 46.3531 63.4757 46.2611 63.4882C46.1691 63.5007 46.0755 63.495 45.9857 63.4714C45.8071 63.4226 45.655 63.3054 45.5621 63.1452C45.4693 62.9851 45.4433 62.7948 45.4899 62.6156Z" fill="#000066"/>
<path d="M41.7852 61.4556C41.8323 61.3756 41.8947 61.3056 41.9689 61.2497C42.0431 61.1939 42.1275 61.1532 42.2175 61.1302C42.3074 61.1071 42.4011 61.1021 42.493 61.1154C42.5849 61.1287 42.6732 61.1601 42.753 61.2077C42.8343 61.2524 42.9056 61.3132 42.9628 61.3863C43.02 61.4594 43.0618 61.5433 43.0857 61.6329C43.1096 61.7226 43.1151 61.8162 43.1019 61.908C43.0887 61.9999 43.0571 62.0881 43.0089 62.1674C42.9153 62.3283 42.7617 62.4455 42.5819 62.4935C42.402 62.5414 42.2105 62.5162 42.0492 62.4233C41.8895 62.3266 41.773 62.1723 41.7239 61.9922C41.6748 61.8121 41.6967 61.62 41.7852 61.4556Z" fill="#000066"/>
<path d="M38.5137 59.3996C38.6452 59.2671 38.8239 59.1922 39.0107 59.1914C39.1974 59.1907 39.3768 59.2641 39.5093 59.3956C39.6419 59.5271 39.7168 59.7059 39.7175 59.8926C39.7183 60.0794 39.6449 60.2587 39.5133 60.3913C39.3802 60.5226 39.2006 60.5964 39.0135 60.5964C38.8264 60.5964 38.6469 60.5226 38.5137 60.3913C38.3828 60.2594 38.3093 60.0812 38.3093 59.8955C38.3093 59.7097 38.3828 59.5315 38.5137 59.3996Z" fill="#000066"/>
<path d="M35.8888 56.552C36.0092 56.4819 36.1477 56.4492 36.2867 56.4579C36.4258 56.4667 36.5591 56.5164 36.6698 56.601C36.7805 56.6856 36.8637 56.8011 36.9087 56.9329C36.9537 57.0648 36.9586 57.207 36.9227 57.3416C36.8868 57.4762 36.8118 57.5972 36.7071 57.6891C36.6024 57.781 36.4728 57.8398 36.3346 57.858C36.1965 57.8763 36.0561 57.853 35.9311 57.7914C35.8062 57.7297 35.7024 57.6323 35.6328 57.5116C35.5858 57.432 35.555 57.3439 35.5424 57.2523C35.5298 57.1607 35.5356 57.0675 35.5594 56.9781C35.5832 56.8888 35.6246 56.805 35.6812 56.7319C35.7377 56.6587 35.8083 56.5976 35.8888 56.552Z" fill="#000066"/>
<path d="M34.0893 53.1199C34.2706 53.0735 34.4629 53.1003 34.6246 53.1946C34.7862 53.2889 34.9043 53.4431 34.9531 53.6237C34.9772 53.713 34.9836 53.8062 34.9717 53.8979C34.9599 53.9896 34.9301 54.0781 34.8841 54.1583C34.838 54.2385 34.7766 54.3089 34.7033 54.3653C34.6301 54.4218 34.5465 54.4633 34.4572 54.4875C34.368 54.5116 34.2748 54.518 34.1831 54.5061C34.0914 54.4943 34.0029 54.4645 33.9227 54.4185C33.8425 54.3724 33.7721 54.311 33.7156 54.2377C33.6591 54.1645 33.6176 54.0809 33.5935 53.9916C33.5444 53.8103 33.5689 53.6169 33.6618 53.4536C33.7547 53.2903 33.9084 53.1704 34.0893 53.1199Z" fill="#000066"/>
<path d="M33.2334 49.344C33.4208 49.3461 33.5997 49.422 33.7315 49.5553C33.8633 49.6885 33.9372 49.8684 33.9372 50.0558C33.9372 50.2424 33.863 50.4214 33.731 50.5534C33.599 50.6854 33.42 50.7595 33.2334 50.7595C33.0467 50.7595 32.8677 50.6854 32.7357 50.5534C32.6037 50.4214 32.5296 50.2424 32.5296 50.0558C32.5285 49.9627 32.546 49.8703 32.5809 49.784C32.6158 49.6977 32.6674 49.6192 32.7329 49.553C32.7984 49.4868 32.8763 49.4342 32.9622 49.3983C33.0481 49.3625 33.1403 49.344 33.2334 49.344Z" fill="#000066"/>
<path d="M33.3848 45.4802C33.5208 45.5166 33.643 45.5925 33.7358 45.6983C33.8286 45.8041 33.888 45.9351 33.9064 46.0747C33.9249 46.2142 33.9015 46.3561 33.8393 46.4823C33.7771 46.6086 33.6788 46.7136 33.5569 46.784C33.4351 46.8545 33.2951 46.8872 33.1546 46.8781C33.0142 46.8689 32.8796 46.8184 32.7678 46.7327C32.6561 46.6471 32.5723 46.5303 32.5269 46.397C32.4816 46.2638 32.4768 46.1201 32.5131 45.9841C32.5637 45.8028 32.6833 45.6486 32.8462 45.5544C33.0092 45.4602 33.2025 45.4336 33.3848 45.4802Z" fill="#000066"/>
<path d="M34.5285 41.7837C34.6492 41.8533 34.7466 41.9571 34.8083 42.082C34.8699 42.2069 34.8931 42.3474 34.8749 42.4855C34.8567 42.6236 34.7979 42.7532 34.706 42.8579C34.6141 42.9625 34.4931 43.0376 34.3585 43.0735C34.2239 43.1094 34.0816 43.1045 33.9498 43.0595C33.8179 43.0145 33.7024 42.9314 33.6178 42.8207C33.5333 42.71 33.4835 42.5766 33.4748 42.4376C33.466 42.2986 33.4988 42.1601 33.5688 42.0396C33.6653 41.8819 33.8188 41.7673 33.9975 41.7196C34.1761 41.672 34.3663 41.6949 34.5285 41.7837Z" fill="#000066"/>
<path d="M36.6 38.5118C36.7314 38.645 36.8051 38.8245 36.8051 39.0116C36.8051 39.1987 36.7314 39.3783 36.6 39.5115C36.5346 39.5775 36.4567 39.6299 36.3709 39.6657C36.2851 39.7014 36.1931 39.7198 36.1002 39.7198C36.0072 39.7198 35.9152 39.7014 35.8294 39.6657C35.7436 39.6299 35.6658 39.5775 35.6003 39.5115C35.4689 39.3783 35.3953 39.1987 35.3953 39.0116C35.3953 38.8245 35.4689 38.645 35.6003 38.5118C35.6658 38.4458 35.7436 38.3934 35.8294 38.3576C35.9152 38.3219 36.0072 38.3035 36.1002 38.3035C36.1931 38.3035 36.2851 38.3219 36.3709 38.3576C36.4567 38.3934 36.5346 38.4458 36.6 38.5118Z" fill="#000066"/>
<path d="M39.4403 35.8879C39.4876 35.9681 39.5185 36.0568 39.5312 36.1491C39.5439 36.2413 39.5382 36.3351 39.5144 36.4251C39.4906 36.5151 39.4492 36.5995 39.3925 36.6734C39.3359 36.7473 39.2651 36.8092 39.1844 36.8556C39.1043 36.9023 39.0157 36.9326 38.9238 36.9446C38.8318 36.9567 38.7384 36.9502 38.649 36.9256C38.5596 36.901 38.476 36.8588 38.4031 36.8015C38.3303 36.7441 38.2696 36.6728 38.2247 36.5916C38.1713 36.5116 38.1347 36.4215 38.1175 36.3268C38.1002 36.2322 38.1026 36.135 38.1244 36.0412C38.1462 35.9475 38.187 35.8592 38.2442 35.7819C38.3015 35.7045 38.3739 35.6397 38.4572 35.5915C38.5405 35.5433 38.6328 35.5127 38.7284 35.5016C38.824 35.4904 38.9208 35.499 39.013 35.5267C39.1051 35.5545 39.1906 35.6009 39.2641 35.663C39.3376 35.7251 39.3976 35.8017 39.4403 35.8879Z" fill="#000066"/>
<path d="M42.872 34.0796C42.9166 34.2618 42.889 34.4542 42.7951 34.6166C42.7012 34.779 42.5483 34.8989 42.3682 34.9513C42.2784 34.9754 42.1847 34.9814 42.0925 34.9691C42.0003 34.9567 41.9115 34.9263 41.8312 34.8794C41.7509 34.8326 41.6807 34.7703 41.6246 34.6962C41.5685 34.622 41.5276 34.5375 41.5044 34.4475C41.4689 34.3544 41.4533 34.255 41.4587 34.1556C41.464 34.0561 41.4901 33.959 41.5353 33.8703C41.5806 33.7816 41.644 33.7033 41.7213 33.6407C41.7987 33.578 41.8884 33.5322 41.9845 33.5064C42.0807 33.4805 42.1812 33.4751 42.2796 33.4905C42.3779 33.5059 42.472 33.5418 42.5556 33.5958C42.6392 33.6498 42.7106 33.7208 42.7651 33.8041C42.8196 33.8875 42.856 33.9813 42.872 34.0796Z" fill="#000066"/>
<path d="M46.6405 33.2314C46.6405 33.3706 46.5992 33.5067 46.5219 33.6224C46.4445 33.7381 46.3346 33.8284 46.206 33.8816C46.0774 33.9349 45.9359 33.9488 45.7994 33.9217C45.6629 33.8945 45.5375 33.8275 45.439 33.729C45.3406 33.6306 45.2736 33.5052 45.2464 33.3687C45.2193 33.2322 45.2332 33.0907 45.2865 32.9621C45.3398 32.8335 45.43 32.7236 45.5457 32.6462C45.6614 32.5689 45.7975 32.5276 45.9367 32.5276C46.0294 32.5266 46.1214 32.544 46.2073 32.579C46.2932 32.614 46.3712 32.6658 46.4367 32.7314C46.5023 32.7969 46.5541 32.875 46.5891 32.9608C46.6241 33.0467 46.6416 33.1387 46.6405 33.2314Z" fill="#000066"/>
<circle cx="48" cy="48" r="46.4" stroke="#E5E7E9" stroke-width="3.2"/>
</svg>
