<svg width="40" height="40" viewBox="0 0 40 40" fill="none" xmlns="http://www.w3.org/2000/svg">
<rect x="3" y="14" width="34" height="26" rx="6" fill="#78C5FF"/>
<path d="M28 14V10C28 5.58172 24.4183 2 20 2C15.5817 2 12 5.58172 12 10V14" stroke="#78C5FF" stroke-width="4"/>
<path d="M23.2689 31.2332C23.3031 31.4511 23.2904 31.6739 23.2317 31.8863C23.1729 32.0986 23.0695 32.2956 22.9285 32.4635C22.7876 32.6314 22.6124 32.7663 22.4152 32.8589C22.2179 32.9516 22.0032 32.9997 21.7859 33H18.2211C18.0031 33.0007 17.7877 32.9534 17.5896 32.8612C17.3915 32.769 17.2155 32.6342 17.0738 32.4662C16.932 32.2981 16.828 32.1009 16.7688 31.888C16.7096 31.6751 16.6968 31.4516 16.7311 31.2332L17.2393 28.0036C16.8486 27.6233 16.5374 27.167 16.3245 26.6618C16.1115 26.1567 16.0012 25.6131 16 25.0636C15.9991 24.5297 16.102 24.0008 16.3029 23.5074C16.5037 23.014 16.7986 22.5656 17.1706 22.1881C17.5425 21.8106 17.9842 21.5114 18.4704 21.3075C18.9565 21.1036 19.4775 20.9991 20.0035 21C20.5289 21 21.0492 21.1052 21.5345 21.3095C22.0198 21.5138 22.4607 21.8133 22.8319 22.1907C23.2031 22.5681 23.4974 23.0161 23.6978 23.509C23.8982 24.002 24.0009 24.5303 24 25.0636C24.0004 25.6133 23.8908 26.1574 23.6778 26.6628C23.4647 27.1682 23.1527 27.6243 22.7607 28.0036L23.2689 31.2332Z" fill="#0067B1"/>
</svg>
