<svg width="96" height="97" viewBox="0 0 96 97" fill="none" xmlns="http://www.w3.org/2000/svg">
<g clip-path="url(#clip0_6227_18573)">
<path d="M28.6989 100.262C34.8065 102.802 41.3699 104.108 48 104.104C54.6302 104.108 61.1938 102.802 67.3015 100.263C73.4092 97.7235 83.381 89.5579 88 84.8757C85.3521 81.1607 77.5337 73.5584 73.631 71.1424C66.4466 66.6035 57.3432 64.1035 48 64.1035C38.6568 64.1035 29.5534 66.6035 22.3605 71.1424C18.4611 73.5595 10.6457 81.1617 8 84.8757C12.6194 89.5574 22.5912 97.7227 28.6989 100.262Z" fill="#0067B1"/>
<path d="M47.9997 18.1035C42.1998 18.1035 36.9559 20.1563 33.2295 23.8869C29.4708 27.6563 27.6296 32.7785 28.062 38.3118C28.9149 49.2146 37.8735 58.1035 47.9997 58.1035C58.1259 58.1035 67.0668 49.2146 67.9374 38.3146C68.3726 32.8257 66.5286 27.7202 62.7375 23.9202C58.9964 20.1702 53.7995 18.1035 47.9997 18.1035Z" fill="url(#paint0_linear_6227_18573)"/>
</g>
<defs>
<linearGradient id="paint0_linear_6227_18573" x1="42.8551" y1="19.4915" x2="42.8551" y2="56.0119" gradientUnits="userSpaceOnUse">
<stop stop-color="#99D4FF"/>
<stop offset="1" stop-color="#5CB5F9"/>
</linearGradient>
<clipPath id="clip0_6227_18573">
<path d="M0 0.103516H96V48.1035C96 74.6132 74.5097 96.1035 48 96.1035C21.4903 96.1035 0 74.6132 0 48.1035V0.103516Z" fill="white"/>
</clipPath>
</defs>
</svg>
