<svg width="96" height="96" viewBox="0 0 96 96" fill="none" xmlns="http://www.w3.org/2000/svg">
<g clip-path="url(#clip0_3865_6235)">
<path d="M28.6989 100.159C34.8065 102.698 41.3699 104.004 48 104C54.6302 104.005 61.1938 102.699 67.3015 100.159C73.4092 97.62 83.381 89.4544 88 84.7722C85.3521 81.0572 77.5337 73.4549 73.631 71.0389C66.4466 66.5 57.3432 64 48 64C38.6568 64 29.5534 66.5 22.3605 71.0389C18.4611 73.456 10.6457 81.0582 8 84.7722C12.6194 89.4539 22.5912 97.6192 28.6989 100.159Z" fill="#0067B1"/>
<path d="M47.9997 18C42.1998 18 36.9559 20.0528 33.2295 23.7833C29.4708 27.5528 27.6296 32.675 28.062 38.2083C28.9149 49.1111 37.8735 58 47.9997 58C58.1259 58 67.0668 49.1111 67.9374 38.2111C68.3726 32.7222 66.5286 27.6167 62.7375 23.8167C58.9964 20.0667 53.7995 18 47.9997 18Z" fill="url(#paint0_linear_3865_6235)"/>
</g>
<defs>
<linearGradient id="paint0_linear_3865_6235" x1="42.8551" y1="19.388" x2="42.8551" y2="55.9084" gradientUnits="userSpaceOnUse">
<stop stop-color="#99D4FF"/>
<stop offset="1" stop-color="#5CB5F9"/>
</linearGradient>
<clipPath id="clip0_3865_6235">
<path d="M0 0H96V48C96 74.5097 74.5097 96 48 96C21.4903 96 0 74.5097 0 48V0Z" fill="white"/>
</clipPath>
</defs>
</svg>
