<svg width="64" height="64" viewBox="0 0 64 64" fill="none" xmlns="http://www.w3.org/2000/svg">
<path d="M32 4C16.5376 4 4 16.5376 4 32C4 47.4624 16.5376 60 32 60C47.4624 60 60 47.4624 60 32C60 16.5376 47.4624 4 32 4Z" fill="#0067B1"/>
<path d="M30 28H33V44" stroke="white" stroke-width="4" stroke-linecap="round" stroke-linejoin="round"/>
<path d="M29 45H37H29Z" fill="white"/>
<path d="M29 45H37" stroke="white" stroke-width="4" stroke-miterlimit="10" stroke-linecap="round"/>
<path d="M32.8 16C32.2462 16 31.7049 16.1642 31.2444 16.4719C30.7839 16.7796 30.4251 17.2169 30.2131 17.7285C30.0012 18.2401 29.9458 18.8031 30.0538 19.3463C30.1618 19.8894 30.4285 20.3883 30.8201 20.7799C31.2117 21.1715 31.7106 21.4382 32.2537 21.5462C32.7969 21.6542 33.3599 21.5988 33.8715 21.3869C34.3831 21.1749 34.8204 20.8161 35.1281 20.3556C35.4358 19.8951 35.6 19.3538 35.6 18.8C35.6 18.0574 35.305 17.3452 34.7799 16.8201C34.2548 16.295 33.5426 16 32.8 16Z" fill="white"/>
</svg>
