<svg width="64" height="64" viewBox="0 0 64 64" fill="none" xmlns="http://www.w3.org/2000/svg">
<path fill-rule="evenodd" clip-rule="evenodd" d="M55.7418 20.9885C61.506 33.935 55.6835 49.1031 42.7369 54.8673C37.7564 57.0848 32.4471 57.5875 27.4709 56.6295L25.5727 52.3661C30.5441 53.9651 36.0998 53.8097 41.2459 51.5184C52.343 46.5777 57.3337 33.5765 52.393 22.4795C52.3161 22.3068 52.2373 22.1357 52.1565 21.966L55.5063 20.4746C55.5865 20.6446 55.665 20.8159 55.7418 20.9885ZM12.207 40.3714L8.85814 41.8624C3.09396 28.9159 8.91643 13.7478 21.863 7.98363C27.4424 5.49953 33.4343 5.16733 38.9084 6.62984L40.9433 11.2003C35.5143 8.88168 29.1724 8.74194 23.354 11.3325C12.2569 16.2732 7.26625 29.2744 12.207 40.3714ZM25.8402 33.459C29.0807 32.0162 30.5381 28.2196 29.0953 24.9791C27.6526 21.7385 23.856 20.2811 20.6154 21.7239C17.3749 23.1667 15.9175 26.9633 17.3603 30.2038C18.8031 33.4444 22.5997 34.9018 25.8402 33.459ZM25.7465 26.4701C26.3658 27.8611 25.7402 29.4908 24.3492 30.1101C22.9582 30.7295 21.3285 30.1039 20.7091 28.7128C20.0898 27.3218 20.7154 25.6921 22.1064 25.0728C23.4975 24.4534 25.1272 25.079 25.7465 26.4701ZM44.7806 41.4896C48.0212 40.0468 49.4785 36.2502 48.0358 33.0097C46.593 29.7691 42.7964 28.3118 39.5559 29.7545C36.3153 31.1973 34.8579 34.9939 36.3007 38.2344C37.7435 41.475 41.5401 42.9324 44.7806 41.4896ZM44.6869 34.5007C45.3063 35.8917 44.6807 37.5214 43.2896 38.1407C41.8986 38.7601 40.2689 38.1345 39.6496 36.7434C39.0302 35.3524 39.6558 33.7227 41.0469 33.1034C42.4379 32.484 44.0676 33.1096 44.6869 34.5007ZM28.0201 48.0302C27.047 47.7511 26.4844 46.7361 26.7634 45.7631L34.5014 18.7774C34.7804 17.8043 35.7954 17.2417 36.7685 17.5207C37.7415 17.7998 38.3042 18.8148 38.0252 19.7878L30.2871 46.7735C30.0081 47.7465 28.9931 48.3092 28.0201 48.0302ZM20.9887 54.9053C20.6259 55.8504 19.5658 56.3224 18.6207 55.9596L12.5709 53.6373C11.6259 53.2746 11.1539 52.2144 11.5167 51.2694C11.8794 50.3243 12.9396 49.8523 13.8846 50.2151L15.8034 50.9516L13.565 45.9242C13.1533 44.9995 13.5692 43.916 14.494 43.5043C15.4187 43.0926 16.5022 43.5085 16.9139 44.4332L19.1522 49.4606L19.8887 47.5419C20.2515 46.5968 21.3117 46.1248 22.2567 46.4876C23.2018 46.8503 23.6738 47.9105 23.311 48.8556L20.9887 54.9053ZM47.4348 6.15308C46.4898 5.79031 45.4296 6.26234 45.0668 7.20737L42.7445 13.2572C42.3818 14.2022 42.8538 15.2624 43.7988 15.6251C44.7439 15.9879 45.804 15.5159 46.1668 14.5708L46.9033 12.6521L49.1417 17.6795C49.5534 18.6042 50.6368 19.0201 51.5616 18.6084C52.4863 18.1967 52.9022 17.1132 52.4905 16.1885L50.2522 11.1611L52.1709 11.8976C53.1159 12.2604 54.1761 11.7884 54.5389 10.8434C54.9016 9.89832 54.4296 8.83814 53.4846 8.47537L47.4348 6.15308Z" fill="white"/>
<path d="M19.6255 32H44.3742H19.6255Z" fill="#EF3E42"/>
<path d="M19.6255 32H44.3742" stroke="white" stroke-width="3.5" stroke-miterlimit="10" stroke-linecap="round" stroke-linejoin="round"/>
</svg>
